<svg viewBox="0 0 128 128" xmlns="http://www.w3.org/2000/svg"><path d="M82.42 77H28.58A5.58 5.58 0 0 0 23 82.58v27.84a5.58 5.58 0 0 0 5.58 5.58h53.84a5.58 5.58 0 0 0 5.58-5.58V82.58A5.58 5.58 0 0 0 82.42 77Zm-26.91 23.7a3.82 3.82 0 1 1 3.82-3.82 3.81 3.81 0 0 1-3.82 3.82Z" fill="#61e076" class="fill-79c651"></path><path d="M18 115v3.54a4.46 4.46 0 0 0 4.46 4.46h65.08a4.46 4.46 0 0 0 4.46-4.46V115Z" fill="#61e076" class="fill-79c651"></path><path d="M79 60.72c-3.56-2.55-5.78-6.12-5.78-10.09 0-7.7 8.36-14 18.66-14s18.67 6.25 18.67 14-8.36 14-18.67 14a24.49 24.49 0 0 1-5.76-.69 14.22 14.22 0 0 1-4.09 3.18 14.83 14.83 0 0 1-4.66 1.5 11.93 11.93 0 0 0 1.64-4.49 11.7 11.7 0 0 0-.01-3.41Z" stroke="#59af17" fill="none" stroke-linecap="round" stroke-linejoin="round" stroke-width="3px" class="stroke-252d32"></path><path d="M93.69 69.34a23.57 23.57 0 0 0 9.14 1.79 23.92 23.92 0 0 0 5.76-.69 14.19 14.19 0 0 0 4.09 3.18 14.54 14.54 0 0 0 4.67 1.5 11.92 11.92 0 0 1-1.65-4.49 11.7 11.7 0 0 1 0-3.37c3.56-2.54 5.78-6.12 5.78-10.08 0-4.4-2.72-8.33-7-10.88" stroke="#eeeeef" fill="none" stroke-linecap="round" stroke-linejoin="round" stroke-width="3px" class="stroke-ffc960"></path><path d="M7.5 123.5h97" stroke="#59af17" fill="none" stroke-linecap="round" stroke-linejoin="round" stroke-width="3px" class="stroke-252d32"></path><rect height="40" rx="5.58" width="67" x="21.5" y="76.5" stroke="#59af17" fill="none" stroke-linecap="round" stroke-linejoin="round" stroke-width="3px" class="stroke-252d32"></rect><path d="M22.5 115.5h-5v3a5 5 0 0 0 5 5h65a5 5 0 0 0 5-5v-3h-5" stroke="#59af17" fill="none" stroke-linecap="round" stroke-linejoin="round" stroke-width="3px" class="stroke-252d32"></path><path d="M84.66 48.72a2.18 2.18 0 1 0 2.18 2.18 2.18 2.18 0 0 0-2.18-2.18ZM92.29 48.72a2.18 2.18 0 1 0 2.18 2.18 2.19 2.19 0 0 0-2.18-2.18ZM99.92 48.72a2.18 2.18 0 1 0 2.18 2.18 2.19 2.19 0 0 0-2.18-2.18Z" fill="#61e076" class="fill-79c651"></path><path d="M57.5 47.5h2.77c3.23 0 5.23-2 5.23-4.2v-6.8" stroke="#59af17" fill="none" stroke-linecap="round" stroke-linejoin="round" stroke-width="3px" class="stroke-252d32"></path><rect height="5" rx="2.31" width="8" x="50" y="45" fill="#59af17" class="fill-252d32"></rect><path d="m29 34 4.54-2s.68-10.58 7.84-13c4.23-1.44 16.68 2 19.59 2.36a17.18 17.18 0 0 0 5-.16V33h3c2.49-4.15 2.63-10.22 1.17-14.18l2.52-8.26c-2-.31-4-.21-6.06-1.73-4.34-3.13-10-6.46-16.12-6.13-5.6.3-10.12 5.11-10.12 5.11S33.07 9.65 30 15s-1 19-1 19Z" fill="#eeeeef" class="fill-ffc960"></path><path d="M32.5 32.5h-.12a2.89 2.89 0 0 0-2.87 3.21l.09.75a3.52 3.52 0 0 0 3.5 3.13M12.5 110.5V87c0-12.54 6.53-18.48 18.71-22.9 5-1.81 9.29-3.64 9.29-9.1v-1.5M57.5 53.5v1.33c0 5.5 4.33 7.34 9.36 9.17 1.4.51 2.72 1 4 1.59M49.5 41.5h.81a2.19 2.19 0 0 0 2.19-2.19v-4.64c0-2.81 1.07-4.27 2.46-4.32h4.18" stroke="#59af17" fill="none" stroke-linecap="round" stroke-linejoin="round" stroke-width="3px" class="stroke-252d32"></path><path d="M57.47 53.13A15.41 15.41 0 0 1 49.11 56c-7 0-15.61-7.62-15.61-17.29V30.5M65.5 22.5v10M44.5 30.5h-4M28.5 27.5c-1.92-9.59 2.87-16.8 11-19.12M70.51 29.26c1.28-4.12.67-7.27-.4-11" stroke="#59af17" fill="none" stroke-linecap="round" stroke-linejoin="round" stroke-width="3px" class="stroke-252d32"></path><path d="M33.5 30.5s1-10.36 9.13-11.53 27.08 11.48 30-8.27M72 10.7c-6.39 0-8.14-5.23-16.85-7-11.45-2.29-15.1 4.65-15.1 4.65M61.72 62c0 4.13-5.54 7.49-12.36 7.49S37 66.13 37 62" stroke="#59af17" fill="none" stroke-linecap="round" stroke-linejoin="round" stroke-width="3px" class="stroke-252d32"></path><circle cx="42.5" cy="35.5" r="1.5" fill="#59af17" class="fill-252d32"></circle><circle cx="57.5" cy="35.5" r="1.5" fill="#59af17" class="fill-252d32"></circle></svg>