<svg xmlns="http://www.w3.org/2000/svg" version="1.1" xmlns:xlink="http://www.w3.org/1999/xlink" width="512" height="512" x="0" y="0" viewBox="0 0 256 256" style="enable-background:new 0 0 512 512" xml:space="preserve" class=""><g><path fill="#59af17" d="M227.097 29.597v29.221H28.903V29.597a8.474 8.474 0 0 1 8.47-8.47h19.269v11.011c0 3.278 2.651 5.929 5.929 5.929s5.929-2.651 5.929-5.929V21.127h31.762v11.011c0 3.278 2.651 5.929 5.929 5.929s5.929-2.651 5.929-5.929V21.127h31.762v11.011c0 3.278 2.651 5.929 5.929 5.929s5.929-2.651 5.929-5.929V21.127h31.762v11.011c0 3.278 2.651 5.929 5.929 5.929s5.929-2.651 5.929-5.929V21.127h19.269c4.674 0 8.468 3.795 8.468 8.47z" opacity="1" data-original="#72c2e9"></path><path fill="#efefef" d="M227.1 58.822v141.34c0 4.68-3.8 8.47-8.47 8.47h-52.16a41.738 41.738 0 0 0 2.99-15.57c0-23.16-18.77-41.93-41.93-41.93s-41.94 18.77-41.94 41.93c0 5.5 1.06 10.76 2.99 15.57H37.37c-4.67 0-8.47-3.79-8.47-8.47V58.822z" opacity="1" data-original="#efefef"></path><path fill="#7d7b7a" d="M68.499 10.116v22.022c0 3.278-2.651 5.929-5.929 5.929s-5.929-2.651-5.929-5.929V10.116a5.925 5.925 0 0 1 5.929-5.929 5.924 5.924 0 0 1 5.929 5.929zM112.119 10.116v22.022c0 3.278-2.651 5.929-5.929 5.929s-5.929-2.651-5.929-5.929V10.116a5.925 5.925 0 0 1 5.929-5.929 5.924 5.924 0 0 1 5.929 5.929zM155.739 10.116v22.022c0 3.278-2.651 5.929-5.929 5.929s-5.929-2.651-5.929-5.929V10.116a5.925 5.925 0 0 1 5.929-5.929 5.925 5.925 0 0 1 5.929 5.929zM199.358 10.116v22.022c0 3.278-2.651 5.929-5.929 5.929s-5.929-2.651-5.929-5.929V10.116a5.925 5.925 0 0 1 5.929-5.929 5.924 5.924 0 0 1 5.929 5.929z" opacity="1" data-original="#7d7b7a" class=""></path><path d="M54.484 160.216c-1.147-4.945-1.905-8.212-8.591-10.421-2.43-.803-2.424-4.25 0-5.051 4.025-1.33 6.684-2.209 8.591-10.422.633-2.73 4.546-2.737 5.181 0 1.95 8.399 4.863 9.193 8.591 10.421 2.43.803 2.424 4.25 0 5.051-3.881 1.282-6.686 2.209-8.591 10.421-.636 2.743-4.544 2.744-5.181.001z" fill="#000000" opacity="1" data-original="#000000" class=""></path><path fill="#59af17" d="M61.06 147.293c-1.47 1.04-2.79 2.42-3.93 4.44-.94-1.59-2.25-3.09-4.17-4.4 1.55-1.06 2.94-2.51 4.12-4.64 1.2 2.16 2.57 3.59 3.98 4.6z" opacity="1" data-original="#f0c020" class=""></path><path d="M196.334 160.216c-1.147-4.945-1.905-8.212-8.591-10.421-2.43-.803-2.424-4.25 0-5.051 4.025-1.33 6.684-2.209 8.591-10.422.633-2.73 4.546-2.737 5.181 0 1.95 8.399 4.863 9.193 8.591 10.421 2.43.803 2.424 4.25 0 5.051-3.881 1.282-6.686 2.209-8.591 10.421-.636 2.743-4.544 2.744-5.181.001z" fill="#000000" opacity="1" data-original="#000000" class=""></path><path fill="#59af17" d="M202.911 147.293c-1.47 1.04-2.79 2.42-3.93 4.44-.94-1.59-2.25-3.09-4.17-4.4 1.55-1.06 2.94-2.51 4.12-4.64 1.2 2.16 2.57 3.59 3.98 4.6z" opacity="1" data-original="#f0c020" class=""></path><path fill="#59af17" d="M169.46 193.063c0 5.5-1.06 10.76-2.99 15.57-6.17 15.45-21.28 26.37-38.94 26.37s-32.77-10.92-38.95-26.37a41.738 41.738 0 0 1-2.99-15.57c0-23.16 18.78-41.93 41.94-41.93 23.16-.001 41.93 18.769 41.93 41.93z" opacity="1" data-original="#efbf27" class=""></path><path fill="#ffffff" d="M218.627 202.664a2.5 2.5 0 0 1-2.5-2.5V69.792H50.373a2.5 2.5 0 1 1 0-5h168.254a2.5 2.5 0 0 1 2.5 2.5v132.872a2.5 2.5 0 0 1-2.5 2.5zM40.373 69.792h-3a2.5 2.5 0 1 1 0-5h3a2.5 2.5 0 1 1 0 5z" opacity="1" data-original="#ffffff"></path><path fill="#c4e4fd" d="M218.627 52.848H50.373a2.5 2.5 0 1 1 0-5h165.754V29.597a2.5 2.5 0 1 1 5 0v20.751a2.5 2.5 0 0 1-2.5 2.5zm-178.254 0h-3a2.5 2.5 0 1 1 0-5h3a2.5 2.5 0 1 1 0 5z" opacity="1" data-original="#c4e4fd"></path><path fill="#f8e5b0" d="M127.527 228.033c-4.537 0-8.958-.857-13.143-2.547a2.501 2.501 0 0 1 1.873-4.637 29.943 29.943 0 0 0 11.27 2.184c16.59 0 29.969-13.373 29.969-29.968 0-8.019-3.113-15.549-8.767-21.203a2.5 2.5 0 1 1 3.536-3.535c6.598 6.599 10.231 15.384 10.231 24.738 0 19.353-15.611 34.968-34.969 34.968zm-22.353-8.054a35.384 35.384 0 0 1-2.385-2.177 2.501 2.501 0 0 1 3.537-3.535c.649.65 1.338 1.279 2.046 1.868a2.5 2.5 0 0 1-3.198 3.844z" opacity="1" data-original="#f8e5b0"></path><circle cx="28.9" cy="41.819" r="2.5" fill="#000000" opacity="1" data-original="#000000" class=""></circle><path d="M229.597 29.597c0-6.049-4.921-10.97-10.97-10.97h-16.769v-8.511c0-4.647-3.781-8.429-8.429-8.429-4.647 0-8.429 3.781-8.429 8.429v8.511h-26.762v-8.511c0-4.647-3.781-8.429-8.429-8.429-4.647 0-8.429 3.781-8.429 8.429v8.511h-26.762v-8.511c0-4.647-3.781-8.429-8.429-8.429s-8.429 3.781-8.429 8.429v8.511H71v-8.511c0-4.647-3.781-8.429-8.429-8.429s-8.429 3.781-8.429 8.429v8.514H37.37c-6.04 0-10.96 4.92-10.97 10.97v2.22a2.5 2.5 0 0 0 5 0V29.6c.01-3.29 2.69-5.97 5.97-5.97h16.772v8.508c0 4.647 3.781 8.429 8.429 8.429 4.647 0 8.429-3.781 8.429-8.429v-8.511h26.762v8.511c0 4.647 3.781 8.429 8.429 8.429 4.647 0 8.429-3.781 8.429-8.429v-8.511h26.762v8.511c0 4.647 3.781 8.429 8.429 8.429s8.429-3.781 8.429-8.429v-8.511H185v8.511c0 4.647 3.781 8.429 8.429 8.429s8.429-3.781 8.429-8.429v-8.511h16.769a5.977 5.977 0 0 1 5.97 5.97V56.32H31.4v-4.5a2.5 2.5 0 0 0-5 0v148.341c0 6.05 4.92 10.97 10.97 10.97h20.06a2.5 2.5 0 0 0 2.5-2.5c0-1.37-1.12-2.5-2.5-2.5H37.37c-3.29 0-5.96-2.68-5.97-5.97V61.319h193.2v52.21a2.5 2.5 0 0 0 5 0c0-34.1-.003-76.796-.003-83.932zM66 32.138c0 1.891-1.538 3.429-3.429 3.429s-3.429-1.538-3.429-3.429V10.116c0-1.891 1.539-3.429 3.429-3.429S66 8.226 66 10.116zm43.619 0c0 1.891-1.538 3.429-3.429 3.429s-3.429-1.538-3.429-3.429V10.116c0-1.891 1.539-3.429 3.429-3.429s3.429 1.538 3.429 3.429zm43.62 0c0 1.891-1.539 3.429-3.429 3.429s-3.429-1.538-3.429-3.429V10.116c0-1.891 1.538-3.429 3.429-3.429s3.429 1.538 3.429 3.429zm43.619 0c0 1.891-1.539 3.429-3.429 3.429S190 34.028 190 32.138V10.116c0-1.891 1.538-3.429 3.429-3.429s3.429 1.538 3.429 3.429z" fill="#000000" opacity="1" data-original="#000000" class=""></path><circle cx="227.1" cy="123.529" r="2.5" fill="#000000" opacity="1" data-original="#000000" class=""></circle><path d="M227.1 131.029a2.5 2.5 0 0 0-2.5 2.5v66.631a5.98 5.98 0 0 1-5.97 5.97h-20.06a2.5 2.5 0 0 0 0 5h20.06c6.05 0 10.97-4.92 10.97-10.97v-66.631a2.5 2.5 0 0 0-2.5-2.5zM127.527 207.043a5.745 5.745 0 0 1-5.739-5.739 2.5 2.5 0 1 0-5 0c0 5.113 3.594 9.396 8.387 10.472v3.849a2.5 2.5 0 1 0 5 0V211.7c4.643-1.184 8.091-5.389 8.091-10.396 0-5.922-4.817-10.739-10.739-10.739-3.165 0-5.739-2.574-5.739-5.739s2.575-5.739 5.739-5.739 5.739 2.574 5.739 5.739a2.5 2.5 0 1 0 5 0c0-5.007-3.448-9.211-8.091-10.396v-3.924a2.5 2.5 0 1 0-5 0v3.848c-4.793 1.076-8.387 5.358-8.387 10.472 0 5.922 4.817 10.739 10.739 10.739 3.165 0 5.739 2.574 5.739 5.739s-2.575 5.739-5.739 5.739z" fill="#000000" opacity="1" data-original="#000000" class=""></path><path d="M187.916 198.925a2.497 2.497 0 0 0-2.842 2.103c-4.117 27.527-28.229 48.285-56.086 48.285-31.221 0-56.627-25.361-56.707-56.563l3.434 2.882a2.5 2.5 0 0 0 3.214-3.83l-7.537-6.326a2.5 2.5 0 0 0-3.522.308l-6.326 7.536a2.5 2.5 0 1 0 3.829 3.214l1.944-2.316c.862 33.281 28.184 60.094 61.669 60.094 30.313 0 56.551-22.59 61.031-52.545a2.496 2.496 0 0 0-2.101-2.842zM190.626 183.459l-2.251 2.682c-3.241-31.001-29.526-55.249-61.37-55.249-28.746 0-53.443 19.533-60.059 47.501a2.5 2.5 0 0 0 4.865 1.151c6.081-25.701 28.777-43.651 55.194-43.651 29.381 0 53.611 22.461 56.431 51.114l-3.151-2.645a2.5 2.5 0 0 0-3.214 3.83l7.537 6.326a2.505 2.505 0 0 0 3.522-.308l6.326-7.536a2.5 2.5 0 1 0-3.83-3.215z" fill="#000000" opacity="1" data-original="#000000" class=""></path><path d="M96.96 164.24c-1.02-.851-2.67-.7-3.52.31a44.47 44.47 0 0 0-10.35 28.51c0 24.431 19.78 44.44 44.44 44.44 24.549 0 44.43-19.889 44.43-44.44 0-24.459-19.804-44.43-44.43-44.43-5.97 0-11.76 1.17-17.21 3.46-1.303.546-1.858 2.006-1.34 3.27.52 1.24 2.03 1.86 3.28 1.341 4.84-2.04 9.97-3.07 15.27-3.07 21.739 0 39.43 17.594 39.43 39.43 0 21.511-17.26 39.44-39.42 39.44h-.02c-22.211 0-39.43-17.988-39.43-39.44 0-9.24 3.26-18.22 9.18-25.29a2.495 2.495 0 0 0-.31-3.531z" fill="#000000" opacity="1" data-original="#000000" class=""></path><path d="M104.11 161.33c1.11-.82 1.34-2.38.52-3.49-.79-1.07-2.42-1.32-3.49-.53a2.503 2.503 0 0 0-.53 3.5 2.512 2.512 0 0 0 3.5.52zM103.098 113.93a2.5 2.5 0 0 0 2.5-2.5V88.557c0-2.451-3.182-3.437-4.565-1.409l-7.687 11.269-7.686-11.27c-1.38-2.021-4.565-1.046-4.565 1.409v22.873a2.5 2.5 0 1 0 5 0V96.658l5.187 7.604c.992 1.454 3.14 1.452 4.131 0l5.187-7.604v14.771a2.497 2.497 0 0 0 2.498 2.501zM139.897 111.43V96.534l11.343 16.322c1.391 2 4.553 1.025 4.553-1.427V88.557a2.5 2.5 0 1 0-5 0v14.896L139.45 87.13c-1.393-2.004-4.553-1.014-4.553 1.427v22.873a2.5 2.5 0 1 0 5 0zM170.443 113.93a2.5 2.5 0 0 0 2.5-2.5V91.057h5.448a2.5 2.5 0 1 0 0-5h-15.896a2.5 2.5 0 1 0 0 5h5.448v20.373a2.5 2.5 0 0 0 2.5 2.5zM187.593 86.057a2.5 2.5 0 0 0-2.5 2.5v22.873a2.5 2.5 0 1 0 5 0v-8.424h9.36v8.424a2.5 2.5 0 1 0 5 0V88.557a2.5 2.5 0 1 0-5 0v9.449h-9.36v-9.449a2.5 2.5 0 0 0-2.5-2.5zM130.696 103.481v-6.977c0-5.761-4.687-10.448-10.448-10.448S109.8 90.744 109.8 96.504v6.977c0 5.761 4.687 10.448 10.448 10.448 5.761.001 10.448-4.687 10.448-10.448zm-15.896 0v-6.977c0-3.004 2.444-5.448 5.448-5.448s5.448 2.444 5.448 5.448v6.977a5.454 5.454 0 0 1-5.448 5.448 5.454 5.454 0 0 1-5.448-5.448zM54.05 108.93a2.5 2.5 0 0 0 0 5h12.19c1.37 0 2.5-1.12 2.5-2.5s-1.13-2.5-2.5-2.5h-3.6V88.56c0-2.038-2.292-3.21-3.95-2.04l-6.09 4.33a2.494 2.494 0 0 0-.59 3.49c.77 1.08 2.4 1.36 3.49.59l2.14-1.53v15.53z" fill="#000000" opacity="1" data-original="#000000" class=""></path></g></svg>