<svg xmlns="http://www.w3.org/2000/svg" version="1.1" xmlns:xlink="http://www.w3.org/1999/xlink" width="512" height="512" x="0" y="0" viewBox="0 0 512 512" style="enable-background:new 0 0 512 512" xml:space="preserve" class=""><g><path fill="#231f20" d="M150.2 32.3c-25.1.7-25 37.4 0 38.1 25.1-.7 25.1-37.4 0-38.1zm0 27c-10.4-.2-10.4-15.7 0-15.9 10.5.2 10.4 15.7 0 15.9zM365.1 187c-25 .7-25.1 37.4 0 38.1 25.1-.7 25.1-37.4 0-38.1zm0 27c-10.4-.2-10.4-15.7 0-15.9 10.4.2 10.5 15.7 0 15.9z" opacity="1" data-original="#231f20"></path><path fill="#231f20" d="M510.5 183.3C501.4 30 309.9-50.1 193.3 48.6c-1.7-57.5-84.1-57.8-86.3-.4 0 15.2 16.5 48.2 30.9 74.2-6.5 14.9-11 30.7-13.5 46.8-34.3 6.3-61.7 45-55.6 82.5l5.6 28.6c0 31 18.2 61.2 45.3 73.6l-3.4 13.5-56.9 19.2c-17.6 6-31.6 20.2-37.3 37.9-.2.6-16.2 57.5-20.9 75.3-.9 3.4 1.9 7 5.5 6.9 19.2-.3 146.1-1 147.3-1h202.4c2.6 0 4.9-1.8 5.4-4.3l3.4-15.4c.3-1.6-.1-3.3-1.1-4.7-1.9-3.1-9.3-1.8-12.3-2.1l16.7-92.2c89.5-24.3 148.8-111.6 142-203.7zm-33-73.2c11.6 20.6 19.4 43.3 21.7 66.8 1.3 11.2 2.7 14.8-9.4 17.1-6.2 1.2-14.8 2.2-20-2.3-8.6-9.2-.2-29.4-14.1-36.9-9.2-5.5-20.1-.4-28.8 3.7-3.2 1.4-10.6 4.9-11.9 3.9-2.1-1.7-1.7-13.6 5.3-22.4 5.1-6.4 11.1-7.5 19.5-9 12.4-1.2 29.8-8.6 37.7-20.9zM184.9 77.7c2.2-6.4 4.5-12.2 10.4-16.1 49.1-43.6 121.9-58 183.6-35.2-25.2 15.5-23 36.8-4.4 55.5-23.8-11.2-50-8.9-69.1 10.2-7.8 6.6-12.5 10.4-19.9 9.5-6-.7-9.4-4.2-13.8-8.8-5-5.3-11.4-11.8-22.8-12.7-9.4-.9-17.5 3.7-23.1 7.8-13.5 10.9-28.2 7.1-43.6-4 .8-2.1 1.8-4.2 2.7-6.2zm-66.8-29.5c1.4-42.4 62.8-42.4 64.1 0-2.4 21.7-23 56.2-32 73.4-.4-.7-.8-1.5-1.3-2.3h-.1c-19.2-34.4-30.7-61-30.7-71.1zM83.7 259.3c-.6.7-1.2 1.3-1.7 2-1.2-6.9-4.1-17.3-2.9-24.1 5.8-51.5 55.7-73.3 93.2-46.5 2.9 1.7 3.6 3.4 6.5 3.5 32.3.9 49.3 31.9 40.2 62.5-4.3-8.4-14.7-13.9-23.2-14.1-10.5-.1-19.2-8-22.6-18.2-1.3-3.8-6.8-4.9-9.4-1.7-13.8 16-30.3 24.4-50.1 24.6-10.4.3-22.5 2.4-30 12zm2.7 31.4c-3.9-18.8 8.3-33.3 28.1-32.3 18.9-.2 37.4-7.6 52-22.3 6.8 13 19.5 16.1 32.6 18.5 9.7 2.5 13.3 12.4 14.7 21.3 5.5 28.4-15.9 59.6-42 69.6-38.5 15.4-80.2-13.9-85.4-54.8zM208.3 361c-6.8-.7-13.6 2.7-15.7 9.3l-8.8-2.9-3.4-13.5c3.7-1.7 7.2-3.8 10.5-6 5.5 4.6 11.3 9 17.4 13.1zm-35.3 9.1c-12.9 9.5-33.2 9.3-46-.1l3.1-12.3c.1.1.2.1.2.1 13 3.6 26.6 3.4 39.6-.1.1.1 3.1 12.2 3.1 12.4zm-21 113.6-2.5 11c-20.5.1-106.5.6-135.7.9 5.8-21.8 18.2-65.4 18.9-68 4.7-14.3 16-25.7 30.2-30.5l56.5-19c11 10.5 30.1 12.3 44.2 8.3 7-1.6 12.5-4.2 17.2-8.3l9.6 3.2c-3.3 18.2-14.3 78.9-17.7 98.1h-15.3c-2.6 0-4.9 1.8-5.4 4.3zm200.9 6.8-.9 4.2H160.9l.9-4.2zm6.6-115.4-1.2 6.7v.2l-17.7 97.5H183.9l12.1-66.7 6.9-38.5c.2-1.2 1.3-2.1 2.5-2.1h151.5c2 .1 2.6 1 2.6 2.9zm130.4-114c-19.2 54-64.2 97.6-119.3 114 .5-7.6-6.3-14.1-13.7-14.1h-19c-.3-20.7-19-41.2-34.8-48.6-9-5.3-16.1-9.4-20.2-20.2-3.2-8.3-2-13.5-.3-20.7 10.2-33.3-11.9-65.6-31.3-83-3.9-3.9-9.2-9.2-9.9-11.4 11-4.8 28.1-.4 39.8 8.7 8.1 6.8 11.1 15.1 14 23.1 4.3 16.1 17 28.8 34.3 21.3 7.6 20 18.4 38.5 29 56.9 2.2 3.8 2.7 5.6 6.6 5.9 1.9 0 3.8-1 4.8-2.7 7.6-13.1 15-26.4 21.6-40 27.6 26.4 68 18.8 98.7 10.3-.2.1-.2.3-.3.5zM333 203c1.4-42.4 62.8-42.4 64.2 0 2 8.2-23.9 60.3-32.1 73.3-10-18.6-29.7-52-32.1-73.3zm160.9 45.2c-32.4 8.9-71.8 18.9-97.5-8.3 7.9-17.2 11.8-29.3 11.8-36.9 0-23.8-19.4-43.2-43.2-43.2-30.5 0-51.9 31.1-39.6 60-11.2 4.5-16-2.5-19.9-14.7-3.1-8.6-6.9-19.2-17.4-27.9-15.4-12.6-46.2-19.9-56.8-5.4-4.5 8 2.8 15.3 12 24.5 17.2 15.5 37.5 44 28.3 72.6-7.3 22.3 6 43.6 25.7 53 13.5 6.5 28.5 21.8 29.3 39h-97.1c-10.8-5.8-20.8-12.6-30-20.2 12.3-11.4 20.7-26.9 24.4-44.2 16.7-3.6 20.1-26.4 5.3-34.9 10-35.6-7.6-76.8-48.4-78.5-13.1-9.6-28.9-15-45.1-15.2 1.9-11.5 5-22.6 9.1-33.4 1.7 4.3 7.8 5 10.1 1 .1-.2 12-20.3 22.3-41.5 18.1 13.1 39.3 15.7 54.7 2.9 5.2-3.5 9.4-6.4 16-5.9 7.2.6 10.9 4.4 15.7 9.3 14.2 17.1 33.4 15.4 48.9-.1 7.2-6.2 14.6-12.5 26.6-14.1 13.1-1.7 24.7 3.1 33.1 6.6 7.3 3 14.2 5.8 18.2.2 4-5.8-1.2-11.4-6.7-17.4-18.3-18.7-17-31 7.7-44.1 32.8 14.4 60.2 37.9 79.6 68-6.5 12.6-20.7 19.3-33.3 20.7-9.1 1.6-18.5 3.3-26.2 13-9 11.4-12.6 30.4-3.7 37.7 6.7 5.6 15.3 1.6 23.7-2.3 6.7-3.1 14.2-6.6 18.5-4.1 3 1.7 3.5 6.1 4.1 13.1-.1 27.6 22.5 33.1 46.3 24.9-.1 15.7-2.4 30.9-6.5 45.8zm-268.3 35.5c-.1-3.1.7-6.2 1.3-9.2 1.8 2.8 1.1 6.9-1.3 9.2z" opacity="1" data-original="#231f20"></path><path fill="#ffffff" d="m219.6 253.9-.6 2.9c-4.3-8.4-14.7-13.9-23.2-14.1-10.1-.2-18.7-7.4-22.1-17.2-.8-2.2-2.2-4.1-4.7-4.5-1.9-.4-3.9.3-5.2 1.8-10.5 11.7-20.6 19-34.3 22.6-16.9 3.8-36.1-.8-47.6 16-1.2-7-4.1-17.3-2.9-24.1 5.8-51.5 55.7-73.3 93.2-46.5 2.9 1.7 3.6 3.4 6.5 3.5 30.4.5 49.2 30.1 40.9 59.6z" opacity="1" data-original="#5b7882" class=""></path><path fill="#ffffff" d="M173 370.1c-12.9 9.5-33.2 9.3-46-.1l3.1-12.3c.1.1.2.1.2.1 13 3.6 26.6 3.4 39.6-.1.1.1 3.1 12.2 3.1 12.4zM171.9 345.5c-38.6 15.4-80.3-13.9-85.5-54.8-2.1-10 .6-20.5 8.6-27.1 5.5-4.4 11.4-4.8 19.5-5.2 18.9-.2 37.4-7.6 52-22.3 6.8 13 19.5 16.1 32.6 18.5 9.7 2.5 13.3 12.4 14.7 21.3 5.5 28.4-15.8 59.6-41.9 69.6z" opacity="1" data-original="#feddcc" class=""></path><path fill="#ffffff" d="M500.5 202.6c-.3 15.4-2.5 30.7-6.6 45.5-32.4 8.9-71.8 18.9-97.5-8.3 7.9-17.2 11.8-29.3 11.8-36.9 0-23.8-19.4-43.2-43.2-43.2-30.5 0-51.9 31.1-39.6 60-11.2 4.5-16-2.5-19.9-14.7-3.1-8.6-6.9-19.2-17.4-27.9-15.4-12.6-46.2-19.9-56.8-5.4-4.5 8 2.8 15.3 12 24.5 17.2 15.5 37.5 44 28.3 72.6-7.3 22.3 6 43.6 25.7 53 13.5 6.5 28.5 21.8 29.3 39h-97.1c-10.8-5.8-20.8-12.6-30-20.2 12.3-11.4 20.7-26.9 24.4-44.2 16.7-3.6 20.1-26.4 5.3-34.9 10-35.6-7.6-76.8-48.4-78.5-13.1-9.6-28.9-15-45.1-15.2 1.9-11.5 5-22.6 9.1-33.4 1.7 4.3 7.8 5 10.1 1 .1-.2 12-20.3 22.3-41.5 18.1 13.1 39.3 15.7 54.7 2.9 5.2-3.5 9.4-6.4 16-5.9 7.2.6 10.9 4.4 15.7 9.3 14.2 17.1 33.4 15.4 48.9-.1 7.2-6.2 14.6-12.5 26.6-14.1 13.1-1.7 24.7 3.1 33.1 6.6 7.3 3 14.2 5.8 18.2.2 4-5.8-1.2-11.4-6.7-17.4-18.3-18.7-17-31 7.7-44.1 32.8 14.4 60.2 37.9 79.6 68-6.5 12.6-20.7 19.3-33.3 20.7-9.1 1.6-18.5 3.3-26.2 13-9 11.4-12.6 30.4-3.7 37.7 6.7 5.6 15.3 1.6 23.7-2.3 6.7-3.1 14.2-6.6 18.5-4.1 3 1.7 3.5 6.1 4.1 13.1 0 27.9 22.6 33.4 46.4 25.2z" opacity="1" data-original="#ffefe1" class=""></path><path fill="#808080" d="m352.9 490.5-.9 4.2H160.9l.9-4.2zM358.9 373c-.3-.3-.9-.9-1.9-.9H205.5c-1.2 0-2.3.9-2.5 2.1l-6.9 38.5-12.1 66.7h156.6c0-.2 17.7-97.5 17.7-97.7l1.2-6.7c.1-.8-.3-1.7-.6-2zm-64.2 59.4c-3.9 27.3-49.7 29.6-47-1.8 3.9-27.2 49.6-29.5 47 1.8z" opacity="1" data-original="#f4b4d9" class=""></path><path fill="#59af17" d="M365.1 170.9c-17.7 0-32.1 14.4-32.1 32.1 2.5 21.4 22.1 54.6 32.1 73.3 8.1-12.9 34.2-65.3 32.1-73.3 0-17.7-14.4-32.1-32.1-32.1zm0 54.2c-25.1-.7-25-37.4 0-38.1 25.1.7 25.1 37.4 0 38.1zM150.2 16.1c-17.7 0-32.1 14.4-32.1 32.1 0 10.1 11.5 36.6 30.8 71.1h.1c.4.8.9 1.6 1.3 2.3 9.1-17.2 29.6-51.7 32-73.4 0-17.7-14.4-32.1-32.1-32.1zm0 54.3c-25-.7-25.1-37.4 0-38.1 25.1.7 25.1 37.4 0 38.1zM190.4 381.2c-3.3 18.2-14.3 78.9-17.7 98.1h-15.3c-2.6 0-4.8 1.8-5.4 4.4l-2.5 11c-20.5.1-106.5.6-135.7.9 5.8-21.8 18.2-65.4 18.9-68 4.7-14.3 16-25.7 30.2-30.5l56.5-19c11 10.5 30.1 12.3 44.2 8.3 7-1.6 12.5-4.2 17.2-8.3z" opacity="1" data-original="#9473c5" class=""></path><path fill="#ff6600" d="M490.1 260.6c-19.2 54.2-64.2 98-119.5 114.4.5-7.6-6.3-14.1-13.7-14.1h-19c-.3-20.7-19-41.2-34.8-48.6-9-5.3-16.1-9.4-20.2-20.2-3.2-8.3-2-13.5-.3-20.7 10.2-33.3-11.9-65.6-31.3-83-3.9-3.9-9.2-9.2-9.9-11.4 11-4.8 28.1-.4 39.8 8.7 8.1 6.8 11.1 15.1 14 23.1 4.3 16.1 17 28.8 34.3 21.3 7.6 20 18.4 38.5 29 56.9 2.2 3.8 2.7 5.6 6.6 5.9 1.9 0 3.8-1 4.8-2.7 7.6-13.1 15-26.4 21.6-40 27.5 26.5 67.9 19 98.6 10.4zM489.8 194.1c-38.4 7.3-14-25.9-34.1-39.1-9.2-5.5-20.1-.4-28.8 3.7-3.2 1.4-10.6 4.9-11.9 3.9-2.1-1.7-1.7-13.6 5.3-22.4 5.1-6.4 11.1-7.5 19.5-9 12.5-1.3 29.8-8.7 37.8-21 11.6 20.6 19.4 43.3 21.7 66.8 1.2 11.2 2.6 14.8-9.5 17.1zM360 53.6c0 11.6 8 21 14.4 28.2-23.8-11.2-50-8.9-69.1 10.2-7.8 6.6-12.5 10.4-19.9 9.5-6-.7-9.4-4.2-13.8-8.8-5-5.3-11.4-11.8-22.8-12.7-9.4-.9-17.5 3.7-23.1 7.8-13.5 10.9-28.2 7.1-43.6-4 4-8 5.2-17.2 13.1-22.4 49.1-43.6 121.9-58 183.6-35.2C368.6 33 360 41.6 360 53.6z" opacity="1" data-original="#f6a96c" class=""></path><path fill="#231f20" d="M290.2 416.6c-18.8-20.8-56.2 6.9-38.1 29.9 18.7 20.9 56.3-7 38.1-29.9zm-6.5 14.2c-1.3 12.7-26 17.9-25.1 1.5 1.3-12.7 26-17.9 25.1-1.5z" opacity="1" data-original="#231f20"></path><path fill="#ffffff" d="M283.7 430.8c-1.3 12.7-26 17.9-25.1 1.5 1.3-12.7 26-17.9 25.1-1.5z" opacity="1" data-original="#feddcc" class=""></path></g></svg>