<svg xmlns="http://www.w3.org/2000/svg" version="1.1" xmlns:xlink="http://www.w3.org/1999/xlink" width="512" height="512" x="0" y="0" viewBox="0 0 32 32" style="enable-background:new 0 0 512 512" xml:space="preserve"><g><path d="M21.68 9.19A5 5 0 1 0 20.5 6a5.08 5.08 0 0 0 .23 1.42L10.43 13a5 5 0 1 0 0 6.13l10.32 5.51A4.73 4.73 0 0 0 20.5 26a5.05 5.05 0 1 0 1.17-3.18l-10.36-5.53A5 5 0 0 0 11.5 16a5.18 5.18 0 0 0-.18-1.26z" data-name="Layer 2" fill="#f58c29" opacity="1" data-original="#000000"></path></g></svg>