<svg xmlns="http://www.w3.org/2000/svg" version="1.1" xmlns:xlink="http://www.w3.org/1999/xlink" width="512" height="512" x="0" y="0" viewBox="0 0 682.667 682.667" style="enable-background:new 0 0 512 512" xml:space="preserve" class=""><g><defs><clipPath id="a" clipPathUnits="userSpaceOnUse"><path d="M0 512h512V0H0Z" fill="#000000" opacity="1" data-original="#000000"></path></clipPath></defs><g clip-path="url(#a)" transform="matrix(1.33333 0 0 -1.33333 0 682.667)"><path d="M0 0h-44c-15.4 0-28 12.6-28 28s12.6 28 28 28H0c15.4 0 28-12.6 28-28S15.4 0 0 0" style="fill-opacity:1;fill-rule:nonzero;stroke:none" transform="translate(278 418.5)" fill="#bb5d4c" data-original="#bb5d4c"></path><path d="M0 0h-44c-15.4 0-28 12.6-28 28s12.6 28 28 28H0c15.4 0 28-12.6 28-28S15.4 0 0 0Z" style="stroke-width:15;stroke-linecap:round;stroke-linejoin:round;stroke-miterlimit:10;stroke-dasharray:none;stroke-opacity:1" transform="translate(278 418.5)" fill="none" stroke="#000000" stroke-width="15" stroke-linecap="round" stroke-linejoin="round" stroke-miterlimit="10" stroke-dasharray="none" stroke-opacity="" data-original="#000000"></path><path d="M0 0v124.549c0 16.568-13.432 30-30 30h-209.122c-16.568 0-30-13.432-30-30V0Z" style="fill-opacity:1;fill-rule:nonzero;stroke:none" transform="translate(390.561 54.5)" fill="#ffffff" data-original="#ffffff"></path><path d="M0 0c0 16.568 13.432 30 30 30C13.432 30 0 16.568 0 0v-109.549z" style="fill-opacity:1;fill-rule:nonzero;stroke:none" transform="translate(121.439 179.049)" fill="#f3f0f3" data-original="#f3f0f3"></path><path d="M0 0v-100.225h25.381V9.324c0 4.778 1.122 9.29 3.109 13.299z" style="fill-opacity:1;fill-rule:nonzero;stroke:none" transform="translate(210.18 169.725)" fill="#f3f0f3" data-original="#f3f0f3"></path><path d="M0 0v-83.127l45.82 36.385 45.821-36.385V0Z" style="fill-opacity:1;fill-rule:nonzero;stroke:none" transform="translate(210.18 252.852)" fill="#e2dee2" data-original="#e2dee2" class=""></path><path d="M0 0h-58.741c-16.568 0-30-13.432-30-30v-124.549H0Z" style="fill-opacity:1;fill-rule:nonzero;stroke:none" transform="translate(210.18 209.049)" fill="#f58c29" data-original="#27a5fe" class="" opacity="1"></path><path d="M0 0c-16.568 0-30-13.432-30-30v-71.061c14.635-3.198 26.517-13.752 31.561-27.603V-30c0 16.568 13.432 30 30 30z" style="fill-opacity:1;fill-rule:nonzero;stroke:none" transform="translate(151.439 209.049)" fill="#f58c29" data-original="#0593fc" class="" opacity="1"></path><path d="M0 0h-58.741c-16.568 0-30-13.432-30-30v-124.549H0Z" style="stroke-width:15;stroke-linecap:round;stroke-linejoin:round;stroke-miterlimit:10;stroke-dasharray:none;stroke-opacity:1" transform="translate(210.18 209.049)" fill="none" stroke="#000000" stroke-width="15" stroke-linecap="round" stroke-linejoin="round" stroke-miterlimit="10" stroke-dasharray="none" stroke-opacity="" data-original="#000000"></path><path d="M0 0h-58.741v-154.549H30V-30C30-13.432 16.568 0 0 0" style="fill-opacity:1;fill-rule:nonzero;stroke:none" transform="translate(360.561 209.049)" fill="#f58c29" data-original="#27a5fe" class="" opacity="1"></path><path d="M333 209.049h-31.18V128.5H333Z" style="fill-opacity:1;fill-rule:nonzero;stroke:none" fill="#f58c29" data-original="#0593fc" class="" opacity="1"></path><path d="M0 0c-3.137 13.215-15.007 23.049-29.182 23.049h-58.74V-131.5H.818V-35" style="stroke-width:15;stroke-linecap:round;stroke-linejoin:round;stroke-miterlimit:10;stroke-dasharray:none;stroke-opacity:1" transform="translate(389.743 186)" fill="none" stroke="#000000" stroke-width="15" stroke-linecap="round" stroke-linejoin="round" stroke-miterlimit="10" stroke-dasharray="none" stroke-opacity="" data-original="#000000"></path><path d="M0 0h-45.597c-41.421 0-75-33.578-75-75v-71.367H75V-75C75-33.578 41.421 0 0 0" style="fill-opacity:1;fill-rule:nonzero;stroke:none" transform="translate(278.798 432.867)" fill="#bb5d4c" data-original="#bb5d4c"></path><path d="M0 0h15.207v2.82c0 8.284 6.716 15 15 15h1.131v14.172c0 41.422 33.579 75 75 75H64.54c-41.421 0-75-33.578-75-75v-34.97A19.875 19.875 0 0 0 0 0" style="fill-opacity:1;fill-rule:nonzero;stroke:none" transform="translate(168.662 325.875)" fill="#a44f3e" data-original="#a44f3e" class=""></path><path d="M0 0c-12.796 10.157-28.972 16.239-46.578 16.239h-45.596c-41.422 0-75-33.578-75-75v-71.367H28.422v71.367a74.689 74.689 0 0 1-6.703 30.983" style="stroke-width:15;stroke-linecap:round;stroke-linejoin:round;stroke-miterlimit:10;stroke-dasharray:none;stroke-opacity:1" transform="translate(325.377 416.628)" fill="none" stroke="#000000" stroke-width="15" stroke-linecap="round" stroke-linejoin="round" stroke-miterlimit="10" stroke-dasharray="none" stroke-opacity="" data-original="#000000"></path><path d="M0 0v-83.127l45.82 36.385 45.821-36.385V0Z" style="stroke-width:15;stroke-linecap:round;stroke-linejoin:round;stroke-miterlimit:10;stroke-dasharray:none;stroke-opacity:1" transform="translate(210.18 252.852)" fill="none" stroke="#000000" stroke-width="15" stroke-linecap="round" stroke-linejoin="round" stroke-miterlimit="10" stroke-dasharray="none" stroke-opacity="" data-original="#000000"></path><path d="m0 0 19.568 51.428c1.245 3.272-1.172 6.777-4.673 6.777h-39.136c-3.502 0-5.919-3.505-4.674-6.777L-9.346 0C-7.712-4.296-1.635-4.296 0 0" style="fill-opacity:1;fill-rule:nonzero;stroke:none" transform="translate(260.673 178.281)" fill="#ffbd86" data-original="#ffbd86"></path><path d="m0 0 19.568 51.428c1.245 3.272-1.172 6.777-4.673 6.777h-39.136c-3.502 0-5.919-3.505-4.674-6.777L-9.346 0C-7.712-4.296-1.635-4.296 0 0Z" style="stroke-width:15;stroke-linecap:round;stroke-linejoin:round;stroke-miterlimit:10;stroke-dasharray:none;stroke-opacity:1" transform="translate(260.673 178.281)" fill="none" stroke="#000000" stroke-width="15" stroke-linecap="round" stroke-linejoin="round" stroke-miterlimit="10" stroke-dasharray="none" stroke-opacity="" data-original="#000000"></path><path d="M0 0h-174.676c-11.045 0-20 8.954-20 20v14.099c0 11.045 8.955 20 20 20H0c11.045 0 20-8.955 20-20V20C20 8.954 11.045 0 0 0" style="fill-opacity:1;fill-rule:nonzero;stroke:none" transform="translate(343.338 271.776)" fill="#ffbd86" data-original="#ffbd86"></path><path d="M0 0h-174.676c-11.045 0-20 8.954-20 20v14.099c0 11.045 8.955 20 20 20H0c11.045 0 20-8.955 20-20V20C20 8.954 11.045 0 0 0Z" style="stroke-width:15;stroke-linecap:round;stroke-linejoin:round;stroke-miterlimit:10;stroke-dasharray:none;stroke-opacity:1" transform="translate(343.338 271.776)" fill="none" stroke="#000000" stroke-width="15" stroke-linecap="round" stroke-linejoin="round" stroke-miterlimit="10" stroke-dasharray="none" stroke-opacity="" data-original="#000000"></path><path d="M0 0c2.745 1.139 5.787 1.434 8.674.729 9.856-2.409 17.17-11.298 17.17-21.896v-66.724c0-30.376-24.624-55-55-55h-34.262c-30.376 0-55 24.624-55 55v51.724c0 8.284 6.716 15 15 15h47.398a25 25 0 0 1 9.577 1.907z" style="fill-opacity:1;fill-rule:nonzero;stroke:none" transform="translate(302.287 364.862)" fill="#fed2a4" data-original="#fed2a4" class=""></path><path d="M0 0v51.724c0 8.284 6.716 15 15 15h-31.131c-8.284 0-15-6.716-15-15V0c0-30.376 24.624-55 55-55H55C24.625-55 0-30.376 0 0" style="fill-opacity:1;fill-rule:nonzero;stroke:none" transform="translate(215 276.972)" fill="#ffbd86" data-original="#ffbd86"></path><path d="M0 0c2.745 1.139 5.787 1.434 8.674.729 9.856-2.409 17.17-11.298 17.17-21.896v-66.724c0-30.376-24.624-55-55-55h-34.262c-30.376 0-55 24.624-55 55v51.724c0 8.284 6.716 15 15 15h47.398a25 25 0 0 1 9.577 1.907z" style="stroke-width:15;stroke-linecap:round;stroke-linejoin:round;stroke-miterlimit:10;stroke-dasharray:none;stroke-opacity:1" transform="translate(302.287 364.862)" fill="none" stroke="#000000" stroke-width="15" stroke-linecap="round" stroke-linejoin="round" stroke-miterlimit="10" stroke-dasharray="none" stroke-opacity="" data-original="#000000"></path><path d="M0 0v-11.42" style="stroke-width:15;stroke-linecap:round;stroke-linejoin:miter;stroke-miterlimit:10;stroke-dasharray:none;stroke-opacity:1" transform="translate(221.792 319.417)" fill="none" stroke="#000000" stroke-width="15" stroke-linecap="round" stroke-linejoin="miter" stroke-miterlimit="10" stroke-dasharray="none" stroke-opacity="" data-original="#000000"></path><path d="M0 0v-11.42" style="stroke-width:15;stroke-linecap:round;stroke-linejoin:miter;stroke-miterlimit:10;stroke-dasharray:none;stroke-opacity:1" transform="translate(290.209 319.417)" fill="none" stroke="#000000" stroke-width="15" stroke-linecap="round" stroke-linejoin="miter" stroke-miterlimit="10" stroke-dasharray="none" stroke-opacity="" data-original="#000000"></path><path d="m0 0-9.115-20.103L0-28.338" style="stroke-width:15;stroke-linecap:round;stroke-linejoin:round;stroke-miterlimit:10;stroke-dasharray:none;stroke-opacity:1" transform="translate(256 312.136)" fill="none" stroke="#000000" stroke-width="15" stroke-linecap="round" stroke-linejoin="round" stroke-miterlimit="10" stroke-dasharray="none" stroke-opacity="" data-original="#000000"></path><path d="M0 0c11.564-11.563 30.279-11.563 41.842 0" style="stroke-width:15;stroke-linecap:round;stroke-linejoin:round;stroke-miterlimit:10;stroke-dasharray:none;stroke-opacity:1" transform="translate(235.079 262.36)" fill="none" stroke="#000000" stroke-width="15" stroke-linecap="round" stroke-linejoin="round" stroke-miterlimit="10" stroke-dasharray="none" stroke-opacity="" data-original="#000000"></path><path d="M0 0c-5.979-3.452-8.027-11.097-4.575-17.075l6.476-11.218 21.651 12.5-6.477 11.218C13.624 1.403 5.979 3.452 0 0" style="fill-opacity:1;fill-rule:nonzero;stroke:none" transform="translate(45.637 197.823)" fill="#ffffff" data-original="#7a6d79" class="" opacity="1"></path><path d="M0 0c-5.979-3.452-8.027-11.097-4.575-17.075l6.476-11.218 21.651 12.5-6.477 11.218C13.624 1.403 5.979 3.452 0 0Z" style="stroke-width:15;stroke-linecap:round;stroke-linejoin:round;stroke-miterlimit:10;stroke-dasharray:none;stroke-opacity:1" transform="translate(45.637 197.823)" fill="none" stroke="#000000" stroke-width="15" stroke-linecap="round" stroke-linejoin="round" stroke-miterlimit="10" stroke-dasharray="none" stroke-opacity="" data-original="#000000"></path><path d="m0 0-70.743 122.53-21.651-12.5L-28.868 0Z" style="fill-opacity:1;fill-rule:nonzero;stroke:none" transform="translate(139.932 59.5)" fill="#5cc640" data-original="#00c27a" class="" opacity="1"></path><path d="m0 0-70.743 122.53-21.651-12.5L-28.868 0Z" style="stroke-width:15;stroke-linecap:round;stroke-linejoin:round;stroke-miterlimit:10;stroke-dasharray:none;stroke-opacity:1" transform="translate(139.932 59.5)" fill="none" stroke="#000000" stroke-width="15" stroke-linecap="round" stroke-linejoin="round" stroke-miterlimit="10" stroke-dasharray="none" stroke-opacity="" data-original="#000000"></path><path d="M0 0c-24.024 0-43.5-19.476-43.5-43.5h87C43.5-19.476 24.024 0 0 0" style="fill-opacity:1;fill-rule:nonzero;stroke:none" transform="translate(112.115 109)" fill="#ffffff" data-original="#7a6d79" class="" opacity="1"></path><path d="M0 0c1.544 16.928 12.782 31.049 28.119 36.768A43.412 43.412 0 0 1 12.926 39.5C-9.749 39.5-28.362 22.148-30.383 0Z" style="fill-opacity:1;fill-rule:nonzero;stroke:none" transform="translate(99.189 69.5)" fill="#685e68" data-original="#685e68"></path><path d="M0 0c-24.024 0-43.5-19.476-43.5-43.5h87C43.5-19.476 24.024 0 0 0Z" style="stroke-width:15;stroke-linecap:round;stroke-linejoin:round;stroke-miterlimit:10;stroke-dasharray:none;stroke-opacity:1" transform="translate(112.115 109)" fill="none" stroke="#000000" stroke-width="15" stroke-linecap="round" stroke-linejoin="round" stroke-miterlimit="10" stroke-dasharray="none" stroke-opacity="" data-original="#000000"></path><path d="M0 0h-199v49c0 5.522 4.478 10 10 10h179c5.523 0 10-4.478 10-10Z" style="fill-opacity:1;fill-rule:nonzero;stroke:none" transform="translate(472.615 69.5)" fill="#ffffff" data-original="#7a6d79" class="" opacity="1"></path><path d="M0 0c0 5.523 4.477 10 10 10h-39.385c-5.522 0-10-4.477-10-10v-49H0Z" style="fill-opacity:1;fill-rule:nonzero;stroke:none" transform="translate(313 118.5)" fill="#685e68" data-original="#685e68"></path><path d="M0 0v49c0 5.522 4.478 10 10 10h179c5.523 0 10-4.478 10-10V0" style="stroke-width:15;stroke-linecap:round;stroke-linejoin:round;stroke-miterlimit:10;stroke-dasharray:none;stroke-opacity:1" transform="translate(273.615 69.5)" fill="none" stroke="#000000" stroke-width="15" stroke-linecap="round" stroke-linejoin="round" stroke-miterlimit="10" stroke-dasharray="none" stroke-opacity="" data-original="#000000"></path><path d="M0 0h102" style="stroke-width:15;stroke-linecap:round;stroke-linejoin:round;stroke-miterlimit:10;stroke-dasharray:none;stroke-opacity:1" transform="translate(322.115 99)" fill="none" stroke="#000000" stroke-width="15" stroke-linecap="round" stroke-linejoin="round" stroke-miterlimit="10" stroke-dasharray="none" stroke-opacity="" data-original="#000000"></path><path d="M0 0h-487a5 5 0 0 0-5 5v22a5 5 0 0 0 5 5H0a5 5 0 0 0 5-5V5a5 5 0 0 0-5-5" style="fill-opacity:1;fill-rule:nonzero;stroke:none" transform="translate(499.5 37.5)" fill="#f6a96c" data-original="#f6a96c" class=""></path><path d="M0 0v22a5 5 0 0 0 5 5h-60.5a5 5 0 0 1-5-5V0a5 5 0 0 1 5-5H5a5 5 0 0 0-5 5" style="fill-opacity:1;fill-rule:nonzero;stroke:none" transform="translate(68 42.5)" fill="#ea9b58" data-original="#ea9b58"></path><path d="M0 0h274.5a5 5 0 0 1 5 5v22a5 5 0 0 1-5 5h-487a5 5 0 0 1-5-5V5a5 5 0 0 1 5-5H-35" style="stroke-width:15;stroke-linecap:round;stroke-linejoin:round;stroke-miterlimit:10;stroke-dasharray:none;stroke-opacity:1" transform="translate(225 37.5)" fill="none" stroke="#000000" stroke-width="15" stroke-linecap="round" stroke-linejoin="round" stroke-miterlimit="10" stroke-dasharray="none" stroke-opacity="" data-original="#000000"></path><path d="M0 0h-30.381" style="stroke-width:15;stroke-linecap:round;stroke-linejoin:round;stroke-miterlimit:10;stroke-dasharray:none;stroke-opacity:1" transform="translate(181 135)" fill="none" stroke="#000000" stroke-width="15" stroke-linecap="round" stroke-linejoin="round" stroke-miterlimit="10" stroke-dasharray="none" stroke-opacity="" data-original="#000000"></path></g></g></svg>