<svg xmlns="http://www.w3.org/2000/svg" version="1.1" xmlns:xlink="http://www.w3.org/1999/xlink" width="512" height="512" x="0" y="0" viewBox="0 0 512 512" style="enable-background:new 0 0 512 512" xml:space="preserve" class=""><g><path d="M387.46 373.15 336 356H176l-51.46 17.15C71.67 390.78 36 446.26 36 502h440c0-55.74-35.67-111.22-88.54-128.85z" style="" fill="#f58c29" data-original="#444b75" opacity="1"></path><path d="M355.65 161.38 332 158a169.702 169.702 0 0 1-96-48 80.016 80.016 0 0 0-64 32l-15.6 20.8c.81 23.35 2.93 47.47 6.34 70.2 4.245 28.098 7.8 54.552 35.64 78.68l-.5.56L176 356a390.058 390.058 0 0 0 57.95 110.6L256 502l22.05-35.4a389.526 389.526 0 0 0 27.13-41.42A389.809 389.809 0 0 0 336 356l-21.88-43.76-.5-.56c16.78-14.59 28.48-35.32 32.19-57.57 1.95-11.77 2.628-15.523 3.51-21.51 3.45-23.07 5.56-47.56 6.34-71.22h-.01z" style="" fill="#ffffff" data-original="#ffffff"></path><path d="M355.65 161.38 332 158a169.702 169.702 0 0 1-96-48 80.016 80.016 0 0 0-64 32l-15.6 20.8c.81 23.35 2.93 47.47 6.34 70.2 4.245 28.098 7.8 54.552 35.64 78.68l-.5.56C190.547 326.905 257 371 257 371l57.12-58.76-.5-.56c16.78-14.59 28.48-35.32 32.19-57.57 1.95-11.77 2.628-15.523 3.51-21.51 3.45-23.07 5.56-47.56 6.34-71.22h-.01z" style="" fill="#a86931" data-original="#a86931"></path><path d="M396 150v63c0 11.05-8.95 20-20 20h-24l-2.68-.4c3.45-23.07 5.56-47.56 6.34-71.22.13-3.82.22-7.61.26-11.38H396z" style="" fill="#5cc640" data-original="#bf8bde" class="" opacity="1"></path><path d="M264.95 50c50.27 0 91.08 41.14 91.05 91.41 0 5.056-.106 13.102-.34 19.97L332 158a169.702 169.702 0 0 1-96-48 80.016 80.016 0 0 0-64 32l-15.6 20.8c-.26-6.978-.4-15.132-.4-21.39C155.97 91.14 196.78 50 247.05 50h17.9z" style="" fill="#f58c29" data-original="#444b75" opacity="1"></path><path d="M256 253c11.05 0 20 8.95 20 20 0 11.04-8.96 20-20 20h-20c-11.05 0-20-8.95-20-20 0-11.04 8.96-20 20-20h20zM162.74 233H136c-11.05 0-20-8.95-20-20v-63h40.08c.05 4.23.16 8.5.32 12.8.81 23.35 2.93 47.47 6.34 70.2z" style="" fill="#5cc640" data-original="#bf8bde" class="" opacity="1"></path><path d="M366 416c5.52 0 10-4.48 10-10s-4.48-10-10-10-10 4.48-10 10 4.48 10 10 10z" fill="#000000" opacity="1" data-original="#000000" class=""></path><path d="M36 512h440c5.522 0 10-4.477 10-10 0-61.729-40.111-119.908-95.378-138.337l-47.53-15.84-17.063-34.127c15.372-15.646 26.045-36.348 29.644-57.941L357.801 243H376c16.542 0 30-13.458 30-30v-63C406 67.29 338.71 0 256 0c-82.922 0-150 67.097-150 150v63c0 13.036 8.361 24.152 20 28.28V253c0 16.542 13.458 30 30 30h8.782a108.487 108.487 0 0 0 16.774 25.974 103.947 103.947 0 0 0 4.406 4.741l-17.054 34.108-47.531 15.841C66.112 382.092 26 440.271 26 502c0 5.523 4.477 10 10 10zm220-28.914-13.562-21.773a10.133 10.133 0 0 0-.486-.711 381.284 381.284 0 0 1-22.532-33.662l35.663-37.714 37.578 37.578A380.863 380.863 0 0 1 270.05 460.6c-.49.653.205-.376-14.05 22.486zm46.778-74.45-33.948-33.948 42.736-45.194 13.604 27.209a380.908 380.908 0 0 1-22.392 51.933zm-48.095-48.095-19.524-19.525A101.171 101.171 0 0 0 256 343.2c5.471 0 10.943-.458 16.353-1.346l-17.67 18.687zm-55.944-27.659 42.196 42.197-31.718 33.542a381.013 381.013 0 0 1-22.389-51.917l11.911-23.822zM465.6 492H274.01l12.301-19.748a400.826 400.826 0 0 0 27.564-42.132c.05-.088.097-.178.147-.266l.018-.032a400.543 400.543 0 0 0 28.164-61.213l42.093 14.028c44.371 14.796 77.34 59.824 81.303 109.363zM136 223c-5.514 0-10-4.486-10-10v-53h20.298c.033 1.043.068 2.091.107 3.146l.004.107v.009c.7 20.072 2.372 40.481 4.856 59.737H136V223zm209.922-73.21-.001.098-12.508-1.787c-33.98-4.852-66.064-20.894-90.342-45.172A10.003 10.003 0 0 0 236 100c-26.856 0-52.564 12.236-69.558 32.908C170.63 92.189 205.053 60 247.05 60h17.9c44.809 0 81.076 36.651 81.05 81.41 0 3.147-.025 5.887-.078 8.38zM386 213c0 5.514-4.486 10-10 10h-15.262c2.542-19.69 4.236-40.643 4.917-61.28.02-.582.036-1.148.054-1.72H386v53zM256 20c68.318 0 124.496 52.972 129.619 120h-19.635c-.72-55.227-45.693-100-101.033-100h-17.9c-55.339 0-100.315 44.773-101.034 100H126.38C131.445 72.979 187.377 20 256 20zM146 253v-10h8.198l2.128 12.759a105.57 105.57 0 0 0 1.482 7.241H156c-5.514 0-10-4.486-10-10zm61.72 30c4.128 11.639 15.243 20 28.28 20h20c16.575 0 30-13.424 30-30 0-16.542-13.458-30-30-30h-20c-13.327 0-24.278 8.608-28.297 20H178.54c-5.006-16.653-10.734-65.653-12-97.053l13.459-17.946c12.361-16.476 31.592-26.713 52.049-27.888 26.917 25.616 61.739 42.532 98.537 47.786l14.722 2.104c-.984 20.885-2.995 41.843-5.876 61.118l-.003.02c-.916 6.197-1.638 10.185-3.482 21.324-5.296 31.765-28.998 60.49-60.287 68.313a81.338 81.338 0 0 1-39.313 0c-19.537-4.884-37.451-18.402-49.012-37.778h20.386zM226 273c0-5.521 4.478-10 10-10h20c5.514 0 10 4.486 10 10 0 5.522-4.479 10-10 10h-20c-5.514 0-10-4.486-10-10zm-98.298 109.637 42.094-14.028a400.869 400.869 0 0 0 28.463 61.74l.056.101.001.002a400.974 400.974 0 0 0 27.372 41.799L237.99 492H46.4c3.963-49.539 36.932-94.567 81.302-109.363z" fill="#000000" opacity="1" data-original="#000000" class=""></path><path d="M395.042 433.016c9.454 7.273 17.272 16.766 22.611 27.453 2.473 4.949 8.483 6.941 13.415 4.477 4.94-2.468 6.945-8.474 4.478-13.415-6.683-13.377-16.472-25.261-28.309-34.367-4.378-3.369-10.656-2.55-14.023 1.828-3.368 4.378-2.549 10.656 1.828 14.024z" fill="#000000" opacity="1" data-original="#000000" class=""></path></g></svg>