<svg xmlns="http://www.w3.org/2000/svg" version="1.1" xmlns:xlink="http://www.w3.org/1999/xlink" width="512" height="512" x="0" y="0" viewBox="0 0 64 64" style="enable-background:new 0 0 512 512" xml:space="preserve" class=""><g><path fill="#ffffff" d="M33 39.71V50H7V39.71a4.015 4.015 0 0 1 2.51-3.72L17 33h6l7.49 2.99A4.015 4.015 0 0 1 33 39.71z" opacity="1" data-original="#3d9ae2"></path><path fill="#ffffff" d="M23 27.32V32l-3 5-3-5v-4.68z" opacity="1" data-original="#ffc477" class=""></path><path fill="#f58c29" d="M23 27.32V32l-.18.3a6.03 6.03 0 0 1-5.64 0L17 32v-4.68z" opacity="1" data-original="#ffb655" class=""></path><path fill="#f58c29" d="m17 32 3 5-4 3-1-5 1.09-1.64zM23.91 33.36 25 35l-1 5-4-3 3-5z" opacity="1" data-original="#1e81ce" class=""></path><path fill="#57565c" d="M26 14v8H14v-5a3 3 0 0 1 3-3z" opacity="1" data-original="#57565c" class=""></path><path fill="#f58c29" d="M15 22v3h-2a2.015 2.015 0 0 1-2-2 2.006 2.006 0 0 1 2-2h2zM27 21a2.006 2.006 0 0 1 2 2 2.015 2.015 0 0 1-2 2h-2v-4z" opacity="1" data-original="#ffb655" class=""></path><path fill="#ffffff" d="M26 21v4a6 6 0 0 1-12 0v-4a2.006 2.006 0 0 1 2-2h8a2.006 2.006 0 0 1 2 2z" opacity="1" data-original="#ffc477" class=""></path><path fill="#d8d7da" d="M29 39v11H11V39a1 1 0 0 1 1-1h16a1 1 0 0 1 1 1z" opacity="1" data-original="#d8d7da" class=""></path><circle cx="20" cy="44" r="2" fill="#f58c29" opacity="1" data-original="#e6e7e8" class=""></circle><path fill="#a97c50" d="M8 54h48v7H8zM61 50v4H3v-4z" opacity="1" data-original="#a97c50" class=""></path><rect width="18" height="8" x="38" y="34" fill="#d8d7da" rx="2" opacity="1" data-original="#d8d7da" class=""></rect><rect width="18" height="8" x="38" y="42" fill="#acabb1" rx="2" opacity="1" data-original="#acabb1" class=""></rect><rect width="18" height="8" x="38" y="26" fill="#acabb1" rx="2" opacity="1" data-original="#acabb1" class=""></rect><path fill="#5cc640" d="M56 22H36a5 5 0 0 1 0-10h1.18a2.986 2.986 0 0 1 4.05-3.73A6.993 6.993 0 0 1 55 10a6.908 6.908 0 0 1-.29 2H56a5 5 0 0 1 0 10z" opacity="1" data-original="#78b9eb" class=""></path><path fill="#8b5e3c" d="M8 54h48v2H8z" opacity="1" data-original="#8b5e3c" class=""></path><path d="m22.5 27.33-1-1.73a3.06 3.06 0 0 1-3 0l-1 1.73a5 5 0 0 0 5 0z" fill="#000000" opacity="1" data-original="#000000" class=""></path><path d="M61 49h-4.18a3 3 0 0 0 .18-1v-4a2.974 2.974 0 0 0-.78-2 2.974 2.974 0 0 0 .78-2v-4a2.974 2.974 0 0 0-.78-2 2.974 2.974 0 0 0 .78-2v-4a3.009 3.009 0 0 0-3-3H40a3.009 3.009 0 0 0-3 3v4a2.974 2.974 0 0 0 .78 2 2.974 2.974 0 0 0-.78 2v4a2.974 2.974 0 0 0 .78 2 2.974 2.974 0 0 0-.78 2v4a3 3 0 0 0 .18 1H34v-9.29a5 5 0 0 0-3.14-4.65l-6.29-2.51-.57-.85v-.96A7.007 7.007 0 0 0 26.92 26H27a3 3 0 0 0 0-6h-.18a3.174 3.174 0 0 0-.6-1 2.974 2.974 0 0 0 .78-2v-3a1 1 0 0 0-1-1h-9a4 4 0 0 0-4 4v3a3 3 0 0 0 0 6h.08A7.007 7.007 0 0 0 16 30.74v.96l-.57.85-6.29 2.51A5 5 0 0 0 6 39.71V49H3a1 1 0 0 0-1 1v4a1 1 0 0 0 1 1h4v6a1 1 0 0 0 1 1h48a1 1 0 0 0 1-1v-6h4a1 1 0 0 0 1-1v-4a1 1 0 0 0-1-1zM27 22a1 1 0 0 1 0 2zm-14 2a1 1 0 0 1 0-2zm26 4a1 1 0 0 1 1-1h14a1 1 0 0 1 1 1v4a1 1 0 0 1-1 1H40a1 1 0 0 1-1-1zm0 8a1 1 0 0 1 1-1h14a1 1 0 0 1 1 1v4a1 1 0 0 1-1 1H40a1 1 0 0 1-1-1zm0 8a1 1 0 0 1 1-1h14a1 1 0 0 1 1 1v4a1 1 0 0 1-1 1H40a1 1 0 0 1-1-1zm-13.03-8.74 4.15 1.66A3 3 0 0 1 32 39.71V49h-2V39a2.006 2.006 0 0 0-2-2h-2.38zM15 17a2.006 2.006 0 0 1 2-2h8v2a1 1 0 0 1-1 1h-8a3 3 0 0 0-1 .18zm0 8v-4a1 1 0 0 1 1-1h8a1 1 0 0 1 1 1v4a5 5 0 0 1-10 0zm3 6.72v-.01a7.042 7.042 0 0 0 4 0v.01l-2 3.34zm.68 5.02-.34.26h-1.92l-.36-1.79.9-1.34zm4.36-2.87.9 1.34-.36 1.79h-1.92l-.34-.26zM28 39v10H12V39zm-20 .71a3 3 0 0 1 1.88-2.79l4.15-1.66.35 1.74H12a2.006 2.006 0 0 0-2 2v10H8zM55 60H9v-5h46zm5-7H4v-2h56z" fill="#000000" opacity="1" data-original="#000000" class=""></path><path d="M20 47a3 3 0 1 0-3-3 3 3 0 0 0 3 3zm0-4a1 1 0 1 1-1 1 1 1 0 0 1 1-1zM41 45h2v2h-2zM45 45h2v2h-2zM41 37h2v2h-2zM45 37h2v2h-2zM41 29h2v2h-2zM45 29h2v2h-2zM62 17a6 6 0 0 1-6 6h-6v-2h6a4 4 0 0 0 0-8h-1.29a1.018 1.018 0 0 1-.81-.4 1.04 1.04 0 0 1-.15-.89A5.85 5.85 0 0 0 54 10a6 6 0 0 0-11.81-1.49.981.981 0 0 1-.53.66 1.025 1.025 0 0 1-.84.01A1.992 1.992 0 0 0 38 11a1.89 1.89 0 0 0 .13.67 1 1 0 0 1-.95 1.33H36a4 4 0 0 0 0 8h8v2h-8a6 6 0 0 1 0-12 4 4 0 0 1 4-4 3.642 3.642 0 0 1 .57.04A8 8 0 0 1 56 10a8.386 8.386 0 0 1-.06 1H56a6 6 0 0 1 6 6z" fill="#000000" opacity="1" data-original="#000000" class=""></path><path d="M50.536 18.465a5.008 5.008 0 0 0-7.072 0l1.414 1.414a3 3 0 0 1 4.244 0z" fill="#000000" opacity="1" data-original="#000000" class=""></path><path d="m51.95 17.05 1.414-1.414a9.009 9.009 0 0 0-12.728 0l1.414 1.414a7.009 7.009 0 0 1 9.9 0zM45.586 21.586 47 23l1.414-1.414a2 2 0 0 0-2.828 0z" fill="#000000" opacity="1" data-original="#000000" class=""></path></g></svg>