<svg xmlns="http://www.w3.org/2000/svg" version="1.1" xmlns:xlink="http://www.w3.org/1999/xlink" width="512" height="512" x="0" y="0" viewBox="0 0 256 256" style="enable-background:new 0 0 512 512" xml:space="preserve" class=""><g><path d="M123.193 251H99.096a2.5 2.5 0 1 0 0 5h24.097a2.5 2.5 0 1 0 0-5z" fill="#000000" opacity="1" data-original="#000000" class=""></path><path fill="#5b5d60" d="M160.831 117.618c6.775-10.625 3.576-20.971.587-26.814-2.622 4.159-7.244 6.931-12.524 6.931-.807 0-1.594-.083-2.366-.207-.833 12.411-8.115 23.129-18.511 28.795v10.757a9.846 9.846 0 0 0 4.702 8.379c.911.561.202.166 4.633 2.347.616-1.117 1.971-1.705 3.259-1.239l10.696 3.869.191.069c3.561-1.873 6.647-4.432 8.847-7.916 5.47-8.66 2.278-17.052.265-20.808-.707-1.319-.584-2.901.221-4.163zM75.761 97.527c-.772.124-1.558.206-2.366.206-5.28 0-9.902-2.771-12.524-6.93-2.989 5.843-6.189 16.189.587 26.814.805 1.262.927 2.845.22 4.164-2.013 3.756-5.205 12.148.265 20.808 2.2 3.484 5.287 6.043 8.847 7.916l10.887-3.938a2.669 2.669 0 0 1 3.259 1.237c4.893-2.413 3.776-1.816 4.634-2.345a9.846 9.846 0 0 0 4.702-8.379v-10.757c-10.396-5.666-17.678-16.385-18.511-28.796z" opacity="1" data-original="#5b5d60" class=""></path><path fill="#ffffff" d="M148.893 68.114c-.775 0-1.534.065-2.276.18v26.854c0 .8-.036 1.592-.089 2.379.772.124 1.559.207 2.366.207 8.179 0 14.81-6.631 14.81-14.81-.001-8.18-6.631-14.81-14.811-14.81zM75.672 95.148V74.023a57.71 57.71 0 0 1-7.503-2.725 4.512 4.512 0 0 0-4.905.842 14.734 14.734 0 0 0-4.678 10.783c0 8.179 6.631 14.81 14.81 14.81.807 0 1.594-.082 2.366-.206a34.705 34.705 0 0 1-.09-2.379z" opacity="1" data-original="#f9d0b4" class=""></path><path fill="#5b5d60" d="M111.144 15.557c-26.53 0-48.236 21.707-48.236 48.236v8.717c.121-.121.231-.251.356-.368a4.512 4.512 0 0 1 4.905-.843 57.804 57.804 0 0 0 7.503 2.725c27.88 7.941 47.037-11.19 52.439-17.496.869-1.014 2.392-1.087 3.38-.19 4.996 4.54 9.354 6.618 12.944 7.45 1.27.294 2.182 1.399 2.182 2.702v1.804a14.762 14.762 0 0 1 12.763 4.174v-8.675c.001-26.529-21.706-48.236-48.236-48.236z" opacity="1" data-original="#5b5d60" class=""></path><path fill="#ffffff" d="M133.517 145.925a9.863 9.863 0 0 1-5.501-8.845v-10.757a35.16 35.16 0 0 1-16.872 4.298 35.157 35.157 0 0 1-16.872-4.298v10.757a9.862 9.862 0 0 1-5.501 8.845l-3.831 1.889c.154.282.274.589.319.931L99.096 253.5h24.097l13.836-104.755c.021-.16.068-.309.115-.457.015-.049.02-.103.038-.15.044-.116.109-.218.167-.324z" opacity="1" data-original="#dae6f1" class=""></path><path fill="#5b5d60" d="M85.26 148.745a2.69 2.69 0 0 0-3.582-2.178L44.7 159.942a12.672 12.672 0 0 0-8.335 11.091l-5.088 77.958a4.233 4.233 0 0 0 4.224 4.508h63.596zM141.273 203.814c0-20.707 12.67-38.448 30.677-45.912l-31.339-11.335a2.69 2.69 0 0 0-3.582 2.178L123.193 253.5h63.596c.33 0 .648-.044.955-.115-25.941-1.658-46.471-23.211-46.471-49.571z" opacity="1" data-original="#5b5d60" class=""></path><path fill="#ffffff" d="M144.435 63.788c-3.589-.832-7.948-2.911-12.944-7.45-.988-.897-2.512-.824-3.38.19-5.402 6.306-24.56 25.437-52.439 17.496v21.125c0 19.51 15.963 35.472 35.472 35.472 19.51 0 35.473-15.962 35.473-35.472V66.49c0-1.303-.913-2.408-2.182-2.702z" opacity="1" data-original="#f9d0b4" class=""></path><path fill="#f58c29" d="M190.959 154.129c-27.441 0-49.686 22.245-49.686 49.686 0 27.44 22.245 49.686 49.686 49.686s49.686-22.245 49.686-49.686c-.001-27.441-22.246-49.686-49.686-49.686z" opacity="1" data-original="#f5c84c" class=""></path><path fill="#edf4fc" d="m214.218 219.132-17.305-45.418a2.6 2.6 0 0 0-3.354-1.503l-4.14 1.793a2.6 2.6 0 0 0-1.503 3.354l17.305 45.418a2.6 2.6 0 0 0 3.354 1.503l4.14-1.793a2.6 2.6 0 0 0 1.503-3.354z" opacity="1" data-original="#edf4fc"></path><path fill="#5cc640" d="M188.343 178.477c-.517 3.232-2.805 11.852-12.748 16.785-1.423.706-2.104 2.353-1.538 3.837l6.351 16.669c.566 1.485 2.17 2.261 3.702 1.841 10.705-2.934 18.148 1.978 20.685 4.046z" opacity="1" data-original="#f98fa6" class=""></path><path fill="#f58c29" d="m174.338 199.837-12.845 4.894a8.13 8.13 0 0 0 5.789 15.193l12.845-4.895z" opacity="1" data-original="#fc657e" class=""></path><path fill="#edf4fc" d="m180.47 228.463-7.435-10.731-5.754 2.192a8.1 8.1 0 0 1-4.008.456l9.361 13.511a4.766 4.766 0 1 0 7.836-5.428z" opacity="1" data-original="#edf4fc"></path><path fill="#000000" d="m152.457 172.416-3.061-22.67-8.785-3.178a2.69 2.69 0 0 0-3.582 2.177L123.193 253.5h12.714l8.248-32.994a49.59 49.59 0 0 1-2.882-16.692c0-11.911 4.196-22.839 11.184-31.398zM85.26 148.745a2.691 2.691 0 0 0-3.583-2.178l-8.784 3.178-3.882 28.746a2.654 2.654 0 0 0 1.109 2.53l6.446 4.513a2.655 2.655 0 0 1 .476 3.923l-4.274 4.884a2.656 2.656 0 0 0-.578 2.393L86.382 253.5h12.714z" opacity="1" data-original="#818182" class=""></path><path fill="#ffffff" d="M133.517 145.925a9.863 9.863 0 0 1-5.501-8.845v-10.757a35.16 35.16 0 0 1-16.872 4.298 35.157 35.157 0 0 1-16.872-4.298v10.757a9.862 9.862 0 0 1-5.501 8.845l-1.092.539 17.418 10.056a3.29 3.29 0 0 1 1.204 4.495l-.662 1.146c1.809.201 3.645.31 5.506.31s3.697-.109 5.506-.31l-.662-1.146a3.29 3.29 0 0 1 1.204-4.495l17.418-10.056z" opacity="1" data-original="#f9d0b4" class=""></path><path fill="#edf4fc" d="m134.61 146.464-17.418 10.056a3.29 3.29 0 0 0-1.204 4.495l3.547 6.144a7.709 7.709 0 0 0 10.531 2.822l4.501-2.599 2.461-18.637c.021-.16.068-.309.115-.457.015-.049.02-.103.038-.15.044-.116.109-.218.167-.324zM105.096 156.52l-17.418-10.056-2.738 1.35c.154.282.274.589.319.931l2.461 18.636 4.501 2.599a7.71 7.71 0 0 0 10.531-2.822l3.547-6.144a3.288 3.288 0 0 0-1.203-4.494z" opacity="1" data-original="#edf4fc"></path><path fill="#f58c29" d="M196.856 115.2c-3.1-.6-5.6-3-6.2-6.1 0-.1-.3-.1-.3 0-.6 3.1-3.1 5.5-6.2 6.1-.1 0-.1.2 0 .3 3.1.6 5.6 3 6.2 6.1 0 .1.3.1.3 0 .6-3.1 3.1-5.5 6.2-6.1.1-.1.1-.3 0-.3z" opacity="1" data-original="#fc657e" class=""></path><path fill="#5cc640" d="M31.956 133.5h-2.4v-2.3c0-1.8-1.4-3.2-3.2-3.2-1.7 0-3.2 1.4-3.2 3.1v2.4h-2.3c-1.8 0-3.2 1.4-3.2 3.2-.1 1.7 1.3 3.2 3.2 3.2h2.3v2.3c0 1.8 1.4 3.2 3.2 3.2 1.7 0 3.2-1.4 3.2-3.1v-2.4h2.3c1.8 0 3.2-1.4 3.2-3.2 0-1.7-1.4-3.2-3.1-3.2z" opacity="1" data-original="#70d6f9" class=""></path><path fill="#87d147" d="M152.256 0a3.4 3.4 0 1 0 0 6.8 3.4 3.4 0 0 0 0-6.8z" opacity="1" data-original="#87d147" class=""></path><path fill="#f58c29" d="M16.256 167a3.4 3.4 0 1 0 0 6.8 3.4 3.4 0 0 0 0-6.8zM181.856 28.2c-4.5-.8-8-4.3-8.9-8.7 0-.2-.4-.2-.4 0-.9 4.4-4.4 7.9-8.9 8.7-.2 0-.2.3 0 .4 4.5.8 8 4.3 8.9 8.7 0 .2.4.2.4 0 .9-4.4 4.4-7.9 8.9-8.7.2-.1.2-.4 0-.4z" opacity="1" data-original="#f5c84c" class=""></path><path d="M162.938 118.961c7.434-11.656 3.788-23.048.954-28.801a2.5 2.5 0 0 0-4.486 2.211c2.895 5.875 5.126 14.791-.684 23.902-1.308 2.051-1.429 4.614-.315 6.688 1.951 3.64 4.522 10.856-.175 18.293-1.746 2.766-4.282 5.069-7.538 6.846a2.5 2.5 0 0 0 2.395 4.389c4.012-2.189 7.164-5.071 9.37-8.564 6.277-9.938 2.339-19.622.354-23.326-.263-.491-.216-1.103.125-1.638zM71.307 147.941c-3.116-1.753-5.556-4.002-7.25-6.687-4.697-7.437-2.126-14.653-.175-18.292 1.113-2.075.992-4.639-.315-6.689-5.865-9.198-3.553-18.189-.58-24.112a2.5 2.5 0 1 0-4.469-2.242c-2.909 5.796-6.669 17.276.833 29.042.341.536.388 1.148.125 1.64-1.984 3.702-5.923 13.387.354 23.324 2.143 3.394 5.18 6.211 9.028 8.374a2.501 2.501 0 0 0 3.405-.953 2.502 2.502 0 0 0-.956-3.405z" fill="#000000" opacity="1" data-original="#000000" class=""></path><path d="M147.312 65.688a2.5 2.5 0 0 0-2.253 2.725c.13 1.375 1.361 2.374 2.725 2.254.366-.035.735-.054 1.11-.054 6.788 0 12.31 5.522 12.31 12.311 0 6.787-5.522 12.31-12.31 12.31-.38 0-.772-.022-1.198-.069a2.501 2.501 0 0 0-.543 4.971c.608.066 1.178.099 1.741.099 9.545 0 17.31-7.765 17.31-17.31-.001-10.066-8.64-18.206-18.892-17.237zM76.357 71.619a55.683 55.683 0 0 1-7.178-2.607 7 7 0 0 0-7.625 1.306 17.343 17.343 0 0 0-5.469 12.606c0 9.545 7.765 17.31 17.31 17.31.481 0 .956-.024 1.424-.067 1.375-.126 2.387-1.343 2.261-2.718s-1.345-2.394-2.718-2.261a10.65 10.65 0 0 1-.967.046c-6.788 0-12.31-5.522-12.31-12.31 0-3.427 1.381-6.607 3.889-8.959a2.004 2.004 0 0 1 2.185-.379 60.455 60.455 0 0 0 7.827 2.842 2.498 2.498 0 0 0 3.089-1.719 2.499 2.499 0 0 0-1.718-3.09z" fill="#000000" opacity="1" data-original="#000000" class=""></path><path d="M111.145 13.057c-27.976 0-50.736 22.76-50.736 50.736v8.315a2.5 2.5 0 1 0 5 0v-8.315c0-25.219 20.517-45.736 45.736-45.736s45.736 20.518 45.736 45.736v8.176a2.5 2.5 0 1 0 5 0v-8.176c-.001-27.977-22.76-50.736-50.736-50.736zM94.272 124.375a2.5 2.5 0 0 0-2.5 2.5v10.205a7.318 7.318 0 0 1-4.106 6.604l-3.273 1.613a2.5 2.5 0 1 0 2.211 4.485l3.273-1.613a12.289 12.289 0 0 0 6.895-11.088v-10.205a2.5 2.5 0 0 0-2.5-2.501zM138.1 145.397l-3.476-1.714a7.317 7.317 0 0 1-4.107-6.604v-10.247a2.5 2.5 0 1 0-5 0v10.247c0 4.741 2.642 8.99 6.896 11.088l3.477 1.714a2.5 2.5 0 1 0 2.21-4.484zM123.048 105.979a2.498 2.498 0 0 0-3.521.31c-1.848 2.204-4.981 3.52-8.382 3.52s-6.535-1.315-8.383-3.52a2.5 2.5 0 0 0-3.831 3.212c2.786 3.323 7.352 5.307 12.214 5.307s9.428-1.983 12.213-5.307a2.5 2.5 0 0 0-.31-3.522zM126.577 82.427a4.596 4.596 0 1 0 0 9.193 4.596 4.596 0 0 0 0-9.193zM95.712 82.427a4.596 4.596 0 1 0 0 9.193 4.596 4.596 0 0 0 0-9.193zM58.137 186.422a2.5 2.5 0 0 0-2.5 2.5v63.828a2.5 2.5 0 1 0 5 0v-63.828a2.5 2.5 0 0 0-2.5-2.5z" fill="#000000" opacity="1" data-original="#000000" class=""></path><path d="M101.574 253.173 87.739 148.418a5.168 5.168 0 0 0-2.451-3.757 5.166 5.166 0 0 0-4.46-.444l-36.979 13.375a15.173 15.173 0 0 0-9.979 13.278l-5.088 77.958a6.758 6.758 0 0 0 1.805 5.043A6.755 6.755 0 0 0 35.5 256h63.596a2.503 2.503 0 0 0 2.478-2.827zM35.5 251c-.484 0-.933-.194-1.264-.548s-.496-.814-.465-1.298l5.088-77.958a10.175 10.175 0 0 1 6.69-8.903l36.979-13.375c.012-.004.035-.013.065-.013.027 0 .061.007.097.029a.173.173 0 0 1 .09.138L96.244 251zM189.754 253.149a2.506 2.506 0 0 0-2.799-2.16c-.055.007-.11.011-.167.011h-60.744l13.462-101.928a.176.176 0 0 1 .09-.138c.078-.046.139-.023.164-.017l31.068 11.237a2.5 2.5 0 1 0 1.7-4.701l-31.067-11.237a5.175 5.175 0 0 0-4.461.444 5.163 5.163 0 0 0-2.45 3.757l-13.835 104.755a2.502 2.502 0 0 0 2.479 2.828h63.596c.273 0 .542-.018.805-.052a2.5 2.5 0 0 0 2.159-2.799zM145 61.353c-3.805-.882-7.784-3.191-11.827-6.865a4.888 4.888 0 0 0-3.592-1.265 4.794 4.794 0 0 0-3.368 1.679c-4.995 5.831-23.353 24.268-49.856 16.718a2.5 2.5 0 0 0-3.185 2.404v21.125c0 20.938 17.035 37.973 37.973 37.973s37.972-17.034 37.972-37.973V66.49c0-2.464-1.694-4.576-4.117-5.137zm-.883 33.795c0 18.182-14.792 32.973-32.972 32.973-18.181 0-32.973-14.791-32.973-32.973V77.233c27.459 6.054 46.311-12.669 51.734-18.958 4.652 4.205 9.35 6.879 13.965 7.948.122.028.246.122.246.267zM111.145 172.107a2.5 2.5 0 0 0-2.5 2.5v67.785a2.5 2.5 0 1 0 5 0v-67.785a2.5 2.5 0 0 0-2.5-2.5z" fill="#000000" opacity="1" data-original="#000000" class=""></path><path d="M190.958 151.629c-28.775 0-52.186 23.41-52.186 52.186S162.184 256 190.959 256s52.186-23.41 52.186-52.186-23.411-52.185-52.187-52.185zm.001 99.371c-26.019 0-47.186-21.167-47.186-47.186s21.167-47.186 47.186-47.186c26.018 0 47.186 21.167 47.186 47.186S216.977 251 190.959 251z" fill="#000000" opacity="1" data-original="#000000" class=""></path><path d="M226.536 187.845a2.5 2.5 0 0 0-3.234-1.428l-6.768 2.621a2.501 2.501 0 0 0 1.806 4.662l6.768-2.621a2.5 2.5 0 0 0 1.428-3.234zM215.826 173.84a2.499 2.499 0 0 0-3.428.865l-3.719 6.232a2.5 2.5 0 1 0 4.293 2.563l3.719-6.232a2.499 2.499 0 0 0-.865-3.428zM226.386 202.294l-6.947-2.102a2.5 2.5 0 0 0-1.448 4.785l6.947 2.102a2.502 2.502 0 0 0 3.117-1.669 2.5 2.5 0 0 0-1.669-3.116zM216.554 218.241l-17.305-45.417a5.065 5.065 0 0 0-2.679-2.838 5.061 5.061 0 0 0-4.005-.07l-4.096 1.775a5.106 5.106 0 0 0-2.889 6.557l17.305 45.417a5.07 5.07 0 0 0 2.679 2.838 5.084 5.084 0 0 0 3.902.111c.035-.014.069-.027.103-.042l4.096-1.774a5.064 5.064 0 0 0 2.777-2.655 5.064 5.064 0 0 0 .112-3.902zm-4.729 1.908c-.035.013-.07.027-.104.042l-4.052 1.755c-.046.015-.097-.021-.112-.062l-17.305-45.417a.099.099 0 0 1 .057-.128c.035-.013.07-.027.104-.042l4.05-1.755c.044-.013.098.021.113.062l17.305 45.417c.017.044-.012.112-.056.128z" fill="#000000" opacity="1" data-original="#000000" class=""></path><path d="M206.107 219.504c-2.975-2.347-11.136-7.461-22.658-4.306-.307.082-.602-.051-.705-.32l-6.352-16.669c-.101-.265.034-.569.313-.708 10.744-5.331 13.413-14.619 14.062-18.365a2.5 2.5 0 0 0-4.927-.854c-.519 2.995-2.663 10.427-11.357 14.74-2.598 1.289-3.786 4.284-2.763 6.968l6.351 16.668c1.022 2.684 3.906 4.132 6.699 3.362 9.324-2.556 15.862 1.533 18.24 3.409a2.491 2.491 0 0 0 1.547.537 2.498 2.498 0 0 0 1.55-4.462z" fill="#000000" opacity="1" data-original="#000000" class=""></path><path d="M181.891 214.359a2.497 2.497 0 0 0-3.227-1.446l-12.272 4.676c-2.902 1.103-6.16-.355-7.265-3.256s.355-6.16 3.256-7.266l12.187-4.644a2.5 2.5 0 0 0 1.446-3.226 2.496 2.496 0 0 0-3.226-1.446l-12.187 4.644c-5.477 2.087-8.234 8.24-6.148 13.718a10.56 10.56 0 0 0 5.585 5.914c1.39.623 2.865.936 4.343.936 1.278 0 2.559-.233 3.789-.702l12.272-4.676a2.5 2.5 0 0 0 1.447-3.226z" fill="#000000" opacity="1" data-original="#000000" class=""></path><path d="m182.525 227.039-7.129-10.29a2.5 2.5 0 1 0-4.11 2.848l7.129 10.29a2.269 2.269 0 0 1-.572 3.153 2.245 2.245 0 0 1-1.695.367 2.25 2.25 0 0 1-1.458-.939l-9.252-13.354a2.5 2.5 0 1 0-4.11 2.848l9.252 13.354a7.219 7.219 0 0 0 4.676 3.012 7.207 7.207 0 0 0 5.435-1.178c3.292-2.282 4.116-6.817 1.834-10.111zM154.879 171.668l-2.903-21.498a2.5 2.5 0 1 0-4.955.67l2.903 21.498a2.5 2.5 0 0 0 4.955-.67zM144.694 218.351a2.506 2.506 0 0 0-3.032 1.819l-8.014 32.056a2.5 2.5 0 1 0 4.85 1.212l8.014-32.056a2.498 2.498 0 0 0-1.818-3.031zM88.65 252.266l-14.034-56.139a.152.152 0 0 1 .034-.14l4.273-4.884a5.159 5.159 0 0 0 1.239-4.014A5.158 5.158 0 0 0 78 183.485l-6.445-4.511a.156.156 0 0 1-.066-.148l3.831-28.371a2.5 2.5 0 0 0-4.955-.67l-3.831 28.372a5.137 5.137 0 0 0 2.152 4.912l6.446 4.512c.015.011.057.04.065.109a.145.145 0 0 1-.037.12l-4.274 4.884a5.157 5.157 0 0 0-1.121 4.646l14.034 56.138a2.501 2.501 0 1 0 4.851-1.212zM115.753 159.741a46.67 46.67 0 0 1-9.283-.006 2.489 2.489 0 0 0-2.737 2.238 2.5 2.5 0 0 0 2.239 2.736c1.728.173 3.468.261 5.172.261a52.28 52.28 0 0 0 5.098-.253 2.5 2.5 0 0 0-.489-4.976z" fill="#000000" opacity="1" data-original="#000000" class=""></path><path d="m132.958 165.424-4.142 2.392a5.187 5.187 0 0 1-3.953.521 5.177 5.177 0 0 1-3.163-2.428l-3.547-6.144a.791.791 0 0 1 .29-1.08l17.095-9.869a2.5 2.5 0 0 0-2.5-4.33l-17.095 9.869a5.798 5.798 0 0 0-2.119 7.91l3.547 6.144a10.144 10.144 0 0 0 6.199 4.757 10.151 10.151 0 0 0 7.747-1.019l4.142-2.392c1.196-.69 1.605-2.22.915-3.415s-2.22-1.61-3.416-.916zM106.347 154.354l-17.078-9.859a2.5 2.5 0 0 0-2.5 4.33l17.077 9.858a.793.793 0 0 1 .29 1.081l-3.547 6.144a5.18 5.18 0 0 1-3.163 2.428 5.18 5.18 0 0 1-3.953-.521l-4.296-2.48a2.5 2.5 0 0 0-2.5 4.33l4.296 2.48a10.148 10.148 0 0 0 7.747 1.019 10.147 10.147 0 0 0 6.199-4.757l3.547-6.144a5.797 5.797 0 0 0-2.119-7.909z" fill="#000000" opacity="1" data-original="#000000" class=""></path></g></svg>