<svg xmlns="http://www.w3.org/2000/svg" version="1.1" xmlns:xlink="http://www.w3.org/1999/xlink" width="512" height="512" x="0" y="0" viewBox="0 0 512 512" style="enable-background:new 0 0 512 512" xml:space="preserve" class=""><g><g fill-rule="evenodd" clip-rule="evenodd"><path fill="#f58c29" d="M332.473 346.486c-3.962-85.571-75.185-154.344-161.691-154.344S13.053 260.915 9.09 346.486c-.094 2.036.576 3.821 1.983 5.295 1.407 1.475 3.161 2.225 5.199 2.225H325.29c2.038 0 3.793-.751 5.2-2.225 1.406-1.474 2.078-3.26 1.983-5.295z" opacity="1" data-original="#64b5f6" class=""></path><path fill="#5cc640" d="M146.955 354.006h47.654l-15.121-62.857 23.622-38.004-32.328-23.488-32.329 23.488 23.623 38.004z" opacity="1" data-original="#ffda2d" class=""></path><path fill="#ffffff" d="m170.782 229.657 32.328 23.488-23.622 38.004h-17.412l-23.622-38.004z" opacity="1" data-original="#ffc700" class=""></path><path fill="#ffffff" d="M132.091 196.858a161.012 161.012 0 0 0-44.686 18.571l32.356 63.312c.738 1.444 1.973 2.379 3.563 2.697s3.091-.07 4.327-1.118l43.13-36.568zM209.472 196.858a161.012 161.012 0 0 1 44.686 18.571l-32.356 63.312c-.738 1.444-1.974 2.379-3.564 2.697s-3.09-.07-4.327-1.118l-43.13-36.568z" opacity="1" data-original="#2d90f1" class=""></path><g fill="#ffd6bd"><path d="M230.285 203.54c-18.441-7.35-38.522-11.399-59.503-11.399s-41.061 4.049-59.502 11.398l59.503 40.211z" fill="#ffffff" opacity="1" data-original="#ffd6bd" class=""></path><circle cx="170.782" cy="104.659" r="87.483" transform="rotate(-45 170.776 104.698)" fill="#ffffff" opacity="1" data-original="#ffd6bd" class=""></circle></g><path fill="#f58c29" d="M210.637 432.724h37.101c2.093 0 3.8 1.707 3.8 3.8v54.501c0 2.093-1.707 3.8-3.8 3.8h-37.101a3.807 3.807 0 0 1-3.8-3.8v-54.501c0-2.093 1.707-3.8 3.8-3.8z" opacity="1" data-original="#fc685b" class=""></path><path fill="#5cc640" d="M288.697 391.805h37.101c2.093 0 3.8 1.707 3.8 3.8v95.42c0 2.093-1.707 3.8-3.8 3.8h-37.101a3.807 3.807 0 0 1-3.8-3.8v-95.42c0-2.093 1.707-3.8 3.8-3.8z" opacity="1" data-original="#ffda2d" class=""></path><path fill="#72d561" d="M366.757 350.883h37.101c2.093 0 3.8 1.707 3.8 3.8v136.341c0 2.093-1.707 3.8-3.8 3.8h-37.101a3.807 3.807 0 0 1-3.8-3.8V354.683c0-2.093 1.707-3.8 3.8-3.8z" opacity="1" data-original="#72d561" class=""></path><path fill="#f58c29" d="M485.718 320.403v170.621c0 2.093-1.707 3.8-3.8 3.8h-37.101a3.807 3.807 0 0 1-3.8-3.8V320.403h-14.28c-2.549 0-3.87-3.037-2.13-4.901l35.3-37.821a4.732 4.732 0 0 1 6.921 0l35.299 37.821c1.74 1.864.42 4.901-2.13 4.901z" opacity="1" data-original="#64b5f6" class=""></path><path fill="#59af17" d="m379.802 255.158-7.354-12.738c-1.628-2.817.623-6.416 3.996-5.96l48.23 6.516a3.994 3.994 0 0 1 3.162 5.478l-18.471 45.027c-1.292 3.15-5.534 3.299-7.16.48l-7.354-12.737-171.798 99.188a5.247 5.247 0 0 1-7.154-1.917l-9.812-16.995a5.248 5.248 0 0 1 1.917-7.154z" opacity="1" data-original="#b4d2d7" class=""></path><circle cx="407.014" cy="113.08" r="95.904" fill="#ffffff" opacity="1" data-original="#fdb800" class=""></circle><circle cx="407.014" cy="113.08" r="66.939" fill="#5cc640" opacity="1" data-original="#ffda2d" class=""></circle><path d="M383.579 99.141c0-9.857 6.556-18.215 15.517-20.974v-4.872c0-4.419 3.584-7.999 8.018-7.999 4.386 0 7.971 3.58 7.971 7.999v4.533c5.047 1.226 9.527 4.217 12.64 8.494 2.594 3.58 1.745 8.579-1.792 11.169a8.01 8.01 0 0 1-11.178-1.797c-1.132-1.561-2.924-2.491-4.811-2.491h-4.386c-3.301 0-5.943 2.665-5.943 5.938s2.641 5.938 5.943 5.938h3.113c12.074 0 21.931 9.843 21.931 21.941 0 9.852-6.556 18.215-15.517 20.974v4.872c0 4.419-3.584 7.999-7.971 7.999-4.433 0-8.018-3.58-8.018-7.999v-4.533c-4.999-1.231-9.527-4.217-12.593-8.49-2.594-3.58-1.792-8.584 1.792-11.173s8.584-1.783 11.178 1.797c1.132 1.561 2.924 2.49 4.811 2.49h4.386c3.254 0 5.943-2.665 5.943-5.938s-2.688-5.938-5.943-5.938h-3.113c-12.12.001-21.978-9.843-21.978-21.94zm23.535-45c-32.496 0-58.955 26.44-58.955 58.937 0 32.501 26.459 58.941 58.955 58.941s58.908-26.441 58.908-58.941c0-32.496-26.411-58.937-58.908-58.937zm0 133.876c41.316 0 74.944-33.614 74.944-74.939 0-41.321-33.628-74.939-74.944-74.939s-74.944 33.619-74.944 74.939c0 41.325 33.628 74.939 74.944 74.939zm0-162.839c-48.485 0-87.914 39.429-87.914 87.9s39.429 87.905 87.914 87.905c48.438 0 87.867-39.434 87.867-87.905s-39.429-87.9-87.867-87.9zm0 191.803c57.258 0 103.903-46.608 103.903-103.903 0-57.29-46.646-103.903-103.903-103.903-57.305 0-103.903 46.612-103.903 103.903 0 57.295 46.599 103.903 103.903 103.903zM324.53 346.004h-25.799l24.384-14.083a140.84 140.84 0 0 1 1.415 14.083zm-103.007 26.1 169.414-97.809c3.82-2.207 8.725-.896 10.942 2.929l3.254 5.679 13.442-32.694-35.043-4.73 3.301 5.683c2.169 3.825.896 8.716-2.971 10.923l-169.367 97.809zm-14.998-26.1 102.629-59.238a154.84 154.84 0 0 0-51.786-59.87l-31.317 61.252c-1.085 2.174-3.16 3.726-5.518 4.202a8.76 8.76 0 0 1-1.604.156 8.027 8.027 0 0 1-5.188-1.896l-15.989-13.569-9.621 15.484 12.876 53.48h5.518zM84.322 226.834l31.364 61.313c1.085 2.174 3.16 3.726 5.518 4.202a8.383 8.383 0 0 0 1.604.156c1.887 0 3.726-.66 5.141-1.896l16.036-13.569 9.622 15.484-12.876 53.48H17.207c2.547-49.481 28.581-92.853 67.115-119.17zm128.192-20.899-41.646 28.157-41.74-28.199a153.778 153.778 0 0 1 41.74-5.754c14.291 0 28.299 2.018 41.646 5.796zM91.397 104.659c0-43.83 35.656-79.481 79.472-79.481s79.472 35.652 79.472 79.481c0 43.825-35.656 79.482-79.472 79.482s-79.472-35.657-79.472-79.482zm92.677 139.809 47.211-31.907a147.637 147.637 0 0 1 12.357 5.99l-27.214 53.324zm-8.961 38.675 10.329-16.564-14.574-12.343-14.574 12.343 10.329 16.564zm-6.65 16.003h4.811l11.272 46.858h-27.355zm-43.155-27.271 32.355-27.407-47.259-31.935a147.443 147.443 0 0 0-12.357 5.966zm266.714 20.276 3.348 5.806c2.311 4 6.603 6.292 11.225 5.98 4.575-.306 8.49-3.151 10.235-7.419l18.488-45.028c1.415-3.467 1.179-7.31-.708-10.551-1.887-3.245-5.047-5.391-8.773-5.891l-48.249-6.518c-4.575-.618-9.008 1.368-11.555 5.188-2.594 3.839-2.736 8.711-.425 12.701l3.349 5.811-45.938 26.511c-22.12-44.518-62.068-76.609-108.902-88.985 30.987-15.805 52.211-48.018 52.211-85.099 0-52.649-42.825-95.484-95.46-95.484S75.361 52.01 75.361 104.659c0 37.066 21.271 69.27 52.211 85.08-28.676 7.575-55.04 22.658-76.689 44.292C18.717 266.202.983 308.81.983 354.003c0 4.415 3.584 7.999 8.018 7.999h188.846a12.649 12.649 0 0 0 1.415 3.5l9.81 16.993c1.745 3.061 4.622 5.25 8.018 6.164a13.27 13.27 0 0 0 3.443.458c2.311 0 4.575-.599 6.603-1.778l43.863-25.337h61.738c2.122 0 4.151-.844 5.66-2.344s2.358-3.533 2.358-5.655c0-10.287-.99-20.559-2.83-30.629zm93.762 20.253c-4.386 0-7.971 3.58-7.971 7.999v166.419H449.09V320.403c0-4.419-3.584-7.999-7.971-7.999h-2.594l24.903-26.704 24.95 26.704zm-13.017-40.179 35.279 37.821a10.873 10.873 0 0 1 2.028 11.796c-1.698 3.985-5.66 6.561-9.999 6.561h-6.273v166.419c0 4.424-3.584 8.004-8.018 8.004H441.12c-4.433 0-8.018-3.58-8.018-8.004v-166.42h-6.273c-4.339 0-8.301-2.575-9.999-6.561a10.878 10.878 0 0 1 2.028-11.796l35.279-37.821c2.405-2.57 5.801-4.047 9.291-4.047a12.784 12.784 0 0 1 9.339 4.048zM243.643 486.822H214.92v-46.098h28.723zm7.971-62.097h-44.712c-4.386 0-7.971 3.58-7.971 7.999v62.097c0 4.424 3.584 8.004 7.971 8.004h44.712c4.434 0 8.018-3.58 8.018-8.004v-62.097c0-4.419-3.585-7.999-8.018-7.999zm70.086 62.097h-28.723v-87.018H321.7zm7.971-103.016c4.433 0 8.018 3.579 8.018 7.999v103.016c0 4.424-3.584 8.004-8.018 8.004h-44.712c-4.386 0-7.971-3.58-7.971-8.004V391.805c0-4.419 3.584-7.999 7.971-7.999zm70.086 103.016h-28.723V358.884h28.723zm7.97-143.941c4.433 0 8.018 3.585 8.018 7.999v143.941c0 4.424-3.585 8.004-8.018 8.004h-44.665c-4.433 0-8.018-3.58-8.018-8.004V350.88c0-4.414 3.584-7.999 8.018-7.999z" fill="#000000" opacity="1" data-original="#000000" class=""></path></g></g></svg>