<svg viewBox="0 0 512 512" xml:space="preserve" xmlns="http://www.w3.org/2000/svg"><path d="M256.099 478.959c-11.768-.006-21.954-4.228-30.282-12.548-8.231-8.233-12.411-18.375-12.411-30.134.019-5.898 1.096-11.423 3.21-16.499L133.96 372.19a45.65 45.65 0 0 1-3.733 4.162c-8.196 8.289-18.345 12.521-30.116 12.523-11.745-.004-21.912-4.228-30.218-12.551-8.228-8.203-12.406-18.32-12.408-30.062.002-11.751 4.172-21.928 12.387-30.248 7.023-6.953 15.324-11.003 24.765-12.12V208.25c-9.45-1.124-17.758-5.229-24.742-12.229-8.228-8.203-12.406-18.32-12.408-30.06.002-11.751 4.172-21.928 12.387-30.251 8.35-8.263 18.505-12.434 30.236-12.436 11.762.002 21.9 4.18 30.141 12.408a45.797 45.797 0 0 1 3.771 4.307l82.589-47.677c-2.106-5.045-3.185-10.544-3.202-16.422 0-11.746 4.172-21.901 12.393-30.203 8.362-8.276 18.536-12.467 30.285-12.496 11.788.029 21.929 4.229 30.159 12.48 8.301 8.304 12.499 18.468 12.479 30.208.019 5.862-1.037 11.372-3.141 16.43l82.663 47.684a46.106 46.106 0 0 1 3.744-4.283c8.35-8.263 18.505-12.434 30.231-12.436 11.765.002 21.907 4.18 30.144 12.408 8.304 8.336 12.502 18.52 12.483 30.272.019 11.751-4.188 21.872-12.505 30.091-6.914 6.995-15.215 11.099-24.714 12.211v95.632c9.51 1.112 17.798 5.168 24.734 12.099 8.31 8.337 12.505 18.521 12.483 30.283.021 11.735-4.187 21.861-12.505 30.08-8.194 8.289-18.343 12.521-30.116 12.522-11.746-.003-21.909-4.227-30.22-12.55a45.362 45.362 0 0 1-3.749-4.248l-82.688 47.701c2.111 5.09 3.169 10.621 3.149 16.516.021 11.745-4.183 21.894-12.498 30.134-8.199 8.302-18.346 12.528-30.121 12.534zm-27.583-58.573c-2.782 4.736-4.144 9.938-4.164 15.908 0 8.856 3.015 16.187 9.207 22.38 6.286 6.281 13.658 9.336 22.54 9.342 8.861-.006 16.183-3.052 22.377-9.32 6.286-6.229 9.313-13.546 9.298-22.409.019-5.977-1.323-11.171-4.104-15.904-1.353-2.296-3.084-4.5-5.154-6.553-6.214-6.207-13.541-9.218-22.42-9.221-8.895.003-16.272 3.021-22.563 9.229-1.965 1.987-3.656 4.191-4.984 6.494-.012.022-.023.037-.033.054zm33.053-26.407c9.458 1.114 17.737 5.167 24.667 12.093a45.225 45.225 0 0 1 3.801 4.263l82.692-47.698c-2.105-5.028-3.181-10.509-3.198-16.354.019-5.93 1.101-11.479 3.22-16.585l-21.017-12.122c-8.022 5.144-17.125 7.74-27.147 7.756h-63.018v68.647zm-122.024-31.205 82.567 47.538a44.954 44.954 0 0 1 3.683-4.216c7.045-6.952 15.367-11.003 24.828-12.117v-68.654l-62.034-.062-1.036.062c-.095.005-.188.005-.283.005h-1.437c-9.49-.229-18.063-2.771-25.627-7.556l-20.669 11.965c2.145 5.087 3.239 10.618 3.261 16.501-.022 5.923-1.112 11.458-3.253 16.534zm245.083-.785.032.06c1.342 2.303 3.052 4.505 5.091 6.543 6.272 6.281 13.622 9.339 22.475 9.341 8.86-.002 16.182-3.051 22.377-9.316 6.288-6.215 9.313-13.509 9.298-22.343.016-8.896-3.021-16.267-9.285-22.551-6.187-6.184-13.518-9.196-22.396-9.196a.181.181 0 0 0-.057 0c-8.838.016-16.177 3.032-22.431 9.225-1.999 2.023-3.727 4.241-5.086 6.546-2.784 4.773-4.147 10.004-4.169 15.985.022 5.883 1.379 11.035 4.151 15.706zm-284.522-47.464c-8.864 0-16.223 3.021-22.488 9.224-6.166 6.244-9.186 13.624-9.188 22.517.003 8.847 3.012 16.15 9.2 22.321 6.275 6.286 13.625 9.344 22.479 9.346 8.859-.002 16.183-3.051 22.377-9.316 2.079-2.055 3.79-4.214 5.137-6.466 0-.006.005-.011.008-.017 2.819-4.725 4.198-9.92 4.221-15.894-.021-5.91-1.4-11.108-4.224-15.85a.054.054 0 0 0-.01-.02v-.003a.03.03 0 0 0-.009-.01c-.002-.006 0-.003-.008-.014l-.017-.027v-.002c-1.331-2.314-3.047-4.537-5.094-6.605-6.177-6.171-13.505-9.184-22.384-9.184zm5.474-10.629c9.455 1.111 17.735 5.167 24.667 12.093a45.679 45.679 0 0 1 3.77 4.302l17.051-9.871-.032-.032c-9.869-9.856-14.875-21.929-14.872-35.879-.003-13.969 5-26.064 14.872-35.944 8.079-8.065 17.646-12.879 28.494-14.354.08-1.956.246-3.896.497-5.81l-46.063-26.517a45.938 45.938 0 0 1-3.735 4.163c-6.897 6.979-15.181 11.078-24.646 12.205l-.003 95.644zm255.193 6.258 17.499 10.094a46.738 46.738 0 0 1 3.715-4.23c7.005-6.935 15.281-10.987 24.694-12.112v-95.661c-9.425-1.139-17.703-5.236-24.677-12.222a44.2 44.2 0 0 1-3.669-4.12l-41.224 23.731c.36 2.01.537 4.088.534 6.218a36.245 36.245 0 0 1-.152 3.38c8.622 2.187 16.354 6.653 23.04 13.327 9.878 9.886 14.884 21.981 14.878 35.953.008 13.834-4.918 25.826-14.638 35.642zm-196.975-3.175c6.503 4.783 13.753 7.204 22.173 7.409l2.104-.057c.12-.011.326 0 .363-.014l136.144.067c8.979-.015 16.677-2.496 23.51-7.591.049-.038.098-.075.147-.11a48.543 48.543 0 0 0 4.554-4.029c7.862-7.85 11.68-17.052 11.674-28.146.006-11.12-3.813-20.349-11.671-28.215-6.46-6.445-13.778-10.144-22.377-11.303a5.47 5.47 0 0 1-4.538-6.915c.552-1.933.823-4.026.82-6.226.003-2.564-.36-4.97-1.085-7.166-1.034-3.078-2.771-5.799-5.311-8.326-4.332-4.354-9.401-6.466-15.507-6.477-5.231.016-9.689 1.544-13.603 4.682a5.523 5.523 0 0 1-4.464 1.102 5.483 5.483 0 0 1-3.729-2.687c-2.161-3.837-4.951-7.497-8.293-10.88-5.942-5.921-12.741-10.064-20.183-12.283-.011 0-.021-.005-.032-.01-4.563-1.385-9.506-2.085-14.686-2.085h-.083c-13.736 0-25.127 4.714-34.842 14.407-7.159 7.155-11.566 15.134-13.462 24.384-.014.075-.026.145-.043.219-.642 3.267-.968 6.741-.968 10.307a67.922 67.922 0 0 0 0 2.118 5.468 5.468 0 0 1-5.267 5.539c-10.313.388-18.94 4.185-26.376 11.604-7.853 7.861-11.668 17.09-11.665 28.207-.003 11.097 3.813 20.299 11.668 28.144a43.398 43.398 0 0 0 5.028 4.331zM139.545 182.47l43.078 24.8c2.897-8.453 7.762-16.122 14.528-22.882 11.708-11.687 26.03-17.607 42.57-17.607 3.74.103 7.379.297 10.9.897v-49.5c-9.472-1.105-17.791-5.184-24.799-12.162a44.416 44.416 0 0 1-3.712-4.24l-82.572 47.667c2.145 5.084 3.236 10.609 3.258 16.496-.02 5.923-1.11 11.454-3.251 16.531zm165.25 6.47c9.055.018 16.874 3.273 23.257 9.685 2.047 2.041 3.783 4.253 5.189 6.609l39.537-22.763c-2.139-5.065-3.229-10.591-3.247-16.493.019-5.91 1.098-11.436 3.215-16.522l-82.709-47.704a45.448 45.448 0 0 1-3.821 4.279c-6.9 6.962-15.181 11.041-24.646 12.146v52.479c7.659 2.915 14.678 7.521 20.898 13.727a64.622 64.622 0 0 1 6.954 8.29c4.635-2.466 9.782-3.716 15.373-3.733zm-204.689-54.72c-8.864.003-16.223 3.02-22.488 9.224-6.166 6.247-9.186 13.627-9.188 22.52.003 8.845 3.012 16.148 9.2 22.317 6.275 6.29 13.625 9.345 22.477 9.348 8.862-.003 16.186-3.051 22.38-9.316 2.085-2.063 3.801-4.225 5.142-6.478v-.002c0-.003 0-.003.003-.003 2.819-4.725 4.198-9.921 4.221-15.891-.021-5.913-1.4-11.111-4.218-15.848-.016-.026-.031-.051-.048-.074-1.334-2.319-3.05-4.545-5.094-6.61-6.18-6.173-13.511-9.184-22.387-9.187zm284.623 47.662c1.316 2.255 2.998 4.403 5.003 6.386 6.274 6.289 13.604 9.344 22.428 9.359 8.929-.003 16.249-3.055 22.438-9.316 6.291-6.215 9.315-13.507 9.301-22.343v-.019c.016-8.877-3.021-16.248-9.285-22.532-6.187-6.184-13.518-9.194-22.396-9.197-8.861.003-16.217 3.02-22.485 9.224-1.999 2.022-3.715 4.246-5.058 6.565l-.025.045c-2.785 4.751-4.15 9.958-4.172 15.925.021 5.947 1.399 11.143 4.215 15.839.012.021.026.042.036.064zm-128.633-74.338c.04.003.057 0 .081 0 8.835 0 16.131-3.03 22.305-9.256 2.103-2.078 3.832-4.274 5.179-6.567a.108.108 0 0 1 .018-.026c2.772-4.687 4.114-9.858 4.097-15.805.016-8.873-3.019-16.221-9.276-22.483-6.203-6.215-13.533-9.247-22.414-9.27-8.867.021-16.252 3.06-22.543 9.291-6.168 6.23-9.188 13.583-9.188 22.449.021 5.943 1.38 11.125 4.159 15.812.002 0 .002.003.005.006.014.024.025.049.04.069 1.322 2.303 3.012 4.499 5.021 6.524 6.243 6.221 13.593 9.256 22.438 9.256.025 0 .051.003.078 0zm.081 191.11h-.181c-11.708 0-21.863-4.194-30.173-12.47-2.67-2.723-4.903-5.646-6.688-8.729-3.765-6.292-5.703-13.535-5.73-21.463.027-7.869 1.94-15.06 5.688-21.404 1.75-3.073 4.014-6.047 6.681-8.775 8.395-8.282 18.574-12.451 30.322-12.453 11.765.002 21.903 4.18 30.141 12.411 2.759 2.754 5.092 5.747 6.94 8.897 3.704 6.357 5.566 13.526 5.543 21.32.023 7.854-1.868 15.075-5.614 21.438-1.854 3.113-4.159 6.052-6.874 8.756-8.197 8.269-18.318 12.472-30.055 12.472zm-.081-74.351c-8.892.003-16.271 3.022-22.563 9.232-1.948 1.992-3.646 4.216-4.974 6.546-2.822 4.781-4.187 9.966-4.207 15.911.021 5.981 1.399 11.199 4.218 15.916a33.01 33.01 0 0 0 5.027 6.566c6.224 6.199 13.572 9.234 22.419 9.234h.14c8.856 0 16.152-3.027 22.326-9.255 2.084-2.079 3.829-4.294 5.2-6.605 2.769-4.691 4.109-9.886 4.092-15.86.019-5.937-1.308-11.094-4.046-15.799-1.369-2.33-3.13-4.585-5.23-6.683-6.196-6.189-13.523-9.2-22.402-9.203z" fill="#59af17" class="fill-333333"></path></svg>