<svg viewBox="0 0 846.66 846.66" xml:space="preserve" xmlns="http://www.w3.org/2000/svg" shape-rendering="geometricPrecision" text-rendering="geometricPrecision" image-rendering="optimizeQuality" fill-rule="evenodd" clip-rule="evenodd"><path d="M739.24 438.09c0-27.16 41.3-27.16 41.3 0v233.65c0 11.4-9.25 20.64-20.65 20.64H86.77c-11.4 0-20.65-9.24-20.65-20.64V438.09c0-27.16 41.3-27.16 41.3 0v213h631.82v-213zM486.91 222.47c31.22-.09 56.61 25.16 56.7 56.39.09 31.23-25.16 56.62-56.39 56.7-31.23.09-56.62-25.16-56.7-56.39-.09-31.23 25.16-56.62 56.39-56.7zm-40.57 507.21c0-27.16 41.29-27.16 41.29 0v22.34h242.34c27.16 0 27.16 41.29 0 41.29H487.63v22.34c0 27.15-41.29 27.15-41.29 0v-22.34H116.69c-27.16 0-27.16-41.29 0-41.29h329.65v-22.34zM259.95 305.13l196.01 107.38c14.5 7.9 14.09 28.59-.11 36.19L258.36 556.89c-13.84 7.54-30.43-2.67-30.42-18.06l-.07-216.51c0-16.63 18.59-26.19 32.08-17.19zm143.36 125.44-134.15-73.48v146.97l134.15-73.49zm83.06-378.81c-27.06 0-27.06-41.13 0-41.13 148.27-.41 268.67 119.45 269.08 267.69 0 27.06-41.13 27.06-41.13 0-.35-125.48-102.5-226.9-227.95-226.56zm.32 71.96c85.82-.23 155.42 69.13 155.66 154.91 0 27.17-41.13 27.16-41.13 0-.17-63.02-51.54-113.94-114.53-113.77-27.02 0-27.02-41.14 0-41.14z" fill="#59af17" fill-rule="nonzero" class="fill-000000"></path></svg>