<svg xmlns="http://www.w3.org/2000/svg" version="1.1" xmlns:xlink="http://www.w3.org/1999/xlink" width="512" height="512" x="0" y="0" viewBox="0 0 1707 1707" style="enable-background:new 0 0 512 512" xml:space="preserve" fill-rule="evenodd"><g><path d="M416 1476H129c-46 0-85-39-85-84v-356c0-34 21-65 51-77V518c-30-14-51-43-51-78V85c0-47 37-85 85-85h287c45 0 84 39 84 85v355c0 35-21 64-51 78v441c30 12 51 43 51 77v356c0 47-37 84-84 84zM129 49c-20 0-37 16-37 36v355c0 18 13 33 31 36 12 1 21 11 21 24v477c0 12-9 22-21 23-17 3-31 18-31 36v356c0 20 17 36 37 36h287c19 0 36-17 36-36v-356c0-18-13-33-31-36-12-1-21-12-21-23V500c0-13 9-23 21-24 18-3 31-18 31-36V85c0-21-17-36-36-36z" fill="#f58c29" opacity="1" data-original="#000000"></path><path d="M1638 1394H475c-14 0-25-11-25-25 0-13 11-25 25-25h1138V131H475c-14 0-25-12-25-24s11-25 25-25h1163c14 0 25 11 25 25v1264c0 12-11 23-25 23z" fill="#f58c29" opacity="1" data-original="#000000"></path><path d="M1406 740H664c-14 0-25-12-25-25V197c0-14 11-25 25-25h742c14 0 25 11 25 25v518c0 13-11 25-25 25zm-717-49h694V222H689z" fill="#f58c29" opacity="1" data-original="#000000"></path><path d="M1231 740H818c-14 0-25-12-25-25V606c0-73 60-131 132-131h197c73 0 133 59 133 131v109c0 13-11 25-24 25zm-389-49h364v-83c0-46-37-83-84-83H925c-46 0-83 37-83 83zM1025 457c-60 0-109-49-109-109 0-59 49-109 109-109 59 0 108 48 108 109 0 60-49 109-108 109zm0-168c-34 0-60 26-60 61 0 33 26 59 60 59 32 0 59-27 59-59 0-35-27-61-59-61zM918 859H711c-14 0-25-11-25-25s11-25 25-25h207c14 0 25 11 25 25s-11 25-25 25zM1359 859h-207c-14 0-25-11-25-25s11-25 25-25h207c14 0 25 11 25 25s-11 25-25 25z" fill="#f58c29" opacity="1" data-original="#000000"></path><path d="M744 859h-33c-14 0-25-11-25-25s11-25 25-25h33c14 0 25 11 25 25s-11 25-25 25zM724 993h-34c-14 0-25-11-25-25 0-13 11-23 25-23h34c14 0 25 11 25 25s-11 23-25 23zM832 993h-33c-14 0-25-11-25-25 0-13 11-24 25-24h33c14 0 25 11 25 24 0 14-13 25-25 25zM939 993h-34c-14 0-25-11-25-25 0-13 11-24 25-24h34c14 0 25 11 25 24 0 14-13 25-25 25zM1166 993h-33c-14 0-25-11-25-25 0-13 11-24 25-24h33c14 0 25 11 25 24 0 14-12 25-25 25zM1273 993h-33c-14 0-25-11-25-25 0-13 11-24 25-24h33c14 0 25 11 25 24 0 14-13 25-25 25zM1381 993h-33c-14 0-25-11-25-25 0-13 11-24 25-24h33c14 0 25 11 25 24 0 14-12 25-25 25zM724 1125h-34c-14 0-25-11-25-25s11-25 25-25h34c14 0 25 11 25 25s-11 25-25 25zM832 1125h-33c-14 0-25-11-25-25s11-25 25-25h33c14 0 25 11 25 25s-13 25-25 25zM939 1125h-34c-14 0-25-11-25-25s11-25 25-25h34c14 0 25 11 25 25s-13 25-25 25zM1166 1125h-33c-14 0-25-11-25-25s11-25 25-25h33c14 0 25 11 25 25s-12 25-25 25zM1273 1125h-33c-14 0-25-11-25-25s11-25 25-25h33c14 0 25 11 25 25s-13 25-25 25zM1381 1125h-33c-14 0-25-11-25-25s11-25 25-25h33c14 0 25 11 25 25s-12 25-25 25zM492 1706c-135 0-244-109-244-244v-9c0-14 11-25 25-25h144c19 0 36-17 36-36v-21c0-14 11-25 25-25h235c13 0 25 11 25 25v91c-3 135-113 244-246 244zm-196-230c7 101 92 182 195 182 106 0 194-87 194-196v-68H500c-1 46-39 82-84 82zM373 164H173c-14 0-25-11-25-25s11-25 25-25h200c14 0 25 11 25 25s-13 25-25 25zM344 239H201c-14 0-25-11-25-25s11-25 25-25h143c13 0 25 11 25 25s-13 25-25 25zM373 1286H173c-14 0-25-11-25-25s11-25 25-25h200c14 0 25 11 25 25s-13 25-25 25zM344 1361H201c-14 0-25-11-25-25s11-25 25-25h143c13 0 25 11 25 25s-13 25-25 25zM1542 1394c-14 0-25-11-25-25V106c0-14 11-25 25-25s25 11 25 25v1263c0 14-11 25-25 25z" fill="#f58c29" opacity="1" data-original="#000000"></path></g></svg>