<svg xmlns="http://www.w3.org/2000/svg" version="1.1" xmlns:xlink="http://www.w3.org/1999/xlink" width="512" height="512" x="0" y="0" viewBox="0 0 24 24" style="enable-background:new 0 0 512 512" xml:space="preserve" class=""><g><path fill="#f58c29" fill-rule="evenodd" d="M6.162 4h11.677c.527 0 .982 0 1.356.03.395.033.788.104 1.166.297a3 3 0 0 1 1.312 1.31c.193.379.264.772.297 1.167.03.374.03.828.03 1.354v7.684c0 .526 0 .98-.03 1.354-.033.394-.104.787-.297 1.165a3.003 3.003 0 0 1-1.311 1.312c-.378.193-.771.264-1.166.297-.374.03-.828.03-1.354.03H14a1 1 0 1 1 0-2h3.803c.576 0 .947 0 1.23-.024.27-.022.371-.06.42-.085.189-.096.342-.25.438-.438.025-.049.063-.15.085-.42.023-.283.024-.654.024-1.23V8.197c0-.576 0-.947-.024-1.23-.022-.271-.06-.372-.085-.421a1.001 1.001 0 0 0-.438-.437c-.05-.025-.15-.063-.421-.085C18.749 6 18.377 6 17.8 6H6.2c-.576 0-.949 0-1.232.024-.272.022-.373.06-.422.085a.999.999 0 0 0-.437.437c-.025.05-.063.15-.085.422C4 7.25 4 7.624 4 8.2v.05a1 1 0 1 1-2 0v-.088c0-.527 0-.982.03-1.357.033-.395.104-.789.297-1.167a2.999 2.999 0 0 1 1.31-1.311c.38-.193.773-.264 1.168-.296C5.18 4 5.635 4 6.162 4zM2 11a1 1 0 0 1 1-1 9 9 0 0 1 9 9 1 1 0 1 1-2 0 7 7 0 0 0-7-7 1 1 0 0 1-1-1zm0 3a1 1 0 0 1 1-1 6 6 0 0 1 6 6 1 1 0 1 1-2 0 4 4 0 0 0-4-4 1 1 0 0 1-1-1zm0 3a1 1 0 0 1 1-1 3 3 0 0 1 3 3 1 1 0 1 1-2 0 1 1 0 0 0-1-1 1 1 0 0 1-1-1z" clip-rule="evenodd" opacity="1" data-original="#000000"></path></g></svg>