<svg xmlns="http://www.w3.org/2000/svg" version="1.1" xmlns:xlink="http://www.w3.org/1999/xlink" width="512" height="512" x="0" y="0" viewBox="0 0 60.038 60.038" style="enable-background:new 0 0 512 512" xml:space="preserve" class=""><g><path d="M58.565 31.997c-2.219-8.122-6.187-15.74-6.622-16.563-.048-.111-.154-.526-.231-.829-.403-1.583-.669-2.492-1.442-2.774L42.616 9.04a3.26 3.26 0 0 0-2.89.339c-.88.564-1.871 1.117-2.188 1.226h-3.906c.004.71.008 1.193.012 1.359a3.981 3.981 0 0 1-1.111 3.499 3.956 3.956 0 0 1-2.82 1.171 3.99 3.99 0 0 1-3.917-4.75c.003-.17.007-.623.011-1.28h-3.042c-.363-.106-1.557-.719-2.433-1.215a3.265 3.265 0 0 0-2.906-.35L9.771 11.83c-.773.282-1.039 1.191-1.443 2.774-.077.304-.183.718-.221.809-.445.843-4.413 8.463-6.632 16.583-2.636 9.647-1.732 15.961 2.686 18.765 1.014.644 2.436.527 3.361-.27l9.102-7.827a6.102 6.102 0 0 1 3.976-1.475h18.84c1.457 0 2.87.523 3.976 1.475l9.102 7.827c.523.45 1.189.698 1.877.698.529 0 1.043-.148 1.484-.429 4.418-2.802 5.321-9.115 2.686-18.763zM9.766 21.191c0-2.757 2.237-5 4.986-5s4.986 2.243 4.986 5-2.237 5-4.986 5-4.986-2.243-4.986-5zm20.159 10.938c0 .945-.767 1.715-1.71 1.715h-2.279v2.285c0 .945-.767 1.715-1.71 1.715h-2.564c-.943 0-1.71-.77-1.71-1.715v-2.285h-2.279c-.943 0-1.71-.77-1.71-1.715v-2.57c0-.945.767-1.715 1.71-1.715h2.279v-2.285c0-.945.767-1.715 1.71-1.715h2.564c.943 0 1.71.77 1.71 1.715v2.285h2.279c.943 0 1.71.77 1.71 1.715v2.57zM44.67 15.191c1.101 0 1.994.896 1.994 2s-.893 2-1.994 2c-1.102 0-1.995-.896-1.995-2s.893-2 1.995-2zm-3.989 4c1.102 0 1.994.896 1.994 2s-.893 2-1.994 2c-1.102 0-1.994-.896-1.994-2s.892-2 1.994-2zm-2.992 17c-2.749 0-4.986-2.243-4.986-5s2.237-5 4.986-5 4.986 2.243 4.986 5-2.237 5-4.986 5zm6.981-9c-1.102 0-1.995-.896-1.995-2s.893-2 1.995-2c1.101 0 1.994.896 1.994 2s-.893 2-1.994 2zm3.989-4c-1.102 0-1.994-.896-1.994-2s.893-2 1.994-2c1.102 0 1.994.896 1.994 2s-.893 2-1.994 2z" fill="#59af17" opacity="1" data-original="#000000" class=""></path><ellipse cx="14.753" cy="21.191" rx="2.992" ry="3" fill="#59af17" opacity="1" data-original="#000000" class=""></ellipse><path d="M23.941 25.844h-1.994v4h-3.989v2h3.989v4h1.994v-4h3.989v-2h-3.989zM29.352 14.603a1.977 1.977 0 0 0 1.77-.554 1.993 1.993 0 0 0 .548-1.785c-.016-.082-.023-.124-.034-1.659h-3.837c-.01 1.486-.019 1.531-.038 1.615-.06.273-.059.56.001.849.165.771.818 1.403 1.59 1.534z" fill="#59af17" opacity="1" data-original="#000000" class=""></path><ellipse cx="37.689" cy="31.191" rx="2.992" ry="3" fill="#59af17" opacity="1" data-original="#000000" class=""></ellipse></g></svg>