<svg xmlns="http://www.w3.org/2000/svg" version="1.1" xmlns:xlink="http://www.w3.org/1999/xlink" width="512" height="512" x="0" y="0" viewBox="0 0 512 512" style="enable-background:new 0 0 512 512" xml:space="preserve" class=""><g><path fill="#808080" fill-rule="evenodd" d="M210.66 57.079a138.553 138.553 0 0 1 40.568 16.819l26.361-11.708 31.07 31.069-11.704 26.354a138.545 138.545 0 0 1 16.821 40.579l26.895 10.352v43.938l-26.901 10.355a138.553 138.553 0 0 1-16.819 40.568l11.708 26.361-31.069 31.07-26.353-11.704a138.556 138.556 0 0 1-40.579 16.821l-10.352 26.895h-43.939l-10.355-26.901a138.553 138.553 0 0 1-40.568-16.819l-26.361 11.708-31.07-31.069 11.704-26.353a138.556 138.556 0 0 1-16.821-40.579l-26.895-10.352v-43.939L42.9 160.19a138.5 138.5 0 0 1 16.819-40.572L48.014 93.259l31.069-31.07 26.362 11.708a138.553 138.553 0 0 1 40.568-16.819l10.355-26.901h43.938z" clip-rule="evenodd" opacity="1" data-original="#a79ba7" class=""></path><path fill="#837683" fill-rule="evenodd" d="m268.737 66.121 8.852-3.932 31.07 31.069-11.704 26.354a138.545 138.545 0 0 1 16.821 40.579l26.895 10.352v43.938l-26.901 10.355a138.553 138.553 0 0 1-16.819 40.568l11.708 26.361-31.069 31.07-8.853-3.932 27.137-27.138-11.708-26.361a138.523 138.523 0 0 0 16.818-40.568l26.901-10.355v-43.938l-26.895-10.352a138.556 138.556 0 0 0-16.821-40.579l11.704-26.354zM75.151 66.12l3.931-3.932 26.362 11.708a139.145 139.145 0 0 0-5.521 3.226zm135.509-9.041a138.553 138.553 0 0 1 40.568 16.819l-7.263 3.226c-12.546-7.725-31.755-16.634-46.089-20.045l-10.355-26.901h12.784zM105.445 311.127l-26.361 11.708-3.932-3.932 24.773-11.002a137.893 137.893 0 0 0 5.52 3.226zm145.792.004a138.556 138.556 0 0 1-40.579 16.821l-10.352 26.895h-12.784l10.352-26.895c14.336-3.411 33.551-12.32 46.099-20.047z" clip-rule="evenodd" opacity="1" data-original="#837683" class=""></path><circle cx="178.336" cy="192.512" r="94.38" fill="#eceff1" fill-rule="evenodd" clip-rule="evenodd" opacity="1" data-original="#eceff1"></circle><path fill="#d1d1d6" fill-rule="evenodd" d="M178.336 98.131c2.149 0 4.279.078 6.392.22-49.142 3.288-87.989 44.186-87.989 94.16 0 49.975 38.847 90.873 87.989 94.161-2.113.141-4.243.22-6.392.22-52.123 0-94.381-42.257-94.381-94.381 0-52.123 42.257-94.38 94.381-94.38z" clip-rule="evenodd" opacity="1" data-original="#d1d1d6"></path><path fill="#59af17" fill-rule="evenodd" d="m38.298 481.823 260.507-.001c1.509 0 2.807-.596 3.792-1.739.983-1.143 1.381-2.515 1.157-4.007-9.876-65.807-66.644-116.27-135.202-116.27-68.56 0-125.328 50.463-135.203 116.271-.224 1.492.173 2.863 1.158 4.006.983 1.144 2.282 1.74 3.791 1.74z" clip-rule="evenodd" opacity="1" data-original="#8ac9fe" class=""></path><path fill="#5cc640" fill-rule="evenodd" d="m38.298 481.823 260.507-.001c1.509 0 2.807-.596 3.792-1.739.983-1.143 1.381-2.515 1.157-4.007-9.876-65.807-66.644-116.27-135.202-116.27-3.364 0-6.697.126-10 .365 64.014 4.629 115.811 53.327 125.202 115.906.224 1.491-.174 2.863-1.157 4.007-.984 1.143-2.283 1.739-3.792 1.739l-240.512.001h.005z" clip-rule="evenodd" opacity="1" data-original="#60b7ff" class=""></path><circle cx="168.551" cy="290.675" r="69.131" fill="#f6dccd" fill-rule="evenodd" clip-rule="evenodd" transform="rotate(-3.62 168.58 291.503)" opacity="1" data-original="#f6dccd" class=""></circle><path fill="#f1cbbc" fill-rule="evenodd" d="M168.551 221.544c38.18 0 69.131 30.951 69.131 69.131s-30.951 69.131-69.131 69.131c-3.397 0-6.735-.249-10-.723 33.44-4.846 59.13-33.625 59.13-68.408s-25.69-63.562-59.13-68.408a69.728 69.728 0 0 1 10-.723z" clip-rule="evenodd" opacity="1" data-original="#f1cbbc" class=""></path><path fill="#59af17" fill-rule="evenodd" d="M93.992 296.251H243.11c5.496 0 9.993-4.496 9.993-9.992s-4.497-9.992-9.993-9.992h-2.015c.146-1.876.222-3.771.222-5.684 0-32.368-21.137-59.792-50.36-69.241 1.098-11.452-12.975-15.046-22.406-15.041-9.431-.004-23.504 3.589-22.406 15.041-29.222 9.449-50.359 36.873-50.359 69.241 0 1.913.076 3.808.222 5.684h-2.015c-5.496 0-9.993 4.496-9.993 9.992s4.496 9.992 9.992 9.992z" clip-rule="evenodd" opacity="1" data-original="#ffe177" class=""></path><path fill="#ffffff" fill-rule="evenodd" d="M223.11 296.251h20.001c5.496 0 9.993-4.496 9.993-9.992s-4.497-9.992-9.993-9.992h-2.015c.146-1.876.222-3.771.222-5.684 0-32.368-21.137-59.792-50.36-69.241 1.098-11.452-12.975-15.046-22.406-15.041-3.069-.001-6.631.379-10 1.287 6.984 1.881 13.146 6.03 12.406 13.755 29.222 9.449 50.36 36.873 50.36 69.241 0 1.913-.076 3.808-.222 5.684h2.015c5.496 0 9.993 4.496 9.993 9.992-.001 5.495-4.498 9.991-9.994 9.991z" clip-rule="evenodd" opacity="1" data-original="#ffd064" class=""></path><path fill="#5cc640" fill-rule="evenodd" d="M84 286.259c0 5.496 4.497 9.992 9.993 9.992H243.111c5.496 0 9.993-4.496 9.993-9.992s-4.497-9.992-9.993-9.992H93.994c-5.498-.001-9.994 4.496-9.994 9.992z" clip-rule="evenodd" opacity="1" data-original="#ffc338" class=""></path><path fill="#5cc640" fill-rule="evenodd" d="M84 286.259c0 5.496 4.497 9.992 9.993 9.992H243.111c5.496 0 9.993-4.496 9.993-9.992s-4.497-9.992-9.993-9.992h-22.016c-.004 5.492-4.499 9.984-9.993 9.984H84z" clip-rule="evenodd" opacity="1" data-original="#f5b829" class=""></path><path fill="#ffffff" fill-rule="evenodd" d="M161.849 276.266h13.405c6.144 0 11.707-4.455 12.052-10.588l3.599-63.863c1.538-11.845-12.816-14.865-22.354-15.515-9.538.649-23.892 3.669-22.354 15.515l3.599 63.863c.347 6.133 5.909 10.588 12.053 10.588z" clip-rule="evenodd" opacity="1" data-original="#ffd064" class=""></path><path fill="#5cc640" fill-rule="evenodd" d="M165.254 276.266h10c6.144 0 11.707-4.455 12.052-10.588l3.599-63.863c1.538-11.845-12.816-14.865-22.354-15.515a61.556 61.556 0 0 0-5 .541c8.826 1.339 18.639 5.074 17.354 14.973l-3.599 63.863c-.346 6.134-5.909 10.589-12.052 10.589z" clip-rule="evenodd" opacity="1" data-original="#ffc338" class=""></path><path fill="#6cf5c2" fill-rule="evenodd" d="m254.406 390.176.612 91.646H84.6l-2.084-91.606c9.619-7.861 21.22-14.868 32.23-19.291l55.094 57.397 54.051-56.196c10.675 3.964 21.536 10.628 30.515 18.05z" clip-rule="evenodd" opacity="1" data-original="#6cf5c2"></path><path fill="#59af17" fill-rule="evenodd" d="m254.406 390.176.612 91.646H84.6l-2.084-91.606c9.619-7.861 21.22-14.868 32.23-19.291l55.094 57.397 54.463-56.669c10.675 3.963 21.124 11.101 30.103 18.523z" clip-rule="evenodd" opacity="1" data-original="#ffe177" class=""></path><path fill="#ffffff" fill-rule="evenodd" d="m254.406 390.176.133 19.993a137.403 137.403 0 0 0-36.868-31.616l6.625-6.894a136.695 136.695 0 0 1 27.929 16.745c.736.588 1.463 1.179 2.181 1.772z" clip-rule="evenodd" opacity="1" data-original="#ffd064" class=""></path><path fill="#5cc640" fill-rule="evenodd" d="M320.089 179.977h114.155c2.754 0 5 2.246 5 5v67.996c0 2.754-2.246 5-5 5H320.089l-8.952.001c-16.428 0-29.87-17.549-29.87-38.998v-.001c0-21.449 13.441-38.997 29.87-38.997h8.952z" clip-rule="evenodd" opacity="1" data-original="#9facba" class=""></path><path fill="#59af17" fill-rule="evenodd" d="M311.136 179.978h8.952v77.995h-8.952c-16.428 0-29.87-17.549-29.87-38.997v-.001c0-21.449 13.442-38.997 29.87-38.997z" clip-rule="evenodd" opacity="1" data-original="#8192a5" class=""></path><path fill="#5cc640" fill-rule="evenodd" d="m493.371 253.217-19.033-6.294a3.943 3.943 0 0 1-2.744-3.798v-48.302a3.946 3.946 0 0 1 2.744-3.798l19.033-6.294c.629-.208 1.262-.11 1.799.278s.829.958.829 1.621v64.687c0 .663-.291 1.233-.829 1.621a1.94 1.94 0 0 1-1.799.279z" clip-rule="evenodd" opacity="1" data-original="#9facba" class=""></path><path fill="#808080" fill-rule="evenodd" d="M322.365 456.192a7.982 7.982 0 0 1-15.5-3.812l42.888-173.161a7.983 7.983 0 0 1 8.249-6.06l31.076.141a7.97 7.97 0 0 1 7.747 6.232l44.588 172.786a7.965 7.965 0 1 1-15.437 3.937l-43.107-167.046-19.124-.087z" clip-rule="evenodd" opacity="1" data-original="#a79ba7" class=""></path><path fill="#59af17" fill-rule="evenodd" d="M410.694 257.972c0 20.18-16.359 36.539-36.539 36.539s-36.539-16.359-36.539-36.539z" clip-rule="evenodd" opacity="1" data-original="#8192a5" class=""></path><path fill="#59af17" fill-rule="evenodd" d="M410.694 257.972c0 20.18-16.359 36.539-36.539 36.539-1.697 0-3.365-.118-5-.342 17.814-2.438 31.539-17.714 31.539-36.197z" clip-rule="evenodd" opacity="1" data-original="#65788e" class=""></path><path fill="#59af17" fill-rule="evenodd" d="M344.413 179.977h70.191v37.301c0 2.754-2.246 5-5 5h-60.192a5.01 5.01 0 0 1-5-5v-37.301z" clip-rule="evenodd" opacity="1" data-original="#ffe177" class=""></path><path fill="#ffffff" fill-rule="evenodd" d="M344.413 179.977h10v37.301c0 2.754 2.246 5 5 5h-10a5.01 5.01 0 0 1-5-5z" clip-rule="evenodd" opacity="1" data-original="#ffd064" class=""></path><path fill="#59af17" fill-rule="evenodd" d="M439.244 201.568h32.35v34.814h-32.35z" clip-rule="evenodd" opacity="1" data-original="#8192a5" class=""></path><path fill="#59af17" fill-rule="evenodd" d="M439.244 201.568h10v34.814h-10z" clip-rule="evenodd" opacity="1" data-original="#65788e" class=""></path></g></svg>