<svg xmlns="http://www.w3.org/2000/svg" version="1.1" xmlns:xlink="http://www.w3.org/1999/xlink" width="512" height="512" x="0" y="0" viewBox="0 0 512 512" style="enable-background:new 0 0 512 512" xml:space="preserve" class=""><g><path d="M33.699 310.47c20.08 103.799 111.621 182.434 221.197 182.434 57.789 0 110.559-21.878 150.483-57.776M82.146 123.13c-32.13 38.358-51.748 87.527-52.52 141.181.354-.016.71-.027 1.068-.027M429.532 409.783c23.121-28.344 39.486-62.401 46.636-99.692-10.335-2.339-18.055-11.573-18.055-22.615 0-12.425 9.77-22.567 22.047-23.164C478.396 141.587 378.032 42.29 254.896 42.29c-24.912 0-48.888 4.073-71.31 11.573" style="stroke-width:15;stroke-linecap:round;stroke-linejoin:round;stroke-miterlimit:10;" fill="none" stroke="#f58c29" stroke-width="15" stroke-linecap="round" stroke-linejoin="round" stroke-miterlimit="10" data-original="#000000" opacity="1" class=""></path><path d="M125.143 377.552c31.199 36.779 77.745 60.129 129.753 60.129M112.149 175.098c-17.289 26.626-27.338 58.387-27.338 92.499 0 25.281 5.523 49.27 15.417 70.836M355.777 130.658c-28.225-20.828-63.113-33.146-100.882-33.146-27.297 0-53.086 6.441-75.946 17.869M424.98 267.597c0-39.458-13.441-75.776-35.988-104.632" style="stroke-width:15;stroke-linecap:round;stroke-linejoin:round;stroke-miterlimit:10;" fill="none" stroke="#f58c29" stroke-width="15" stroke-linecap="round" stroke-linejoin="round" stroke-miterlimit="10" data-original="#000000" opacity="1" class=""></path><circle cx="373.071" cy="146.108" r="23.193" style="stroke-width:15;stroke-linecap:round;stroke-linejoin:round;stroke-miterlimit:10;" fill="none" stroke="#f58c29" stroke-width="15" stroke-linecap="round" stroke-linejoin="round" stroke-miterlimit="10" data-original="#000000" opacity="1" class=""></circle><circle cx="481.307" cy="287.477" r="23.193" style="stroke-width:15;stroke-linecap:round;stroke-linejoin:round;stroke-miterlimit:10;" fill="none" stroke="#f58c29" stroke-width="15" stroke-linecap="round" stroke-linejoin="round" stroke-miterlimit="10" data-original="#000000" opacity="1" class=""></circle><circle cx="30.693" cy="287.477" r="23.193" style="stroke-width:15;stroke-linecap:round;stroke-linejoin:round;stroke-miterlimit:10;" fill="none" stroke="#f58c29" stroke-width="15" stroke-linecap="round" stroke-linejoin="round" stroke-miterlimit="10" data-original="#000000" opacity="1" class=""></circle><circle cx="112.422" cy="358.161" r="23.193" style="stroke-width:15;stroke-linecap:round;stroke-linejoin:round;stroke-miterlimit:10;" fill="none" stroke="#f58c29" stroke-width="15" stroke-linecap="round" stroke-linejoin="round" stroke-miterlimit="10" data-original="#000000" opacity="1" class=""></circle><path d="M254.896 382.459c-63.335 0-114.862-51.527-114.862-114.862s51.527-114.862 114.862-114.862 114.862 51.527 114.862 114.862" style="stroke-width:15;stroke-linecap:round;stroke-linejoin:round;stroke-miterlimit:10;" fill="none" stroke="#f58c29" stroke-width="15" stroke-linecap="round" stroke-linejoin="round" stroke-miterlimit="10" data-original="#000000" opacity="1" class=""></path><path d="M273.423 324.286c17.707-5.806 31.783-19.696 37.854-37.286M312.453 252c-6.875-25.343-30.068-44.043-57.557-44.043-32.886 0-59.64 26.755-59.64 59.64s26.754 59.64 59.64 59.64M151.635 23.616c-7.082-2.893-14.921-4.519-23.325-4.519h0c-47.213 0-76.721 51.109-53.114 91.997l48.784 84.497c1.924 3.333 6.736 3.333 8.66 0l48.784-84.497c12.693-21.984 10.024-46.919-2.489-65.28" style="stroke-width:15;stroke-linecap:round;stroke-linejoin:round;stroke-miterlimit:10;" fill="none" stroke="#f58c29" stroke-width="15" stroke-linecap="round" stroke-linejoin="round" stroke-miterlimit="10" data-original="#000000" opacity="1" class=""></path><circle cx="128.311" cy="83.302" r="24.909" style="stroke-width:15;stroke-linecap:round;stroke-linejoin:round;stroke-miterlimit:10;" fill="none" stroke="#f58c29" stroke-width="15" stroke-linecap="round" stroke-linejoin="round" stroke-miterlimit="10" data-original="#000000" opacity="1" class=""></circle><path d="M254.896 267.597v225.307c24.427 0 47.951-3.922 69.994-11.145l-69.994-214.162z" style="stroke-width:15;stroke-linecap:round;stroke-linejoin:round;stroke-miterlimit:10;" fill="none" stroke="#f58c29" stroke-width="15" stroke-linecap="round" stroke-linejoin="round" stroke-miterlimit="10" data-original="#000000" opacity="1" class=""></path></g></svg>