<svg xmlns="http://www.w3.org/2000/svg" version="1.1" xmlns:xlink="http://www.w3.org/1999/xlink" width="512" height="512" x="0" y="0" viewBox="0 0 512 512" style="enable-background:new 0 0 512 512" xml:space="preserve" class=""><g><circle cx="254.896" cy="267.597" r="225.307" style="" fill="#eaf6ff" data-original="#eaf6ff"></circle><path d="M429.532 409.783c31.656-38.808 50.67-88.316 50.67-142.187 0-124.235-101.072-225.307-225.307-225.307S29.589 143.362 29.589 267.597s101.072 225.307 225.307 225.307c57.789 0 110.559-21.878 150.483-57.776" style="stroke-width:15;stroke-linecap:round;stroke-linejoin:round;stroke-miterlimit:10;" fill="none" stroke="#000000" stroke-width="15" stroke-linecap="round" stroke-linejoin="round" stroke-miterlimit="10" data-original="#000000"></path><path d="M254.896 437.681c-93.935 0-170.084-76.149-170.084-170.084S160.961 97.512 254.896 97.512s170.084 76.15 170.084 170.085" style="stroke-width:15;stroke-linecap:round;stroke-linejoin:round;stroke-miterlimit:10;" fill="none" stroke="#000000" stroke-width="15" stroke-linecap="round" stroke-linejoin="round" stroke-miterlimit="10" data-original="#000000"></path><circle cx="373.071" cy="146.108" r="23.193" style="" fill="#f58c29" data-original="#af66da" class="" opacity="1"></circle><path d="M369.613 146.108c0-9.28 5.452-17.283 13.326-20.991a23.103 23.103 0 0 0-9.868-2.202c-12.809 0-23.193 10.384-23.193 23.193 0 12.809 10.384 23.193 23.193 23.193 3.53 0 6.873-.792 9.868-2.202-7.874-3.708-13.326-11.711-13.326-20.991z" style="" fill="#ffffff" data-original="#9857bd" class="" opacity="1"></path><circle cx="373.071" cy="146.108" r="23.193" style="stroke-width:15;stroke-linecap:round;stroke-linejoin:round;stroke-miterlimit:10;" fill="none" stroke="#000000" stroke-width="15" stroke-linecap="round" stroke-linejoin="round" stroke-miterlimit="10" data-original="#000000"></circle><circle cx="481.307" cy="287.477" r="23.193" style="" fill="#5cc640" data-original="#05e39c" class="" opacity="1"></circle><path d="M478 287.477c0-9.25 5.417-17.233 13.25-20.957a23.106 23.106 0 0 0-9.943-2.237c-12.809 0-23.193 10.384-23.193 23.193s10.384 23.193 23.193 23.193c3.559 0 6.93-.804 9.943-2.236-7.833-3.723-13.25-11.706-13.25-20.956z" style="" fill="#59af17" data-original="#0ed290" class="" opacity="1"></path><circle cx="481.307" cy="287.477" r="23.193" style="stroke-width:15;stroke-linecap:round;stroke-linejoin:round;stroke-miterlimit:10;" fill="none" stroke="#000000" stroke-width="15" stroke-linecap="round" stroke-linejoin="round" stroke-miterlimit="10" data-original="#000000"></circle><circle cx="30.693" cy="287.477" r="23.193" style="" fill="#5cc640" data-original="#05e39c" class="" opacity="1"></circle><path d="M28.613 287.477c0-9.006 5.137-16.807 12.637-20.649a23.077 23.077 0 0 0-10.557-2.544c-12.809 0-23.193 10.384-23.193 23.193s10.384 23.193 23.193 23.193c3.803 0 7.389-.921 10.557-2.544-7.5-3.842-12.637-11.643-12.637-20.649z" style="" fill="#59af17" data-original="#0ed290" class="" opacity="1"></path><circle cx="30.693" cy="287.477" r="23.193" style="stroke-width:15;stroke-linecap:round;stroke-linejoin:round;stroke-miterlimit:10;" fill="none" stroke="#000000" stroke-width="15" stroke-linecap="round" stroke-linejoin="round" stroke-miterlimit="10" data-original="#000000"></circle><circle cx="112.422" cy="358.161" r="23.193" style="" fill="#f58c29" data-original="#af66da" class="" opacity="1"></circle><path d="M110 358.161c0-9.075 5.215-16.927 12.808-20.737a23.092 23.092 0 0 0-10.386-2.456c-12.809 0-23.193 10.384-23.193 23.193s10.384 23.193 23.193 23.193c3.735 0 7.26-.888 10.386-2.456-7.593-3.81-12.808-11.662-12.808-20.737z" style="" fill="#ffffff" data-original="#9857bd" class="" opacity="1"></path><circle cx="112.422" cy="358.161" r="23.193" style="stroke-width:15;stroke-linecap:round;stroke-linejoin:round;stroke-miterlimit:10;" fill="none" stroke="#000000" stroke-width="15" stroke-linecap="round" stroke-linejoin="round" stroke-miterlimit="10" data-original="#000000"></circle><path d="M254.896 382.459c-63.335 0-114.862-51.527-114.862-114.862s51.527-114.862 114.862-114.862 114.862 51.527 114.862 114.862" style="stroke-width:15;stroke-linecap:round;stroke-linejoin:round;stroke-miterlimit:10;" fill="none" stroke="#000000" stroke-width="15" stroke-linecap="round" stroke-linejoin="round" stroke-miterlimit="10" data-original="#000000"></path><circle cx="254.896" cy="267.597" r="59.64" style="" fill="#ff6600" data-original="#26a6fe" class="" opacity="1"></circle><path d="M229 267.597c0-27.026 18.076-49.897 42.768-57.194a59.442 59.442 0 0 0-16.872-2.446c-32.886 0-59.64 26.755-59.64 59.64s26.754 59.64 59.64 59.64c5.86 0 11.519-.864 16.872-2.446C247.076 317.493 229 294.623 229 267.597z" style="" fill="#f58c29" data-original="#0593fc" class="" opacity="1"></path><path d="M312.453 252c-6.875-25.343-30.068-44.043-57.557-44.043-32.886 0-59.64 26.755-59.64 59.64s26.754 59.64 59.64 59.64c26.093 0 48.311-16.851 56.382-40.237" style="stroke-width:15;stroke-linecap:round;stroke-linejoin:round;stroke-miterlimit:10;" fill="none" stroke="#000000" stroke-width="15" stroke-linecap="round" stroke-linejoin="round" stroke-miterlimit="10" data-original="#000000"></path><path d="m132.641 195.59 48.784-84.497c23.606-40.887-5.902-91.997-53.114-91.997-47.213 0-76.721 51.109-53.114 91.997l48.784 84.497c1.924 3.333 6.735 3.333 8.66 0z" style="" fill="#f58c29" data-original="#fe646f" class="" opacity="1"></path><path d="M108.463 111.093c-20.687-35.832-.582-79.511 36.481-89.766-5.229-1.447-10.795-2.231-16.633-2.231-47.213 0-76.721 51.109-53.114 91.997l48.784 84.497c1.924 3.333 6.736 3.333 8.66 0l12.303-21.31-36.481-63.187z" style="" fill="#ff6600" data-original="#fd4755" class="" opacity="1"></path><path d="M151.635 23.616c-7.082-2.893-14.921-4.519-23.325-4.519h0c-47.213 0-76.721 51.109-53.114 91.997l48.784 84.497c1.924 3.333 6.736 3.333 8.66 0l48.784-84.497c12.693-21.984 10.024-46.919-2.489-65.28" style="stroke-width:15;stroke-linecap:round;stroke-linejoin:round;stroke-miterlimit:10;" fill="none" stroke="#000000" stroke-width="15" stroke-linecap="round" stroke-linejoin="round" stroke-miterlimit="10" data-original="#000000"></path><circle cx="128.311" cy="83.302" r="24.909" style="" fill="#ffffff" data-original="#ffffff" class=""></circle><path d="M125.183 83.302c0-9.851 5.72-18.364 14.018-22.405a24.808 24.808 0 0 0-10.89-2.503c-13.757 0-24.909 11.152-24.909 24.908s11.152 24.909 24.909 24.909c3.906 0 7.6-.901 10.89-2.503-8.298-4.042-14.018-12.555-14.018-22.406z" style="" fill="#eaf6ff" data-original="#eaf6ff"></path><circle cx="128.311" cy="83.302" r="24.909" style="stroke-width:15;stroke-linecap:round;stroke-linejoin:round;stroke-miterlimit:10;" fill="none" stroke="#000000" stroke-width="15" stroke-linecap="round" stroke-linejoin="round" stroke-miterlimit="10" data-original="#000000"></circle><path d="M254.896 267.597v225.307c24.427 0 47.951-3.922 69.994-11.145l-69.994-214.162z" style="" fill="#f58c29" data-original="#fe646f" class="" opacity="1"></path><path d="m280 344.409-25.104-76.812v225.307c8.486 0 16.86-.484 25.104-1.405v-147.09z" style="" fill="#ff6600" data-original="#fd4755" class="" opacity="1"></path><path d="M254.896 267.597v225.307c24.427 0 47.951-3.922 69.994-11.145l-69.994-214.162z" style="stroke-width:15;stroke-linecap:round;stroke-linejoin:round;stroke-miterlimit:10;" fill="none" stroke="#000000" stroke-width="15" stroke-linecap="round" stroke-linejoin="round" stroke-miterlimit="10" data-original="#000000"></path></g></svg>