<svg xmlns="http://www.w3.org/2000/svg" version="1.1" xmlns:xlink="http://www.w3.org/1999/xlink" width="512" height="512" x="0" y="0" viewBox="0 0 490.667 490.667" style="enable-background:new 0 0 512 512" xml:space="preserve" class=""><g><path d="M96 224a10.667 10.667 0 0 1-7.552-18.219L195.115 99.115c4.237-4.092 10.99-3.975 15.083.262 3.992 4.134 3.992 10.687 0 14.82L103.531 220.864A10.666 10.666 0 0 1 96 224zM394.667 224a10.663 10.663 0 0 1-7.552-3.115L280.448 114.219c-4.092-4.237-3.975-10.99.262-15.083 4.134-3.992 10.687-3.992 14.82 0l106.667 106.667c4.159 4.172 4.149 10.926-.024 15.085a10.663 10.663 0 0 1-7.506 3.112z" style="" fill="#59af17" data-original="#455a64" class="" opacity="1"></path><path d="M53.333 202.667h384c29.455 0 53.333 23.878 53.333 53.333v128c0 29.455-23.878 53.333-53.333 53.333h-384C23.878 437.333 0 413.455 0 384V256c0-29.455 23.878-53.333 53.333-53.333z" style="" fill="#f58c29" data-original="#4caf50" class="" opacity="1"></path><path d="M53.333 394.667c-5.891 0-10.667-4.776-10.667-10.667V256c0-5.891 4.776-10.667 10.667-10.667h64c5.891 0 10.667 4.776 10.667 10.667s-4.776 10.667-10.667 10.667H64V384c0 5.891-4.776 10.667-10.667 10.667z" style="" fill="#fafafa" data-original="#fafafa" class=""></path><path d="M96 330.667H53.333c-5.891 0-10.667-4.776-10.667-10.667s4.776-10.667 10.667-10.667H96c5.891 0 10.667 4.776 10.667 10.667S101.891 330.667 96 330.667zM224 394.667a10.663 10.663 0 0 1-7.552-3.115l-45.781-45.803V384c0 5.891-4.776 10.667-10.667 10.667s-10.667-4.776-10.667-10.667V256c0-5.891 4.776-10.667 10.667-10.667h32c23.564 0 42.667 19.103 42.667 42.667S215.564 330.667 192 330.667h-6.251l45.781 45.781c4.171 4.16 4.179 10.914.019 15.085a10.664 10.664 0 0 1-7.549 3.134zm-53.333-85.334H192c11.782 0 21.333-9.551 21.333-21.333 0-11.782-9.551-21.333-21.333-21.333h-21.333v42.666zM330.667 394.667h-64c-5.891 0-10.667-4.776-10.667-10.667V256c0-5.891 4.776-10.667 10.667-10.667h64c5.891 0 10.667 4.776 10.667 10.667s-4.776 10.667-10.667 10.667h-53.333v106.667h53.333c5.891 0 10.667 4.776 10.667 10.667-.001 5.89-4.776 10.666-10.667 10.666z" style="" fill="#fafafa" data-original="#fafafa" class=""></path><path d="M309.333 330.667h-42.667c-5.891 0-10.667-4.776-10.667-10.667s4.776-10.667 10.667-10.667h42.667c5.891 0 10.667 4.776 10.667 10.667s-4.776 10.667-10.667 10.667zM437.333 394.667h-64c-5.891 0-10.667-4.776-10.667-10.667V256c0-5.891 4.776-10.667 10.667-10.667h64c5.891 0 10.667 4.776 10.667 10.667s-4.776 10.667-10.667 10.667H384v106.667h53.333c5.891 0 10.667 4.776 10.667 10.667 0 5.89-4.776 10.666-10.667 10.666z" style="" fill="#fafafa" data-original="#fafafa" class=""></path><path d="M416 330.667h-42.667c-5.891 0-10.667-4.776-10.667-10.667s4.776-10.667 10.667-10.667H416c5.891 0 10.667 4.776 10.667 10.667s-4.776 10.667-10.667 10.667z" style="" fill="#fafafa" data-original="#fafafa" class=""></path><path d="M245.333 160C215.878 160 192 136.122 192 106.667s23.878-53.333 53.333-53.333 53.333 23.878 53.333 53.333S274.789 160 245.333 160z" style="" fill="#5cc640" data-original="#607d8b" class="" opacity="1"></path></g></svg>