<svg xmlns="http://www.w3.org/2000/svg" version="1.1" xmlns:xlink="http://www.w3.org/1999/xlink" width="512" height="512" x="0" y="0" viewBox="0 0 1707 1707" style="enable-background:new 0 0 512 512" xml:space="preserve" fill-rule="evenodd" class=""><g><path fill="#f58c29" d="M635 1707c-151 0-273-123-273-274 0-19 2-38 6-56-86-29-145-109-145-202 0-18 2-35 7-52C100 1102 0 989 0 853c0-133 96-246 225-269-1-8-2-16-2-25 0-95 63-177 152-203-9-27-13-54-13-83C362 123 484 0 635 0s273 123 273 273v320c0 16-13 29-29 29-17 0-30-13-30-29V273c0-117-96-213-214-213s-213 96-213 213c0 32 7 63 20 92 4 9 4 19-1 27-4 9-13 14-22 16-78 8-136 73-136 151 0 15 2 29 6 43 2 9 1 18-5 26-5 7-13 12-22 12-114 6-202 100-202 213 0 117 94 213 211 214 10 0 20 5 25 14s6 19 2 29c-10 20-15 42-15 65 0 75 53 138 127 151 8 1 16 6 20 14 5 7 6 17 3 25-8 22-11 45-11 68 0 118 95 214 213 214s214-96 214-214v-319c0-16 13-30 30-30 16 0 29 14 29 30v319c0 151-122 274-273 274z" opacity="1" data-original="#3e3b3e" class=""></path><path fill="#f58c29" d="M273 978c-68 0-124-56-124-125 0-68 56-124 124-124 17 0 30 13 30 30 0 16-13 30-30 30-35 0-64 29-64 64 0 36 29 65 64 65 17 0 30 13 30 30 0 16-13 30-30 30zM784 1457c-68 0-124-56-124-125 0-16 13-30 30-30 16 0 29 14 29 30 0 36 29 65 65 65s65-29 65-65c0-16 13-30 30-30 16 0 29 14 29 30 0 69-55 125-124 125zM784 398c-68 0-124-56-124-125 0-16 13-30 30-30 16 0 29 14 29 30 0 36 29 65 65 65s65-29 65-65c0-16 13-30 30-30 16 0 29 14 29 30 0 69-55 125-124 125zM422 744c-81 0-155-48-189-121-7-15 0-33 15-40s32 0 39 15c24 52 77 86 135 86 17 0 30 13 30 30 0 16-13 30-30 30zM404 1385c-16 0-29-13-29-30 0-16 13-30 29-30 58 0 111-33 136-86 6-15 24-21 39-14 15 6 22 24 15 39-34 74-109 121-190 121z" opacity="1" data-original="#3e3b3e" class=""></path><g fill="#ee9c15"><path d="M1195 1144H673c-16 0-30-13-30-30V593c0-17 14-30 30-30h522c16 0 29 13 29 30v521c0 17-13 30-29 30zm-492-60h462V622H703z" fill="#59af17" opacity="1" data-original="#ee9c15" class=""></path><path d="M771 622c-17 0-30-13-30-29V453c0-17 13-30 30-30 16 0 30 13 30 30v140c0 16-14 29-30 29zM988 622c-16 0-30-13-30-29V453c0-17 14-30 30-30 17 0 30 13 30 30v140c0 16-13 29-30 29zM1097 622c-16 0-30-13-30-29V453c0-17 14-30 30-30 17 0 30 13 30 30v140c0 16-13 29-30 29zM1097 1284c-16 0-30-14-30-30v-140c0-16 14-30 30-30 17 0 30 14 30 30v140c0 17-13 30-30 30zM988 1284c-16 0-30-14-30-30v-140c0-16 14-30 30-30 17 0 30 14 30 30v140c0 17-13 30-30 30zM771 1284c-17 0-30-14-30-30v-140c0-16 13-30 30-30 16 0 30 14 30 30v140c0 17-14 30-30 30zM1335 712h-140c-17 0-30-13-30-29 0-17 13-30 30-30h140c16 0 29 13 29 30 0 16-13 29-29 29zM1335 826h-140c-17 0-30-13-30-30 0-16 13-29 30-29h140c16 0 29 13 29 29 0 17-13 30-29 30zM1335 940h-140c-17 0-30-13-30-30 0-16 13-30 30-30h140c16 0 29 14 29 30 0 17-13 30-29 30zM1335 1054h-140c-17 0-30-13-30-30 0-16 13-30 30-30h140c16 0 29 14 29 30 0 17-13 30-29 30zM673 1054H533c-16 0-30-13-30-30 0-16 14-30 30-30h140c17 0 30 14 30 30 0 17-13 30-30 30zM673 940H533c-16 0-30-13-30-30 0-16 14-30 30-30h140c17 0 30 14 30 30 0 17-13 30-30 30zM673 826H533c-16 0-30-13-30-30 0-16 14-29 30-29h140c17 0 30 13 30 29 0 17-13 30-30 30zM673 712H533c-16 0-30-13-30-29 0-17 14-30 30-30h140c17 0 30 13 30 30 0 16-13 29-30 29zM1049 998H819c-17 0-30-13-30-30V738c0-16 13-29 30-29h230c16 0 30 13 30 29v230c0 17-14 30-30 30zm-200-60h170V768H849z" fill="#59af17" opacity="1" data-original="#ee9c15" class=""></path></g><path fill="#f58c29" d="M1380 289H879c-17 0-30-14-30-30s13-30 30-30h501c17 0 30 14 30 30s-13 30-30 30zM1518 439h-322c-16 0-30-14-30-30 0-17 14-30 30-30h322c16 0 30 13 30 30 0 16-14 30-30 30z" opacity="1" data-original="#3e3b3e" class=""></path><path fill="#f58c29" d="M1597 518c-60 0-109-49-109-109 0-61 49-110 109-110 61 0 110 49 110 110 0 60-49 109-110 109zm0-159c-27 0-49 22-49 50 0 27 22 49 49 49 28 0 50-22 50-49 0-28-22-50-50-50zM1518 139H815c-16 0-30-13-30-30 0-16 14-30 30-30h703c16 0 30 14 30 30 0 17-14 30-30 30z" opacity="1" data-original="#3e3b3e" class=""></path><path fill="#f58c29" d="M1597 219c-60 0-109-49-109-110 0-60 49-109 109-109 61 0 110 49 110 109 0 61-49 110-110 110zm0-159c-27 0-49 22-49 49 0 28 22 50 49 50 28 0 50-22 50-50 0-27-22-49-50-49zM1380 1478H879c-17 0-30-14-30-30 0-17 13-30 30-30h501c17 0 30 13 30 30 0 16-13 30-30 30zM1518 1328h-322c-16 0-30-14-30-30s14-30 30-30h322c16 0 30 14 30 30s-14 30-30 30z" opacity="1" data-original="#3e3b3e" class=""></path><path fill="#f58c29" d="M1597 1407c-60 0-109-49-109-109s49-109 109-109c61 0 110 49 110 109s-49 109-110 109zm0-159c-27 0-49 23-49 50s22 50 49 50c28 0 50-23 50-50s-22-50-50-50zM1518 1627H815c-16 0-30-13-30-30 0-16 14-29 30-29h703c16 0 30 13 30 29 0 17-14 30-30 30z" opacity="1" data-original="#3e3b3e" class=""></path><path fill="#f58c29" d="M1597 1707c-60 0-109-49-109-110 0-60 49-109 109-109 61 0 110 49 110 109 0 61-49 110-110 110zm0-159c-27 0-49 22-49 49 0 28 22 50 49 50 28 0 50-22 50-50 0-27-22-49-50-49z" opacity="1" data-original="#3e3b3e" class=""></path></g></svg>