<svg viewBox="0 0 16.933 16.933" xmlns="http://www.w3.org/2000/svg"><path d="M1.852 11.112h4.233c.44 0 .794.354.794.794v3.44c0 .44-.354.794-.794.794H1.852a.792.792 0 0 1-.794-.794v-3.44c0-.44.354-.794.794-.794z" opacity="1" fill="#ffffff" fill-opacity="1" stroke="none" stroke-width=".529167" stroke-linecap="round" stroke-linejoin="round" stroke-miterlimit="4" stroke-dasharray="none" class="fill-a8c5f7"></path><path d="M14.887 9.46c-.357.209-.766.33-1.196.33H9.39l-.193.192.51.69a3.073 3.073 0 0 0-.395.947l-.845.126v1.115l.847.126c.076.336.209.657.392.949l-.51.687.788.788.689-.51c.291.184.611.318.947.395l.127.845h1.113l.127-.848c.336-.076.656-.209.948-.392l.687.51.788-.788-.51-.688c.184-.292.318-.612.395-.948l.844-.126v-1.114l-.846-.127a3.071 3.071 0 0 0-.392-.949l.509-.687z" fill="#ffffff" fill-opacity="1" stroke="none" stroke-width=".529167" stroke-linecap="butt" stroke-linejoin="round" stroke-miterlimit="4" stroke-dasharray="none" stroke-opacity="1" paint-order="normal" class="fill-a8c5f7"></path><path d="M14.887 9.46a2.458 2.458 0 0 1-.36.169l.354.354-.509.687c.183.292.316.613.392.95l.846.126v1.114l-.844.126a3.073 3.073 0 0 1-.395.948l.51.688-.563.562.304.225.788-.787-.51-.688c.184-.292.318-.612.395-.948l.844-.126v-1.114l-.846-.127a3.071 3.071 0 0 0-.392-.949l.509-.687zm-1.482 5.44a3.068 3.068 0 0 1-.947.392l-.127.848h.53l.126-.848c.222-.05.437-.128.642-.226z" fill="#ffffff" fill-opacity="1" stroke="none" stroke-width=".529167" stroke-linecap="butt" stroke-linejoin="round" stroke-miterlimit="4" stroke-dasharray="none" stroke-opacity="1" paint-order="normal" class="fill-91b8fb"></path><path d="M8.467.794a4.75 4.75 0 0 0-4.652 3.792l-.04.213a2.134 2.134 0 0 0-.465-.037 2.513 2.513 0 0 0-.135 5.02v-.257c0-.44.353-.794.793-.794.44 0 .793.354.793.794v.265h8.93c1.322 0 2.449-1.126 2.449-2.514a2.515 2.515 0 0 0-2.517-2.514c-.168 0-.297-.01-.46.023l-.044-.2A4.75 4.75 0 0 0 8.467.795Z" fill="#59af17" fill-opacity="1" stroke="none" stroke-width=".529167" stroke-linecap="round" stroke-linejoin="round" stroke-miterlimit="4" stroke-dasharray="none" class="fill-e2e7fa"></path><path d="M32 3a17.95 17.95 0 0 0-17.582 14.332l-.125.68c.073-.002.144-.012.217-.012.646 0 1.135.009 1.76.137l.148-.805C18.068 9.317 24.913 3.492 33 3.043 32.667 3.025 32.337 3 32 3ZM12.51 18C7.258 18 3 22.253 3 27.5c0 5.074 3.985 9.208 8.998 9.475v-.329C7.967 35.546 5 31.876 5 27.5c0-4.938 3.772-8.992 8.594-9.453A11.515 11.515 0 0 0 12.51 18Z" transform="scale(.26458)" fill="#f8f8f8" fill-opacity="1" stroke="none" stroke-width="2.00000119" stroke-linecap="round" stroke-linejoin="round" stroke-miterlimit="4" stroke-dasharray="none" class="fill-f8f8f8"></path><path d="m13.164 4.785-.045-.2A4.75 4.75 0 0 0 6.772 1.11c.339-.076.685-.115 1.033-.117a4.884 4.884 0 0 1 4.784 3.9zM15.117 5.257c.308.417.493.931.493 1.49 0 1.388-1.126 2.513-2.449 2.513H4.713a.79.79 0 0 1 .048.265v.265h8.93c1.322 0 2.449-1.126 2.449-2.514 0-.829-.404-1.561-1.023-2.019zM1.287 8.766A2.51 2.51 0 0 0 3.174 9.78v-.256a.79.79 0 0 1 .049-.265H2.78c-.56 0-1.076-.185-1.494-.494z" fill="#ffffff" fill-opacity="1" stroke="none" stroke-width=".529167" stroke-linecap="round" stroke-linejoin="round" stroke-miterlimit="4" stroke-dasharray="none" class="fill-c4d2f0"></path><path d="M3.968 7.673a1.848 1.848 0 0 0-1.852 1.852v1.5l1.058.025V9.525c0-.44.354-.794.794-.794.44 0 .793.354.793.794v1.562l1.058.026V9.524a1.848 1.848 0 0 0-1.851-1.852z" opacity="1" fill="#59af17" fill-opacity="1" stroke="none" stroke-width=".529167" stroke-linecap="butt" stroke-linejoin="round" stroke-miterlimit="4" stroke-dasharray="none" class="fill-e2e7fa"></path><path d="M3.968 7.673c-.09 0-.178.008-.265.02.9.129 1.587.896 1.587 1.832V11.1l.53.013V9.525a1.848 1.848 0 0 0-1.852-1.852zm-.53 1.058a.792.792 0 0 0-.793.794v1.512l.53.013V9.525a.79.79 0 0 1 .528-.746.79.79 0 0 0-.264-.048z" opacity="1" fill="#ffffff" fill-opacity="1" stroke="none" stroke-width=".529167" stroke-linecap="butt" stroke-linejoin="round" stroke-miterlimit="4" stroke-dasharray="none" class="fill-c4d2f0"></path><path d="M7.608 2.118a1.588 1.588 0 0 1 1.514 2.234l1.728 2.15v1.972c-.328-.328-.732-.737-1.06-1.066V6.75h-.794v-.664h-.494l-.544-.821a1.588 1.588 0 1 1-.35-3.146Z" opacity="1" fill="#ffffff" fill-opacity="1" stroke="none" stroke-width=".529167" stroke-linecap="round" stroke-linejoin="round" stroke-miterlimit="4" stroke-dasharray="none" class="fill-a8c5f7"></path><path d="M-7.348 3.247a.53.53 0 1 1-1.059 0 .53.53 0 0 1 1.059 0z" transform="matrix(-.99827 -.05876 -.05876 .99827 0 0)" fill="#59af17" fill-opacity="1" stroke="none" stroke-width=".529167" stroke-linecap="round" stroke-linejoin="round" stroke-miterlimit="4" stroke-dasharray="none" class="fill-e2e7fa"></path><path d="M7.607 2.118c-.065.003-.13.01-.193.022a1.588 1.588 0 0 1 1.178 2.212l1.728 2.151v1.439l.53.532V6.503L9.12 4.353a1.587 1.587 0 0 0-1.514-2.235Zm-.179 3.146-.027.003.034.007zM6.313 11.15a.79.79 0 0 1 .037.227v3.44c0 .44-.354.793-.794.793H1.323a.789.789 0 0 1-.228-.036.79.79 0 0 0 .757.566h4.233c.44 0 .794-.354.794-.794v-3.44a.79.79 0 0 0-.566-.757z" opacity="1" fill="#ffffff" fill-opacity="1" stroke="none" stroke-width=".529167" stroke-linecap="round" stroke-linejoin="round" stroke-miterlimit="4" stroke-dasharray="none" class="fill-91b8fb"></path><path d="M13.758-12.303a1.455 1.455 0 1 1-2.91 0 1.455 1.455 0 0 1 2.91 0z" transform="rotate(90)" fill="#59af17" fill-opacity="1" stroke="none" stroke-width=".529167" stroke-linecap="round" stroke-linejoin="round" stroke-miterlimit="4" stroke-dasharray="none" stroke-opacity="1" paint-order="normal" class="fill-e2e7fa"></path><path d="M12.303 10.848a1.455 1.455 0 1 0 .136 2.903 1.19 1.19 0 1 1 1.312-1.303 1.455 1.455 0 0 0-1.448-1.6z" fill="#ffffff" fill-opacity="1" stroke="none" stroke-width=".529167" stroke-linecap="round" stroke-linejoin="round" stroke-miterlimit="4" stroke-dasharray="none" stroke-opacity="1" paint-order="normal" class="fill-c4d2f0"></path><path d="M3.969 12.17a.794.794 0 0 0-.528 1.386h-.002v.996a.528.528 0 1 0 1.058 0v-.996a.794.794 0 0 0-.528-1.385z" opacity="1" fill="#59af17" fill-opacity="1" stroke="none" stroke-width=".52916664" stroke-linecap="round" stroke-linejoin="round" stroke-miterlimit="4" stroke-dasharray="none" class="fill-e2e7fa"></path><path d="M3.969 12.17a.794.794 0 0 0-.528 1.386h-.002v.996a.528.528 0 0 0 .793.456.526.526 0 0 1-.264-.456v-.996h.002a.794.794 0 0 1 .264-1.339.794.794 0 0 0-.265-.046z" opacity="1" fill="#ffffff" fill-opacity="1" stroke="none" stroke-width=".52916664" stroke-linecap="round" stroke-linejoin="round" stroke-miterlimit="4" stroke-dasharray="none" class="fill-c4d2f0"></path><path d="M28.752 8.006a6 6 0 0 0-.106 11.984c.442.024.883-.008 1.319-.082a6 6 0 0 1-4.955-6.262 5.997 5.997 0 0 1 5.006-5.558 6.06 6.06 0 0 0-.662-.078 6.003 6.003 0 0 0-.602-.004zm3.324 11.889a6 6 0 0 1-1.43.095 6.032 6.032 0 0 1-.546-.058L32.13 23H34v2.51h2V23h-1.87l-2.054-3.105zM37 25.51V28c1.24 1.242 2.766 2.787 4.006 4.03v-2.012A957.31 957.31 0 0 0 39 28v-2.49h-2zM7 42c-1.662 0-3 1.338-3 3v13c0 1.662 1.338 3 3 3h2c-1.662 0-3-1.338-3-3V45c0-1.662 1.338-3 3-3H7z" transform="scale(.26458)" opacity="1" fill="#f8f8f8" fill-opacity="1" stroke="none" stroke-width="2.00000119" stroke-linecap="round" stroke-linejoin="round" stroke-miterlimit="4" stroke-dasharray="none" class="fill-f8f8f8"></path><path d="m35.488 37-.728.729 1.928 2.603a11.615 11.615 0 0 0-1.495 3.582L32 44.391v4.213l3.201.476c.29 1.27.791 2.482 1.483 3.586l-1.924 2.598 2.976 2.978 1.149-.851-2.125-2.127 1.924-2.598A11.606 11.606 0 0 1 37.2 49.08L34 48.604V44.39l3.193-.477c.294-1.27.8-2.48 1.495-3.582l-1.928-2.603.728-.729Zm6.85 19.314-.85.63c.776.374 1.59.67 2.432.865L44.396 61h2l-.476-3.191a11.592 11.592 0 0 1-3.582-1.495Z" transform="scale(.26458)" fill="#f8f8f8" fill-opacity="1" stroke="none" stroke-width="2.00000119" stroke-linecap="butt" stroke-linejoin="round" stroke-miterlimit="4" stroke-dasharray="none" stroke-opacity="1" paint-order="normal" class="fill-f8f8f8"></path><path d="M3.555 4.531A2.782 2.782 0 0 0 .53 7.297c0 .996.531 1.868 1.323 2.358v1.192c-.582 0-1.06.478-1.06 1.06v3.439c0 .582.478 1.058 1.06 1.058h4.234c.582 0 1.059-.476 1.059-1.058v-3.44c0-.581-.477-1.059-1.06-1.059h-.001v-.792h2.858c.01.03.023.06.043.086l.405.548a3.173 3.173 0 0 0-.289.693l-.673.1a.265.265 0 0 0-.225.262v1.115c0 .131.096.243.225.262l.672.1c.068.232.172.486.288.699l-.403.545a.265.265 0 0 0 .025.343l.787.79c.093.093.24.104.346.025l.546-.405c.212.116.455.223.695.288l.1.672c.02.13.13.226.262.226h1.115c.13 0 .241-.097.26-.226l.101-.674c.23-.064.484-.17.697-.286l.546.405a.265.265 0 0 0 .343-.027l.79-.788a.265.265 0 0 0 .025-.343l-.404-.547c.116-.211.218-.456.288-.697l.67-.1a.265.265 0 0 0 .227-.262v-1.113a.265.265 0 0 0-.226-.261l-.675-.103a3.415 3.415 0 0 0-.284-.696l.404-.546a.265.265 0 0 0-.025-.345l-.299-.297a2.8 2.8 0 0 0 1.102-2.223 2.784 2.784 0 0 0-3.034-2.765A5.014 5.014 0 0 0 8.465.53a5.016 5.016 0 0 0-4.91 4.001Zm9.293.077a2.78 2.78 0 0 0-1.082.597.265.265 0 0 0 .353.395 2.25 2.25 0 0 1 1.5-.572 2.246 2.246 0 0 1 2.252 2.248c0 1.245-1.012 2.25-2.183 2.25H6.084a2.117 2.117 0 0 0-2.115-2.118 2.119 2.119 0 0 0-2.062 1.643A2.244 2.244 0 0 1 3.309 5.05c.554 0 1.089.203 1.502.572a.265.265 0 0 0 .351-.394 2.778 2.778 0 0 0-1.087-.6 4.481 4.481 0 0 1 4.39-3.568 4.479 4.479 0 0 1 4.383 3.549zm-5.02.94.453.683a.264.264 0 0 0 .22.119h.231v.4c0 .146.119.263.264.264h.53v.395c0 .07.028.137.077.187.328.328.73.737 1.059 1.066.167.17.455.05.453-.187V6.504c0-.06-.02-.119-.058-.166L9.425 4.306a1.855 1.855 0 0 0-1.829-2.452 1.855 1.855 0 0 0-1.772 1.742 1.855 1.855 0 0 0 2.004 1.953zm-.076-3.165a1.318 1.318 0 0 1 1.13 1.861.265.265 0 0 0 .034.274l1.67 2.078v1.238l-.531-.535V6.75a.265.265 0 0 0-.266-.266h-.53v-.398a.265.265 0 0 0-.263-.266h-.352l-.466-.703a.265.265 0 0 0-.27-.113 1.32 1.32 0 0 1-1.557-1.377 1.322 1.322 0 0 1 1.401-1.244zm-.033.529a.796.796 0 0 0-.838.745.798.798 0 0 0 .745.84.8.8 0 0 0 .84-.747.798.798 0 0 0-.747-.838zm-.031.528c.149.01.259.13.25.28a.263.263 0 0 1-.281.249.261.261 0 0 1-.248-.281.259.259 0 0 1 .279-.248zm-3.72 4.498c.884 0 1.587.703 1.587 1.588v1.321h-.53V9.526c0-.582-.475-1.06-1.056-1.06-.582 0-1.06.478-1.06 1.06v1.321h-.528V9.526a1.58 1.58 0 0 1 1.588-1.588zm0 1.058a.52.52 0 0 1 .528.53v1.321H3.44V9.526c0-.298.231-.53.529-.53zm11.095 1.012-.373.504a.265.265 0 0 0-.012.299c.167.267.287.56.357.867.024.106.111.187.219.203l.621.092v.658l-.62.094a.265.265 0 0 0-.218.2c-.07.308-.193.602-.361.868a.265.265 0 0 0 .012.297l.373.506-.465.465-.504-.373a.265.265 0 0 0-.297-.012c-.267.167-.56.29-.867.36a.265.265 0 0 0-.203.218l-.092.621h-.659l-.091-.619a.265.265 0 0 0-.203-.219c-.307-.07-.6-.193-.866-.361a.265.265 0 0 0-.298.012l-.506.373-.465-.465.373-.504a.265.265 0 0 0 .012-.297 2.805 2.805 0 0 1-.358-.867.265.265 0 0 0-.219-.203l-.623-.094v-.658l.621-.092a.265.265 0 0 0 .22-.203c.07-.307.193-.6.36-.866a.265.265 0 0 0-.011-.298l-.34-.46h4.108c.408 0 .798-.099 1.15-.27zm-2.76.576c-.947 0-1.72.772-1.72 1.719 0 .946.773 1.72 1.72 1.72.946 0 1.72-.774 1.72-1.72 0-.947-.774-1.72-1.72-1.72zm0 .53c.66 0 1.191.528 1.191 1.189 0 .66-.53 1.191-1.191 1.191s-1.19-.53-1.19-1.191.529-1.19 1.19-1.19zm-10.451.263h4.234c.298 0 .53.232.53.53v3.439c0 .298-.232.53-.53.53H1.852a.522.522 0 0 1-.53-.53v-3.44c0-.297.232-.529.53-.529zm2.117.53c-.582 0-1.06.477-1.06 1.058 0 .266.102.508.265.694v.894c0 .435.36.793.795.793a.797.797 0 0 0 .793-.793v-.892c.163-.186.266-.43.266-.696 0-.581-.478-1.059-1.06-1.059zm.529 1.058c0 .143-.055.27-.146.365l-.01.011c-.07.05-.11.13-.11.216v.996a.257.257 0 0 1-.263.263.258.258 0 0 1-.266-.263v-.996a.265.265 0 0 0-.104-.212l-.013-.015a.525.525 0 0 1-.147-.365c0-.295.234-.53.53-.53.295 0 .529.235.529.53z" style="line-height:normal;font-variant-ligatures:normal;font-variant-position:normal;font-variant-caps:normal;font-variant-numeric:normal;font-variant-alternates:normal;font-feature-settings:normal;text-indent:0;text-align:start;text-decoration-line:none;text-decoration-style:solid;text-decoration-color:#000;text-transform:none;text-orientation:mixed;white-space:normal;shape-padding:0;isolation:auto;mix-blend-mode:normal;solid-color:#000;solid-opacity:1" color="#000000" font-style="normal" font-variant="normal" font-weight="400" font-stretch="normal" font-size="medium" font-family="sans-serif" text-decoration="none" letter-spacing="normal" word-spacing="normal" writing-mode="lr-tb" direction="ltr" dominant-baseline="auto" baseline-shift="baseline" text-anchor="start" clip-rule="nonzero" display="inline" overflow="visible" visibility="visible" color-interpolation="sRGB" color-interpolation-filters="linearRGB" vector-effect="none" fill="#59af17" fill-opacity="1" fill-rule="nonzero" stroke="none" stroke-width=".99999994" stroke-linecap="round" stroke-linejoin="round" stroke-miterlimit="4" stroke-dasharray="none" stroke-dashoffset="0" stroke-opacity="1" color-rendering="auto" image-rendering="auto" shape-rendering="auto" text-rendering="auto" enable-background="accumulate" class="fill-66a0fe"></path></svg>