<svg xmlns="http://www.w3.org/2000/svg" version="1.1" xmlns:xlink="http://www.w3.org/1999/xlink" width="512" height="512" x="0" y="0" viewBox="0 0 512 512" style="enable-background:new 0 0 512 512" xml:space="preserve" class=""><g><path fill="#ffffff" d="M56.761 196.844h308.827v48.981H56.761z" opacity="1" data-original="#5f7080" class=""></path><path fill="#ffffff" d="M75.986 196.844h289.603v48.981H75.986z" opacity="1" data-original="#77899b" class=""></path><path fill="#ffffff" d="M56.761 342.096h308.827v59.18H56.761z" opacity="1" data-original="#5f7080" class=""></path><path fill="#ffffff" d="M75.986 342.095h289.603v59.18H75.986z" opacity="1" data-original="#77899b" class=""></path><g fill-rule="evenodd"><path fill="#ffffff" d="M26.181 501.966h369.987c7.602 0 13.802-5.968 13.802-13.286v-83.903c0-7.318-6.2-13.286-13.802-13.286H26.181c-7.602 0-13.802 5.968-13.802 13.286v83.903c0 7.318 6.2 13.286 13.802 13.286z" opacity="1" data-original="#44515e" class=""></path><path fill="#f58c29" d="M45.406 501.966h350.763c7.601 0 13.802-5.968 13.802-13.286v-83.903c0-7.318-6.2-13.286-13.802-13.286H45.406c-7.602 0-13.802 5.968-13.802 13.286v83.903c0 7.318 6.2 13.286 13.802 13.286z" opacity="1" data-original="#4d5b68" class=""></path><path fill="#ffffff" d="M26.181 351.703h369.987c7.602 0 13.802-5.968 13.802-13.286v-83.903c0-7.318-6.2-13.286-13.802-13.286H26.181c-7.602 0-13.802 5.968-13.802 13.286v83.903c0 7.318 6.2 13.286 13.802 13.286z" opacity="1" data-original="#44515e" class=""></path><path fill="#f58c29" d="M45.406 351.703h350.763c7.601 0 13.802-5.968 13.802-13.286v-83.903c0-7.318-6.2-13.286-13.802-13.286H45.406c-7.602 0-13.802 5.968-13.802 13.286v83.903c0 7.318 6.2 13.286 13.802 13.286z" opacity="1" data-original="#4d5b68" class=""></path><path fill="#ffffff" d="M26.181 201.441h369.987c7.602 0 13.802-5.968 13.802-13.286v-83.903c0-7.318-6.2-13.286-13.802-13.286H26.181c-7.602 0-13.802 5.968-13.802 13.286v83.903c0 7.318 6.2 13.286 13.802 13.286z" opacity="1" data-original="#44515e" class=""></path><path fill="#f58c29" d="M45.406 201.441h350.763c7.601 0 13.802-5.968 13.802-13.286v-83.903c0-7.318-6.2-13.286-13.802-13.286H45.406c-7.602 0-13.802 5.968-13.802 13.286v83.903c0 7.318 6.2 13.286 13.802 13.286z" opacity="1" data-original="#4d5b68" class=""></path></g><path fill="#ffffff" d="M52.531 279.991h32.948v32.948H52.531z" opacity="1" data-original="#ffe54e" class=""></path><path fill="#5cc640" d="M52.531 430.254h32.948v32.948H52.531z" opacity="1" data-original="#fd7a6e" class=""></path><path fill="#ffffff" d="M187.653 430.254h182.165v32.948H187.653z" opacity="1" data-original="#77899b" class=""></path><path fill="#5cc640" d="M52.531 129.729h32.948v32.948H52.531z" opacity="1" data-original="#4ac994" class=""></path><path fill="#ffffff" d="M187.653 129.729h182.165v32.948H187.653z" opacity="1" data-original="#77899b" class=""></path><path fill="#5cc640" d="M121.757 129.729h32.948v32.948h-32.948z" opacity="1" data-original="#4ac994" class=""></path><path fill="#ffffff" d="M121.757 279.991h32.948v32.948h-32.948z" opacity="1" data-original="#ffe54e" class=""></path><path fill="#5cc640" d="M121.757 430.254h32.948v32.948h-32.948z" opacity="1" data-original="#fd7a6e" class=""></path><path fill="#ffffff" d="M187.653 279.991h182.165v32.948H187.653z" opacity="1" data-original="#77899b" class=""></path><path fill="#5cc640" fill-rule="evenodd" d="M279.25 244.576c-20.665-22.065-27.741-61.975-12.336-90.936 13.1-29.719 43.669-51.173 14.546-91.305 19.47 5.374 49.419 14.441 57.946 28.631.493-45.868 20.399-69.272 57.095-80.932-12.633 51.494 126.411 101.198 99.704 195.783-4.26 15.087-8.869 26.419-20.296 38.758-51.779 55.917-142.374 57.963-196.659 0z" opacity="1" data-original="#fb695b" class=""></path><path fill="#5cc640" fill-rule="evenodd" d="M301.633 69.536c16.285 6.971 31.853 11.577 37.773 21.43.493-45.868 20.4-69.272 57.095-80.932-12.633 51.494 126.411 101.198 99.704 195.783-4.26 15.087-8.869 26.419-20.296 38.758-34.62 37.386-86.59 50.683-133.459 38.071-15.685-7.069-30.348-17.332-43.028-30.872-20.665-22.065-27.741-61.975-12.336-90.936 13.1-29.719 43.668-51.172 14.547-91.304z" opacity="1" data-original="#fd7a6e" class=""></path><circle cx="379.109" cy="188.55" r="74.096" fill="#ffffff" transform="rotate(-9.25 379.4 188.995)" opacity="1" data-original="#fad51b" class=""></circle><g fill-rule="evenodd"><path fill="#ffffff" d="M388.672 115.066c36.405 4.691 64.534 35.802 64.534 73.484s-28.128 68.792-64.534 73.483c-36.405-4.691-64.534-35.802-64.534-73.483s28.129-68.793 64.534-73.484z" opacity="1" data-original="#ffe54e" class=""></path><path fill="#5cc640" d="M400.651 142.028a5.997 5.997 0 0 1 11.813-2.063l3.024 17.205a5.997 5.997 0 0 1-4.875 6.938l-17.205 3.024a5.996 5.996 0 0 1-2.063-11.813l4.134-.727a37.522 37.522 0 0 0-18.133-4.658c-9.61 0-19.219 3.666-26.55 10.996-5.629 5.63-9.099 12.564-10.41 19.789a37.74 37.74 0 0 0 2.768 22.325 5.99 5.99 0 0 1-10.922 4.922c-4.195-9.234-5.399-19.508-3.611-29.357 1.744-9.608 6.309-18.78 13.692-26.163 9.675-9.675 22.355-14.513 35.034-14.513a49.512 49.512 0 0 1 23.637 5.988l-.333-1.895zm13.961 40.661a37.804 37.804 0 0 1-1.726 16.972c-1.786 5.232-4.782 10.164-8.989 14.371-6.314 6.314-14.297 9.912-22.504 10.793a37.776 37.776 0 0 1-13.055-.876l3.819-1.778a5.998 5.998 0 0 0-5.063-10.875l-15.836 7.374a5.998 5.998 0 0 0-2.906 7.969l7.374 15.836a5.998 5.998 0 0 0 10.875-5.063l-.819-1.758a49.766 49.766 0 0 0 16.876 1.077c10.868-1.167 21.415-5.906 29.723-14.215a49.378 49.378 0 0 0 11.848-19.011 49.682 49.682 0 0 0 2.242-22.316 5.976 5.976 0 0 0-6.68-5.179 5.976 5.976 0 0 0-5.179 6.68z" opacity="1" data-original="#4ac994" class=""></path></g><path fill="#242222" fill-rule="evenodd" d="M426.528 181.145c1.947 15.34-3.19 30.412-14.12 41.333-9.521 9.52-22.292 14.459-35.139 14.459-3.842 0-7.692-.449-11.463-1.339l.833 1.78a6.015 6.015 0 0 1-2.912 7.97c-.82.379-1.678.56-2.529.56-2.26 0-4.432-1.282-5.441-3.467l-7.318-15.724a5.953 5.953 0 0 1-.26-4.688v-.013h.009c.119-.348.291-.687.48-1.018.018-.022.031-.053.048-.07.022-.031.031-.071.053-.101a6.18 6.18 0 0 1 .591-.758.214.214 0 0 1 .079-.079c.238-.26.498-.489.767-.7.044-.031.071-.061.11-.079.282-.203.582-.379.881-.533a.295.295 0 0 0 .092-.049l15.838-7.371c3.001-1.401 6.569-.097 7.97 2.912 1.401 3 .092 6.569-2.912 7.97l-3.767 1.749c12.459 3.022 26.077-.471 35.509-9.891 8.278-8.278 12.182-19.697 10.693-31.341-.423-3.278 1.907-6.287 5.198-6.71 3.278-.419 6.287 1.912 6.71 5.199zm-83.34 21.843c-6.441-14.173-3.37-31.081 7.639-42.091 7.089-7.089 16.521-11.001 26.553-11.001 6.441 0 12.639 1.621 18.116 4.661l-4.128.723a6.005 6.005 0 0 0-4.868 6.948 5.997 5.997 0 0 0 6.947 4.869l17.199-3.018c.3-.057.59-.141.863-.229.057-.022.106-.031.167-.048a7.06 7.06 0 0 0 .93-.441c.04-.022.079-.04.119-.07.313-.19.604-.41.872-.652.022-.009.04-.018.048-.04.022-.009.022-.017.031-.031.269-.247.52-.52.731-.811.031-.04.048-.066.079-.097.198-.291.379-.59.542-.912.009-.04.026-.071.04-.102.15-.326.269-.67.357-1.018 0-.022.013-.04.022-.061.079-.348.132-.709.15-1.071 0-.026.009-.049.009-.079a6.931 6.931 0 0 0-.048-1.031c-.009-.048-.009-.097-.022-.15-.009-.035-.009-.071-.018-.11l-3.022-17.208c-.568-3.26-3.678-5.441-6.947-4.868a6.011 6.011 0 0 0-4.873 6.947l.331 1.881c-7.168-3.899-15.239-5.979-23.627-5.979-13.23 0-25.68 5.146-35.042 14.508-14.521 14.53-18.569 36.849-10.08 55.541a6 6 0 0 0 7.952 2.978 6 6 0 0 0 2.978-7.939zm35.95 53.62c37.553 0 68.101-30.548 68.101-68.093s-30.548-68.097-68.101-68.097-68.088 30.548-68.088 68.097 30.54 68.093 68.088 68.093zm0-148.191c-44.157 0-80.089 35.932-80.089 80.098s35.932 80.093 80.089 80.093 80.102-35.932 80.102-80.093-35.932-80.098-80.102-80.098zm111.32 95.729c14.507-51.36-23.561-89.05-57.141-122.317-22.491-22.27-42.337-41.941-43.571-62.903-28.486 12.419-42.567 37.853-42.999 77.433a5.997 5.997 0 0 1-11.138 3.018c-5.331-8.869-23.12-19.288-40.813-26.271 11.763 26.253-.41 45.752-11.34 63.273-3.948 6.327-8.04 12.878-11.018 19.649-.062.128-.132.26-.198.388-13.432 25.262-8.313 62.951 11.415 84.023 24.663 26.319 58.004 40.809 93.914 40.809h.379c35.57-.101 69.678-14.97 93.592-40.791 10.485-11.318 14.736-21.499 18.918-36.311zm-157.861 81.803a139.743 139.743 0 0 0 31.302 6.639v14.318H193.68v-20.957zm71.472 52.449c0 4.018-3.498 7.287-7.811 7.287H26.148c-4.3 0-7.802-3.269-7.802-7.287v-83.931c0-4.018 3.503-7.291 7.802-7.291h247.44c.441.493.872.983 1.309 1.463 9.432 10.058 20.019 18.539 31.482 25.31h-118.7c-3.313 0-6 2.688-6 6v32.958a6.005 6.005 0 0 0 6 6.001h182.22a6.003 6.003 0 0 0 6.001-6.001v-19.679c.559.009 1.119.022 1.67.022h.418c8.811-.031 17.539-.89 26.081-2.533v47.682zM62.737 385.485v-27.799h296.932v27.799H62.736zm333.52 12.001c4.313 0 7.811 3.273 7.811 7.291v83.931c0 4.018-3.498 7.291-7.811 7.291H26.148c-4.3 0-7.802-3.273-7.802-7.291v-83.931c0-4.018 3.503-7.291 7.802-7.291zM264.927 235.18H62.736v-27.812h191.78c1.961 9.842 5.463 19.341 10.41 27.812zm-6.027-78.583h-65.22V135.64h76.129c-2.978 4.89-5.868 9.957-8.26 15.336a67.143 67.143 0 0 0-2.648 5.621zM26.148 195.371c-4.3 0-7.802-3.273-7.802-7.296v-83.926c0-4.022 3.503-7.291 7.802-7.291h261.458c-.639 9.3-4.947 17.759-10.388 26.781h-89.539c-3.313 0-6 2.679-6 6v32.958a6.005 6.005 0 0 0 6 6.001h67.331c-2.044 8.622-2.723 17.719-2.093 26.773zM441.767 73.31c-23.57-23.341-43.919-43.501-39.408-61.881a5.978 5.978 0 0 0-1.731-5.811 6.014 6.014 0 0 0-5.912-1.339c-35.289 11.208-55.158 37.329-59.198 77.728-14.23-11.468-36.98-21.226-52.431-25.486a6 6 0 0 0-6.529 2.357 6.005 6.005 0 0 0 .079 6.943c5.062 6.978 8.142 13.239 9.732 19.036H26.148c-10.922 0-19.799 8.662-19.799 19.292v83.926c0 10.644 8.877 19.292 19.799 19.292h24.587v27.812H26.148c-10.922 0-19.799 8.648-19.799 19.288v83.931c0 10.631 8.877 19.288 19.799 19.288h24.587v27.799H26.148c-10.922 0-19.799 8.653-19.799 19.292v83.931c0 10.64 8.877 19.292 19.799 19.292h370.109c10.921 0 19.812-8.653 19.812-19.292v-83.931c0-10.639-8.891-19.292-19.812-19.292h-24.592v-27.799h24.592c10.921 0 19.812-8.657 19.812-19.288v-50.519c24.477-6.961 46.849-20.451 64.269-39.263 12.08-13.036 17.089-24.98 21.671-41.21 16.428-58.158-26.081-100.267-60.242-134.097zM127.758 436.259v20.957h20.962v-20.957zm-6 32.958h32.958c3.309 0 6-2.679 6-6.001v-32.958c0-3.313-2.692-6-6-6h-32.958c-3.313 0-6 2.688-6 6v32.958a5.996 5.996 0 0 0 6 6.001zm26.962-162.311v-20.957h-20.962v20.957zm5.996-32.958h-32.958c-3.313 0-6 2.688-6 6v32.958a6.004 6.004 0 0 0 6 6.001h32.958c3.309 0 6-2.692 6-6.001v-32.958c0-3.313-2.692-6-6-6zm-5.996-117.352v-20.957h-20.962v20.957zm5.996-32.958h-32.958c-3.313 0-6 2.679-6 6v32.958a6.004 6.004 0 0 0 6 6.001h32.958c3.309 0 6-2.692 6-6.001v-32.958c0-3.322-2.692-6-6-6zm-75.247 32.958v-20.957H58.507v20.957zm6-32.958H52.506c-3.309 0-6 2.679-6 6v32.958a6.008 6.008 0 0 0 6 6.001h32.963c3.309 0 6-2.692 6-6.001v-32.958c0-3.322-2.692-6-6-6zm108.21 312.62v20.957h170.219v-20.957zm-6 32.958h182.22a5.994 5.994 0 0 0 6.001-6.001v-32.958c0-3.313-2.683-6-6.001-6h-182.22c-3.313 0-6 2.688-6 6v32.958a5.997 5.997 0 0 0 6 6.001zM58.507 436.258v20.957h20.962v-20.957zm-6 32.958H85.47c3.309 0 6-2.679 6-6.001v-32.958c0-3.313-2.692-6-6-6H52.507c-3.309 0-6 2.688-6 6v32.958a6 6 0 0 0 6 6.001zm26.962-162.311v-20.957H58.507v20.957zm6-32.958H52.506c-3.309 0-6 2.688-6 6v32.958a6.008 6.008 0 0 0 6 6.001h32.963c3.309 0 6-2.692 6-6.001v-32.958c0-3.313-2.692-6-6-6z" opacity="1" data-original="#242222" class=""></path></g></svg>