<svg xmlns="http://www.w3.org/2000/svg" version="1.1" xmlns:xlink="http://www.w3.org/1999/xlink" width="512" height="512" x="0" y="0" viewBox="0 0 512 512" style="enable-background:new 0 0 512 512" xml:space="preserve" class=""><g><path d="M228.986 152.841c-7.964 11.364-15.725 17.441-16.01 17.661-6.597 4.956-7.955 14.317-3.025 20.944a14.977 14.977 0 0 0 12.047 6.049c3.112 0 6.251-.965 8.941-2.965 1.561-1.161 38.053-28.873 44.455-80.786.378-2.379.579-4.816.579-7.3 0-25.592-20.821-46.413-46.413-46.413s-46.413 20.821-46.413 46.413c.001 25.398 20.512 46.087 45.839 46.397zm.574-62.81c9.05 0 16.413 7.363 16.413 16.413s-7.363 16.413-16.413 16.413-16.413-7.363-16.413-16.413 7.363-16.413 16.413-16.413zM107.938 194.53c1.561-1.161 38.053-28.873 44.455-80.786.377-2.379.579-4.816.579-7.3 0-25.592-20.821-46.413-46.413-46.413s-46.413 20.821-46.413 46.413c0 25.399 20.511 46.088 45.838 46.398-7.964 11.364-15.725 17.441-16.01 17.661-6.597 4.956-7.955 14.317-3.025 20.944a14.977 14.977 0 0 0 12.047 6.049 14.942 14.942 0 0 0 8.942-2.966zm-17.791-88.087c0-9.05 7.363-16.413 16.413-16.413s16.413 7.363 16.413 16.413-7.363 16.413-16.413 16.413-16.413-7.363-16.413-16.413z" fill="#f58c29" opacity="1" data-original="#000000" class=""></path><path d="M407.148 266.067c-27.346 0-52.276 10.527-70.963 27.736V15c0-8.284-6.716-15-15-15H15C6.716 0 0 6.716 0 15v398.404c0 8.284 6.716 15 15 15h227.987v36.57c0 25.93 21.096 47.025 47.025 47.025h46.621c8.284 0 15-6.716 15-15 0-.018-.003-.035-.003-.053s.003-.035.003-.053v-17.442c0-6.053 4.924-10.977 10.977-10.977h89.074c6.053 0 10.977 4.924 10.977 10.977V497c0 8.284 6.716 15 15 15s15-6.716 15-15v-17.548c0-22.595-18.382-40.977-40.977-40.977H435.61a45.016 45.016 0 0 0 13.801-19.638H497c8.284 0 15-6.716 15-15v-32.918c0-57.815-47.037-104.852-104.852-104.852zM30 30h276.185v312.599a104.597 104.597 0 0 0-3.889 28.32v27.485H30zm332.611 408.475c-22.595 0-40.977 18.382-40.977 40.977V482h-31.621c-9.388 0-17.025-7.638-17.025-17.025v-36.57h48.198c6.365 0 11.791-3.972 13.97-9.567h29.73a45.035 45.035 0 0 0 13.801 19.638h-16.076zM422 403.837c0 8.189-6.663 14.852-14.852 14.852s-14.852-6.663-14.852-14.852v-32.918c0-8.189 6.663-14.852 14.852-14.852 8.19 0 14.852 6.663 14.852 14.852zm60-15h-30v-17.918c0-24.731-20.121-44.852-44.852-44.852s-44.852 20.121-44.852 44.852v17.918h-30v-17.918c0-41.273 33.579-74.852 74.852-74.852S482 329.646 482 370.919z" fill="#f58c29" opacity="1" data-original="#000000" class=""></path><path d="M220.709 282.127c-12.395 0-23.461 6.35-30.672 16.242l24.748-58.97c3.206-7.639-.388-16.43-8.027-19.636-7.638-3.204-16.43.388-19.636 8.027l-12.454 29.675c.021-.574.04-1.149.04-1.728 0-23.85-17.636-43.252-39.312-43.252-21.677 0-39.313 19.403-39.313 43.252s17.636 43.252 39.313 43.252c10.292 0 19.668-4.38 26.683-11.527l-21.87 52.112c-3.206 7.639.388 16.43 8.027 19.636a14.965 14.965 0 0 0 5.798 1.172c5.861 0 11.428-3.457 13.838-9.199l14.224-33.893a47.477 47.477 0 0 0-.7 8.089c0 23.85 17.636 43.252 39.312 43.252 21.677 0 39.313-19.403 39.313-43.252.001-23.849-17.635-43.252-39.312-43.252zm-85.313-13.138c-4.961 0-9.313-6.193-9.313-13.252 0-7.06 4.352-13.252 9.313-13.252s9.312 6.193 9.312 13.252-4.351 13.252-9.312 13.252zm85.313 69.643c-4.961 0-9.312-6.193-9.312-13.252 0-7.06 4.352-13.253 9.312-13.253 4.961 0 9.313 6.193 9.313 13.253s-4.352 13.252-9.313 13.252z" fill="#f58c29" opacity="1" data-original="#000000" class=""></path></g></svg>