<svg xmlns="http://www.w3.org/2000/svg" version="1.1" xmlns:xlink="http://www.w3.org/1999/xlink" width="512" height="512" x="0" y="0" viewBox="0 0 512 512" style="enable-background:new 0 0 512 512" xml:space="preserve" class=""><g><g fill-rule="evenodd" clip-rule="evenodd"><path fill="#f58c29" d="M388.99 193.371h55.069c6.585 0 6.585-10.002 0-10.002H388.99c-6.586.001-6.586 10.002 0 10.002zm0 15.2h55.069c6.589 0 6.583-9.999 0-9.999H388.99c-6.585-.001-6.59 9.999 0 9.999zm10.736 15.21h33.591c6.583 0 6.583-10.001 0-10.001h-33.591c-6.576 0-6.576 10.001 0 10.001zm-272.068 226.64h-10.001v14.66H74.116c-6.583 0-6.585 9.999 0 9.999H171.2c2.758 0 5.001-2.239 5.001-4.999s-2.243-5.001-5.001-5.001h-43.541v-14.659zm269.595-145.288c11.724-11.722 28.558-16.529 44.608-12.645l4.156 1.006-34.231 34.232c-4.174 4.174-4.178 10.982-.001 15.156l14.932 14.921c4.183 4.181 10.985 4.169 15.154.001l34.243-34.241.999 4.168c3.854 16.078-.949 32.923-12.647 44.617-11.717 11.712-28.422 16.444-44.546 12.648a2.595 2.595 0 0 0-2.436.691l-70.75 70.751c-14.752 14.752-40.502 4.515-40.502-16.788 0-6.33 2.443-12.309 6.921-16.786l70.76-70.749a2.613 2.613 0 0 0 .69-2.443c-3.79-16.117.939-32.83 12.65-44.539zM203.318 442.82H37.891V341.182h165.427zm-28.22-359.686c.913-.913 10.96-21.298 11.451-21.837l38.104-24.377 14.533 14.527-24.367 38.109c-.54.493-20.921 10.524-21.849 11.452l-42.574 42.576-17.871-17.873zM38.402 192.765c-6.428 6.429-6.429 16.962 0 23.392l21.548 21.549c6.434 6.434 16.963 6.434 23.397 0l65.211-65.209c6.435-6.435 6.435-16.968 0-23.403l-21.548-21.549c-6.421-6.422-16.976-6.422-23.397 0zm333.542-53.181a59.49 59.49 0 0 1-14.984-39.503c0-32.848 26.72-59.561 59.566-59.561 32.845 0 59.562 26.716 59.562 59.561a59.49 59.49 0 0 1-14.984 39.503c-5.626 6.342-8.465 13.82-8.465 22.297 0 4.791-3.891 8.689-8.683 8.689h-54.868c-4.79 0-8.679-3.901-8.679-8.689 0-8.477-2.839-15.955-8.465-22.297zm5.981-41.672c1.31 0 2.421-.972 2.582-2.275a36.268 36.268 0 0 1 25.786-30.369c3.274-.963 1.816-5.961-1.469-4.995a41.481 41.481 0 0 0-29.485 34.722c-.191 1.544 1.034 2.917 2.586 2.917z" opacity="1" data-original="#434b66" class=""></path><path fill="#59af17" d="M258.535 211.149c18.837 0 34.16 15.325 34.16 34.161 0 18.837-15.323 34.162-34.16 34.162-18.881 0-34.155-15.283-34.155-34.162-.001-18.833 15.32-34.161 34.155-34.161zm-83.729.771a8.888 8.888 0 0 0 3.838 11.041c17.19 9.872 17.221 34.782-.001 44.689a8.889 8.889 0 0 0-3.837 11.039 90.062 90.062 0 0 0 12.983 22.439 8.889 8.889 0 0 0 11.462 2.19c17.117-9.906 38.722 2.425 38.694 22.339-.006 4.47 3.216 8.213 7.644 8.849a91.492 91.492 0 0 0 25.893-.011 8.866 8.866 0 0 0 7.649-8.839c-.035-19.801 21.487-32.289 38.685-22.338a8.894 8.894 0 0 0 11.465-2.189 89.833 89.833 0 0 0 12.989-22.44 8.904 8.904 0 0 0-3.846-11.039c-17.222-9.907-17.19-34.817-.001-44.689a8.891 8.891 0 0 0 3.848-11.041 90.038 90.038 0 0 0-12.988-22.427 8.886 8.886 0 0 0-11.466-2.19c-17.15 9.921-38.713-2.497-38.685-22.348.006-4.474-3.22-8.196-7.646-8.838a90.831 90.831 0 0 0-25.898 0 8.868 8.868 0 0 0-7.642 8.838c.027 19.847-21.535 32.274-38.695 22.348a8.88 8.88 0 0 0-11.461 2.19 90.109 90.109 0 0 0-12.984 22.427z" opacity="1" data-original="#ffb229" class=""></path></g></g></svg>