<svg xmlns="http://www.w3.org/2000/svg" version="1.1" xmlns:xlink="http://www.w3.org/1999/xlink" width="512" height="512" x="0" y="0" viewBox="0 0 64 64" style="enable-background:new 0 0 512 512" xml:space="preserve" class=""><g><path d="M21.72 17.05c-.79.55-1.54 1.16-2.23 1.82-.29.27-.3.73-.02 1.02.14.15.33.22.52.22.18 0 .36-.07.5-.2.64-.61 1.33-1.18 2.06-1.69.33-.23.4-.68.18-1a.732.732 0 0 0-1.01-.17zM37.39 11.49h1.31c.27 0 .48-.21.48-.48s-.21-.48-.48-.48h-1.31c-.27 0-.48.21-.48.48s.21.48.48.48zM39.86 13.96c.27 0 .48-.22.48-.48v-1.31a.48.48 0 0 0-.96 0v1.31c0 .27.22.48.48.48zM39.86 10.33c.27 0 .48-.21.48-.48V8.54c0-.27-.21-.48-.48-.48s-.48.21-.48.48v1.31c0 .26.22.48.48.48zM41.03 11.49h1.31c.27 0 .48-.21.48-.48s-.21-.48-.48-.48h-1.31c-.27 0-.48.21-.48.48s.21.48.48.48zM56.76 41.67c-.27 0-.48.21-.48.48s.21.48.48.48h1.28c.27 0 .48-.21.48-.48s-.21-.48-.48-.48zM59.18 45.04c.27 0 .48-.21.48-.48v-1.28c0-.27-.21-.48-.48-.48s-.48.21-.48.48v1.28c0 .27.21.48.48.48zM59.17 41.49c.27 0 .48-.21.48-.48v-1.28c0-.27-.21-.48-.48-.48s-.48.21-.48.48v1.28c0 .27.22.48.48.48zM60.31 41.67c-.27 0-.48.21-.48.48s.21.48.48.48h1.28c.27 0 .48-.21.48-.48s-.21-.48-.48-.48zM23 55.78c-1.12 0-2.03.9-2.03 2s.91 2 2.03 2c1.11 0 2.02-.9 2.02-2s-.9-2-2.02-2zm0 3.04c-.6 0-1.07-.46-1.07-1.04s.47-1.04 1.07-1.04c.58 0 1.06.47 1.06 1.04s-.47 1.04-1.06 1.04zM6.07 26.17c.27 0 .48-.21.48-.48s-.21-.48-.48-.48H4.79c-.27 0-.48.21-.48.48s.21.48.48.48zM7.21 26.35c-.27 0-.48.21-.48.48v1.28c0 .27.21.48.48.48s.48-.21.48-.48v-1.28c0-.26-.22-.48-.48-.48zM7.69 23.28a.48.48 0 0 0-.96 0v1.28a.48.48 0 0 0 .96 0zM9.62 26.17c.27 0 .48-.22.48-.48 0-.27-.21-.48-.48-.48H8.34a.48.48 0 0 0-.48.48c0 .27.21.48.48.48z" fill="#59af17" opacity="1" data-original="#000000" class=""></path><path d="M55.65 47.56c-4.12 0-7.52 3.18-7.87 7.21h-14.8v-3.26c10.01-.22 18.1-8.23 18.48-18.2h4c.4 0 .72-.32.72-.72V16.41c4.11-.27 7.38-3.69 7.38-7.88 0-4.36-3.54-7.9-7.9-7.9s-7.9 3.54-7.9 7.9c0 4.05 3.06 7.39 6.99 7.84v15.49h-3.28c-.38-9.86-8.33-17.8-18.2-18.18V9.69c0-.4-.32-.72-.72-.72H16.23c-.2-4.18-3.65-7.53-7.88-7.53-4.36 0-7.9 3.54-7.9 7.9s3.54 7.9 7.9 7.9c4 0 7.3-2.98 7.82-6.84h15.66v3.26c-2.59.1-5.08.7-7.42 1.81a.72.72 0 1 0 .62 1.3c2.36-1.12 4.89-1.69 7.52-1.69 9.65 0 17.49 7.84 17.5 17.49v.04c-.01 9.64-7.86 17.49-17.5 17.49-9.65 0-17.5-7.85-17.5-17.5 0-3.97 1.29-7.71 3.74-10.82.25-.31.19-.76-.12-1.01s-.77-.19-1.01.12a18.77 18.77 0 0 0-4.05 11.71c0 .3.03.6.05.9H9.71c-.4 0-.72.32-.72.72V47.6c-4.02.37-7.18 3.75-7.18 7.87 0 4.36 3.54 7.9 7.9 7.9s7.9-3.54 7.9-7.9c0-4.11-3.16-7.5-7.18-7.87V34.93h3.34c1.12 9.01 8.58 16.06 17.77 16.55v4.01c0 .4.32.72.72.72h15.53c.38 4.01 3.76 7.15 7.86 7.15 4.36 0 7.9-3.54 7.9-7.9 0-4.35-3.54-7.9-7.9-7.9zm0-39.22c-.56 0-1.02-.46-1.02-1.02s.46-1.02 1.02-1.02 1.02.46 1.02 1.02-.45 1.02-1.02 1.02zm0 1.72c2.04 0 3.7 1.66 3.7 3.71 0 .02.01.03.01.05a6.424 6.424 0 0 1-7.42 0c0-.02.01-.03.01-.05 0-2.04 1.66-3.71 3.7-3.71zm-6.46-1.52c0-3.56 2.9-6.46 6.46-6.46s6.46 2.9 6.46 6.46c0 1.55-.55 2.97-1.46 4.09a5.136 5.136 0 0 0-3.19-3.65c.4-.44.65-1.02.65-1.66 0-1.36-1.1-2.46-2.46-2.46s-2.46 1.1-2.46 2.46c0 .64.25 1.22.65 1.66-1.59.6-2.81 1.97-3.19 3.65a6.463 6.463 0 0 1-1.46-4.09zM4.64 14.63c0-.02.01-.03.01-.05 0-2.04 1.66-3.71 3.7-3.71s3.7 1.66 3.7 3.71c0 .02.01.03.01.05a6.424 6.424 0 0 1-7.42 0zm3.71-5.48a1.024 1.024 0 0 1 0-2.05c.56 0 1.02.46 1.02 1.02s-.46 1.03-1.02 1.03zm5 4.28a5.136 5.136 0 0 0-3.19-3.65c.4-.44.65-1.02.65-1.66 0-1.36-1.1-2.46-2.46-2.46s-2.46 1.1-2.46 2.46c0 .64.25 1.22.65 1.66-1.59.6-2.81 1.97-3.19 3.65a6.442 6.442 0 0 1-1.46-4.09c0-3.56 2.9-6.46 6.46-6.46s6.46 2.9 6.46 6.46c0 1.55-.55 2.98-1.46 4.09zM6 60.74c0-.02.01-.03.01-.05 0-2.04 1.66-3.71 3.7-3.71s3.7 1.66 3.7 3.71c0 .02.01.03.01.05-1.05.74-2.33 1.18-3.71 1.18S7.05 61.49 6 60.74zm3.72-5.48c-.56 0-1.02-.46-1.02-1.02s.46-1.02 1.02-1.02 1.02.46 1.02 1.02-.46 1.02-1.02 1.02zm6.46.2c0 1.55-.55 2.97-1.46 4.09a5.136 5.136 0 0 0-3.19-3.65c.4-.44.65-1.02.65-1.66 0-1.36-1.1-2.46-2.46-2.46s-2.46 1.1-2.46 2.46c0 .64.25 1.22.65 1.66-1.59.6-2.81 1.97-3.19 3.65a6.442 6.442 0 0 1-1.46-4.09c0-3.56 2.9-6.46 6.46-6.46s6.46 2.9 6.46 6.46zm35.76 5.28c0-.02.01-.03.01-.05 0-2.04 1.66-3.71 3.7-3.71s3.7 1.66 3.7 3.71c0 .02.01.03.01.05-1.05.74-2.33 1.18-3.71 1.18s-2.66-.43-3.71-1.18zm3.71-5.48c-.56 0-1.02-.46-1.02-1.02s.46-1.02 1.02-1.02 1.02.46 1.02 1.02c.01.56-.45 1.02-1.02 1.02zm5 4.29a5.136 5.136 0 0 0-3.19-3.65c.4-.44.65-1.02.65-1.66 0-1.36-1.1-2.46-2.46-2.46s-2.46 1.1-2.46 2.46c0 .64.25 1.22.65 1.66-1.59.6-2.81 1.97-3.19 3.65a6.442 6.442 0 0 1-1.46-4.09c0-3.56 2.9-6.46 6.46-6.46s6.46 2.9 6.46 6.46a6.35 6.35 0 0 1-1.46 4.09z" fill="#59af17" opacity="1" data-original="#000000" class=""></path><path d="m22.06 35.68-1.53 5.61c-.31 1.13.13 2.33 1.1 2.99l.34.23c.12.08.26.13.41.13h20.76c.19 0 .37-.08.51-.21l.22-.22c.7-.7.97-1.72.71-2.67l-1.61-5.9a2.858 2.858 0 0 0-2.72-1.97H35.5v-1.48c.99-.73 1.82-1.8 2.34-3.13.72-.28 1.26-1.07 1.32-2.01v-.01c.03-.5-.08-.97-.3-1.36.24-.8.36-1.54.36-2.2.01-.1.01-.21.01-.31 0-3.26-2.68-5.92-5.97-5.92-2.06 0-3.9.81-4.99 2.15-.14-.04-.3-.06-.45-.06-.55.01-1.03.33-1.26.82-.16.34-.29.76-.39 1.25-.25 1.22-.23 2.51.08 3.83.01.03.01.06.02.09-.38.42-.6 1.03-.56 1.72.06.94.6 1.72 1.32 2.01.55 1.39 1.43 2.5 2.49 3.23V33.68H24.8c-1.24-.01-2.34.78-2.74 2zm5.74-14.96c.11.25.36.41.63.42.23.01.52-.13.66-.37.7-1.26 2.35-2.08 4.19-2.08 2.5 0 4.53 2.01 4.53 4.48 0 .07 0 .15-.01.31 0 .39-.08.84-.19 1.32-.04-.01-.08-.02-.12-.02-.21-.5-.52-.94-.9-1.27-1-.88-2.29-1.37-3.63-1.37h-.86c-.89 0-1.76-.3-2.47-.83a.715.715 0 0 0-1 .13s-.18.23-.44.57c-.28.39-.52.74-.73 1.09 0-.48.04-.94.13-1.4.08-.38.18-.71.21-.98zm.46 7.5a.713.713 0 0 0-.63-.48c-.17-.01-.44-.32-.47-.78-.02-.4.15-.68.29-.72.01-.01.03-.01.04-.02.32-.05.57-.32.6-.65.09-1.03.52-1.67 1.26-2.71l.01-.01c.83.47 1.78.73 2.74.73h.86c.98 0 1.93.36 2.68 1.01.4.34.58.83.66 1.17.05.22.23.39.44.49.21.09.47.07.67-.03.02 0 .07 0 .15.08.1.11.21.34.19.66-.03.46-.3.77-.47.78-.29.02-.54.21-.64.49-.74 2.17-2.38 3.58-4.18 3.58-1.8-.01-3.45-1.42-4.2-3.59zm4.19 5.02c.56 0 1.1-.1 1.62-.28v.66c0 .93-.67 1.69-1.48 1.69h-.14c-.82 0-1.48-.76-1.48-1.69v-.63c.48.15.97.25 1.48.25zm0 3.51h.14c1.11 0 2.06-.67 2.56-1.64h5.1c.62 0 1.16.39 1.34.95l1.6 5.87c.12.45-.01.94-.34 1.27h-1.01v-2.27c0-.4-.32-.72-.72-.72s-.72.32-.72.72v2.27H25.29v-2.28c0-.4-.32-.72-.72-.72s-.72.32-.72.72v2.28H22.6l-.15-.11c-.46-.32-.67-.89-.52-1.43l1.52-5.58c.19-.59.74-.98 1.36-.98h5.1c.48.98 1.43 1.65 2.54 1.65z" fill="#59af17" opacity="1" data-original="#000000" class=""></path></g></svg>