<svg xmlns="http://www.w3.org/2000/svg" version="1.1" xmlns:xlink="http://www.w3.org/1999/xlink" width="512" height="512" x="0" y="0" viewBox="0 0 1700 1700" style="enable-background:new 0 0 512 512" xml:space="preserve" class=""><g><path fill="#59af17" d="M805.9 837.4 592 1051.3a62.518 62.518 0 0 1-44.2 18.3h-258v149.7h320c16.6 0 32.5-6.6 44.2-18.3l300.2-300.3z" opacity="1" data-original="#85a3fa" class=""></path><path fill="#59af17" d="M360.9 1338.3H150.3V950.6h210.5c11.3 0 20.4 9.1 20.4 20.4v346.9c.1 11.3-9 20.4-20.3 20.4z" opacity="1" data-original="#d8e9f0" class=""></path><path fill="#5cc640" d="M1190 1013.9c3.2 1.6 6.4 3.2 9.7 4.6 71.9 30.7 155.1-2.7 185.8-74.6 1.4-3.3 2.7-6.7 3.8-10l33.3-76.3-214.8-80.6-84.7 208z" opacity="1" data-original="#7792e0" class=""></path><path fill="#59af17" d="M192.3 1494.8H82V794.1h110.3c21.8 0 39.4 17.6 39.4 39.4v621.8c-.1 21.8-17.7 39.5-39.4 39.5zM1343.9 914.5l-800-341.6c-30-12.8-44-47.5-31.1-77.5L561 382.5c12.8-30 47.5-44 77.5-31.1l944.1 403.1c10 4.3 14.7 15.8 10.4 25.8l-17.6 41.3c-38.3 89.5-141.9 131.2-231.5 92.9z" opacity="1" data-original="#85a3fa" class=""></path><circle cx="1362.3" cy="791.4" r="44.9" fill="#ffffff" opacity="1" data-original="#bbecfe" class=""></circle><path fill="#59af17" d="m1101.2 1071.6-587.8-251c-30-12.8-44-47.5-31.1-77.5l71-166.2 696.5 297.4-71 166.2c-12.9 29.9-47.6 43.9-77.6 31.1z" opacity="1" data-original="#d8e9f0" class=""></path><path fill="#59af17" d="M1407.5 579c-6.4 0-12.6-3.8-15.1-10.2-15.5-38.1-44.9-68-82.9-84s-79.8-16.3-118-.8c-8.4 3.4-17.9-.6-21.3-9s.6-17.9 9-21.3c46.2-18.8 97-18.5 143 .9s81.7 55.5 100.4 101.8c3.4 8.4-.6 17.9-9 21.3-1.9 1-4 1.3-6.1 1.3zM1504.6 520.4c-6.4 0-12.6-3.8-15.1-10.2-51.6-126.9-196.8-188.1-323.6-136.5-8.4 3.4-17.9-.6-21.3-9s.6-17.9 9-21.3c69.5-28.3 145.9-27.8 215.1 1.4s122.8 83.5 151.1 153.1c3.4 8.4-.6 17.9-9 21.3-2.1.8-4.1 1.2-6.2 1.2z" opacity="1" data-original="#85a3fa" class=""></path><path fill="#59af17" d="M1601.7 461.8c-6.4 0-12.6-3.8-15.1-10.2-34.5-84.8-99.9-151-184.2-186.6s-177.4-36.2-262.2-1.7c-8.4 3.4-17.9-.6-21.3-9s.6-17.9 9-21.3c46.9-19.1 96.2-28.4 146.4-27.7 48.5.7 95.9 10.6 140.8 29.6 44.9 18.9 85.1 45.9 119.4 80.2 35.6 35.5 63.3 77.3 82.4 124.2 3.4 8.4-.6 17.9-9 21.3-2.1.8-4.2 1.2-6.2 1.2z" opacity="1" data-original="#85a3fa" class=""></path></g></svg>