<svg xmlns="http://www.w3.org/2000/svg" version="1.1" xmlns:xlink="http://www.w3.org/1999/xlink" width="512" height="512" x="0" y="0" viewBox="0 0 512 512" style="enable-background:new 0 0 512 512" xml:space="preserve" class=""><g><path d="M380.43 73.04a6.004 6.004 0 0 0-7.66-.69l-31.59 21.89a5.99 5.99 0 0 0-2.53 4.15l-3.57 27.2-61.99 61.99-40.49-40.49c5.63-19.91.06-41.72-14.71-56.49-17.82-17.82-44.83-22.05-67.22-10.53-1.7.88-2.89 2.51-3.18 4.41-.3 1.89.33 3.81 1.69 5.17l30.59 30.59-13.87 13.86-30.59-30.59a6.006 6.006 0 0 0-5.17-1.69c-1.89.3-3.53 1.48-4.41 3.18-11.52 22.39-7.29 49.4 10.53 67.22 14.76 14.76 36.57 20.34 56.51 14.73l40.47 40.47-13.66 13.66-17.19-17.19c-2.34-2.34-6.14-2.34-8.49 0l-8.91 8.91a6.017 6.017 0 0 0-1.62 5.52l2.65 12.17h-7.76c-1.59 0-3.12.63-4.24 1.76l-51.04 51.04c-11.82 11.82-11.82 31.06 0 42.89 5.71 5.71 13.32 8.85 21.44 8.85s15.73-3.14 21.44-8.85l51.04-51.04a6.012 6.012 0 0 0 1.76-4.24v-7.76l12.17 2.65c2 .44 4.08-.17 5.52-1.62l8.91-8.91a6 6 0 0 0 0-8.48l-17.19-17.19 13.66-13.66 40.47 40.47c-5.61 19.94-.03 41.75 14.73 56.51 11.13 11.13 25.84 16.96 40.78 16.96 8.98 0 18.03-2.11 26.44-6.43 1.7-.88 2.89-2.51 3.18-4.41.3-1.89-.33-3.81-1.69-5.17l-30.59-30.59 13.86-13.86L379.5 320c1.36 1.36 3.28 1.99 5.17 1.69s3.53-1.48 4.41-3.18c11.52-22.39 7.29-49.4-10.53-67.22-14.77-14.77-36.58-20.34-56.49-14.71l-40.49-40.49 61.99-61.99 27.2-3.57a5.99 5.99 0 0 0 4.15-2.53l21.89-31.59a6.004 6.004 0 0 0-.69-7.66zM230.18 273.37l-16.24-3.54c-1.77-.39-3.63.05-5.04 1.19s-2.24 2.86-2.24 4.67v12.72l-49.28 49.28c-7.14 7.14-18.77 7.15-25.92 0-7.14-7.15-7.14-18.77 0-25.92l49.28-49.28h12.72c1.82 0 3.53-.82 4.67-2.24a5.982 5.982 0 0 0 1.19-5.04l-3.54-16.24 2.35-2.35 34.39 34.39zm92.25-24.33c16.52-5.91 35.22-1.7 47.64 10.72 12.07 12.07 16.27 29.47 11.52 45.35l-28.44-28.44a5.987 5.987 0 0 0-8.48 0l-22.35 22.35a6 6 0 0 0 0 8.48l28.44 28.44c-15.88 4.75-33.28.55-45.35-11.52-12.41-12.42-16.63-31.14-10.74-47.68a5.98 5.98 0 0 0-1.41-6.25l-94.59-94.59a5.99 5.99 0 0 0-4.24-1.76c-.67 0-1.35.11-2.01.35-16.55 5.89-35.26 1.67-47.67-10.75-12.07-12.07-16.27-29.47-11.52-45.35l28.44 28.44a5.987 5.987 0 0 0 8.48 0l22.35-22.35a6 6 0 0 0 0-8.48l-28.44-28.44c15.88-4.75 33.28-.55 45.35 11.52 12.42 12.42 16.63 31.12 10.72 47.64a6 6 0 0 0 1.41 6.26l94.64 94.64a5.959 5.959 0 0 0 6.25 1.42zm44.14-130.08-18.84 2.47 2.47-18.84 25.29-17.52 8.61 8.61zM431.79 15H80.21C48.61 15 22.9 40.67 22.9 72.23v278.88c0 31.56 25.71 57.23 57.31 57.23h45.89c5.64 26.95-2.98 50.73-28.26 78.62a6.007 6.007 0 0 0-.87 6.82 6.004 6.004 0 0 0 6.1 3.16c55.23-7.31 93.27-37.11 113.13-88.6h215.57c31.6 0 57.31-25.67 57.31-57.23V72.23C489.09 40.67 463.39 15 431.79 15zm45.3 336.11c0 24.94-20.33 45.23-45.31 45.23H212.05c-2.53 0-4.79 1.59-5.65 3.97-16.12 44.78-45.28 71.68-88.86 81.84 15.64-20.46 28.15-47.02 19.11-81.34a6.003 6.003 0 0 0-5.8-4.47H80.21c-24.98 0-45.31-20.29-45.31-45.23V72.23C34.91 47.29 55.23 27 80.21 27h351.57c24.98 0 45.31 20.29 45.31 45.23z" fill="#59af17" opacity="1" data-original="#000000"></path></g></svg>