<svg xmlns="http://www.w3.org/2000/svg" version="1.1" xmlns:xlink="http://www.w3.org/1999/xlink" width="512" height="512" x="0" y="0" viewBox="0 0 66 66" style="enable-background:new 0 0 512 512" xml:space="preserve" class=""><g><path d="M40.9 3.5c4.4 0 8.5 1.7 11.7 4.8 3.1 3.1 4.8 7.3 4.8 11.7 0 .6.4 1 1 1s1-.4 1-1c0-4.9-1.9-9.6-5.4-13.1s-8.1-5.4-13.1-5.4c-.6 0-1 .4-1 1s.5 1 1 1z" fill="#59af17" opacity="1" data-original="#000000" class=""></path><path d="M40.9 8.7c6.3 0 11.4 5.1 11.4 11.4 0 .6.4 1 1 1s1-.4 1-1c0-7.4-6-13.4-13.4-13.4-.6 0-1 .4-1 1 0 .5.5 1 1 1z" fill="#59af17" opacity="1" data-original="#000000" class=""></path><path d="M40.9 13.8c3.4 0 6.2 2.8 6.2 6.2 0 .6.4 1 1 1s1-.4 1-1c0-4.5-3.7-8.2-8.2-8.2-.6 0-1 .4-1 1s.5 1 1 1zM40.9 23.6c.9 0 1.8-.3 2.5-1 1.4-1.4 1.4-3.7 0-5.1s-3.7-1.4-5.1 0-1.4 3.7 0 5.1c.8.7 1.7 1 2.6 1zm-1.1-4.7c.3-.3.7-.5 1.1-.5s.8.2 1.1.5c.6.6.6 1.6 0 2.2s-1.6.6-2.2 0-.6-1.6 0-2.2zM33 29.5c-2.2 0-4 1.8-4 4s1.8 4 4 4 4-1.8 4-4-1.8-4-4-4zm0 5.9c-1.1 0-2-.9-2-2s.9-2 2-2 2 .9 2 2-.9 2-2 2z" fill="#59af17" opacity="1" data-original="#000000" class=""></path><path d="M54.5 49.7c.3 0 .5-.1.7-.3l4.3-4.6c.5.2 1 .4 1.6.4 2.1 0 3.8-1.7 3.8-3.8s-1.7-3.8-3.8-3.8-3.8 1.7-3.8 3.8c0 .8.2 1.5.6 2.1l-4 4.2H50v-3.5h2.8c.4 0 .8-.2.9-.6.2-.4.1-.8-.2-1.1l-3.9-4.1V26.7c0-.6-.4-1-1-1h-6.4c-.6 0-1 .4-1 1v2.7l-7.5-8c-.4-.4-1.1-.4-1.5 0l-6.8 7.2V14c0-.6-.4-1-1-1h-16c-.2-1.9-1.8-3.4-3.7-3.4-2 0-3.7 1.7-3.7 3.8s1.7 3.8 3.8 3.8c1.5 0 2.8-.9 3.4-2.2h15.3v15.8l-11 11.7c-.3.3-.3.7-.2 1.1.2.4.5.6.9.6H16v3.5h-4.1l-4-4.2c.4-.6.6-1.3.6-2.1 0-2.1-1.7-3.8-3.8-3.8S.9 39.3.9 41.4s1.7 3.8 3.8 3.8c.6 0 1.1-.1 1.6-.4l4.3 4.6c.2.2.5.3.7.3H16v8.1H9.9C9.4 56.2 8 55 6.2 55c-2.1 0-3.8 1.7-3.8 3.8s1.7 3.8 3.8 3.8c1.7 0 3.2-1.2 3.6-2.8H16v3.7c0 .6.4 1 1 1h32c.6 0 1-.4 1-1v-3.7h6.2c.4 1.6 1.9 2.8 3.6 2.8 2.1 0 3.8-1.7 3.8-3.8S61.9 55 59.8 55c-1.7 0-3.2 1.2-3.6 2.8H50v-8.1zm6.7-10c1 0 1.8.8 1.8 1.8s-.8 1.8-1.8 1.8-1.8-.8-1.8-1.8c.1-1 .8-1.8 1.8-1.8zM4.8 15.2c-1 0-1.8-.8-1.8-1.8s.8-1.8 1.8-1.8 1.8.8 1.8 1.8c-.1 1-.8 1.8-1.8 1.8zM3 41.5c0-1 .8-1.8 1.8-1.8s1.8.8 1.8 1.8-.8 1.8-1.8 1.8S3 42.5 3 41.5zm3.2 19.1c-1 0-1.8-.8-1.8-1.8S5.2 57 6.2 57s1.8.8 1.8 1.7c0 1.1-.8 1.9-1.8 1.9zM59.8 57c1 0 1.8.8 1.8 1.8s-.8 1.8-1.8 1.8-1.8-.8-1.8-1.7c0-1.1.8-1.9 1.8-1.9zm-31.6 5.5v-14h9.7v14zm19.8 0h-8.1v-15c0-.6-.4-1-1-1H27.2c-.6 0-1 .4-1 1v15H18V43.2c0-.6-.4-1-1-1h-1.5L33 23.6l8.5 9c.3.3.7.4 1.1.2s.6-.5.6-.9v-4.2h4.4v11c0 .3.1.5.3.7l2.6 2.7H49c-.6 0-1 .4-1 1z" fill="#59af17" opacity="1" data-original="#000000" class=""></path></g></svg>