<svg xmlns="http://www.w3.org/2000/svg" version="1.1" xmlns:xlink="http://www.w3.org/1999/xlink" width="512" height="512" x="0" y="0" viewBox="0 0 512 512" style="enable-background:new 0 0 512 512" xml:space="preserve" class=""><g><g fill="#231f20"><path d="M194.55 169.021c11.963 10.084 29.835 8.561 39.92-3.401l-43.32-36.518c-10.084 11.963-8.561 29.835 3.4 39.92zM240.43 163.553l3.864 3.258 3.341-3.963-4.776-4.027c6.39-14.331 4.26-30.313-6.507-39.389-11.968-10.088-30.555-8.25-44.174 3.447l30.598 25.793z" fill="#59af17" opacity="1" data-original="#231f20"></path><path d="M157.12 286.718a30.225 30.225 0 0 0-2.006-8.48c-.605-2.841-1.751-5.558-3.593-7.982l-23.663-31.133c.476-.685.943-1.376 1.415-2.064.268-.39 1.079-1.426 1.619-2.116 9.362-11.335 18.764-19.766 31.036-25.401-1.024-1.47-2.058-2.948-3.073-4.407-3.916-5.638-7.968-11.47-12.025-17.08-6.61-9.145-2.67-18.336 3.788-23.005 7.971-5.761 20.447-5.865 27.522 3.926l11.71 16.2c3.414-18.374-10.702-40.132-33.729-32.932-36.327 11.359-69.803 39.553-85.741 74.614-2.336 5.135-4.136 11.387-3.787 17.353l-10.502 29.86-7.176 20.403c-.46 1.31-1.521 4.02-1.521 4.02l-24.249 69.32c-11.215 22.642 22.749 42.622 34.013 19.882 0 0 23.178-45.385 33.157-66.878 3.902-8.403 7.23-17.145 10.323-26.001l13.256-32.058-9.514 36.255c2.778 3.04 6.054 6.568 6.054 6.568l15.264 73.857c.926 10.596 8.39 19.695 19.695 19.695 9.937 0 20.627-9.037 19.695-19.695 0 0-5.343-62.682-7.969-92.721zM293.588 314.602l-3.278-7.71h-19.947l3.278 7.71zM255.799 332.223l3.277 7.71h19.947l-3.276-7.71zM253.692 327.266h19.946l-3.276-7.707h-19.947zM268.255 314.602l-3.277-7.71H245.03l3.277 7.71zM279.024 327.266h19.947l-3.276-7.707h-19.947zM239.645 306.892h-19.948l3.278 7.71h19.947zM281.132 332.223l3.277 7.71h19.947l-3.278-7.71zM306.464 332.223l3.278 7.71h19.948l-3.278-7.71zM318.922 314.602l-3.278-7.71h-19.948l3.278 7.71zM344.254 314.602l-3.277-7.71H321.03l3.278 7.71zM329.69 327.266h19.948l-3.276-7.707h-19.947zM245.03 319.559H225.08l3.277 7.707h19.948zM331.798 332.223l3.278 7.71h19.946l-3.276-7.71zM304.357 327.266h19.948l-3.276-7.707h-19.948zM340.461 352.6h19.946l-3.276-7.71h-19.947zM317.235 357.557l3.277 7.71h19.948l-3.277-7.71zM331.798 344.89H311.85l3.277 7.71h19.949zM345.846 365.267h19.945l-3.276-7.71h-19.947z" fill="#59af17" opacity="1" data-original="#231f20"></path><path d="M252.169 279.9c.027-2.675.136-5.263.317-7.767 13.33-.29 22.034-19.943 7.61-27.51l-1.619-.85c.31-.822.628-1.626.954-2.42 11.068-8.307 22.355-11.543 30.835-12.725l2.702 7.096h17.023l-22.743 41.204h25.379l22.743-41.204h155.725l-42.113-110.57H250.855l30.837 80.964c-7.394 5.487-18.262 15.943-25.551 33.456a72.272 72.272 0 0 0-2.242 1.798l-20.408-10.706-18.693-9.806c-1.196-.627-2.443-1.392-3.709-2.057l-6.77-7.69-11.25-15.563-17.734-24.532c-11.11-15.37-36.924-.539-25.683 15.013 12.238 16.929 23.715 34.82 36.885 51.026 6.906 8.497 19.204 12.61 28.712 17.598l19.521 10.241c-2.532 4.497-4.9 9.463-7.026 15.003H170.36l42.114 110.57H410.6L368.487 279.9H252.169zm29.33-120.044h16.584l-3.277-7.71h-16.243l-1.888-4.957h16.023l-3.33-7.835h5.385l3.331 7.835h19.948l-3.33-7.835h5.385l3.33 7.835h19.95l-3.332-7.835h5.386l3.33 7.835h19.946l-3.33-7.835h5.386l3.33 7.835h19.948l-3.33-7.835h5.385l3.331 7.835h19.948l-3.33-7.835h5.385l3.331 7.835h18.82l1.887 4.958h-18.6l3.277 7.71h18.26l1.888 4.957h-18.04l3.276 7.707h17.699l1.888 4.957h-17.48l3.278 7.71h17.139l1.888 4.957h-16.92l3.277 7.71h16.579l1.889 4.957h-16.36l3.277 7.71h16.019l1.888 4.957h-15.8l2.36 5.553h-5.385l-2.36-5.553h-19.946l2.36 5.553h-5.385l-2.361-5.553h-19.948l2.36 5.553h-5.385l-2.361-5.553h-19.948l2.36 5.553h-5.385l-2.361-5.553h-19.946l2.361 5.553h-5.386l-2.36-5.553h-19.949l2.361 5.553h-5.386l-2.36-5.553h-19.045l-1.889-4.957h18.826l-3.278-7.71H297.86l-1.889-4.957h18.266l-3.277-7.71h-17.925l-1.888-4.957h17.705l-3.277-7.71H288.21l-1.888-4.957h17.144l-3.276-7.707h-16.804zm1.564 49.863 5.93 15.568a72.448 72.448 0 0 0-26.853 10.081c6.492-12.856 14.834-20.98 20.923-25.65zm-45.073 56.866 7.093 3.72a16.31 16.31 0 0 0 3.706 1.404 128.454 128.454 0 0 0-.34 8.19h-16.707c1.922-4.87 4.012-9.308 6.248-13.314zm117.034 60.681h17.699l1.888 4.957h-17.48l3.277 7.71h17.14l1.887 4.957h-16.92l3.278 7.71h16.579l1.889 4.957H367.9l3.277 7.71h16.02l1.888 4.957h-15.8l2.36 5.553h-5.385l-2.361-5.553h-19.946l2.361 5.553h-5.385l-2.362-5.553H322.62l2.361 5.553h-5.385l-2.362-5.553h-19.948l2.361 5.553h-5.385l-2.362-5.553h-19.945l2.361 5.553h-5.386l-2.36-5.553h-19.95l2.362 5.553h-5.386l-2.36-5.553h-19.046l-1.888-4.957h18.826l-3.277-7.71h-18.485l-1.888-4.957h18.265l-3.277-7.71H212.54l-1.888-4.957h17.705l-3.278-7.71h-17.363l-1.888-4.957h17.144l-3.276-7.707h-16.804l-1.888-4.957h16.584l-3.277-7.71h-16.243l-1.888-4.957h16.023l-3.331-7.836h5.386l3.33 7.836h19.949l-3.331-7.836h5.386l3.33 7.836h19.949l-3.331-7.836h5.386l3.33 7.836h19.946l-3.33-7.836h5.385l3.33 7.836h19.949l-3.33-7.836h5.385l3.33 7.836h19.949l-3.331-7.836h5.386l3.33 7.836h18.82l1.888 4.957h-18.6l3.277 7.71h18.26l1.888 4.957h-18.04z" fill="#59af17" opacity="1" data-original="#231f20"></path><path d="m291.9 357.557 3.278 7.71h19.948l-3.277-7.71zM255.799 344.89H235.85l3.277 7.71h19.948zM306.464 344.89h-19.948l3.277 7.71h19.949zM241.235 357.557l3.278 7.71h19.948l-3.278-7.71zM281.132 344.89h-19.947l3.277 7.71h19.946zM266.57 357.557l3.277 7.71h19.945l-3.276-7.71zM250.413 332.223h-19.948l3.277 7.71h19.948zM374.083 159.856l-3.278-7.71H350.86l3.277 7.71zM359.519 185.188l-3.277-7.71h-19.948l3.278 7.71zM334.186 172.521h19.948l-3.276-7.707H330.91zM348.75 159.856l-3.277-7.71h-19.947l3.277 7.71zM359.52 172.521h19.947l-3.277-7.707h-19.946zM323.417 159.856l-3.277-7.71h-19.948l3.277 7.71zM384.852 185.188l-3.278-7.71h-19.947l3.277 7.71zM410.185 185.188l-3.277-7.71H386.96l3.277 7.71zM399.417 159.856l-3.278-7.71h-19.948l3.278 7.71zM424.75 159.856l-3.278-7.71h-19.947l3.278 7.71zM410.186 172.521h19.948l-3.277-7.707H406.91zM308.853 172.521H328.8l-3.277-7.707h-19.948zM415.571 185.188h19.947l-3.277-7.71h-19.947zM384.852 172.521h19.949l-3.277-7.707h-19.948zM420.957 197.855h19.946l-3.277-7.71h-19.947zM397.73 202.812l3.277 7.71h19.948l-3.277-7.71zM412.293 190.145h-19.948l3.278 7.71h19.948zM426.34 210.522h19.947l-3.277-7.71h-19.947zM372.396 202.812l3.278 7.71h19.947l-3.277-7.71zM336.294 190.145h-19.948l3.277 7.71h19.948zM386.959 190.145h-19.947l3.277 7.71h19.948zM321.73 202.812l3.278 7.71h19.948l-3.278-7.71zM361.626 190.145H341.68l3.277 7.71h19.946zM347.064 202.812l3.278 7.71h19.946l-3.277-7.71zM330.908 177.478H310.96l3.278 7.71h19.948zM436.372 348.745 393.55 241.588h-33.402l44.654 111.735v8.09h64.779l-4.957-12.668z" fill="#59af17" opacity="1" data-original="#231f20"></path></g></g></svg>