<svg viewBox="0 0 32 32" xml:space="preserve" xmlns="http://www.w3.org/2000/svg" enable-background="new 0 0 32 32"><path d="M16 10a2 2 0 0 0-2 2v5.2l-1.408 1.407c-.5.5-.592.971-.592 1.393a2 2 0 0 0 2 2c.578 0 1.04-.241 1.392-.592l2.071-2.07c.297-.297.537-.76.537-1.338v-6a2 2 0 0 0-2-2zm0-6C8.268 4 2 10.268 2 18c0 3.151 1.054 6.05 2.811 8.39l-2.23 2.23A1.883 1.883 0 0 0 2 30c0 1.188 1.016 2 2 2 .516 0 .986-.186 1.38-.58l2.23-2.23a13.93 13.93 0 0 0 16.78-.001l2.23 2.23c.394.395.864.581 1.38.581.984 0 2-.813 2-2 0-.531-.193-.994-.58-1.38l-2.23-2.23A13.93 13.93 0 0 0 30 18c0-7.732-6.268-14-14-14zm0 24c-5.522 0-10-4.478-10-10S10.478 8 16 8s10 4.478 10 10-4.478 10-10 10zM26 0a5.99 5.99 0 0 0-5.061 2.786 16.035 16.035 0 0 1 9.139 7.606A5.975 5.975 0 0 0 32 6a6 6 0 0 0-6-6zM11.061 2.786A5.99 5.99 0 0 0 6 0a6 6 0 0 0-6 6c0 1.736.742 3.297 1.922 4.393a16.037 16.037 0 0 1 9.139-7.607z" fill="#59af17" class="fill-000000"></path></svg>