<svg data-name="Layer 1" viewBox="0 0 32 32" xmlns="http://www.w3.org/2000/svg"><path d="M15 24h-2a2 2 0 0 0-2 2H7a1 1 0 0 1-1-1v-2.59l1.29 1.3a1 1 0 0 0 1.42 0 1 1 0 0 0 0-1.42l-3-3a1 1 0 0 0-.33-.21 1 1 0 0 0-.76 0 1 1 0 0 0-.33.21l-3 3a1 1 0 0 0 1.42 1.42L4 22.41V25a3 3 0 0 0 3 3h4a2 2 0 0 0 2 2h2a2 2 0 0 0 2-2v-2a2 2 0 0 0-2-2Zm0 4h-2v-2h2ZM4 17h2a2 2 0 0 0 2-2v-2a2 2 0 0 0-2-2V7a1 1 0 0 1 1-1h2.59l-1.3 1.29a1 1 0 0 0 0 1.42 1 1 0 0 0 1.42 0l3-3a1 1 0 0 0 .21-.33 1 1 0 0 0 0-.76 1 1 0 0 0-.21-.33l-3-3a1 1 0 0 0-1.42 1.42L9.59 4H7a3 3 0 0 0-3 3v4a2 2 0 0 0-2 2v2a2 2 0 0 0 2 2Zm0-4h2v2H4ZM28 15h-2a2 2 0 0 0-2 2v2a2 2 0 0 0 2 2v4a1 1 0 0 1-1 1h-2.59l1.3-1.29a1 1 0 0 0-1.42-1.42l-3 3a1 1 0 0 0-.21.33 1 1 0 0 0 0 .76 1 1 0 0 0 .21.33l3 3a1 1 0 0 0 1.42 0 1 1 0 0 0 0-1.42L22.41 28H25a3 3 0 0 0 3-3v-4a2 2 0 0 0 2-2v-2a2 2 0 0 0-2-2Zm0 4h-2v-2h2ZM30.71 8.29a1 1 0 0 0-1.42 0L28 9.59V7a3 3 0 0 0-3-3h-4a2 2 0 0 0-2-2h-2a2 2 0 0 0-2 2v2a2 2 0 0 0 2 2h2a2 2 0 0 0 2-2h4a1 1 0 0 1 1 1v2.59l-1.29-1.3a1 1 0 0 0-1.42 1.42l3 3a1 1 0 0 0 .33.21.94.94 0 0 0 .76 0 1 1 0 0 0 .33-.21l3-3a1 1 0 0 0 0-1.42ZM19 6h-2V4h2Z" fill="#59af17" class="fill-4d4d4d"></path></svg>