<svg xmlns="http://www.w3.org/2000/svg" version="1.1" xmlns:xlink="http://www.w3.org/1999/xlink" width="512" height="512" x="0" y="0" viewBox="0 0 512 512" style="enable-background:new 0 0 512 512" xml:space="preserve" class=""><g><path fill="#ede6ff" d="M406.2 76v88.8c0 18.9-15.3 34.3-34.3 34.3-18.9 0-34.3-15.3-34.3-34.3v-38.2c0-27.9-22.7-50.6-50.6-50.6-27.9 0-50.6 22.7-50.6 50.6v53c0 18.9-15.3 34.3-34.3 34.3-18.9 0-34.3-15.3-34.3-34.3v-66c0-27.9-22.7-50.6-50.6-50.6-27.9 0-50.6 22.7-50.6 50.6v68.3h16v-68.3c0-19.1 15.5-34.6 34.6-34.6s34.6 15.5 34.6 34.6v66c0 27.8 22.5 50.3 50.3 50.3 27.8 0 50.3-22.5 50.3-50.3v-53c0-19.1 15.5-34.6 34.6-34.6s34.6 15.5 34.6 34.6v38.2c0 27.8 22.5 50.3 50.3 50.3 27.8 0 50.3-22.5 50.3-50.3V76z" opacity="1" data-original="#ede6ff" class=""></path><circle cx="243.4" cy="178.5" r="56.4" fill="#808080" opacity="1" data-original="#d2bbff" class=""></circle><circle cx="243.4" cy="178.5" r="41.6" fill="#5cc640" opacity="1" data-original="#b188ff" class=""></circle><path fill="#ede6ff" d="M284.9 180.6c0-.7.1-1.4.1-2.1s0-1.4-.1-2.1h-23.2c-.1-6-.7-11.8-1.8-17.1 5.6-1.5 11.1-3.6 16.1-6.5-.9-1.1-1.8-2.2-2.8-3.2-4.5 2.5-9.3 4.4-14.2 5.7-.6-2.5-1.4-4.8-2.2-7-2-5-4.3-8.7-7-10.9-2.1-.3-4.2-.5-6.4-.5s-4.3.2-6.4.5c-2.7 2.3-5.1 6-7 10.9-.8 2.2-1.6 4.5-2.2 7-4.9-1.3-9.7-3.2-14.2-5.7-1 1-1.9 2.1-2.8 3.2 5.1 2.9 10.5 5.1 16.1 6.5-1 5.3-1.7 11.1-1.8 17.1h-23.2c0 .7-.1 1.4-.1 2.1s0 1.4.1 2.1H225c.1 6 .7 11.8 1.8 17.1-5.6 1.5-11.1 3.6-16.1 6.5.9 1.1 1.8 2.2 2.8 3.2 4.5-2.5 9.3-4.4 14.2-5.7.6 2.5 1.4 4.8 2.2 7 2 5 4.3 8.7 7 10.9 2.1.3 4.2.5 6.4.5s4.3-.2 6.4-.5c2.7-2.3 5.1-6 7-10.9.8-2.2 1.6-4.5 2.2-7 4.9 1.3 9.7 3.2 14.2 5.7 1-1 1.9-2.1 2.8-3.2-3.6-2-7.4-3.8-11.3-5.1-1.6-.5-3.2-1-4.8-1.4 1-5.3 1.7-11.1 1.8-17.1zm-51.1-30.7c2.7-6.9 6.2-10.9 9.6-10.9s6.9 4 9.6 10.9c.8 2 1.5 4.1 2 6.4-7.7 1.5-15.6 1.5-23.3 0 .6-2.3 1.3-4.5 2.1-6.4zm-3 10.4c8.2 1.6 16.8 1.6 25.1 0 1 5 1.5 10.5 1.7 16.2h-28.4c.1-5.8.6-11.3 1.6-16.2zm22.2 46.9c-2.7 6.9-6.2 10.9-9.6 10.9s-6.9-4-9.6-10.9c-.8-2-1.5-4.1-2-6.4 7.7-1.5 15.6-1.5 23.3 0-.7 2.3-1.4 4.4-2.1 6.4zm2.9-10.4c-8.2-1.6-16.8-1.6-25.1 0-1-5-1.5-10.5-1.7-16.2h28.4c0 5.7-.6 11.2-1.6 16.2z" opacity="1" data-original="#ede6ff" class=""></path><circle cx="438" cy="108.3" r="45.3" fill="#000000" opacity="1" data-original="#dcd2ff" class=""></circle><path fill="#5cc640" d="M457.3 135.3h-38.7c-2 0-3.6-1.6-3.6-3.6V121c0-2 1.6-3.6 3.6-3.6h38.7c2 0 3.6 1.6 3.6 3.6v10.7c.1 2-1.6 3.6-3.6 3.6z" opacity="1" data-original="#b188ff" class=""></path><g fill="#d2bbff"><circle cx="422.4" cy="126.3" r="2.3" fill="#808080" opacity="1" data-original="#d2bbff" class=""></circle><circle cx="431.6" cy="126.3" r="2.3" fill="#808080" opacity="1" data-original="#d2bbff" class=""></circle></g><path fill="#000000" d="M439.3 124.2h16.6v4.2h-16.6z" opacity="1" data-original="#8366dd" class=""></path><path fill="#5cc640" d="M457.6 99.3h-39.2c-1.9 0-3.4-1.5-3.4-3.4V84.7c0-1.9 1.5-3.4 3.4-3.4h39.2c1.9 0 3.4 1.5 3.4 3.4v11.2c0 1.9-1.5 3.4-3.4 3.4z" opacity="1" data-original="#b188ff" class=""></path><g fill="#d2bbff"><circle cx="422.4" cy="90.3" r="2.3" fill="#808080" opacity="1" data-original="#d2bbff" class=""></circle><circle cx="431.6" cy="90.3" r="2.3" fill="#808080" opacity="1" data-original="#d2bbff" class=""></circle></g><path fill="#000000" d="M439.3 88.2h16.6v4.2h-16.6z" opacity="1" data-original="#8366dd" class=""></path><path fill="#808080" d="M457.6 117.3h-39.2c-1.9 0-3.4-1.5-3.4-3.4v-11.2c0-1.9 1.5-3.4 3.4-3.4h39.2c1.9 0 3.4 1.5 3.4 3.4v11.2c0 1.9-1.5 3.4-3.4 3.4z" opacity="1" data-original="#d2bbff" class=""></path><g fill="#b188ff"><circle cx="422.4" cy="108.3" r="2.3" fill="#5cc640" opacity="1" data-original="#b188ff" class=""></circle><circle cx="431.6" cy="108.3" r="2.3" fill="#5cc640" opacity="1" data-original="#b188ff" class=""></circle></g><path fill="#000000" d="M439.3 106.2h16.6v4.2h-16.6z" opacity="1" data-original="#8366dd" class=""></path><circle cx="320.9" cy="86.1" r="40.9" fill="#5cc640" opacity="1" data-original="#b188ff" class=""></circle><g fill="#8366dd"><path d="m292.2 77.6-3.1-2.9c8-8.3 19.5-13.1 31.7-13.1s23.7 4.8 31.7 13.1l-3.1 2.9c-7.2-7.5-17.6-11.8-28.6-11.8s-21.4 4.3-28.6 11.8z" fill="#000000" opacity="1" data-original="#8366dd" class=""></path><path d="M339.7 87.5c-5-5-11.7-7.8-18.8-7.8S307 82.4 302 87.5l-3-3c5.8-5.8 13.6-9 21.8-9s16 3.2 21.8 9zM311.9 97.3l-3-3c6.6-6.6 17.4-6.6 24 0l-3 3c-5-5-13.1-5-18 0z" fill="#000000" opacity="1" data-original="#8366dd" class=""></path><circle cx="320.9" cy="105.6" r="3.4" fill="#000000" opacity="1" data-original="#8366dd" class=""></circle></g><path fill="#000000" d="M81.2 183.2H37.8c-2.9 0-5.2-2.3-5.2-5.2v-63.7c0-2.9 2.3-5.2 5.2-5.2h43.4c2.9 0 5.2 2.3 5.2 5.2V178c.1 2.8-2.3 5.2-5.2 5.2z" opacity="1" data-original="#8366dd" class=""></path><path fill="#5cc640" d="M80.726 114.351v63.6h-42.4v-63.6z" opacity="1" data-original="#b188ff" class=""></path><g fill="#8366dd"><path d="M72.3 140.8c-6.8-6.8-17.9-6.8-24.7 0l-3-3c8.5-8.5 22.3-8.5 30.7 0zM54.3 149.3l-3-3c4.8-4.8 12.5-4.8 17.3 0l-3 3c-3.1-3.1-8.2-3.1-11.3 0z" fill="#000000" opacity="1" data-original="#8366dd" class=""></path><circle cx="59.9" cy="156.3" r="2.6" fill="#000000" opacity="1" data-original="#8366dd" class=""></circle></g><circle cx="153.2" cy="84.6" r="40.2" fill="#000000" opacity="1" data-original="#dcd2ff" class=""></circle><path fill="#5cc640" d="M129.2 66.7h48v37.4h-48z" opacity="1" data-original="#b188ff" class=""></path><path fill="#000000" d="m153.2 87.6-24-20.9h47.9z" opacity="1" data-original="#8366dd" class=""></path><path fill="#ede6ff" d="M405.9 438H355c-1.2 0-2.1-.9-2.1-2.1v-49.6h4.2v47.5h48.7v4.2z" opacity="1" data-original="#ede6ff" class=""></path><path fill="#808080" d="M78.3 392.4c-4.2-2.9-15.8 6.5-26 21.1-3.9 5.5-7 11-9.1 15.8-2.1-4.8-5.2-10.3-9.1-15.8-10.2-14.6-21.8-24-26-21.1-4.1 2.9.8 17.1 10.9 31.7 8.8 12.6 18.7 21.3 23.9 21.6h.6c5.2-.3 15.1-9 23.9-21.6 10.1-14.6 15-28.8 10.9-31.7z" opacity="1" data-original="#d2bbff" class=""></path><path fill="#ede6ff" d="m69.2 406.8-1.4-1L43.2 441l-24.6-35.2-1.4 1 25 35.7-1.4 2 .6.6c.2.2.5.3.8.4l1.1-1.5 1.1 1.5c.3-.1.5-.2.8-.4l.6-.6-1.4-2z" opacity="1" data-original="#ede6ff" class=""></path><ellipse cx="43.2" cy="413" fill="#f58c29" rx="9.2" ry="32.2" opacity="1" data-original="#ffffff" class=""></ellipse><path fill="#5cc640" d="M53.3 428.7c.8-4.8 1.2-10.2 1.2-15.8 0-8.8-1-17.1-2.8-23.3-2.1-7.3-5-11-8.5-11-3.6 0-6.5 3.7-8.5 11-1.8 6.3-2.8 14.5-2.8 23.3 0 5.6.4 11 1.2 15.8H22l12 36.6h18.4l12-36.6zM36.1 413c0-8.4.9-16.3 2.6-22.2 1.8-6.5 3.8-7.9 4.5-7.9s2.6 1.4 4.5 7.9c1.7 5.9 2.6 13.8 2.6 22.2 0 5.7-.4 11.1-1.2 15.8h-5V398h-1.7v30.8h-5c-.9-4.8-1.3-10.2-1.3-15.8z" opacity="1" data-original="#b188ff" class=""></path><path fill="#000000" d="M109.6 298.2H76.7l-16.4 28.4 16.4 28.5h32.9l16.4-28.5z" opacity="1" data-original="#dcd2ff" class=""></path><path fill="#ede6ff" d="M109.6 241.3H76.7l-15.2 26.3H41c-.8 0-1.5.4-1.9 1.1l-12.4 23 3.7 2 11.8-21.8h19.2l15.2 26.3h32.9l16.4-28.5z" opacity="1" data-original="#ede6ff" class=""></path><circle cx="28.7" cy="292.7" r="6.7" fill="#808080" opacity="1" data-original="#d2bbff" class=""></circle><path fill="#000000" d="M407.4 192.1H106.5c-5.2 0-9.5 4.2-9.5 9.5v192.8c0 5.2 4.2 9.5 9.5 9.5h300.9c5.2 0 9.5-4.2 9.5-9.5V201.6c-.1-5.2-4.3-9.5-9.5-9.5z" opacity="1" data-original="#8366dd" class=""></path><path fill="#fdfdff" d="M108.4 203.5h297.1v182.7H108.4z" opacity="1" data-original="#fdfdff"></path><path fill="#5cc640" d="M291.1 450.6h-68.3l6.9-46.7h54.4z" opacity="1" data-original="#b188ff" class=""></path><path fill="#f58c29" d="M228.4 412.7h57l-1.3-8.8h-54.4z" opacity="1" data-original="#9a71ff" class=""></path><path fill="#808080" d="M108.4 203.5h297.1v26.1H108.4z" opacity="1" data-original="#d2bbff" class=""></path><g fill="#fff"><circle cx="130.2" cy="216.6" r="4.9" fill="#f58c29" opacity="1" data-original="#ffffff" class=""></circle><circle cx="153.2" cy="216.6" r="4.9" fill="#f58c29" opacity="1" data-original="#ffffff" class=""></circle><circle cx="176.1" cy="216.6" r="4.9" fill="#f58c29" opacity="1" data-original="#ffffff" class=""></circle></g><path fill="#5cc640" d="M168.3 279.8h49.4v84.8h-49.4z" opacity="1" data-original="#b188ff" class=""></path><g fill="#8366dd"><path d="M180.3 291.6h4.2v8.7h-4.2zM201.5 291.6h4.2v8.7h-4.2zM180.3 309.2h4.2v8.7h-4.2zM201.5 309.2h4.2v8.7h-4.2zM180.3 326.9h4.2v8.7h-4.2zM201.5 326.9h4.2v8.7h-4.2zM180.3 344.6h4.2v8.7h-4.2zM201.5 344.6h4.2v8.7h-4.2z" fill="#000000" opacity="1" data-original="#8366dd" class=""></path></g><path fill="#000000" d="M172.7 272.7h40.6v7.1h-40.6z" opacity="1" data-original="#8366dd" class=""></path><path fill="#5cc640" d="M179.8 265.6h26.5v7.1h-26.5z" opacity="1" data-original="#b188ff" class=""></path><path fill="#ede6ff" d="M190.9 246.6h4.2v19.1h-4.2z" opacity="1" data-original="#ede6ff" class=""></path><path fill="#5cc640" d="m285.9 258.9-54 14.1v91.5h54z" opacity="1" data-original="#b188ff" class=""></path><g fill="#8366dd"><path d="M242 289.3h33.9v4.2H242zM242 306.9h33.9v4.2H242zM242 324.6h33.9v4.2H242zM242 342.3h33.9v4.2H242z" fill="#000000" opacity="1" data-original="#8366dd" class=""></path></g><path fill="#5cc640" d="M300.1 279.4h47.5v85.1h-47.5z" opacity="1" data-original="#b188ff" class=""></path><g fill="#8366dd"><path d="M311.1 291.6h4.2v8.7h-4.2zM332.3 291.6h4.2v8.7h-4.2zM311.1 309.2h4.2v8.7h-4.2zM332.3 309.2h4.2v8.7h-4.2zM311.1 326.9h4.2v8.7h-4.2zM332.3 326.9h4.2v8.7h-4.2zM311.1 344.6h4.2v8.7h-4.2zM332.3 344.6h4.2v8.7h-4.2z" fill="#000000" opacity="1" data-original="#8366dd" class=""></path></g><path fill="#000000" d="M160.8 362.4H355v4.2H160.8z" opacity="1" data-original="#8366dd" class=""></path><g fill="#dcd2ff"><path d="m492.2 459.8 1.7 5.3 4-1.3-37.6-121.4c-.5-2-3.5-2-4 0l-37.6 121.4 4 1.3 1.6-5.3 33.9-19.8zm-29.7-22.2 19.3-11.3 8.5 27.5zm6.6-52.3-8-9.5 3.7-4.4zm10.1 32.6L462 405.8l11-7.8zm-8.1-23.7-12.8 9-12.8-9 12.8-15.2zm-23.7-8.9 4.3-14 3.7 4.4zm7.2 20.5-17.2 12.1 6.1-19.8zm3.7 2.6 20.9 14.6-20.8 12.1-21-12.1zm0-58.1 5 16.2-5 5.9-5-6zm-32.1 103.6 8.5-27.6 19.4 11.3zM480.2 307c-5.8-5.8-13.6-9.1-21.9-9.1s-16 3.2-21.9 9.1l-3-3c6.6-6.6 15.5-10.3 24.9-10.3s18.2 3.7 24.9 10.3zM447.7 318.3l-3-3c7.5-7.5 19.7-7.5 27.1 0l-3 3c-5.8-5.9-15.3-5.9-21.1 0z" fill="#000000" opacity="1" data-original="#dcd2ff" class=""></path><circle cx="458.3" cy="328.1" r="3.9" fill="#000000" opacity="1" data-original="#dcd2ff" class=""></circle></g><path fill="#000000" d="m504.9 214.5-2.5-4.3c-1.4-2.4-4.4-3.2-6.8-1.8-5.8 4.4-13.5-.1-12.6-7.3 0-2.8-2.2-5-5-5h-5c-2.8 0-5 2.2-5 5 .9 7.2-6.8 11.7-12.6 7.3-2.4-1.4-5.4-.6-6.8 1.8l-2.5 4.3c-1.4 2.4-.6 5.4 1.8 6.8 6.7 2.8 6.7 11.7 0 14.5-2.4 1.4-3.2 4.4-1.8 6.8l2.5 4.3c1.4 2.4 4.4 3.2 6.8 1.8 5.8-4.4 13.5.1 12.6 7.3 0 2.8 2.2 5 5 5h5c2.8 0 5-2.2 5-5-.9-7.2 6.8-11.7 12.6-7.3 2.4 1.4 5.4.6 6.8-1.8l2.5-4.3c1.4-2.4.6-5.4-1.8-6.8-6.7-2.8-6.7-11.7 0-14.5 2.3-1.3 3.1-4.4 1.8-6.8z" opacity="1" data-original="#dcd2ff" class=""></path><circle cx="475.5" cy="228.6" r="10" fill="#f58c29" opacity="1" data-original="#ffffff" class=""></circle><path fill="#5cc640" d="M52.3 48.8h-.9c-2.7-2.9-6.5-4.7-10.6-4.7s-7.9 1.8-10.6 4.7c-6.6-.6-12.4 4.7-12.3 11.4 0 6.6 5.7 11.9 12.3 11.4 2.7 2.9 6.5 4.7 10.6 4.7s7.9-1.8 10.6-4.7c6.6.6 12.4-4.7 12.3-11.4 0-6.3-5.1-11.4-11.4-11.4z" opacity="1" data-original="#b188ff" class=""></path><path fill="#000000" d="M320 463.6c-1-7.3-7.3-13-15-13h-96.3c-7.6 0-13.9 5.7-15 13H0v4.2h512v-4.2z" opacity="1" data-original="#8366dd" class=""></path></g></svg>