<svg viewBox="0 0 846.66 846.66" xml:space="preserve" xmlns="http://www.w3.org/2000/svg" shape-rendering="geometricPrecision" text-rendering="geometricPrecision" image-rendering="optimizeQuality" fill-rule="evenodd" clip-rule="evenodd"><path d="M418 433.56c103.34 0 190.13 78.25 200.63 180.91h39.27l128.54-290.62H188.75L60.21 614.47h157.16C227.88 511.81 314.66 433.56 418 433.56zm-78.27-325.88v-56.4H119.38v56.4h220.35zm-261.91 0V30.5c0-11.47 9.3-20.78 20.78-20.78h261.91c11.47 0 20.78 9.31 20.78 20.78v77.18H671.4c11.47 0 20.78 9.3 20.78 20.78v153.83h126.14c15.64 0 25.46 16.56 18.54 30.18L690.39 643.61c-3.42 7.76-11.02 12.39-18.99 12.39l-52.77.03C608.13 758.68 521.34 836.94 418 836.94c-103.34 0-190.12-78.26-200.63-180.91H28.33c-11.61 0-20.78-9.37-20.78-20.94V128.46c0-11.48 9.3-20.78 20.78-20.78h49.49zM49.11 536.96l107.15-242.25c3.42-7.77 11.02-12.4 18.99-12.4l475.37-.02V149.24H49.11v387.72zm389.67-54.22v44.77h31.48c-6.87-16.03-17.38-34.39-31.48-44.77zm0 86.33v45.4h50.63c-.98-15.99-3.09-31.22-6.16-45.4h-44.47zm0 86.96v45.4h44.47c3.07-14.18 5.18-29.42 6.16-45.4h-50.63zm0 86.96v44.77c14.1-10.38 24.61-28.74 31.48-44.77h-31.48zm-41.56 44.77v-44.77h-31.48c6.87 16.03 17.39 34.39 31.48 44.77zm0-86.33v-45.4h-50.63c.99 15.98 3.1 31.22 6.16 45.4h44.47zm0-86.96v-45.4h-44.47c-3.06 14.18-5.17 29.41-6.16 45.4h50.63zm0-86.96v-44.77c-14.09 10.38-24.61 28.74-31.48 44.77h31.48zm105.6-28.11c4.35 8.66 8.3 18.07 11.77 28.11h21.88a160.81 160.81 0 0 0-33.65-28.11zm22.72 69.67c2.73 14.45 4.6 29.66 5.49 45.4h45.77c-2.08-16-6.51-31.25-12.94-45.4h-38.32zm5.49 86.96c-.89 15.74-2.76 30.95-5.49 45.4h38.32a159.336 159.336 0 0 0 12.94-45.4h-45.77zm-16.44 86.96c-3.47 10.04-7.42 19.45-11.77 28.1a160.458 160.458 0 0 0 33.65-28.1h-21.88zm-181.41 28.1c-4.35-8.65-8.29-18.06-11.76-28.1h-21.88a160.402 160.402 0 0 0 33.64 28.1zm-22.71-69.66c-2.74-14.45-4.61-29.66-5.49-45.4h-45.77c2.07 15.99 6.51 31.25 12.94 45.4h38.32zm-5.49-86.96c.88-15.74 2.75-30.95 5.49-45.4h-38.32a158.921 158.921 0 0 0-12.94 45.4h45.77zm16.44-86.96c3.47-10.04 7.41-19.45 11.76-28.11a160.754 160.754 0 0 0-33.64 28.11h21.88z" fill="#59af17" fill-rule="nonzero" class="fill-000000"></path></svg>