<svg xmlns="http://www.w3.org/2000/svg" version="1.1" xmlns:xlink="http://www.w3.org/1999/xlink" width="512" height="512" x="0" y="0" viewBox="0 0 682.667 682.667" style="enable-background:new 0 0 512 512" xml:space="preserve" class=""><g><defs><clipPath id="a" clipPathUnits="userSpaceOnUse"><path d="M0 512h512V0H0Z" fill="#000000" opacity="1" data-original="#000000"></path></clipPath></defs><g clip-path="url(#a)" transform="matrix(1.33333 0 0 -1.33333 0 682.667)"><path d="M0 0c0 55.248-15.352 105.195-64.329 154.171-38.474 33.815-88.923 54.329-144.171 54.329C-329.174 208.5-427 110.674-427-10c0-55.248 20.514-105.697 54.329-144.171C-323.87-202.973-273.748-218.5-218.5-218.5-97.826-218.5 0-120.674 0 0" style="fill-opacity:1;fill-rule:nonzero;stroke:none" transform="translate(464.5 266)" fill="#ffffff" data-original="#b2e5fb" class="" opacity="1"></path><path d="M0 0c33.814-38.474 48.329-82.924 48.329-138.171 0-120.675-97.826-218.5-218.5-218.5-55.248 0-99.698 14.514-138.172 48.328 40.044-45.563 98.745-74.328 164.172-74.328 120.674 0 218.5 97.825 218.5 218.5C74.329-98.745 45.563-40.044 0 0" style="fill-opacity:1;fill-rule:nonzero;stroke:none" transform="translate(400.171 420.171)" fill="#ffffff" data-original="#91dafa" class="" opacity="1"></path><path d="M0 0c0 11.646-6.037 27.581-16.79 38.334a54.86 54.86 0 0 1-29.561 9.743C-32.505 41.112-23 26.785-23 10.229c0-23.389-18.961-42.351-42.352-42.351-16.555 0-30.882 9.506-37.847 23.351a54.86 54.86 0 0 1 9.743-29.561c10.076-10.076 26.688-16.79 38.334-16.79C-24.679-55.122 0-30.443 0 0" style="fill-opacity:1;fill-rule:nonzero;stroke:none" transform="translate(149.62 108.497)" fill="#f58c29" data-original="#fff0af" class="" opacity="1"></path><path d="M0 0a54.82 54.82 0 0 0 9.79-31.334c0-30.443-24.679-55.122-55.122-55.122a54.821 54.821 0 0 0-31.334 9.79c9.944-14.371 26.533-23.79 45.334-23.79 30.443 0 55.122 24.679 55.122 55.122C23.79-26.533 14.371-9.944 0 0" style="fill-opacity:1;fill-rule:nonzero;stroke:none" transform="translate(132.83 146.831)" fill="#ffffff" data-original="#ffe07d" class="" opacity="1"></path><path d="M0 0c0 11.645-6.598 28.154-16.783 38.338a54.857 54.857 0 0 1-31.339 9.784c-30.442 0-55.122-24.679-55.122-55.122a54.85 54.85 0 0 1 9.784-31.339c10.276-10.277 26.693-16.783 38.338-16.783C-24.679-55.122 0-30.443 0 0" style="fill-opacity:1;fill-rule:nonzero;stroke:none" transform="translate(458.625 417.503)" fill="#ffffff" data-original="#ffe07d" class="" opacity="1"></path><path d="M0 0a54.853 54.853 0 0 0 9.783-31.338c0-30.443-24.679-55.122-55.121-55.122a54.854 54.854 0 0 0-31.339 9.783c9.949-14.366 26.54-23.783 45.339-23.783 30.442 0 55.121 24.679 55.121 55.122C23.783-26.541 14.367-9.949 0 0" style="fill-opacity:1;fill-rule:nonzero;stroke:none" transform="translate(441.841 455.841)" fill="#f58c29" data-original="#ffc250" class="" opacity="1"></path><path d="M0 0c93.005 93.005 64.513 193.457 64.513 193.457-9.047 9.047-20.174 12.703-28.49 14.152-6.812 1.188-13.554-2.408-16.337-8.738l-37.77-85.922a15 15 0 0 1 5.183-18.362l24.912-17.279S4.424 57.156-26.366 26.366c-30.79-30.79-50.942-38.377-50.942-38.377l-17.279 24.912a15 15 0 0 1-18.362 5.183l-85.922-37.77c-6.33-2.783-9.926-9.525-8.738-16.337 1.449-8.316 5.105-19.443 14.152-28.49 0 0 100.452-28.492 193.457 64.513" style="fill-opacity:1;fill-rule:nonzero;stroke:none" transform="translate(423.54 88.46)" fill="#5cc640" data-original="#f7f9fa" class="" opacity="1"></path><path d="M0 0s8.138-104.807-72.513-185.457c-80.65-80.65-185.457-72.513-185.457-72.513 34.836-34.836 129.221-13.723 200.457 57.513C13.724-129.221 34.836-34.836 0 0" style="fill-opacity:1;fill-rule:nonzero;stroke:none" transform="translate(488.052 281.918)" fill="#5cc640" data-original="#dce6eb" class="" opacity="1"></path><path d="m0 0 21.555 9.476a15.002 15.002 0 0 0 18.362-5.184L57.196-20.62s20.152 7.587 50.942 38.377c30.79 30.79 38.377 50.942 38.377 50.942l-24.912 17.279a15.002 15.002 0 0 0-5.184 18.362l37.771 85.922c2.783 6.33 9.525 9.926 16.337 8.738 8.316-1.449 19.443-5.105 28.49-14.151 34.836-34.837 13.724-129.222-57.513-200.458C70.268-86.846-24.117-107.958-58.954-73.122-68-64.075-71.656-52.948-73.105-44.632c-1.188 6.812 2.408 13.554 8.738 16.337l37.29 16.392" style="stroke-width:15;stroke-linecap:round;stroke-linejoin:round;stroke-miterlimit:10;stroke-dasharray:none;stroke-opacity:1" transform="translate(289.035 97.07)" fill="none" stroke="#000000" stroke-width="15" stroke-linecap="round" stroke-linejoin="round" stroke-miterlimit="10" stroke-dasharray="none" stroke-opacity="" data-original="#000000" class=""></path><path d="M0 0c-35.163 38.781-56.586 90.249-56.586 146.72 0 120.675 97.826 218.5 218.5 218.5 15.085 0 29.812-1.528 44.035-4.439" style="stroke-width:15;stroke-linecap:round;stroke-linejoin:round;stroke-miterlimit:10;stroke-dasharray:none;stroke-opacity:1" transform="translate(94.086 109.28)" fill="none" stroke="#000000" stroke-width="15" stroke-linecap="round" stroke-linejoin="round" stroke-miterlimit="10" stroke-dasharray="none" stroke-opacity="" data-original="#000000" class=""></path><path d="M0 0a217.056 217.056 0 0 0-73.175 26.541" style="stroke-width:15;stroke-linecap:round;stroke-linejoin:round;stroke-miterlimit:10;stroke-dasharray:none;stroke-opacity:1" transform="translate(219.264 40.575)" fill="none" stroke="#000000" stroke-width="15" stroke-linecap="round" stroke-linejoin="round" stroke-miterlimit="10" stroke-dasharray="none" stroke-opacity="" data-original="#000000" class=""></path><path d="M0 0h64.693L12.999-117.597" style="stroke-width:15;stroke-linecap:round;stroke-linejoin:round;stroke-miterlimit:10;stroke-dasharray:none;stroke-opacity:1" transform="translate(314.307 269.244)" fill="none" stroke="#000000" stroke-width="15" stroke-linecap="round" stroke-linejoin="round" stroke-miterlimit="10" stroke-dasharray="none" stroke-opacity="" data-original="#000000" class=""></path><path d="m0 0-88.132-200.486" style="stroke-width:15;stroke-linecap:round;stroke-linejoin:round;stroke-miterlimit:10;stroke-dasharray:none;stroke-opacity:1" transform="translate(317.219 352.133)" fill="none" stroke="#000000" stroke-width="15" stroke-linecap="round" stroke-linejoin="round" stroke-miterlimit="10" stroke-dasharray="none" stroke-opacity="" data-original="#000000" class=""></path><path d="M0 0h-73.847s39.099 70.871 45.551 78.787c6.525 8.005 12.703 3.012 13.291-4.049.588-7.061-.294-109.446-.294-109.446" style="stroke-width:15;stroke-linecap:round;stroke-linejoin:round;stroke-miterlimit:10;stroke-dasharray:none;stroke-opacity:1" transform="translate(244.307 269.244)" fill="none" stroke="#000000" stroke-width="15" stroke-linecap="round" stroke-linejoin="round" stroke-miterlimit="10" stroke-dasharray="none" stroke-opacity="" data-original="#000000" class=""></path><path d="m0 0-59.925.184s4.345 5.675 41.857 59.274c7.005 10.009 10.862 18.454 12.503 25.529l.581 4.549c0 16.619-13.473 30.09-30.091 30.09-14.623 0-26.81-10.43-29.526-24.258" style="stroke-width:15;stroke-linecap:round;stroke-linejoin:round;stroke-miterlimit:10;stroke-dasharray:none;stroke-opacity:1" transform="translate(161.947 233.657)" fill="none" stroke="#000000" stroke-width="15" stroke-linecap="round" stroke-linejoin="round" stroke-miterlimit="10" stroke-dasharray="none" stroke-opacity="" data-original="#000000" class=""></path><path d="M0 0c0-30.443-24.679-55.122-55.122-55.122-30.442 0-55.122 24.679-55.122 55.122s24.68 55.122 55.122 55.122C-24.679 55.122 0 30.443 0 0Z" style="stroke-width:15;stroke-linecap:round;stroke-linejoin:round;stroke-miterlimit:10;stroke-dasharray:none;stroke-opacity:1" transform="translate(465.625 410.503)" fill="none" stroke="#000000" stroke-width="15" stroke-linecap="round" stroke-linejoin="round" stroke-miterlimit="10" stroke-dasharray="none" stroke-opacity="" data-original="#000000" class=""></path><path d="M0 0c13.846-6.965 23.351-21.292 23.351-37.848C23.351-61.237 4.39-80.199-19-80.199c-16.556 0-30.883 9.506-37.848 23.351.937-29.621 25.228-53.351 55.077-53.351 30.443 0 55.122 24.679 55.122 55.122C53.351-25.228 29.622-.937 0 0Z" style="stroke-width:15;stroke-linecap:round;stroke-linejoin:round;stroke-miterlimit:10;stroke-dasharray:none;stroke-opacity:1" transform="translate(103.268 156.574)" fill="none" stroke="#000000" stroke-width="15" stroke-linecap="round" stroke-linejoin="round" stroke-miterlimit="10" stroke-dasharray="none" stroke-opacity="" data-original="#000000" class=""></path><path d="M0 0v38.875" style="stroke-width:15;stroke-linecap:round;stroke-linejoin:round;stroke-miterlimit:10;stroke-dasharray:none;stroke-opacity:1" transform="translate(410.503 465.625)" fill="none" stroke="#000000" stroke-width="15" stroke-linecap="round" stroke-linejoin="round" stroke-miterlimit="10" stroke-dasharray="none" stroke-opacity="" data-original="#000000" class=""></path><path d="m0 0-19.437 33.667" style="stroke-width:15;stroke-linecap:round;stroke-linejoin:round;stroke-miterlimit:10;stroke-dasharray:none;stroke-opacity:1" transform="translate(382.942 458.24)" fill="none" stroke="#000000" stroke-width="15" stroke-linecap="round" stroke-linejoin="round" stroke-miterlimit="10" stroke-dasharray="none" stroke-opacity="" data-original="#000000" class=""></path><path d="m0 0 33.667-19.437" style="stroke-width:15;stroke-linecap:round;stroke-linejoin:round;stroke-miterlimit:10;stroke-dasharray:none;stroke-opacity:1" transform="translate(458.24 382.942)" fill="none" stroke="#000000" stroke-width="15" stroke-linecap="round" stroke-linejoin="round" stroke-miterlimit="10" stroke-dasharray="none" stroke-opacity="" data-original="#000000" class=""></path><path d="M0 0h38.875" style="stroke-width:15;stroke-linecap:round;stroke-linejoin:round;stroke-miterlimit:10;stroke-dasharray:none;stroke-opacity:1" transform="translate(465.625 410.503)" fill="none" stroke="#000000" stroke-width="15" stroke-linecap="round" stroke-linejoin="round" stroke-miterlimit="10" stroke-dasharray="none" stroke-opacity="" data-original="#000000" class=""></path><path d="M0 0h-38.875" style="stroke-width:15;stroke-linecap:round;stroke-linejoin:round;stroke-miterlimit:10;stroke-dasharray:none;stroke-opacity:1" transform="translate(355.38 410.503)" fill="none" stroke="#000000" stroke-width="15" stroke-linecap="round" stroke-linejoin="round" stroke-miterlimit="10" stroke-dasharray="none" stroke-opacity="" data-original="#000000" class=""></path><path d="m0 0-33.667 19.437" style="stroke-width:15;stroke-linecap:round;stroke-linejoin:round;stroke-miterlimit:10;stroke-dasharray:none;stroke-opacity:1" transform="translate(362.766 438.064)" fill="none" stroke="#000000" stroke-width="15" stroke-linecap="round" stroke-linejoin="round" stroke-miterlimit="10" stroke-dasharray="none" stroke-opacity="" data-original="#000000" class=""></path><path d="m0 0 19.437-33.667" style="stroke-width:15;stroke-linecap:round;stroke-linejoin:round;stroke-miterlimit:10;stroke-dasharray:none;stroke-opacity:1" transform="translate(438.064 362.766)" fill="none" stroke="#000000" stroke-width="15" stroke-linecap="round" stroke-linejoin="round" stroke-miterlimit="10" stroke-dasharray="none" stroke-opacity="" data-original="#000000" class=""></path><path d="M0 0v-38.875" style="stroke-width:15;stroke-linecap:round;stroke-linejoin:round;stroke-miterlimit:10;stroke-dasharray:none;stroke-opacity:1" transform="translate(410.503 355.38)" fill="none" stroke="#000000" stroke-width="15" stroke-linecap="round" stroke-linejoin="round" stroke-miterlimit="10" stroke-dasharray="none" stroke-opacity="" data-original="#000000" class=""></path><path d="m0 0 33.667 19.437" style="stroke-width:15;stroke-linecap:round;stroke-linejoin:round;stroke-miterlimit:10;stroke-dasharray:none;stroke-opacity:1" transform="translate(458.24 438.064)" fill="none" stroke="#000000" stroke-width="15" stroke-linecap="round" stroke-linejoin="round" stroke-miterlimit="10" stroke-dasharray="none" stroke-opacity="" data-original="#000000" class=""></path><path d="m0 0 19.437 33.667" style="stroke-width:15;stroke-linecap:round;stroke-linejoin:round;stroke-miterlimit:10;stroke-dasharray:none;stroke-opacity:1" transform="translate(438.064 458.24)" fill="none" stroke="#000000" stroke-width="15" stroke-linecap="round" stroke-linejoin="round" stroke-miterlimit="10" stroke-dasharray="none" stroke-opacity="" data-original="#000000" class=""></path><path d="M0 0v-40" style="stroke-width:15;stroke-linecap:round;stroke-linejoin:round;stroke-miterlimit:10;stroke-dasharray:none;stroke-opacity:1" transform="translate(22.55 164.46)" fill="none" stroke="#000000" stroke-width="15" stroke-linecap="round" stroke-linejoin="round" stroke-miterlimit="10" stroke-dasharray="none" stroke-opacity="" data-original="#000000" class=""></path><path d="M0 0h30" style="stroke-width:15;stroke-linecap:round;stroke-linejoin:round;stroke-miterlimit:10;stroke-dasharray:none;stroke-opacity:1" transform="translate(7.55 144.46)" fill="none" stroke="#000000" stroke-width="15" stroke-linecap="round" stroke-linejoin="round" stroke-miterlimit="10" stroke-dasharray="none" stroke-opacity="" data-original="#000000" class=""></path><path d="M0 0v-26.31" style="stroke-width:15;stroke-linecap:round;stroke-linejoin:round;stroke-miterlimit:10;stroke-dasharray:none;stroke-opacity:1" transform="translate(151.947 33.81)" fill="none" stroke="#000000" stroke-width="15" stroke-linecap="round" stroke-linejoin="round" stroke-miterlimit="10" stroke-dasharray="none" stroke-opacity="" data-original="#000000" class=""></path><path d="M0 0h19.732" style="stroke-width:15;stroke-linecap:round;stroke-linejoin:round;stroke-miterlimit:10;stroke-dasharray:none;stroke-opacity:1" transform="translate(142.08 20.655)" fill="none" stroke="#000000" stroke-width="15" stroke-linecap="round" stroke-linejoin="round" stroke-miterlimit="10" stroke-dasharray="none" stroke-opacity="" data-original="#000000" class=""></path></g></g></svg>