<svg xmlns="http://www.w3.org/2000/svg" version="1.1" xmlns:xlink="http://www.w3.org/1999/xlink" width="512" height="512" x="0" y="0" viewBox="0 0 512 512" style="enable-background:new 0 0 512 512" xml:space="preserve" class=""><g><path d="m116.931 7.5-15.418 244.791 15.418 244.756 136.791-31.24a10.215 10.215 0 0 1 4.556 0l136.945 31.275 22.034-244.791L395.223 7.5H116.931z" style="" fill="#ffffff" data-original="#ffe177" opacity="1" class=""></path><path d="m354.458 240.868-12.311 19.996a3.64 3.64 0 0 0-.756 2.822l3.908 24.035a3.636 3.636 0 0 1-2.277 3.939l-23.576 9.733a3.637 3.637 0 0 0-2.071 2.071l-9.463 21.319a3.638 3.638 0 0 1-3.939 2.277l-24.004-2.577a3.632 3.632 0 0 0-2.822.756l-19.415 15.759a3.637 3.637 0 0 1-4.545 0l-19.043-15.914a3.64 3.64 0 0 0-2.822-.756l-25.342 5.56a3.636 3.636 0 0 1-3.939-2.277l-8.399-17.397-1.606-4.131a3.637 3.637 0 0 0-2.071-2.071l-23.782-9.248a3.638 3.638 0 0 1-2.277-3.939l3.86-25.221a3.632 3.632 0 0 0-.756-2.822l-15.945-19.921a3.637 3.637 0 0 1 0-4.545l15.945-19.921a3.64 3.64 0 0 0 .756-2.822l-3.859-25.221a3.636 3.636 0 0 1 2.277-3.939l23.782-9.248a3.637 3.637 0 0 0 2.071-2.071l9.248-23.782a3.638 3.638 0 0 1 3.939-2.277l25.221 3.86a3.632 3.632 0 0 0 2.822-.756l19.921-15.945a3.637 3.637 0 0 1 4.545 0l19.921 15.945a3.64 3.64 0 0 0 2.822.756l25.221-3.859a3.636 3.636 0 0 1 3.939 2.277l9.248 23.782a3.637 3.637 0 0 0 2.071 2.071l4.131 1.606 14.484 10.41a3.638 3.638 0 0 1 2.277 3.939l-1.656 23.283a3.632 3.632 0 0 0 .756 2.822l13.512 17.098a3.637 3.637 0 0 1-.001 4.544z" style="" fill="#f58c29" data-original="#f07281" class="" opacity="1"></path><path d="M359.854 242.861a3.637 3.637 0 0 0 0-4.545l-15.945-19.921a3.64 3.64 0 0 1-.756-2.822l3.86-25.221a3.636 3.636 0 0 0-2.277-3.939l-19.651-7.642a115.871 115.871 0 0 1 1.38 17.845c0 32.076-13.135 61.085-34.319 81.94-.422.416-.62.971-1.048 1.38-.267.255-.763.365-1.033.618-20.558 19.253-48.192 31.042-78.581 31.042-6.07 0-12.029-.474-17.845-1.38l7.641 19.651a3.638 3.638 0 0 0 3.939 2.277l25.221-3.859a3.632 3.632 0 0 1 2.822.756l19.921 15.945a3.637 3.637 0 0 0 4.545 0l19.921-15.945a3.64 3.64 0 0 1 2.822-.756l25.221 3.86a3.636 3.636 0 0 0 3.939-2.277l9.248-23.782a3.637 3.637 0 0 1 2.071-2.071l23.782-9.248a3.638 3.638 0 0 0 2.277-3.939l-3.859-25.221a3.632 3.632 0 0 1 .756-2.822l15.948-19.924z" style="" fill="#f58c29" data-original="#eb5569" class="" opacity="1"></path><path d="M88.847 7.5c-5.651 0-10.232 4.581-10.232 10.232v481.65c0 3.285 3.052 5.719 6.255 4.988l32.061-7.322V7.5H88.847zM418.268 10.786 408.67 7.5h-13.447v489.583l17.843 4.075 9.495-1.646c3.203.731 6.255-1.702 6.255-4.988L428.5 21.018c0-5.651-4.581-10.232-10.232-10.232z" style="" fill="#5cc640" data-original="#8795de" class="" opacity="1"></path><path d="M423.153 7.5h-20.002c5.651 0 10.232 4.581 10.232 10.232v481.65c0 .629-.114 1.226-.317 1.776l14.064 3.212c3.203.731 6.255-1.702 6.255-4.988V17.732c0-5.651-4.581-10.232-10.232-10.232z" style="" fill="#5cc640" data-original="#6c7fd8" class="" opacity="1"></path><path d="M332.57 7.5h90.58c5.65 0 10.24 4.58 10.24 10.23v481.65c0 3.29-3.06 5.72-6.26 4.99l-168.85-38.56c-1.5-.34-3.06-.34-4.56 0L195.97 479M78.61 107.1V17.73c0-5.65 4.59-10.23 10.24-10.23h208.72M78.61 142.1v357.28c0 3.29 3.06 5.72 6.26 4.99l76.92-17.57" style="stroke-width:15;stroke-linecap:round;stroke-linejoin:round;stroke-miterlimit:10;" fill="none" stroke="#000000" stroke-width="15" stroke-linecap="round" stroke-linejoin="round" stroke-miterlimit="10" data-original="#000000"></path><path d="M239.094 36.808h-29.441l-5.832 35.203s.364-.188 1.017-.482c4.083-1.838 7.73-3.086 15.296-3.086 13.659 0 24.649 11.443 23.933 25.241-.646 12.451-10.973 22.435-23.438 22.686-12.323.248-22.581-8.806-24.229-20.618M315.756 94.268c0 12.209-9.897 22.107-22.107 22.107-12.209 0-22.107-9.897-22.107-22.107V58.914c0-12.209 9.897-22.107 22.107-22.107 12.209 0 22.107 9.897 22.107 22.107v35.354zM290.864 371.132h-27.905v68.85M263.47 404.905h25.177M343.11 371.132h-27.905v68.85M315.717 404.905h25.177" style="stroke-width:15;stroke-linecap:round;stroke-linejoin:round;stroke-miterlimit:10;" fill="none" stroke="#000000" stroke-width="15" stroke-linecap="round" stroke-linejoin="round" stroke-miterlimit="10" data-original="#000000"></path><circle cx="203.469" cy="405.557" r="34.425" style="stroke-width:15;stroke-linecap:round;stroke-linejoin:round;stroke-miterlimit:10;" fill="none" stroke="#000000" stroke-width="15" stroke-linecap="round" stroke-linejoin="round" stroke-miterlimit="10" data-original="#000000"></circle><path d="m361.981 241.299-18.705 23.371 4.528 29.594-27.909 10.853-10.853 27.909-29.594-4.528-23.371 18.705-23.37-18.705-29.594 4.528-10.853-27.909-27.909-10.853 4.528-29.594-18.705-23.371 18.705-23.37-4.528-29.594 27.909-10.853 10.853-27.909 29.594 4.528 23.37-18.705 23.371 18.705 29.594-4.528 10.853 27.909 27.909 10.853-4.528 29.594zM276.029 192.865l-40.057 95.447" style="stroke-width:15;stroke-linecap:round;stroke-linejoin:round;stroke-miterlimit:10;" fill="none" stroke="#000000" stroke-width="15" stroke-linecap="round" stroke-linejoin="round" stroke-miterlimit="10" data-original="#000000"></path><ellipse cx="286.944" cy="271.249" rx="13.994" ry="17.063" style="stroke-width:15;stroke-linecap:round;stroke-linejoin:round;stroke-miterlimit:10;" fill="none" stroke="#000000" stroke-width="15" stroke-linecap="round" stroke-linejoin="round" stroke-miterlimit="10" data-original="#000000"></ellipse><ellipse cx="225.056" cy="209.928" rx="13.994" ry="17.063" style="stroke-width:15;stroke-linecap:round;stroke-linejoin:round;stroke-miterlimit:10;" fill="none" stroke="#000000" stroke-width="15" stroke-linecap="round" stroke-linejoin="round" stroke-miterlimit="10" data-original="#000000"></ellipse><path d="M116.931 493.674V12.463M395.22 353.63V12.46M395.22 493.67V388.63" style="stroke-width:15;stroke-linecap:round;stroke-linejoin:round;stroke-miterlimit:10;" fill="none" stroke="#000000" stroke-width="15" stroke-linecap="round" stroke-linejoin="round" stroke-miterlimit="10" data-original="#000000"></path></g></svg>