<svg xmlns="http://www.w3.org/2000/svg" version="1.1" xmlns:xlink="http://www.w3.org/1999/xlink" width="512" height="512" x="0" y="0" viewBox="0 0 128 128" style="enable-background:new 0 0 512 512" xml:space="preserve" class=""><g><path d="M91.85 38.71a2 2 0 0 0-2-1.88c-.11 0-11-.07-16.76-2.19a18.88 18.88 0 0 1-7.49-5.73 2 2 0 0 0-3.22 0 18.63 18.63 0 0 1-7.49 5.73c-5.74 2.12-16.65 2.19-16.76 2.19a2 2 0 0 0-2 1.88c-.22 3.42-2 33.65 3.84 41.5 3.65 4.91 9.54 8.55 14.27 11.47 3.47 2.13 7.76 4.78 7.76 6.23a2 2 0 0 0 4 0c0-1.45 4.29-4.1 7.74-6.23 4.73-2.92 10.62-6.56 14.26-11.47 5.85-7.85 4.07-38.08 3.85-41.5zm-7 39.11c-3.2 4.3-8.49 7.57-13.16 10.46-3.14 1.93-5.89 3.63-7.64 5.44-1.75-1.81-4.5-3.51-7.64-5.44-4.67-2.89-10-6.16-13.16-10.46-3.94-5.3-3.69-27-3.16-37 3.56-.12 11.33-.58 16.25-2.4A21.38 21.38 0 0 0 64 33.14a21.38 21.38 0 0 0 7.71 5.25c4.92 1.82 12.69 2.28 16.25 2.4.53 10.02.78 31.73-3.16 37.03zM75.31 16.69a2 2 0 0 0 1.42-3.42 18 18 0 0 0-25.46 0 2 2 0 0 0 2.83 2.83 14 14 0 0 1 19.8 0 2 2 0 0 0 1.41.59z" fill="#59af17" opacity="1" data-original="#000000" class=""></path><path d="M56.93 18.93a2 2 0 0 0 2.83 2.83 6 6 0 0 1 8.48 0 2 2 0 0 0 1.42.58 2 2 0 0 0 1.41-.58 2 2 0 0 0 0-2.83 10 10 0 0 0-14.14 0zM48.44 10.44a22 22 0 0 1 31.12 0 2 2 0 0 0 2.82-2.82 26 26 0 0 0-36.76 0 2 2 0 0 0 2.82 2.82zM75.27 54.72 60.94 69l-8.21-8.2a2 2 0 1 0-2.82 2.83l9.62 9.61a2 2 0 0 0 2.82 0l15.74-15.7a2 2 0 1 0-2.82-2.82zM66 112.26V106a2 2 0 0 0-4 0v6.26a8 8 0 1 0 4 0zM64 124a4 4 0 1 1 4-4 4 4 0 0 1-4 4zM30 66a2 2 0 0 0 0-4H15.74a8 8 0 1 0 0 4zM8 68a4 4 0 1 1 4-4 4 4 0 0 1-4 4zM120 56a8 8 0 0 0-7.74 6H98a2 2 0 0 0 0 4h14.26A8 8 0 1 0 120 56zm0 12a4 4 0 1 1 4-4 4 4 0 0 1-4 4zM18.75 30.06a8 8 0 0 0 9.71 1.23l2.64 2.64a2 2 0 0 0 1.41.58 2 2 0 0 0 1.42-3.41l-2.64-2.64a8 8 0 1 0-12.54 1.6zm2.82-8.49a4 4 0 0 1 5.66 0 4 4 0 0 1-5.66 5.66 4 4 0 0 1 0-5.66zM109.25 97.94a8 8 0 0 0-9.71-1.23l-9.63-9.63a2 2 0 0 0-2.83 2.83l9.63 9.63a8 8 0 1 0 12.54-1.6zm-2.82 8.49a4 4 0 0 1-5.66 0 4 4 0 0 1 5.66-5.66 4 4 0 0 1 0 5.66zM37.79 87.39l-9.33 9.32a8 8 0 1 0 2.83 2.83l9.32-9.33a2 2 0 1 0-2.82-2.82zm-10.56 19a4 4 0 0 1-5.66-5.66 4 4 0 0 1 5.66 5.66zM95.37 34.63a2 2 0 0 0 1.41-.58l2.76-2.76a8 8 0 1 0-2.83-2.83L94 31.22a2 2 0 0 0 1.42 3.41zm5.4-13.06a4 4 0 0 1 5.66 5.66 4.1 4.1 0 0 1-5.66 0 4 4 0 0 1 0-5.66z" fill="#59af17" opacity="1" data-original="#000000" class=""></path></g></svg>