<svg xmlns="http://www.w3.org/2000/svg" version="1.1" xmlns:xlink="http://www.w3.org/1999/xlink" width="512" height="512" x="0" y="0" viewBox="0 0 64 64" style="enable-background:new 0 0 512 512" xml:space="preserve" class=""><g><path fill="#59af17" d="M44 54v6l5-3z" opacity="1" data-original="#999999" class=""></path><circle cx="57" cy="57" r="4" fill="#f58c29" opacity="1" data-original="#ff8088" class=""></circle><path fill="#ffffff" d="M40 34h6v6h-6zM22 54h6v6h-6z" opacity="1" data-original="#a7dbfc" class=""></path><circle cx="17" cy="17" r="8" fill="#ffffff" opacity="1" data-original="#dbdbdb" class=""></circle><path fill="#f58c29" d="M15 13v8l6-4z" opacity="1" data-original="#ff8088" class=""></path><path fill="#59af17" d="M29.354 14c-.443 0-.819-.296-.956-.718a11.928 11.928 0 0 0-.709-1.714 1.014 1.014 0 0 1 .169-1.184l1.163-1.163-4.243-4.243-1.163 1.163c-.313.313-.789.37-1.184.169a11.881 11.881 0 0 0-1.714-.709A1.01 1.01 0 0 1 20 4.646V3h-6v1.646c0 .443-.296.819-.718.956-.593.193-1.165.43-1.714.709-.395.201-.87.144-1.184-.169L9.222 4.979 4.979 9.222l1.163 1.163c.313.313.37.789.169 1.184a11.881 11.881 0 0 0-.709 1.714 1.012 1.012 0 0 1-.956.717H3v6h1.646c.443 0 .819.296.956.718.193.593.43 1.165.709 1.713.201.395.144.87-.169 1.184l-1.163 1.163 4.243 4.243 1.163-1.163c.313-.313.789-.37 1.184-.169.548.279 1.121.516 1.713.709.422.137.718.513.718.956V31h6v-1.646c0-.443.296-.819.718-.956a11.87 11.87 0 0 0 1.713-.709c.395-.201.87-.144 1.184.169l1.163 1.163 4.243-4.243-1.163-1.163a1.014 1.014 0 0 1-.169-1.184c.279-.548.516-1.12.709-1.713.137-.422.513-.718.956-.718H31v-6zM17 25a8 8 0 1 1 0-16 8 8 0 0 1 0 16z" opacity="1" data-original="#999999" class=""></path><path d="M17 26c4.963 0 9-4.037 9-9s-4.037-9-9-9-9 4.037-9 9 4.037 9 9 9zm0-16c3.859 0 7 3.141 7 7s-3.141 7-7 7-7-3.141-7-7 3.141-7 7-7z" fill="#000000" opacity="1" data-original="#000000" class=""></path><path d="M3 13a1 1 0 0 0-1 1v6a1 1 0 0 0 1 1l1.651.026c.207.639.466 1.264.784 1.882l-1.163 1.163a.999.999 0 0 0 0 1.414l4.242 4.242a.999.999 0 0 0 1.414 0l1.187-1.148c.595.304 1.22.562 1.885.774V31a1 1 0 0 0 1 1h6a1 1 0 0 0 1-1l.026-1.651a12.554 12.554 0 0 0 1.882-.784l1.163 1.163a.999.999 0 0 0 1.414 0l4.242-4.242a.999.999 0 0 0 0-1.414l-1.148-1.187c.304-.595.562-1.22.774-1.885H31a1 1 0 0 0 1-1v-6a1 1 0 0 0-1-1l-1.651-.026a12.686 12.686 0 0 0-.784-1.882l1.163-1.163a.999.999 0 0 0 0-1.414l-4.242-4.242a.999.999 0 0 0-1.414 0L22.885 5.42A12.645 12.645 0 0 0 21 4.646V3a1 1 0 0 0-1-1h-6a1 1 0 0 0-1 1l-.026 1.651c-.637.207-1.263.466-1.882.784L9.929 4.272a.999.999 0 0 0-1.414 0L4.272 8.515a.999.999 0 0 0 0 1.414l1.147 1.187A12.692 12.692 0 0 0 4.646 13zm3.554.591c.175-.538.393-1.065.648-1.568a2.012 2.012 0 0 0-.353-2.345l-.455-.456 2.828-2.828.456.456a2.013 2.013 0 0 0 2.344.354 10.778 10.778 0 0 1 1.571-.65A2.015 2.015 0 0 0 15 4.646V4h4v.646c0 .865.565 1.632 1.409 1.907.538.175 1.065.393 1.568.648.789.405 1.73.26 2.345-.353l.456-.456 2.828 2.828-.456.458a2.014 2.014 0 0 0-.354 2.344c.257.504.475 1.031.65 1.571A2.015 2.015 0 0 0 29.354 15H30v4h-.646c-.865 0-1.632.565-1.907 1.409a10.897 10.897 0 0 1-.649 1.568 2.014 2.014 0 0 0 .354 2.345l.456.456-2.828 2.828-.456-.456a2.013 2.013 0 0 0-2.346-.353 10.77 10.77 0 0 1-1.569.649A2.015 2.015 0 0 0 19 29.354V30h-4v-.646c0-.865-.565-1.632-1.409-1.907a10.897 10.897 0 0 1-1.568-.649 2.01 2.01 0 0 0-2.345.354l-.456.456-2.828-2.828.456-.456a2.014 2.014 0 0 0 .353-2.346 10.77 10.77 0 0 1-.649-1.569A2.015 2.015 0 0 0 4.646 19H4v-4h.646c.866 0 1.632-.565 1.908-1.409z" fill="#000000" opacity="1" data-original="#000000" class=""></path><path d="M14.528 21.882a1 1 0 0 0 1.027-.05l6-4a1.001 1.001 0 0 0 0-1.664l-6-4A.998.998 0 0 0 14 13v8a1 1 0 0 0 .528.882zM16 14.868 19.197 17 16 19.132zM59 28v-2c0-5.514-4.486-10-10-10H34v2h15c4.411 0 8 3.589 8 8v2c0 4.411-3.589 8-8 8v2c5.514 0 10-4.486 10-10z" fill="#000000" opacity="1" data-original="#000000" class=""></path><path d="M46 41a1 1 0 0 0 1-1v-6a1 1 0 0 0-1-1h-6a1 1 0 0 0-1 1v6a1 1 0 0 0 1 1zm-5-6h4v4h-4zM28 53h-6a1 1 0 0 0-1 1v6a1 1 0 0 0 1 1h6a1 1 0 0 0 1-1v-6a1 1 0 0 0-1-1zm-1 6h-4v-4h4z" fill="#000000" opacity="1" data-original="#000000" class=""></path><path d="M4 46v2c0 5.514 4.486 10 10 10h5v-2h-5c-4.411 0-8-3.589-8-8v-2c0-4.411 3.589-8 8-8h23v-2H14C8.486 36 4 40.486 4 46zM31 58h12v2a1 1 0 0 0 1.515.857l5-3a1 1 0 0 0 0-1.714l-5-3A1.001 1.001 0 0 0 43 54v2H31zm14-2.233L47.057 57 45 58.233zM57 52c-2.757 0-5 2.243-5 5s2.243 5 5 5 5-2.243 5-5-2.243-5-5-5zm0 8c-1.654 0-3-1.346-3-3s1.346-3 3-3 3 1.346 3 3-1.346 3-3 3z" fill="#000000" opacity="1" data-original="#000000" class=""></path></g></svg>