<svg xmlns="http://www.w3.org/2000/svg" version="1.1" xmlns:xlink="http://www.w3.org/1999/xlink" width="512" height="512" x="0" y="0" viewBox="0 0 74 74" style="enable-background:new 0 0 512 512" xml:space="preserve" class=""><g><path fill="#efa167" d="M49.62 43.87h4.02v4.03h-4.02z" opacity="1" data-original="#efa167"></path><path fill="#808080" d="M54.8 46.95c0 .72-1.42.61-3.17.61s-3.17.11-3.17-.61 1.42-1.3 3.17-1.3 3.17.58 3.17 1.3z" opacity="1" data-original="#548eea" class=""></path><path fill="#808080" d="M59.74 60.42c-.14-8.32-.2-11.02-1.04-11.88-1.18-1.2-4.83-1.94-6.54-2.08-.27-.02-.81-.02-1.08 0-1.71.14-5.37.88-6.54 2.08-.83.85-.9 3.55-1.04 11.88z" opacity="1" data-original="#6699ff" class=""></path><g fill="#efa167"><ellipse cx="54.57" cy="42.7" rx=".9" ry=".6" transform="rotate(-80.1 54.59 42.7)" fill="#efa167" opacity="1" data-original="#efa167"></ellipse><ellipse cx="48.68" cy="42.7" rx=".6" ry=".9" transform="rotate(-9.94 48.565 42.654)" fill="#efa167" opacity="1" data-original="#efa167"></ellipse></g><path fill="#4d4d4d" d="M53.54 44.87c.82-1.22 1.41-3.44 1.47-4.71.1-2.25-1.44-3.18-3.39-3.18s-3.49.92-3.39 3.18c.06 1.27.65 3.49 1.47 4.71 1.29.44 2.56.44 3.84 0zM60.07 63.62v-6.74c0-2.61-2.12-4.73-4.73-4.73h-7.42c-2.61 0-4.73 2.12-4.73 4.73v6.74z" opacity="1" data-original="#4d4d4d" class=""></path><path fill="#f58c29" d="M60.07 56.88v1.08c0-2.62-2.12-4.73-4.73-4.73h-7.43c-2.62 0-4.73 2.12-4.73 4.73v-1.08c0-2.62 2.12-4.73 4.73-4.73h7.43a4.72 4.72 0 0 1 4.73 4.73z" opacity="1" data-original="#5e5e5e" class=""></path><path fill="#efa167" d="M31.76 45.32h4.02v4.03h-4.02z" opacity="1" data-original="#efa167"></path><path fill="#f22020" d="M36.95 49.04c0 .72-1.42.61-3.17.61s-3.17.11-3.17-.61 1.42-1.3 3.17-1.3c1.75-.01 3.17.57 3.17 1.3z" opacity="1" data-original="#f22020" class=""></path><path fill="#5cc640" d="M40.74 60.53c-.12-7.15-.17-9.46-.89-10.2-1.01-1.03-4.15-1.67-5.61-1.79-.23-.02-.7-.02-.93 0-1.47.12-4.61.75-5.61 1.79-.72.73-.77 3.05-.89 10.2z" opacity="1" data-original="#ff3333" class=""></path><g fill="#efa167"><ellipse cx="36.72" cy="44.14" rx=".9" ry=".6" transform="rotate(-80.1 36.731 44.149)" fill="#efa167" opacity="1" data-original="#efa167"></ellipse><ellipse cx="30.83" cy="44.14" rx=".6" ry=".9" transform="rotate(-9.94 30.742 44.088)" fill="#efa167" opacity="1" data-original="#efa167"></ellipse></g><path fill="#3a3a3a" d="M35.69 46.82c.82-1.22 1.41-3.02 1.47-4.29.1-2.25-1.44-3.18-3.39-3.18s-3.49.92-3.39 3.18c.06 1.27.65 3.07 1.47 4.29 1.29.43 2.56.43 3.84 0z" opacity="1" data-original="#3a3a3a" class=""></path><path fill="#5cc640" d="M34.58 39.77c0 .43-.43.79-.96.79s-.95-.36-.95-.79c0-.44.42-.8.95-.8.52 0 .96.36.96.8z" opacity="1" data-original="#ff3333" class=""></path><path fill="#4d4d4d" d="M33.91 40.9c0 .25.1.5.3.64.17.11.38.13.54.25.24.18.27.53.27.84.01 1.11.03 2.22.04 3.33.01.93.07 1.96.74 2.61.78.75 2 .64 2.84.05.53-.37.95-.89 1.36-1.39-.29.13-.58.26-.89.26s-.65-.16-.75-.45c-.14-.4.18-.8.44-1.13.3-.37.56-.78.7-1.24s.15-.96-.03-1.4c-.29-.69-1-1.09-1.64-1.49s-1.3-.93-1.4-1.67c-.04-.29.02-.59-.01-.88-.06-.64-.53-1.23-1.15-1.41s-1.34.05-1.73.56c-.23.3-.35.69-.33 1.07.02.52.23.75.77.6.09.31-.08.55-.07.85zM42.22 63.62v-6.74c0-2.61-2.12-4.73-4.73-4.73h-7.42c-2.61 0-4.73 2.12-4.73 4.73v6.74z" opacity="1" data-original="#4d4d4d" class=""></path><path fill="#f58c29" d="M42.22 56.88v1.08c0-2.62-2.12-4.73-4.73-4.73h-7.43c-2.62 0-4.73 2.12-4.73 4.73v-1.08c0-2.62 2.12-4.73 4.73-4.73h7.43c2.61 0 4.73 2.11 4.73 4.73z" opacity="1" data-original="#5e5e5e" class=""></path><path fill="#ef205b" d="M64.54 54.04c0 .85-1.67.72-3.73.72s-3.73.13-3.73-.72 1.67-1.53 3.73-1.53 3.73.68 3.73 1.53z" opacity="1" data-original="#ef205b" class=""></path><path fill="#ff3366" d="M68.45 67.55H53.16c.14-8.4.21-11.13 1.05-11.99 1.18-1.22 4.87-2.11 6.6-2.11 1.72 0 5.41.89 6.6 2.11.85.86.91 3.59 1.04 11.99z" opacity="1" data-original="#ff3366"></path><path fill="#993300" d="M56.27 56.82h9.67c-.82-2.5-1.25-2.8-.82-7.48.64-6.7-2.14-6.13-2.14-6.13s-1.69-3.25-4.76-.77c-3.64 2.95.05 8.88-1.95 14.38z" opacity="1" data-original="#993300" class=""></path><path fill="#4d4d4d" d="M69 68.99v-6.74c0-2.61-2.12-4.73-4.73-4.73h-7.42c-2.61 0-4.73 2.12-4.73 4.73v6.74z" opacity="1" data-original="#4d4d4d" class=""></path><path fill="#f58c29" d="M69 62.25v1.08c0-2.62-2.12-4.73-4.73-4.73h-7.43c-2.62 0-4.73 2.12-4.73 4.73v-1.08c0-2.62 2.12-4.73 4.73-4.73h7.43c2.61-.01 4.73 2.11 4.73 4.73z" opacity="1" data-original="#5e5e5e" class=""></path><path fill="#d4d5d8" d="M23.69 5.89h38.97v25.56H23.69z" opacity="1" data-original="#d4d5d8" class=""></path><path fill="#f2f2f2" d="M25.2 5.89h35.97v25.56H25.2z" opacity="1" data-original="#f2f2f2"></path><path fill="#f58c29" d="M63.99 5.89c0 .48-.39.87-.87.87H23.25a.87.87 0 0 1 0-1.74h39.86c.48-.01.88.39.88.87zM63.99 31.45c0 .48-.39.87-.87.87H23.25a.87.87 0 0 1 0-1.74h39.86c.48-.01.88.38.88.87z" opacity="1" data-original="#cc6633" class=""></path><path fill="#ffb476" d="M5.2 32.85s-.4 1.95.16 3.07c.49.98 1.92 1.34 1.88.77-.07-.8-.94-.43-.88-1.72.06-1.28.3.67.98.83s-.8-2.63-.8-3.11zM26.36 22.67l1.08.31.95-1.95-1.32-.33-1.74.48z" opacity="1" data-original="#ffb476" class=""></path><path fill="#993300" d="m25.96 23.67 9.08-14.48.41.25-8.75 14.69z" opacity="1" data-original="#993300" class=""></path><path fill="#ffb476" d="M25.33 21.18s.97-1.04 2.13-1.31c1.47-.34 1.89.63.8.8-1.01.16-1.33.95-1.33.95z" opacity="1" data-original="#ffb476" class=""></path><path fill="#ffb476" d="M27.28 22.39s-.62 1.05.19.93c.82-.12 1.69-1.58 1.51-2.22-.18-.65-.99-.35-1.7 1.29z" opacity="1" data-original="#ffb476" class=""></path><path fill="#343435" d="M17.08 53.79s.56 2.2 2.77 3.06c.77.35.57 1.29-.66 1.18s-2.17.09-3.11-1.01c-.26-.15-1.6.5-1.66-.59-.07-1.09.22-2.5.22-2.5zM11.34 57.96c-1.1.32-2.67-.36-2.21-1.53.46-1.16.68-2.88.68-2.88l1.99-.23c-.12.53.32 1.62.68 2.7.35 1.07-.04 1.63-1.14 1.94z" opacity="1" data-original="#343435" class=""></path><g fill="#4d4d4d"><path d="M9.2 54.33h3.12l.1-10.6c.01-.92.07-1.83.18-2.75l.81-6.8v-5.07H8.42z" fill="#4d4d4d" opacity="1" data-original="#4d4d4d" class=""></path><path d="M17.6 54.33h-3.12l-.1-10.6c-.01-.92-.07-1.83-.18-2.75l-.81-6.8v-5.07h4.98z" fill="#4d4d4d" opacity="1" data-original="#4d4d4d" class=""></path></g><path fill="#d4d5d8" d="M8.95 26.34h8.81v4.61H8.95z" opacity="1" data-original="#d4d5d8" class=""></path><path fill="#ffcc00" d="M8.95 30.95h8.81v.92H8.95z" opacity="1" data-original="#ffcc00" class=""></path><path fill="#808080" d="M13.4 13.96v15.15c0 2.23-1.79 4.02-4.02 4.02H8.09l.49-6.07c.01-.2.03-.4.03-.61v-3.97l-.94 3.51-.9 7.14H5v-7.49c0-.35.03-.69.12-1.03l1.73-7.36c.23-.97.95-1.72 1.91-1.99z" opacity="1" data-original="#538cea" class=""></path><path fill="#808080" d="m26.45 22.73-5.36 2.79c-.64.32-1.42.06-1.72-.59l-1.17-2.46v3.97c0 .2 0 .4.01.61l.49 6.07h-1.27c-2.23 0-4.03-1.79-4.03-4.02V13.96l4.7 1.32c.92.26 1.63.98 1.89 1.91l1.46 5.38 4-1.62.77 1.39z" opacity="1" data-original="#6699ff" class=""></path><g fill="#3f7bd1"><path d="M15.02 28.17h2.07v.44h-2.07zM9.71 28.17h2.07v.44H9.71z" fill="#808080" opacity="1" data-original="#3f7bd1" class=""></path></g><path fill="#d4d5d8" d="m15.29 17.13-1.68 5.92-.21.35-.21-.35-1.69-5.92 1.9-1.36z" opacity="1" data-original="#d4d5d8" class=""></path><path fill="#f2f2f2" d="m11.8 13.97 1.6 1.8-1.6 2.07-.45-2.48z" opacity="1" data-original="#f2f2f2"></path><path fill="#808080" d="M13.4 23.88c-1.25-1.85-2.23-3.99-2.94-6.42l.81-1.24-1.03-.34.83-1.58.74-.33c-.05 3.14.58 6.13 1.6 9.04v.87z" opacity="1" data-original="#6699ff" class=""></path><path fill="#f2f2f2" d="m15 13.97-1.6 1.8 1.6 2.07.46-2.48z" opacity="1" data-original="#f2f2f2"></path><path fill="#ffffff" d="M13.4 23.88c1.25-1.85 2.23-3.99 2.94-6.42l-.81-1.24 1.03-.34-.83-1.58-.73-.33c.05 3.14-.58 6.13-1.6 9.04z" opacity="1" data-original="#88b6ff" class=""></path><path fill="#efa167" d="M15 12.84v1.13l-1.6 1.8-1.6-1.8v-1.13z" opacity="1" data-original="#efa167"></path><g fill="#f2f2f2"><circle cx="13.85" cy="24.54" r=".25" fill="#f2f2f2" opacity="1" data-original="#f2f2f2"></circle><circle cx="13.85" cy="25.74" r=".25" fill="#f2f2f2" opacity="1" data-original="#f2f2f2"></circle><circle cx="13.85" cy="26.95" r=".25" fill="#f2f2f2" opacity="1" data-original="#f2f2f2"></circle><circle cx="13.85" cy="28.15" r=".25" fill="#f2f2f2" opacity="1" data-original="#f2f2f2"></circle></g><path fill="#808080" d="m8.61 22.47-.94 3.52-.89 7.13h-.77l1.24-6.46-1.12-1.09 1.11-.07.69-3.4-.2-4.47z" opacity="1" data-original="#3f7bd1" class=""></path><path fill="#808080" d="m26.45 22.73-5.36 2.79c-.64.32-1.42.06-1.72-.59l-1.17-2.46.14-1.16s1.16 3.21 1.99 3.6c.66.3 5.88-2.59 5.88-2.59z" opacity="1" data-original="#538cea" class=""></path><path fill="#4d4d4d" d="M11.16 6.52s-1.65 0-.99 2.64c.36 1.37.42 1.95.42 1.95h1.1l.38-3.33z" opacity="1" data-original="#4d4d4d" class=""></path><path fill="#3a3a3a" d="M11.16 6.52s-.14-1.76 2.36-1.47c2.5.28 3.4 1.68 3.37 2.85s-.41 3.22-.41 3.22H11.69l.38-3.33z" opacity="1" data-original="#3a3a3a" class=""></path><g fill="#efa167"><ellipse cx="15.91" cy="11.11" rx=".85" ry=".63" transform="rotate(-75.7 15.915 11.113)" fill="#efa167" opacity="1" data-original="#efa167"></ellipse><ellipse cx="11" cy="11.11" rx=".63" ry=".85" transform="rotate(-14.3 10.984 11.1)" fill="#efa167" opacity="1" data-original="#efa167"></ellipse></g><path fill="#ffb476" d="m10.72 9.18.33 2.56c.1.75.44 1.44.99 1.96l.47.45c.19.18.45.29.71.29h.48c.27 0 .52-.1.71-.29l.47-.45c.55-.52.89-1.22.99-1.96l.32-2.56c-1.63-.12-3.01-.58-4.11-1.39-.18.62-.61 1.1-1.36 1.39z" opacity="1" data-original="#ffb476" class=""></path><path fill="#4d4d4d" d="M15.55 10.36a1.4 1.4 0 0 0-.99-.25c-.17.02-.34.08-.51.09-.06 0-.14 0-.17-.06-.04-.07.01-.13.06-.18.03-.02.14-.1.18-.12-.02.05-.06.1-.08.15.1-.12.24-.2.39-.21-.04.03-.08.06-.1.11.16-.07.33-.11.51-.11.17 0 .35.06.49.17h-.13c.1.03.18.08.24.16.07.06.1.15.11.25z" opacity="1" data-original="#4d4d4d" class=""></path><path fill="#4d4d4d" d="M15.34 10.6c-.44.16-.82.24-1.29.02.38-.36.81-.37 1.29-.02z" opacity="1" data-original="#4d4d4d" class=""></path><path fill="#f2f2f2" d="M15.27 10.6c-.39.16-.73.24-1.15.02.34-.36.72-.37 1.15-.02z" opacity="1" data-original="#f2f2f2"></path><path fill="#4d4d4d" d="M14.95 10.54c0 .08-.03.15-.08.19-.11.03-.22.03-.34.02-.07-.04-.1-.12-.1-.21 0-.06.02-.12.06-.17a.61.61 0 0 1 .42.01c.03.04.04.1.04.16z" opacity="1" data-original="#4d4d4d" class=""></path><circle cx="14.69" cy="10.54" r=".12" fill="#3a3a3a" opacity="1" data-original="#3a3a3a" class=""></circle><path fill="#ffffff" d="M14.64 10.48c0 .03-.02.05-.05.05s-.05-.02-.05-.05c0-.02.02-.05.05-.05s.05.02.05.05z" opacity="1" data-original="#ffffff" class=""></path><path fill="#4d4d4d" d="M11.36 10.36c.28-.2.65-.3.99-.25.17.02.34.08.51.09.06 0 .14 0 .17-.06.04-.07-.01-.13-.06-.18-.03-.02-.14-.1-.18-.12.02.05.06.1.08.15-.1-.12-.24-.2-.39-.21.04.03.08.06.1.11-.16-.07-.33-.11-.51-.11a.81.81 0 0 0-.49.17h.13c-.1.03-.18.08-.24.16-.06.06-.1.15-.11.25z" opacity="1" data-original="#4d4d4d" class=""></path><path fill="#4d4d4d" d="M11.57 10.6c.44.16.82.24 1.29.02-.37-.36-.81-.37-1.29-.02z" opacity="1" data-original="#4d4d4d" class=""></path><path fill="#f2f2f2" d="M11.64 10.6c.39.16.73.24 1.15.02-.33-.36-.72-.37-1.15-.02z" opacity="1" data-original="#f2f2f2"></path><path fill="#4d4d4d" d="M11.96 10.54c0 .08.03.15.08.19.11.03.22.03.34.02.07-.04.1-.12.1-.21 0-.06-.02-.12-.06-.17a.61.61 0 0 0-.42.01c-.03.04-.04.1-.04.16z" opacity="1" data-original="#4d4d4d" class=""></path><circle cx="12.22" cy="10.54" r=".12" fill="#3a3a3a" opacity="1" data-original="#3a3a3a" class=""></circle><path fill="#ffffff" d="M12.27 10.48c0 .03.02.05.05.05s.05-.02.05-.05c0-.02-.02-.05-.05-.05s-.05.02-.05.05z" opacity="1" data-original="#ffffff" class=""></path><path fill="#efa167" d="M14.02 13.46c-.08-.07-.18-.09-.28-.12-.1-.02-.2-.03-.31-.02-.1 0-.21 0-.31.02s-.2.05-.28.12c.07-.08.17-.13.27-.16s.21-.04.31-.04c.11 0 .21.02.31.04.12.03.23.08.29.16zM14.44 12.53s-.22.28-.54.38c-.11.03-.34 0-.45 0s-.34.03-.45 0c-.32-.1-.54-.38-.54-.38.19-.12.39-.15.58-.25.1-.05.23-.06.32.01.06.04.14.04.19 0h.01c.09-.07.22-.06.32-.01.17.11.37.14.56.25z" opacity="1" data-original="#efa167"></path><path fill="#3a3a3a" d="M14.37 12.54c-.15.03-.31.08-.46.08l-.47-.01-.47.01c-.16 0-.31-.05-.46-.08.16.01.31.05.46.05l.47-.02.47.02c.15 0 .3-.04.46-.05z" opacity="1" data-original="#3a3a3a" class=""></path><g fill="#efa167"><path d="M12.89 11.83c.08-.06.18-.09.29-.07.05.01.1.03.15.06.04.03.07.04.12.04.04 0 .08-.01.12-.04.05-.03.1-.05.15-.06.1-.02.21.02.29.07a.536.536 0 0 0-.28-.02c-.04.01-.08.03-.12.06s-.1.06-.16.06-.12-.02-.16-.06c-.04-.03-.08-.04-.12-.06a.45.45 0 0 0-.28.02zM14 11.73c.02-.1-.04-.19-.1-.26-.06-.08-.12-.16-.15-.25a.776.776 0 0 1 0-.58c-.05.19-.04.39.03.57.03.09.08.17.14.25.06.07.11.17.08.27zM12.9 11.73c-.03-.1.02-.2.08-.27.06-.08.11-.16.14-.25.08-.18.08-.38.03-.57.08.18.07.39 0 .58-.04.09-.1.17-.15.25-.06.07-.11.16-.1.26z" fill="#efa167" opacity="1" data-original="#efa167"></path></g><path fill="#efa167" d="M40.69 49.23h4.02v4.03h-4.02z" opacity="1" data-original="#efa167"></path><path fill="#91bc28" d="M45.87 52.32c0 .72-1.42.61-3.17.61s-3.17.11-3.17-.61 1.42-1.3 3.17-1.3 3.17.58 3.17 1.3z" opacity="1" data-original="#91bc28" class=""></path><path fill="#ffffff" d="M50.82 65.79c-.14-8.32-.2-11.02-1.04-11.88-1.18-1.2-4.83-1.94-6.54-2.08-.27-.02-.81-.02-1.08 0-1.71.14-5.37.88-6.54 2.08-.83.85-.9 3.55-1.04 11.88z" opacity="1" data-original="#99cc33" class=""></path><g fill="#efa167"><ellipse cx="45.65" cy="48.06" rx=".9" ry=".6" transform="rotate(-80.1 45.661 48.069)" fill="#efa167" opacity="1" data-original="#efa167"></ellipse><ellipse cx="39.75" cy="48.06" rx=".6" ry=".9" transform="rotate(-9.94 39.65 48.004)" fill="#efa167" opacity="1" data-original="#efa167"></ellipse></g><path fill="#4d4d4d" d="M44.62 50.24c.82-1.22 1.41-3.44 1.47-4.71.1-2.25-1.44-3.18-3.39-3.18s-3.49.92-3.39 3.18c.06 1.27.65 3.49 1.47 4.71 1.28.43 2.55.43 3.84 0zM51.15 68.99v-6.74c0-2.61-2.12-4.73-4.73-4.73H39c-2.61 0-4.73 2.12-4.73 4.73v6.74z" opacity="1" data-original="#4d4d4d" class=""></path><path fill="#f58c29" d="M51.14 62.25v1.08c0-2.62-2.12-4.73-4.73-4.73h-7.43c-2.62 0-4.73 2.12-4.73 4.73v-1.08c0-2.62 2.12-4.73 4.73-4.73h7.43a4.714 4.714 0 0 1 4.73 4.73z" opacity="1" data-original="#5e5e5e" class=""></path><path fill="#efa167" d="M22.84 49.23h4.02v4.03h-4.02z" opacity="1" data-original="#efa167"></path><path fill="#808080" d="M28.02 52.32c0 .72-1.42.61-3.17.61s-3.17.11-3.17-.61 1.42-1.3 3.17-1.3 3.17.58 3.17 1.3z" opacity="1" data-original="#548eea" class=""></path><path fill="#808080" d="M32.96 65.79c-.14-8.32-.2-11.02-1.04-11.88-1.18-1.2-4.83-1.94-6.54-2.08-.27-.02-.81-.02-1.08 0-1.71.14-5.37.88-6.54 2.08-.83.85-.9 3.55-1.04 11.88z" opacity="1" data-original="#6699ff" class=""></path><g fill="#efa167"><ellipse cx="27.79" cy="48.06" rx=".9" ry=".6" transform="rotate(-80.1 27.802 48.07)" fill="#efa167" opacity="1" data-original="#efa167"></ellipse><ellipse cx="21.9" cy="48.06" rx=".6" ry=".9" transform="rotate(-9.94 21.826 47.996)" fill="#efa167" opacity="1" data-original="#efa167"></ellipse></g><path fill="#4d4d4d" d="M26.76 50.24c.82-1.22 1.41-3.44 1.47-4.71.1-2.25-1.44-3.18-3.39-3.18s-3.49.92-3.39 3.18c.06 1.27.65 3.49 1.47 4.71 1.29.43 2.56.43 3.84 0zM33.29 68.99v-6.74c0-2.61-2.12-4.73-4.73-4.73h-7.42c-2.61 0-4.73 2.12-4.73 4.73v6.74z" opacity="1" data-original="#4d4d4d" class=""></path><path fill="#f58c29" d="M33.29 62.25v1.08c0-2.62-2.12-4.73-4.73-4.73h-7.43c-2.62 0-4.73 2.12-4.73 4.73v-1.08c0-2.62 2.12-4.73 4.73-4.73h7.43c2.61-.01 4.73 2.11 4.73 4.73z" opacity="1" data-original="#5e5e5e" class=""></path><path fill="#5cc640" d="M34.56 16.84a.459.459 0 0 1-.31-.8l3.5-3.19c.18-.16.45-.16.63.01l3.02 2.88 3.91-3.81a.459.459 0 1 1 .64.66l-4.23 4.12c-.18.17-.46.17-.64 0l-3.03-2.89-3.18 2.9c-.09.08-.2.12-.31.12z" opacity="1" data-original="#ff3333" class=""></path><path fill="#5cc640" d="m46.71 13.71.85-3.01c.06-.2-.13-.39-.33-.34l-3.03.77c-.2.05-.27.3-.13.45l2.18 2.24c.15.16.4.09.46-.11z" opacity="1" data-original="#ff3333" class=""></path><g fill="#d4d5d8"><path d="M32.36 19.89H49.3v1.24H32.36zM32.36 22.81H49.3v1.24H32.36zM32.36 25.73H49.3v1.24H32.36z" fill="#d4d5d8" opacity="1" data-original="#d4d5d8" class=""></path></g></g></svg>