<svg viewBox="0 0 512 512" xmlns="http://www.w3.org/2000/svg"><g data-name="24hours_7days"><path d="M456 248a7.998 7.998 0 0 0-8 8 192.01 192.01 0 1 1-71.436-149.422h-33.736a8 8 0 0 0 0 16h54.594a8.031 8.031 0 0 0 8-8V59.984a8 8 0 1 0-16 0v36.477a207.988 207.988 0 0 0-280.5 306.617A208 208 0 0 0 464 256a7.998 7.998 0 0 0-8-8Z" fill="#59af17" class="fill-000000"></path><path d="m300.191 198.586-40.765 112a7.998 7.998 0 1 0 15.031 5.469l40.766-112a7.998 7.998 0 0 0-15.032-5.47ZM188.484 241.531a29.356 29.356 0 0 0-8.652-20.89c-11.164-11.172-30.617-11.172-41.781 0a29.344 29.344 0 0 0-8.657 20.89 8 8 0 0 0 16 0 13.466 13.466 0 0 1 3.97-9.578 13.855 13.855 0 0 1 19.155 0 13.542 13.542 0 0 1 0 19.149l-36.78 36.78a8 8 0 0 0 5.655 13.657h43.09a8 8 0 0 0 0-16h-23.777l23.125-23.125a29.338 29.338 0 0 0 8.652-20.883ZM234.09 301.54a7.998 7.998 0 0 0 8-8v-11.93h4.129a8 8 0 0 0 0-16h-4.129v-45.626a8.003 8.003 0 0 0-14.691-4.39l-35.164 53.625a8.002 8.002 0 0 0 6.691 12.39h27.164v11.93a7.998 7.998 0 0 0 8 8Zm-20.352-35.93 12.352-18.837v18.836ZM342.953 293.54a8 8 0 0 0 16 0v-16.47a72.272 72.272 0 0 1 21.305-51.43 8 8 0 0 0-5.656-13.656h-47.293a8 8 0 0 0 0 16h30.425a88.107 88.107 0 0 0-14.78 49.086Z" fill="#59af17" class="fill-000000"></path></g></svg>