<svg xmlns="http://www.w3.org/2000/svg" version="1.1" xmlns:xlink="http://www.w3.org/1999/xlink" width="512" height="512" x="0" y="0" viewBox="0 0 62 62" style="enable-background:new 0 0 512 512" xml:space="preserve" class=""><g><path fill="#ffffff" d="M50 57h6v4h-6zM28 57h6v4h-6zM6 57h6v4H6z" opacity="1" data-original="#aab2bd" class=""></path><path fill="#ffffff" d="M17 53v2c0 1.1-.9 2-2 2H3c-1.1 0-2-.9-2-2v-2zM61 53v2c0 1.1-.9 2-2 2H47c-1.1 0-2-.9-2-2v-2zM39 53v2c0 1.1-.9 2-2 2H25c-1.1 0-2-.9-2-2v-2z" opacity="1" data-original="#ccd1d9" class=""></path><path fill="#f58c29" d="M61 47v6H45v-6c0-1.1.9-2 2-2h12c1.1 0 2 .9 2 2zM39 47v6H23v-6c0-1.1.9-2 2-2h12c1.1 0 2 .9 2 2zM17 47v6H1v-6c0-1.1.9-2 2-2h12c1.1 0 2 .9 2 2z" opacity="1" data-original="#69d6f4" class=""></path><path fill="#ffffff" d="M54 17c3.87 0 7 3.13 7 7s-3.13 7-7 7H8c-3.87 0-7-3.13-7-7s3.13-7 7-7c.06 0 .12.01.18.01C9.13 11.33 14.05 7 20 7c2.17 0 4.21.59 5.96 1.6C28.54 4.06 33.41 1 39 1c8.28 0 15 6.72 15 15z" opacity="1" data-original="#e6e9ed" class=""></path><circle cx="41" cy="25" r="2" fill="#5cc640" opacity="1" data-original="#ef7385" class=""></circle><circle cx="31" cy="22" r="2" fill="#5cc640" opacity="1" data-original="#ef7385" class=""></circle><circle cx="21" cy="25" r="2" fill="#5cc640" opacity="1" data-original="#ef7385" class=""></circle><path d="M15 44h-5v-4H8v4H3c-1.654 0-3 1.346-3 3v8c0 1.654 1.346 3 3 3h2v2H3v2h12v-2h-2v-2h2c1.654 0 3-1.346 3-3v-8c0-1.654-1.346-3-3-3zM3 46h12c.551 0 1 .449 1 1v5H2v-5c0-.551.449-1 1-1zm8 14H7v-2h4zm4-4H3c-.551 0-1-.449-1-1v-1h14v1c0 .551-.449 1-1 1zM37 44h-5v-9h-2v9h-5c-1.654 0-3 1.346-3 3v8c0 1.654 1.346 3 3 3h2v2h-2v2h12v-2h-2v-2h2c1.654 0 3-1.346 3-3v-8c0-1.654-1.346-3-3-3zm-12 2h12c.551 0 1 .449 1 1v5H24v-5c0-.551.449-1 1-1zm8 14h-4v-2h4zm4-4H25c-.551 0-1-.449-1-1v-1h14v1c0 .551-.449 1-1 1zM59 44h-5v-4h-2v4h-5c-1.654 0-3 1.346-3 3v8c0 1.654 1.346 3 3 3h2v2h-2v2h12v-2h-2v-2h2c1.654 0 3-1.346 3-3v-8c0-1.654-1.346-3-3-3zm-12 2h12c.551 0 1 .449 1 1v5H46v-5c0-.551.449-1 1-1zm8 14h-4v-2h4zm4-4H47c-.551 0-1-.449-1-1v-1h14v1c0 .551-.449 1-1 1zM20 27.816V32h2v-4.184A2.996 2.996 0 0 0 24 25c0-1.654-1.346-3-3-3s-3 1.346-3 3c0 1.302.839 2.402 2 2.816zM21 24c.551 0 1 .449 1 1s-.449 1-1 1-1-.449-1-1 .449-1 1-1zM32 24.816A2.996 2.996 0 0 0 34 22c0-1.654-1.346-3-3-3s-3 1.346-3 3c0 1.302.839 2.402 2 2.816V29h2zM31 21c.551 0 1 .449 1 1s-.449 1-1 1-1-.449-1-1 .449-1 1-1zM30 31h2v2h-2zM42 27.816A2.996 2.996 0 0 0 44 25c0-1.654-1.346-3-3-3s-3 1.346-3 3c0 1.302.839 2.402 2 2.816V32h2zM41 24c.551 0 1 .449 1 1s-.449 1-1 1-1-.449-1-1 .449-1 1-1zM40 34h2v2h-2zM54 38v-4H44v2h8v2zM20 34h2v2h-2zM18 34H8v4h2v-2h8z" fill="#000000" opacity="1" data-original="#000000"></path><path d="M8 32h10v-2H8c-3.309 0-6-2.691-6-6 0-3.307 2.689-5.998 6.027-5.998h.004l.991.028.143-.856A10.953 10.953 0 0 1 20 8c1.909 0 3.799.506 5.466 1.464l.871.5.497-.873C29.323 4.717 33.985 2 39 2c7.72 0 14 6.28 14 14v.069c-3.94.495-7 3.859-7 7.931h2c0-3.309 2.691-6 6-6s6 2.691 6 6-2.691 6-6 6H44v2h10c4.411 0 8-3.589 8-8 0-4.072-3.06-7.436-7-7.931V16c0-8.822-7.178-16-16-16-5.409 0-10.458 2.765-13.401 7.276A12.975 12.975 0 0 0 20 6 12.943 12.943 0 0 0 7.356 16.026C3.245 16.354 0 19.806 0 24c0 4.411 3.589 8 8 8z" fill="#000000" opacity="1" data-original="#000000"></path><path d="M50 42v-4H36V27h-2v13h14v2zM14 40h14V27h-2v11H12v4h2zM36.272 6.376l-.544-1.925a12.04 12.04 0 0 0-7.419 6.093l1.781.91a10.039 10.039 0 0 1 6.182-5.078zM48.835 14.181l1.967-.361A11.991 11.991 0 0 0 37.91 4.049l.181 1.992a9.992 9.992 0 0 1 10.744 8.14zM20 10c-4.531 0-8.37 3.386-8.93 7.876l1.984.247C13.49 14.633 16.476 12 20 12z" fill="#000000" opacity="1" data-original="#000000"></path></g></svg>