<svg xmlns="http://www.w3.org/2000/svg" version="1.1" xmlns:xlink="http://www.w3.org/1999/xlink" width="512" height="512" x="0" y="0" viewBox="0 0 64 64" style="enable-background:new 0 0 512 512" xml:space="preserve" class=""><g><path fill="#ffffff" d="M40 46c-6.99 0-13.22-3.26-17.25-8.34A5.91 5.91 0 0 0 24 34h1c.83 0 1.58-.34 2.12-.88S28 31.83 28 31c0-1.1-.58-2.05-1.46-2.58 1.05-1.19 1.85-2.59 2.35-4.1L29 24h-2l1.06-1.6c.61-.91.94-1.99.94-3.09 0-.86-.2-1.71-.59-2.49L28 16c-1.96 1.3-4.25 2-6.61 2h-2.56C21.44 8.77 29.93 2 40 2c12.15 0 22 9.85 22 22s-9.85 22-22 22z" opacity="1" data-original="#69d6f4" class=""></path><path fill="#f58c29" d="M46 56v2c0 .73-.2 1.41-.54 2A3.999 3.999 0 0 1 38 58v-3c0-.55.45-1 1-1h6c.55 0 1 .45 1 1z" opacity="1" data-original="#dfb28b" class=""></path><circle cx="42" cy="48" r="2" fill="#5cc640" opacity="1" data-original="#ef7385" class=""></circle><path fill="#f58c29" d="M2 55c0-5.31 3.56-9.97 8.68-11.37L13 43l.21.11c1.18.58 2.47.89 3.79.89s2.61-.31 3.79-.89L21 43l2.32.63C28.44 45.03 32 49.69 32 55c0 1.38-.56 2.63-1.46 3.54-.91.9-2.16 1.46-3.54 1.46h-1V49c0-.55-.45-1-1-1H9c-.55 0-1 .45-1 1v11H7c-1.38 0-2.63-.56-3.54-1.46C2.56 57.63 2 56.38 2 55z" opacity="1" data-original="#fcd770" class=""></path><path fill="#5cc640" d="M26 60v1c0 .55-.45 1-1 1H9c-.55 0-1-.45-1-1v-3h18z" opacity="1" data-original="#aab2bd" class=""></path><path fill="#5cc640" d="M26 54v4H8v-9c0-.55.45-1 1-1h16c.55 0 1 .45 1 1z" opacity="1" data-original="#ccd1d9" class=""></path><path fill="#000000" d="M28.89 24.32c-.5 1.51-1.3 2.91-2.35 4.1-.45-.26-.98-.42-1.54-.42h-1c0-2.21-1.79-4-4-4h-7a4.396 4.396 0 0 0-3 4H9c-.93 0-1.76.42-2.31 1.08l-.29-.89c-.27-.79-.4-1.61-.4-2.45 0-2.14.87-4.07 2.27-5.47S11.6 18 13.74 18h7.65c2.36 0 4.65-.7 6.61-2l.41.82c.39.78.59 1.63.59 2.49 0 1.1-.33 2.18-.94 3.09L27 24h2z" opacity="1" data-original="#656d78" class=""></path><path fill="#ffffff" d="M26.54 28.42C27.42 28.95 28 29.9 28 31c0 .83-.34 1.58-.88 2.12S25.83 34 25 34h-1v-6h1c.56 0 1.09.16 1.54.42zM20.15 39.6 21 43l-.21.11c-1.18.58-2.47.89-3.79.89s-2.61-.31-3.79-.89L13 43l.85-3.4c.67.26 1.39.4 2.15.4h2c.76 0 1.48-.14 2.15-.4z" opacity="1" data-original="#f0d0b4" class=""></path><path fill="#ffffff" d="M10 28a4.396 4.396 0 0 1 3-4h7c2.21 0 4 1.79 4 4v6c0 1.38-.46 2.65-1.25 3.66-.66.87-1.57 1.54-2.6 1.94-.67.26-1.39.4-2.15.4h-2a6.002 6.002 0 0 1-6-6v-6zM10 28v6H9c-.83 0-1.58-.34-2.12-.88S6 31.83 6 31c0-.73.26-1.4.69-1.92C7.24 28.42 8.07 28 9 28z" opacity="1" data-original="#f0d0b4" class=""></path><circle cx="14" cy="30" r="1" fill="#000000" opacity="1" data-original="#000000" class=""></circle><circle cx="20" cy="30" r="1" fill="#000000" opacity="1" data-original="#000000" class=""></circle><path d="M19 33.764c-.381.762-1.147 1.236-2 1.236s-1.619-.474-2-1.236l-.105-.211-1.789.895.105.211C13.933 36.103 15.385 37 17 37s3.067-.897 3.789-2.342l.105-.211-1.789-.895zM14.174 24.549l1.664-1.11 2.001 3-1.664 1.11zM18.174 24.548l1.664-1.11 2.001 3-1.664 1.11zM48.281 41.695l1.438-1.391C47.659 38.174 44.918 37 42 37s-5.659 1.174-7.719 3.305l1.438 1.391C37.398 39.957 39.63 39 42 39s4.602.957 6.281 2.695z" fill="#000000" opacity="1" data-original="#000000" class=""></path><path d="M46.771 43.362C45.509 41.839 43.814 41 42 41s-3.509.839-4.771 2.362l1.541 1.275C39.646 43.581 40.792 43 42 43s2.354.581 3.229 1.638zM39 48c0 1.654 1.346 3 3 3s3-1.346 3-3-1.346-3-3-3-3 1.346-3 3zm4 0a1 1 0 1 1-2 0 1 1 0 0 1 2 0zM48 55h-1c0-1.103-.897-2-2-2h-6c-1.103 0-2 .897-2 2v3c0 2.757 2.243 5 5 5 1.627 0 3.061-.793 3.974-2H48c1.654 0 3-1.346 3-3s-1.346-3-3-3zm-3 3c0 1.654-1.346 3-3 3s-3-1.346-3-3v-3h6zm3 1h-1.101c.066-.323.101-.658.101-1v-1h1a1 1 0 0 1 0 2z" fill="#000000" opacity="1" data-original="#000000" class=""></path><path d="M40 1c-9.99 0-18.874 6.546-21.895 16h-4.362C8.922 17 5 20.922 5 25.743c0 .942.151 1.873.448 2.765l.143.428A3.963 3.963 0 0 0 5 31c0 2.206 1.794 4 4 4h.08a7.01 7.01 0 0 0 3.6 5.16l-.508 2.029-1.753.478C4.873 44.18 1 49.252 1 55c0 3.309 2.691 6 6 6 0 1.103.897 2 2 2h16c1.103 0 2-.897 2-2 3.309 0 6-2.691 6-6 0-5.748-3.873-10.82-9.42-12.333l-1.752-.478-.508-2.029a7.052 7.052 0 0 0 1.395-1.002 22.947 22.947 0 0 0 9.967 6.653l.637-1.896a20.962 20.962 0 0 1-9.318-6.329 6.946 6.946 0 0 0 .92-2.586h7.699c.248.8.514 1.592.819 2.366l1.861-.732A31.382 31.382 0 0 1 34.713 35h23.152a21.014 21.014 0 0 1-7.365 7.191l1.002 1.73C58.594 39.819 63 32.186 63 24 63 11.317 52.683 1 40 1zm8.967 22c-.073-2.975-.455-5.641-1.03-8h11.008a20.833 20.833 0 0 1 2.005 8zm-20.098 0 .028-.043A6.542 6.542 0 0 0 30 19.314c0-1.015-.24-2.03-.693-2.938L28.618 15h3.445c-.575 2.359-.957 5.025-1.03 8zM27 31c0 1.103-.897 2-2 2v-4c1.103 0 2 .897 2 2zm7.136-16h11.728c.613 2.334 1.023 5.009 1.103 8H33.034c.079-2.991.489-5.666 1.102-8zm.591-2c1.67-5.022 4.105-8.212 5.273-9.543 1.168 1.331 3.603 4.521 5.273 9.543zm23.127 0H47.388c-1.452-4.71-3.566-7.99-5.04-9.86 6.556.733 12.193 4.502 15.506 9.86zm-20.21-9.85C36.17 5.021 34.062 8.298 32.612 13H22.13c3.354-5.421 9.071-9.116 15.514-9.85zM21.023 15h6.674l-.252.168A10.878 10.878 0 0 1 21.395 17h-1.186c.241-.683.506-1.354.814-2zM7 31c0-1.103.897-2 2-2v4c-1.103 0-2-.897-2-2zm2 30v-2h16.002v2zm0-4v-8h16l.001 8zm14.054-12.403A10.807 10.807 0 0 1 31 55c0 2.206-1.794 4-4 4v-4h2v-2h-2v-4c0-1.103-.897-2-2-2H9c-1.103 0-2 .897-2 2v4H5v2h2v4c-2.206 0-4-1.794-4-4 0-4.849 3.268-9.127 7.945-10.403l1.962-.535C14.181 44.671 15.59 45 17 45s2.819-.329 4.092-.938zm-3.227-2.167a7.611 7.611 0 0 1-5.654 0l.395-1.579c.462.097.941.149 1.432.149h2c.491 0 .97-.052 1.432-.149zM18 39h-2c-2.757 0-5-2.243-5-5v-5.838c0-1.46.931-2.751 2.316-3.214l-.633-1.896A5.368 5.368 0 0 0 9.142 27H9a3.96 3.96 0 0 0-1.765.428A6.742 6.742 0 0 1 7 25.743 6.75 6.75 0 0 1 13.743 19h7.651c2.178 0 4.297-.544 6.193-1.582.27.593.413 1.245.413 1.896 0 .905-.265 1.781-.767 2.533L25.131 25h2.426c-.352.79-.803 1.525-1.331 2.212A3.959 3.959 0 0 0 25 27h-2v7c0 2.757-2.243 5-5 5zm10.444-6A3.959 3.959 0 0 0 29 31c0-1.05-.415-1.998-1.078-2.712A12.864 12.864 0 0 0 29.7 25h1.322a37.488 37.488 0 0 0 1.041 8zm4.578-8h13.946a35.34 35.34 0 0 1-1.105 8H34.128a35.238 35.238 0 0 1-1.106-8zm14.899 8c.626-2.56.978-5.24 1.046-8h11.999a20.958 20.958 0 0 1-2.012 8zM20 3V1C12.832 1 7 6.832 7 14h2C9 7.935 13.935 3 20 3z" fill="#000000" opacity="1" data-original="#000000" class=""></path><path d="M13 14c0-3.859 3.141-7 7-7V5c-4.963 0-9 4.037-9 9z" fill="#000000" opacity="1" data-original="#000000" class=""></path><circle cx="-160" cy="32" r="26" fill="#ffffff" opacity="1" data-original="#69d6f4" class=""></circle><path fill="#f58c29" d="M-151.03 7.59A9.901 9.901 0 0 1-150 12c0 5.52-4.48 10-10 10s-10-4.48-10-10c0-1.58.37-3.08 1.03-4.41a9.992 9.992 0 0 1 17.94 0zM-140 10c5.52 0 10 4.48 10 10 0 3.39-1.69 6.39-4.28 8.2A9.965 9.965 0 0 1-140 30c-5.52 0-10-4.48-10-10a9.99 9.99 0 0 1 5.46-8.91c1.36-.7 2.91-1.09 4.54-1.09zM-134.28 35.8A9.987 9.987 0 0 1-130 44c0 5.52-4.48 10-10 10-1.63 0-3.18-.39-4.54-1.09A9.99 9.99 0 0 1-150 44c0-5.52 4.48-10 10-10 2.13 0 4.1.67 5.72 1.8zM-150 52c0 1.58-.37 3.08-1.03 4.41a9.992 9.992 0 0 1-17.94 0A9.901 9.901 0 0 1-170 52c0-5.52 4.48-10 10-10s10 4.48 10 10zM-180 34c5.52 0 10 4.48 10 10a9.99 9.99 0 0 1-5.46 8.91c-1.36.7-2.91 1.09-4.54 1.09-5.52 0-10-4.48-10-10 0-3.39 1.69-6.39 4.28-8.2A9.965 9.965 0 0 1-180 34zM-175.46 11.09A9.99 9.99 0 0 1-170 20c0 5.52-4.48 10-10 10-2.13 0-4.1-.67-5.72-1.8A9.987 9.987 0 0 1-190 20c0-5.52 4.48-10 10-10 1.63 0 3.18.39 4.54 1.09z" opacity="1" data-original="#fcd770" class=""></path><path d="M115 139H99c-1.103 0-2 .897-2 2v4c0 .366.106.705.278 1a1.978 1.978 0 0 0-.278 1v4c0 .364.098.706.269 1a1.984 1.984 0 0 0-.269 1v4c0 1.103.897 2 2 2h14c2.206 0 4-1.794 4-4a3.98 3.98 0 0 0-.802-2.399A2 2 0 0 0 117 151v-4c0-.366-.106-.705-.278-1 .172-.295.278-.634.278-1v-4c0-1.103-.897-2-2-2zm-8 2h2.556c-.344.591-.556 1.268-.556 2s.212 1.409.556 2H107zm-4 0h2v4h-2zm-4 0h2v4h-2zm0 6h4v4h-4zm2 10h-2v-4h2zm4 0h-2v-4h2zm0-10h2.556c-.344.591-.556 1.268-.556 2s.212 1.409.556 2H105zm8 10h-6v-4h6c1.103 0 2 .897 2 2s-.897 2-2 2zm2-6h-4c-1.103 0-2-.897-2-2s.897-2 2-2h4zm0-6h-2c-1.103 0-2-.897-2-2s.897-2 2-2h2z" fill="#000000" opacity="1" data-original="#000000" class=""></path><path d="M159 129v-21c0-6.065-4.935-11-11-11h-8.262a8.02 8.02 0 0 0-7.844 6.431L130.38 111h-.845l-.017-.025a5.886 5.886 0 0 1-.812-4.682l.506-2.021-.971-.242a5.86 5.86 0 0 1-4.272-4.272l-.242-.972-1.195.301a5.905 5.905 0 0 1-5.576-1.545l-.956-.956-.956.956a5.9 5.9 0 0 1-5.575 1.545l-1.196-.301-.242.972a5.86 5.86 0 0 1-4.272 4.272l-.971.242.506 2.021a5.886 5.886 0 0 1-.812 4.682l-.017.025H97v16.5l1.466 1.099a12.073 12.073 0 0 0 7.202 2.401c2.378 0 4.681-.697 6.659-2.017l.89-.593c2.392-1.595 5.587-1.808 8.174-.567A1.984 1.984 0 0 0 121 129v19c0 .624.192 1.204.52 1.685-1.498.865-2.52 2.465-2.52 4.315 0 2.757 2.243 5 5 5h25.117c2.11 0 4.092-.823 5.58-2.319 1.488-1.495 2.303-3.48 2.292-5.68a7.583 7.583 0 0 0-.394-2.377 29.537 29.537 0 0 1-1.518-9.171l-.013-2.046C157.53 135.331 159 132.235 159 129zm-53.768-23.191-.035-.143a7.846 7.846 0 0 0 4.48-4.499 7.921 7.921 0 0 0 6.322-1.788 7.927 7.927 0 0 0 6.322 1.788 7.85 7.85 0 0 0 4.48 4.499l-.035.143a7.877 7.877 0 0 0 .494 5.191h-2.321c-.499-4.493-4.316-8-8.941-8s-8.442 3.507-8.941 8h-2.321a7.86 7.86 0 0 0 .496-5.191zM122.92 111h-13.84c.488-3.386 3.401-6 6.92-6s6.432 2.614 6.92 6zm-5.11 14c-2.037 0-4.009.597-5.702 1.727l-.89.593a9.969 9.969 0 0 1-5.55 1.681c-2.149 0-4.281-.711-6.003-2.001l-.665-.5V113h30.98l-.81 4.047a8.836 8.836 0 0 0-.171 1.725 5.48 5.48 0 0 0 2.021 4.229H125v2h8v3.362a4.993 4.993 0 0 0 3.031 4.596l1.15.493a9.435 9.435 0 0 0-.181 1.747c0 1.314.284 2.607.813 3.803a22.94 22.94 0 0 1-6.105 1.745 3.126 3.126 0 0 0-2.485 4.255H127v-16c0-1.103-.897-2-2-2h-.764l-1.83-.915A10.297 10.297 0 0 0 117.81 125zM143 115c0 1.103-.897 2-2 2h-2v-3.414l-1.632-1.632a7.892 7.892 0 0 0 1.632-4.782V107h9a1 1 0 0 1 1 1v3h1a1 1 0 0 1 1 1c0 .378-.147.732-.414 1L149 114.586v8.796l-4 2v-3.102l1.242-.311-.484-1.939-3.573.893a2.563 2.563 0 0 1-3.118-1.923H141c2.206 0 4-1.794 4-4zm7.592 20.797a5.005 5.005 0 0 1-3.085-2.623 13.825 13.825 0 0 0 1.493-6.227c0-1.072.872-1.944 2-1.945h.001c.533 0 1.035.208 1.412.585.378.377.586.879.586 1.413a17.302 17.302 0 0 1-2.407 8.797zm2.461-.357.025 4.025c.016 2.545.342 5.068.966 7.535H143c0-.711-.376-1.332-.936-1.687l1.342-.587a19.336 19.336 0 0 0 9.647-9.286zm-6.017-8.84c-.01.116-.035.228-.035.347a11.808 11.808 0 0 1-5.484 9.998l-.693.442c-.401.256-.81.494-1.224.723a7.406 7.406 0 0 1-.6-2.914 7.37 7.37 0 0 1 4.096-6.627zm-5.137 12.473.693-.442a13.895 13.895 0 0 0 3.747-3.513 7.028 7.028 0 0 0 3.116 2.39 17.332 17.332 0 0 1-6.851 5.386L137.791 145h-5.648c-.63 0-1.143-.513-1.143-1.143 0-.574.417-1.05 1.071-1.143a24.62 24.62 0 0 0 9.828-3.641zM141 147v2h-17a1 1 0 0 1-1-1v-1zm-18-2v-16h2v16zm6 12h-5c-1.654 0-3-1.346-3-3s1.346-3 3-3h5zm24.279-1.729a5.83 5.83 0 0 1-4.162 1.729H131v-6h10c1.103 0 2-.897 2-2h11.624c.029.09.049.182.079.271.188.563.283 1.146.286 1.828a5.831 5.831 0 0 1-1.71 4.172zm1.769-20.693-.048-7.584h-.001a3.975 3.975 0 0 0-1.171-2.822c-.744-.743-1.728-1.152-2.828-1.165v-7.593l1-1c.645-.645 1-1.502 1-2.414a3.006 3.006 0 0 0-2-2.829V108c0-1.654-1.346-3-3-3h-10a1 1 0 0 1 0-2h1v-2h-1c-1.654 0-3 1.346-3 3 0 1.302.839 2.402 2 2.816v.356a5.868 5.868 0 0 1-1.707 4.121l-.707.707 2.414 2.414v4.024a4.567 4.567 0 0 0 5.668 4.425l.332-.083v3.602l-.799.399a9.357 9.357 0 0 0-4.451 4.738l-.932-.399a3 3 0 0 1-1.818-2.758V125c0-.939-.448-1.837-1.2-2.399l-1.417-1.063a3.474 3.474 0 0 1-1.383-2.766c0-.446.044-.895.132-1.332l2.724-13.616a6.015 6.015 0 0 1 5.883-4.823H148c4.963 0 9 4.037 9 9v21a9.047 9.047 0 0 1-1.952 5.577z" fill="#000000" opacity="1" data-original="#000000" class=""></path><circle cx="142" cy="110" r="1" fill="#000000" opacity="1" data-original="#000000" class=""></circle><path d="M101 115h8v2h-8zM111 115h2v2h-2zM115 115h12v2h-12zM101 121h8v2h-8zM113 119h10v2h-10zM-156.2 46.6l-1.6-1.2-2.2 2.933-2.2-2.933-1.6 1.2 2.8 3.733V51h-2v2h2v2h-2v2h2v2h2v-2h2v-2h-2v-2h2v-2h-2v-.667zM-161 16.816V19h2v-2h2v-3c0-1.654-1.346-3-3-3-.551 0-1-.448-1-1V9h1c.551 0 1 .448 1 1v1h2v-1a2.996 2.996 0 0 0-2-2.816V5h-2v2h-2v3c0 1.654 1.346 3 3 3 .551 0 1 .448 1 1v1h-1c-.551 0-1-.448-1-1v-1h-2v1c0 1.302.839 2.402 2 2.816zM-142.899 17H-145v2h2v2h-2v2h2.101A5.009 5.009 0 0 0-138 27h1v-2h-1a2.996 2.996 0 0 1-2.816-2H-139v-2h-2v-2h2v-2h-1.816A2.996 2.996 0 0 1-138 15h1v-2h-1a5.01 5.01 0 0 0-4.899 4z" fill="#000000" opacity="1" data-original="#000000" class=""></path><path d="M-129 20c0-6.065-4.935-11-11-11-1.582 0-3.084.342-4.445.947a26.897 26.897 0 0 0-5.863-3.141C-152.166 3.353-155.813 1-160 1s-7.833 2.352-9.691 5.803a26.978 26.978 0 0 0-5.865 3.143A10.92 10.92 0 0 0-180 9c-6.065 0-11 4.935-11 11 0 3.508 1.657 6.63 4.222 8.646-.138 1.109-.222 2.233-.222 3.354s.084 2.245.222 3.354C-189.343 37.37-191 40.492-191 44c0 6.065 4.935 11 11 11 1.582 0 3.084-.342 4.445-.946a26.948 26.948 0 0 0 5.864 3.143C-167.833 60.648-164.187 63-160 63s7.833-2.352 9.691-5.803a26.925 26.925 0 0 0 5.864-3.143c1.361.604 2.863.946 4.445.946 6.065 0 11-4.935 11-11 0-3.508-1.657-6.63-4.222-8.646.138-1.109.222-2.233.222-3.354s-.084-2.245-.222-3.354C-130.657 26.63-129 23.508-129 20zm-17.371-8.951a11.084 11.084 0 0 0-2.815 2.914A10.95 10.95 0 0 0-149 12c0-.896-.12-1.763-.323-2.598a25.008 25.008 0 0 1 2.952 1.647zM-160 3c4.962 0 9 4.037 9 9s-4.038 9-9 9-9-4.037-9-9 4.038-9 9-9zm-9 17c0-.671-.07-1.325-.186-1.964C-167.217 21.022-163.837 23-160 23s7.217-1.978 9.186-4.964A10.97 10.97 0 0 0-151 20c0 1.801.444 3.498 1.214 5h-20.429A10.916 10.916 0 0 0-169 20zm-1.677-10.599A10.973 10.973 0 0 0-171 12c0 .671.07 1.325.186 1.964a11.076 11.076 0 0 0-2.816-2.915 24.807 24.807 0 0 1 2.953-1.648zM-189 20c0-4.963 4.038-9 9-9s9 4.037 9 9-4.038 9-9 9-9-4.037-9-9zm16.175 15.68A10.944 10.944 0 0 0-180 33c-1.761 0-3.42.426-4.897 1.165-.062-.72-.103-1.443-.103-2.165s.041-1.445.103-2.165A10.908 10.908 0 0 0-180 31c2.742 0 5.247-1.015 7.175-2.68a38.625 38.625 0 0 0 0 7.36zM-180 53c-4.962 0-9-4.037-9-9s4.038-9 9-9 9 4.037 9 9-4.038 9-9 9zm6.37-.049a11.092 11.092 0 0 0 2.816-2.915A10.97 10.97 0 0 0-171 52c0 .897.12 1.764.323 2.599a25.091 25.091 0 0 1-2.953-1.648zM-160 61c-4.962 0-9-4.037-9-9s4.038-9 9-9 9 4.037 9 9-4.038 9-9 9zm9-17c0 .671.07 1.325.186 1.964C-152.783 42.978-156.163 41-160 41s-7.217 1.978-9.186 4.964A10.97 10.97 0 0 0-169 44c0-1.801-.444-3.498-1.214-5h20.429A10.916 10.916 0 0 0-151 44zm-19.654-7a36.153 36.153 0 0 1-.346-5c0-1.694.118-3.369.346-5h21.308c.228 1.631.346 3.306.346 5 0 1.695-.118 3.369-.346 5zm21.331 17.599c.203-.835.323-1.702.323-2.599 0-.671-.07-1.325-.186-1.964a11.076 11.076 0 0 0 2.816 2.915 24.948 24.948 0 0 1-2.953 1.648zM-131 44c0 4.963-4.038 9-9 9s-9-4.037-9-9 4.038-9 9-9 9 4.037 9 9zm-16.175-15.68A10.944 10.944 0 0 0-140 31c1.761 0 3.42-.426 4.897-1.165.062.72.103 1.443.103 2.165s-.041 1.445-.103 2.165A10.908 10.908 0 0 0-140 33a10.944 10.944 0 0 0-7.175 2.68 38.625 38.625 0 0 0 0-7.36zM-140 29c-4.962 0-9-4.037-9-9s4.038-9 9-9 9 4.037 9 9-4.038 9-9 9z" fill="#000000" opacity="1" data-original="#000000" class=""></path><path d="M-137 39.184V37h-2v2h-2v-2h-2v2h-2v2h2v6h-2v2h2v2h2v-2h2v2h2v-2.184A2.996 2.996 0 0 0-135 46a2.98 2.98 0 0 0-.78-2c.48-.532.78-1.229.78-2a2.996 2.996 0 0 0-2-2.816zM-138 47h-3v-2h3a1.001 1.001 0 0 1 0 2zm0-4h-3v-2h3a1.001 1.001 0 0 1 0 2zM-183 24.112c-.464.088-.918.23-1.342.441l-1.105.553.895 1.789 1.105-.553c.896-.447 2-.447 2.896 0a6.262 6.262 0 0 0 2.788.658h.763v-2h-.764a4.257 4.257 0 0 1-1.895-.447 5.148 5.148 0 0 0-1.341-.441V21h6v-2h-6.586l-.879-.879A1.83 1.83 0 0 1-181.171 15h.171c1.103 0 2 .897 2 2h2c0-2.206-1.794-4-4-4h-.171A3.834 3.834 0 0 0-185 16.828a3.8 3.8 0 0 0 .681 2.172H-187v2h4zM-178 38h-7v2h2v2h-2v2h2v2h-2v2h2v2h2v-2h2v-2h-2v-2h3c1.654 0 3-1.346 3-3s-1.346-3-3-3zm0 4h-3v-2h3a1.001 1.001 0 0 1 0 2z" fill="#000000" opacity="1" data-original="#000000" class=""></path></g></svg>