<svg id="Layer_1" height="32" viewBox="0 0 32 32" width="32" xmlns="http://www.w3.org/2000/svg" data-name="Layer 1"><path d="m16.58 19.1068-12.69-8.0757a3 3 0 0 1 3.2209-5.0611l9.31 5.9243 8.3591-5.8515a3 3 0 0 1 3.44 4.9151z" fill="#ea4435"/><path d="m25.5 5.5h4a0 0 0 0 1 0 0v18a3 3 0 0 1 -3 3 3 3 0 0 1 -3-3v-16a2 2 0 0 1 2-2z" fill="#00ac47" transform="matrix(-1 0 0 -1 53 32.001)"/><path d="m29.4562 8.0656c-.0088-.06-.0081-.1213-.0206-.1812-.0192-.0918-.0549-.1766-.0823-.2652a2.9312 2.9312 0 0 0 -.0958-.2993c-.02-.0475-.0508-.0892-.0735-.1354a2.9838 2.9838 0 0 0 -.2154-.3845c-.04-.0581-.09-.1076-.1342-.1626a3.0282 3.0282 0 0 0 -.2455-.2849c-.0665-.0647-.1423-.1188-.2146-.1771a3.02 3.02 0 0 0 -.24-.1857c-.0793-.0518-.1661-.0917-.25-.1359-.0884-.0461-.175-.0963-.267-.1331-.0889-.0358-.1837-.0586-.2766-.0859s-.1853-.06-.2807-.0777a3.0543 3.0543 0 0 0 -.357-.036c-.0759-.0053-.1511-.0186-.2273-.018a2.9778 2.9778 0 0 0 -.4219.0425c-.0563.0084-.113.0077-.1689.0193a33.211 33.211 0 0 0 -.5645.178c-.0515.022-.0966.0547-.1465.0795a2.901 2.901 0 0 0 -1.6739 2.6776v5.762l4.72-3.3043a2.8878 2.8878 0 0 0 1.2359-2.8923z" fill="#ffba00"/><path d="m5.5 5.5a3 3 0 0 1 3 3v18a0 0 0 0 1 0 0h-4a2 2 0 0 1 -2-2v-16a3 3 0 0 1 3-3z" fill="#4285f4"/><path d="m2.5439 8.0656c.0088-.06.0081-.1213.0206-.1812.0192-.0918.0549-.1766.0823-.2652a2.9312 2.9312 0 0 1 .0958-.2992c.02-.0475.0508-.0892.0736-.1354a2.9719 2.9719 0 0 1 .2154-.3846c.04-.0581.09-.1076.1342-.1626a3.0272 3.0272 0 0 1 .2454-.2849c.0665-.0647.1423-.1188.2147-.1771a3.0005 3.0005 0 0 1 .24-.1857c.0793-.0518.1661-.0917.25-.1359a2.9747 2.9747 0 0 1 .267-.1338c.089-.0358.1838-.0586.2766-.0859s.1853-.06.2807-.0777a3.0565 3.0565 0 0 1 .357-.036c.076-.0053.1511-.0186.2273-.018a2.9763 2.9763 0 0 1 .4219.0425c.0563.0084.113.0077.169.0193a2.9056 2.9056 0 0 1 .286.0888 2.9157 2.9157 0 0 1 .2785.0892c.0514.022.0965.0547.1465.0795a2.9745 2.9745 0 0 1 .3742.21 2.9943 2.9943 0 0 1 1.2994 2.4683v5.762l-4.72-3.3041a2.8891 2.8891 0 0 1 -1.2361-2.8923z" fill="#c52528"/></svg>