<svg xmlns="http://www.w3.org/2000/svg" version="1.1" xmlns:xlink="http://www.w3.org/1999/xlink" width="512" height="512" x="0" y="0" viewBox="0 0 512 512" style="enable-background:new 0 0 512 512" xml:space="preserve" class=""><g><path fill="#5cc640" d="M331.125 438h-150.25l14.5-56h121.25z" opacity="1" data-original="#8aa8bd" class=""></path><path fill="#ffffff" d="M350 482H162c-12.15 0-22-9.85-22-22s9.85-22 22-22h188c12.15 0 22 9.85 22 22s-9.85 22-22 22z" opacity="1" data-original="#e2e9ee" class=""></path><path fill="#ffffff" d="M462 382H50c-22.091 0-40-17.909-40-40V70c0-22.091 17.909-40 40-40h412c22.091 0 40 17.909 40 40v272c0 22.091-17.909 40-40 40z" opacity="1" data-original="#99ebfa" class=""></path><path fill="#ffffff" d="M502 310v32c0 22.091-17.909 40-40 40H50c-22.091 0-40-17.909-40-40v-32z" opacity="1" data-original="#e2e9ee" class=""></path><path fill="#f58c29" d="M17.872 407.714c-10.496-10.496-10.496-27.514 0-38.01l110.766-110.766 38.01 38.01L55.882 407.714c-10.496 10.497-27.514 10.497-38.01 0z" opacity="1" data-original="#ffcd69" class=""></path><circle cx="202.253" cy="223.334" r="110.666" fill="#ffffff" opacity="1" data-original="#ffffff" class=""></circle><ellipse cx="202.253" cy="223.334" fill="#ffffff" rx="69.768" ry="42.333" opacity="1" data-original="#ccf5fc" class=""></ellipse><circle cx="202.253" cy="223.334" r="26.334" fill="#59af17" opacity="1" data-original="#ff7b79" class=""></circle><path d="M462 20H301c-5.522 0-10 4.478-10 10s4.478 10 10 10h161c16.542 0 30 13.458 30 30v229.233H295.984c16.832-20.747 26.935-47.164 26.935-75.899 0-66.535-54.131-120.666-120.666-120.666S81.587 156.799 81.587 223.334c0 19.859 4.826 38.612 13.361 55.152L73.434 300H20V70c0-16.542 13.458-30 30-30h161c5.523 0 10-4.478 10-10s-4.477-10-10-10H50C22.43 20 0 42.43 0 70v272c0 8.895 2.414 17.652 6.873 25.277-10.294 14.396-8.99 34.589 3.928 47.509 6.966 6.965 16.226 10.801 26.076 10.801 9.851 0 19.111-3.836 26.077-10.801L85.74 392h96.716l-9.322 36H162c-17.645 0-32 14.355-32 32s14.355 32 32 32h188c17.645 0 32-14.355 32-32s-14.355-32-32-32h-11.134l-9.322-36H462c27.57 0 50-22.43 50-50V70c0-27.57-22.43-50-50-50zM202.253 122.668c55.508 0 100.666 45.158 100.666 100.666S257.761 324 202.253 324s-100.666-45.158-100.666-100.666 45.158-100.666 100.666-100.666zM53.434 320 21.63 351.804A29.952 29.952 0 0 1 20 342v-22zm-4.622 80.644c-6.578 6.581-17.286 6.581-23.868.001-6.58-6.581-6.58-17.289 0-23.869l80.927-80.927a121.666 121.666 0 0 0 23.868 23.868zM362 460c0 6.617-5.383 12-12 12H162c-6.617 0-12-5.383-12-12s5.383-12 12-12h188c6.617 0 12 5.383 12 12zm-43.794-32H193.794l9.321-36h105.77zM462 372H105.74l41.361-41.361c16.54 8.536 35.292 13.361 55.152 13.361 27.479 0 52.837-9.24 73.145-24.767H492V342c0 16.542-13.458 30-30 30z" fill="#000000" opacity="1" data-original="#000000" class=""></path><path d="M202.253 275.667c33.146 0 63.276-18.28 78.633-47.706a10 10 0 0 0 0-9.254c-15.356-29.426-45.486-47.706-78.633-47.706s-63.277 18.28-78.634 47.706a10 10 0 0 0 0 9.254c15.357 29.426 45.487 47.706 78.634 47.706zm0-68.667c9.007 0 16.334 7.327 16.334 16.334s-7.327 16.334-16.334 16.334-16.334-7.327-16.334-16.334S193.246 207 202.253 207zm58.259 16.334c-8.448 13.556-21.168 23.542-35.892 28.602 8.493-6.657 13.967-16.999 13.967-28.602s-5.474-21.945-13.967-28.602c14.724 5.06 27.444 15.046 35.892 28.602zm-80.626-28.602c-8.494 6.657-13.967 16.999-13.967 28.602 0 11.602 5.474 21.945 13.967 28.602-14.725-5.059-27.445-15.046-35.893-28.602 8.449-13.556 21.169-23.542 35.893-28.602zM347.396 143.157c0 5.523 4.477 10 10 10H458c5.522 0 10-4.477 10-10 0-5.522-4.478-10-10-10H357.396c-5.523 0-10 4.478-10 10zM458 105.157c5.522 0 10-4.478 10-10s-4.478-10-10-10h-57.891c-5.522 0-10 4.478-10 10s4.478 10 10 10zM356.55 85.16c-2.63 0-5.21 1.069-7.07 2.93a10.068 10.068 0 0 0-2.92 7.07c0 2.63 1.06 5.21 2.92 7.069a10.112 10.112 0 0 0 7.07 2.931c2.64 0 5.21-1.07 7.07-2.931a10.039 10.039 0 0 0 2.94-7.069c0-2.631-1.069-5.21-2.94-7.07a10.036 10.036 0 0 0-7.07-2.93zM465.069 198.23a10.074 10.074 0 0 0 2.931-7.069c0-2.631-1.07-5.21-2.931-7.07a10.072 10.072 0 0 0-7.069-2.93c-2.641 0-5.21 1.069-7.07 2.93a10.074 10.074 0 0 0-2.93 7.07c0 2.63 1.069 5.199 2.93 7.069 1.86 1.86 4.44 2.931 7.07 2.931s5.21-1.071 7.069-2.931zM407.7 201.16c2.63 0 5.21-1.07 7.069-2.931a10.074 10.074 0 0 0 2.931-7.069c0-2.631-1.07-5.21-2.931-7.07a10.072 10.072 0 0 0-7.069-2.93 10.033 10.033 0 0 0-7.07 2.93 10.058 10.058 0 0 0-2.93 7.07c0 2.63 1.069 5.21 2.93 7.069a10.035 10.035 0 0 0 7.07 2.931zM364.47 198.23a10.064 10.064 0 0 0 2.92-7.069c0-2.641-1.059-5.21-2.92-7.07a10.074 10.074 0 0 0-7.07-2.93c-2.64 0-5.22 1.069-7.08 2.93a10.053 10.053 0 0 0-2.92 7.07c0 2.63 1.061 5.21 2.92 7.069a10.1 10.1 0 0 0 7.08 2.931 10.083 10.083 0 0 0 7.07-2.931zM357.396 249.157H389.5c5.522 0 10-4.477 10-10 0-5.522-4.478-10-10-10h-32.104c-5.523 0-10 4.478-10 10 0 5.523 4.477 10 10 10zM423.5 239.157c0 5.523 4.478 10 10 10h32.94c5.522 0 10-4.477 10-10 0-5.522-4.478-10-10-10H433.5c-5.522 0-10 4.478-10 10zM256 40c2.63 0 5.21-1.07 7.069-2.931C264.93 35.21 266 32.63 266 30s-1.07-5.21-2.931-7.07C261.21 21.069 258.63 20 256 20s-5.21 1.069-7.07 2.93C247.07 24.79 246 27.37 246 30s1.069 5.21 2.93 7.069A10.072 10.072 0 0 0 256 40z" fill="#000000" opacity="1" data-original="#000000" class=""></path></g></svg>