<svg viewBox="0 0 512 512" xml:space="preserve" xmlns="http://www.w3.org/2000/svg" enable-background="new 0 0 512 512"><path d="M256 269.102c-41.982 0-76.138 33.987-76.138 75.765 0 41.772 34.156 75.757 76.138 75.757s76.139-33.984 76.139-75.757c0-41.778-34.157-75.765-76.139-75.765zm17.679 37.853v89.381h-17.957V331.57l-26.946 11.07v-22.644l44.903-26.608v13.567zM199.607 228.115c.058-.029.116-.054.173-.082.745-.355 1.493-.704 2.243-1.044.538-.245 1.08-.483 1.621-.721.24-.104.479-.21.719-.313a129.556 129.556 0 0 1 13.86-5.073c.075-.026.144-.066.222-.089.608-.182 1.224-.349 1.835-.521l.25-.071c.869-.245 1.74-.479 2.615-.706.294-.077.59-.151.885-.226.719-.181 1.438-.357 2.162-.526.483-.112.97-.22 1.455-.328.573-.127 1.145-.254 1.72-.374.69-.144 1.383-.276 2.078-.409.319-.062.637-.13.957-.188a.03.03 0 0 1 .01-.002c.066-.012.132-.021.199-.033a129.04 129.04 0 0 1 4.059-.669c.224-.034.449-.062.674-.094 1.159-.167 2.324-.317 3.494-.453.166-.02.331-.046.496-.064h.006l.18-.02c.021-.003.041.002.062-.001a132.44 132.44 0 0 1 3.539-.342l.186-.016a139.88 139.88 0 0 1 1.959-.142 134.487 134.487 0 0 1 4.519-.223c.396-.013.791-.027 1.187-.037a127.228 127.228 0 0 1 6.328.003c.447.011.891.034 1.336.049.648.023 1.299.042 1.945.073.539.027 1.072.066 1.607.1.555.034 1.11.063 1.663.104.569.043 1.136.098 1.704.148.517.045 1.035.085 1.551.137.574.058 1.145.126 1.717.191.51.058 1.02.111 1.528.175.555.069 1.104.149 1.656.226.526.072 1.054.141 1.579.22.512.077 1.021.165 1.531.248.566.093 1.133.181 1.697.281.446.079.891.167 1.335.25.537.101 1.075.195 1.611.303L263.904 190.5 170.191 46.955H49.123l127.479 195.261a129.906 129.906 0 0 1 23.005-14.101z" fill-rule="evenodd" clip-rule="evenodd" fill="#59af17" class="fill-000000"></path><path d="M289.945 229.52c-.795-.231-1.594-.456-2.395-.67-.422-.114-.842-.232-1.266-.341-1.162-.3-2.33-.581-3.5-.844-.398-.091-.799-.175-1.199-.261-.963-.207-1.927-.403-2.895-.586-.327-.062-.653-.128-.982-.188a122.212 122.212 0 0 0-3.768-.622c-.297-.044-.596-.082-.894-.125a120.522 120.522 0 0 0-3.179-.406c-.314-.036-.629-.074-.945-.108a123.953 123.953 0 0 0-3.902-.354c-.209-.016-.421-.026-.631-.041a122.452 122.452 0 0 0-4.426-.223 124.574 124.574 0 0 0-3.965-.071c-.959 0-1.916.014-2.869.037-.408.009-.815.026-1.223.04-.522.018-1.043.035-1.563.059a149.465 149.465 0 0 0-2.684.157c-.667.045-1.334.096-2 .153l-.501.044a123.054 123.054 0 0 0-5.477.62 121.484 121.484 0 0 0-31.835 8.869c-.244.106-.489.211-.731.318a126.978 126.978 0 0 0-3.011 1.378c-.211.101-.423.2-.634.302-40.352 19.479-68.241 60.663-68.241 108.209 0 66.267 54.178 120.18 120.77 120.18 66.594 0 120.771-53.913 120.771-120.18.001-54.547-36.706-100.714-86.825-115.346zM256 429.994c-47.149 0-85.509-38.188-85.509-85.128 0-46.944 38.36-85.135 85.509-85.135 47.15 0 85.51 38.19 85.51 85.135 0 46.94-38.36 85.128-85.51 85.128zM295.204 221.301a129.118 129.118 0 0 1 40.195 20.913L462.877 46.955H341.808l-80.212 122.863 18.028 27.618 15.58 23.865z" fill-rule="evenodd" clip-rule="evenodd" fill="#59af17" class="fill-000000"></path></svg>