<svg xmlns="http://www.w3.org/2000/svg" version="1.1" xmlns:xlink="http://www.w3.org/1999/xlink" width="512" height="512" x="0" y="0" viewBox="0 0 64 64" style="enable-background:new 0 0 512 512" xml:space="preserve"><g><path d="M32 27c-2.757 0-5 2.243-5 5s2.243 5 5 5 5-2.243 5-5-2.243-5-5-5zm0 8c-1.654 0-3-1.346-3-3s1.346-3 3-3 3 1.346 3 3-1.346 3-3 3z" fill="#f58c29" opacity="1" data-original="#000000"></path><path d="M32 23c-4.962 0-9 4.038-9 9s4.038 9 9 9 9-4.038 9-9-4.038-9-9-9zm0 16c-3.86 0-7-3.14-7-7s3.14-7 7-7 7 3.14 7 7-3.14 7-7 7z" fill="#f58c29" opacity="1" data-original="#000000"></path><path d="M54.607 36.181C54.863 34.796 55 33.394 55 32s-.137-2.796-.393-4.181C59.542 25.653 63 20.726 63 15c0-7.72-6.28-14-14-14-5.726 0-10.653 3.458-12.82 8.393a23.036 23.036 0 0 0-8.361 0C25.653 4.458 20.726 1 15 1 7.28 1 1 7.28 1 15c0 5.726 3.458 10.653 8.393 12.82C9.137 29.204 9 30.606 9 32s.137 2.796.393 4.18C4.458 38.347 1 43.274 1 49c0 7.72 6.28 14 14 14 5.726 0 10.653-3.458 12.82-8.393 1.384.256 2.786.393 4.18.393s2.796-.137 4.18-.393C38.347 59.542 43.274 63 49 63c7.72 0 14-6.28 14-14 0-5.726-3.458-10.653-8.393-12.819zM53 32c0 1.17-.102 2.347-.3 3.512A13.941 13.941 0 0 0 49 35c-.097 0-.191.013-.288.015.187-1.014.288-2.024.288-3.015s-.101-2.001-.288-3.015c.097.002.191.015.288.015 1.283 0 2.52-.188 3.7-.512.198 1.165.3 2.342.3 3.512zM35.216 46.629a14.49 14.49 0 0 1-6.433 0A14.015 14.015 0 0 0 17.37 35.216C17.129 34.132 17 33.052 17 32s.129-2.132.371-3.216a14.015 14.015 0 0 0 11.413-11.413 14.49 14.49 0 0 1 6.433 0A14.015 14.015 0 0 0 46.63 28.784c.241 1.084.37 2.164.37 3.216s-.129 2.132-.371 3.216a14.015 14.015 0 0 0-11.413 11.413zM10 16c-.551 0-1-.449-1-1s.449-1 1-1zm0-4c-.328 0-.639.066-.935.164C9.474 9.251 11.976 7 15 7s5.526 2.251 5.935 5.164A2.962 2.962 0 0 0 20 12H17.414a2.432 2.432 0 0 1-1.707-.707L15 10.586l-.707.707a2.432 2.432 0 0 1-1.707.707h-1.309zm10 2c.551 0 1 .449 1 1s-.449 1-1 1zm-8 2v-2h.586c.871 0 1.703-.25 2.414-.717a4.378 4.378 0 0 0 2.414.717H18v2c0 1.654-1.346 3-3 3s-3-1.346-3-3zm1.461 4.732c.488.16.999.268 1.539.268s1.051-.108 1.539-.268a4 4 0 0 0 2.362 1.851l1.923.549a3.014 3.014 0 0 1 1.671 1.224C20.44 26.006 17.835 27 15 27s-5.44-.994-7.495-2.644a3.014 3.014 0 0 1 1.671-1.224l1.923-.549a3.999 3.999 0 0 0 2.362-1.851zM46 16v-2h.586c.871 0 1.703-.25 2.414-.717a4.378 4.378 0 0 0 2.414.717H52v2c0 1.654-1.346 3-3 3s-3-1.346-3-3zm6.309 3.783c-.009-.014-.021-.026-.029-.04C53.325 18.826 54 17.497 54 16v-4h-2.586a2.432 2.432 0 0 1-1.707-.707L49 10.586l-.707.707a2.432 2.432 0 0 1-1.707.707H44v4c0 1.496.674 2.825 1.719 3.743-.008.014-.021.026-.03.04-1.456-.626-2.73-1.647-3.612-2.969l-.021-.032.854-4.699C43.446 9.137 46.007 7 49 7s5.554 2.137 6.089 5.082l.854 4.699-.022.033c-.881 1.323-2.155 2.343-3.612 2.969zm-7.21 2.8a3.996 3.996 0 0 0 2.362-1.851c.488.16.999.268 1.539.268s1.051-.108 1.538-.267c.508.885 1.333 1.556 2.298 1.83l1.181.426a2.97 2.97 0 0 1 1.804 1.872C53.882 26.206 51.533 27 49 27s-4.882-.794-6.821-2.14a2.968 2.968 0 0 1 1.804-1.872zM49 3c6.617 0 12 5.383 12 12 0 3.33-1.366 6.346-3.564 8.522a4.976 4.976 0 0 0-2.74-2.416l-.327-.117a10.255 10.255 0 0 0 3.217-3.065l.471-.705-.999-5.494C56.349 7.828 52.96 5 49 5s-7.349 2.828-8.057 6.725l-.999 5.494.47.705a10.255 10.255 0 0 0 3.216 3.066l-.326.118a4.975 4.975 0 0 0-2.741 2.416A11.973 11.973 0 0 1 37 15c0-6.617 5.383-12 12-12zm-13.488 8.3A13.953 13.953 0 0 0 35 15c0 .097.013.191.015.288a16.425 16.425 0 0 0-6.029 0c.001-.097.014-.191.014-.288 0-1.282-.188-2.519-.512-3.7a21.018 21.018 0 0 1 7.024 0zM3 15C3 8.383 8.383 3 15 3s12 5.383 12 12c0 3.059-1.16 5.845-3.051 7.967a5.007 5.007 0 0 0-2.575-1.757l-1.924-.55a1.99 1.99 0 0 1-1.17-.917A5.008 5.008 0 0 0 19.576 18H20c1.654 0 3-1.346 3-3v-2c0-4.411-3.589-8-8-8s-8 3.589-8 8v2c0 1.654 1.346 3 3 3h.424a5.008 5.008 0 0 0 1.296 1.743 1.99 1.99 0 0 1-1.17.917l-1.924.549a5.007 5.007 0 0 0-2.575 1.757A11.933 11.933 0 0 1 3 15zm8 17c0-1.17.102-2.347.3-3.512 1.18.324 2.417.512 3.7.512.097 0 .191-.013.288-.015C15.101 29.999 15 31.009 15 32s.101 2.001.288 3.015C15.191 35.013 15.097 35 15 35c-1.283 0-2.52.188-3.7.512A20.984 20.984 0 0 1 11 32zM8.179 58.86a2.968 2.968 0 0 1 1.804-1.872l1.116-.405a3.996 3.996 0 0 0 2.362-1.851c.488.16.999.268 1.539.268s1.051-.108 1.538-.267c.508.885 1.333 1.556 2.298 1.83l1.181.426a2.97 2.97 0 0 1 1.804 1.872C19.882 60.206 17.533 61 15 61s-4.882-.794-6.821-2.14zM12 50v-2h.586c.871 0 1.703-.25 2.414-.717a4.378 4.378 0 0 0 2.414.717H18v2c0 1.654-1.346 3-3 3s-3-1.346-3-3zm6.309 3.783c-.009-.014-.021-.026-.029-.04C19.325 52.826 20 51.497 20 50v-4h-2.586a2.432 2.432 0 0 1-1.707-.707L15 44.586l-.707.707a2.432 2.432 0 0 1-1.707.707H10v4c0 1.496.674 2.825 1.719 3.743-.008.014-.021.026-.03.04-1.456-.626-2.73-1.647-3.612-2.969l-.021-.032.854-4.699C9.446 43.137 12.007 41 15 41s5.554 2.137 6.089 5.082l.854 4.699-.022.033c-.881 1.323-2.155 2.343-3.612 2.969zm5.127 3.739a4.976 4.976 0 0 0-2.74-2.416l-.327-.117a10.255 10.255 0 0 0 3.217-3.065l.471-.705-.999-5.494C22.349 41.828 18.96 39 15 39s-7.349 2.828-8.057 6.725l-.999 5.494.47.705A10.255 10.255 0 0 0 9.63 54.99l-.326.118a4.975 4.975 0 0 0-2.741 2.416A11.973 11.973 0 0 1 3 49c0-6.617 5.383-12 12-12s12 5.383 12 12c0 3.33-1.366 6.346-3.564 8.522zm5.052-4.822c.324-1.181.512-2.418.512-3.7 0-.097-.013-.191-.015-.288 1.014.187 2.024.288 3.015.288s2.001-.101 3.015-.288c-.002.097-.015.191-.015.288 0 1.282.188 2.519.512 3.7a21.018 21.018 0 0 1-7.024 0zm13.017 5.656a3.014 3.014 0 0 1 1.671-1.224l1.923-.549a3.996 3.996 0 0 0 2.362-1.851c.488.16.999.268 1.539.268s1.051-.108 1.539-.268a4 4 0 0 0 2.362 1.851l1.923.549a3.014 3.014 0 0 1 1.671 1.224C54.44 60.006 51.835 61 49 61s-5.44-.994-7.495-2.644zM44 50c-.551 0-1-.449-1-1s.449-1 1-1zm0-4c-.328 0-.639.066-.935.164C43.474 43.251 45.976 41 49 41s5.526 2.251 5.935 5.164A2.962 2.962 0 0 0 54 46H51.414a2.432 2.432 0 0 1-1.707-.707L49 44.586l-.707.707a2.432 2.432 0 0 1-1.707.707h-1.309zm10 2c.551 0 1 .449 1 1s-.449 1-1 1zm-8 2v-2h.586c.871 0 1.703-.25 2.414-.717a4.378 4.378 0 0 0 2.414.717H52v2c0 1.654-1.346 3-3 3s-3-1.346-3-3zm11.949 6.967a5.007 5.007 0 0 0-2.575-1.757l-1.924-.55a1.99 1.99 0 0 1-1.17-.917A5.008 5.008 0 0 0 53.576 52H54c1.654 0 3-1.346 3-3v-2c0-4.411-3.589-8-8-8s-8 3.589-8 8v2c0 1.654 1.346 3 3 3h.424a5.008 5.008 0 0 0 1.296 1.743 1.99 1.99 0 0 1-1.17.917l-1.924.549a5.007 5.007 0 0 0-2.575 1.757A11.933 11.933 0 0 1 37 49c0-6.617 5.383-12 12-12s12 5.383 12 12c0 3.059-1.16 5.845-3.051 7.967z" fill="#f58c29" opacity="1" data-original="#000000"></path></g></svg>