<svg id="Capa_1" enable-background="new 0 0 512 512" height="512" viewBox="0 0 512 512" width="512" xmlns="http://www.w3.org/2000/svg"><path d="m512 256c0 62.955-22.727 120.602-60.416 165.188l-.01.01c-22.34 26.425-49.946 48.264-81.189 63.895-34.429 17.221-73.268 26.907-114.385 26.907-141.385 0-256-114.615-256-256s114.615-256 256-256 256 114.615 256 256z" fill="#3c3c3c"/><circle cx="143.151" cy="161.196" fill="#3e82f7" r="136.526"/><circle cx="370.939" cy="233.294" fill="#ed412d" r="68.441"/><circle cx="472.294" cy="152.837" fill="#2da94f" r="34.482"/><path d="m453.486 403.613c0 6.029-.658 11.912-1.902 17.575l-.01.01c-22.34 26.425-49.946 48.264-81.189 63.895-44.283-.846-79.903-37-79.903-81.481 0-45.014 36.488-81.502 81.502-81.502s81.502 36.489 81.502 81.503z" fill="#fdbd00"/></svg>