<svg xmlns="http://www.w3.org/2000/svg" version="1.1" xmlns:xlink="http://www.w3.org/1999/xlink" width="512" height="512" x="0" y="0" viewBox="0 0 1000 1000" style="enable-background:new 0 0 512 512" xml:space="preserve"><g><path d="M547.62 907.5H121.16a7.5 7.5 0 0 1-7.5-7.5V710.58a88 88 0 0 1 87.87-87.86h104.29a7.5 7.5 0 0 1 6.5 3.74l22.07 38.14 22.07-38.14a7.51 7.51 0 0 1 6.5-3.74h104.29a88 88 0 0 1 87.87 87.86V900a7.5 7.5 0 0 1-7.5 7.5zm-419-15h411.5V710.58a72.94 72.94 0 0 0-72.87-72.86h-100L341 683.12a7.53 7.53 0 0 1-6.61 4h-.11a7.48 7.48 0 0 1-6.53-4l-26.25-45.4h-100a72.94 72.94 0 0 0-72.87 72.86z" fill="#f58c29" opacity="1" data-original="#000000"></path><path d="M363.35 741.16a7.51 7.51 0 0 1-6.62-4l-22.34-41.76-22.33 41.8a7.51 7.51 0 0 1-9.34 3.45l-42.44-16.53a7.49 7.49 0 0 1-4-10.31l42.06-85.34v-41.36a7.5 7.5 0 0 1 15 0v43.1a7.63 7.63 0 0 1-.77 3.32l-39.22 79.58L302 724.26 327.78 676a7.5 7.5 0 0 1 13.22 0l25.81 48.26 28.62-11.15-39.22-79.58a7.49 7.49 0 0 1-.77-3.32v-43.1a7.5 7.5 0 0 1 15 0v41.36l42.05 85.34a7.49 7.49 0 0 1-4 10.31l-42.43 16.53a7.41 7.41 0 0 1-2.71.51z" fill="#f58c29" opacity="1" data-original="#000000"></path><path d="M348.23 760.68h-27.68a7.5 7.5 0 0 1-7.27-5.64L305 722.73a7.5 7.5 0 0 1 14.55-3.73l6.82 26.67h16l6.79-26.51a7.5 7.5 0 0 1 14.8 1.69 7.85 7.85 0 0 1-.23 1.87L355.5 755a7.5 7.5 0 0 1-7.27 5.68z" fill="#f58c29" opacity="1" data-original="#000000"></path><path d="M383 907.5h-97.24a7.51 7.51 0 0 1-7.3-9.23l34.79-146.82a7.5 7.5 0 0 1 14.6 3.46L295.24 892.5h78.3l-32.61-137.59a7.5 7.5 0 1 1 14.6-3.46l34.79 146.82a7.51 7.51 0 0 1-7.3 9.23zM334.39 598.55a112.33 112.33 0 0 1-112.2-112.2v-63.42a7.5 7.5 0 0 1 5.72-7.29 201.3 201.3 0 0 1 72.17-4.56c14.24 1.73 24.13 4.54 33.7 7.25 9 2.54 17.42 4.94 29.09 6.31 23.48 2.76 48.31-.21 73.83-8.82a7.5 7.5 0 0 1 9.89 7.11v63.42a112.33 112.33 0 0 1-112.2 112.2zm-97.2-169.64v57.44a97.2 97.2 0 0 0 194.4 0v-53.23c-24.19 6.92-47.85 9.08-70.47 6.42-12.86-1.51-22.3-4.19-31.43-6.77s-18.34-5.21-31.42-6.8a185.17 185.17 0 0 0-61.08 2.94z" fill="#f58c29" opacity="1" data-original="#000000"></path><path d="M229.69 484.57h-13.81a23.57 23.57 0 0 1 0-47.13h13.81a7.5 7.5 0 0 1 0 15h-13.81a8.57 8.57 0 0 0 0 17.13h13.81a7.5 7.5 0 0 1 0 15zM452.9 484.57h-13.81a7.5 7.5 0 0 1 0-15h13.81a8.57 8.57 0 0 0 0-17.13h-13.81a7.5 7.5 0 0 1 0-15h13.81a23.57 23.57 0 0 1 0 47.13z" fill="#f58c29" opacity="1" data-original="#000000"></path><path d="M461.62 455a7.5 7.5 0 0 1-7.5-7.5v-1.64a119.73 119.73 0 0 0-239.46 0v1.64a7.5 7.5 0 0 1-15 0v-1.64c0-74.29 60.44-134.73 134.73-134.73s134.73 60.47 134.73 134.76v1.64a7.5 7.5 0 0 1-7.5 7.47zM187.63 907.5a7.5 7.5 0 0 1-7.5-7.5v-60.92a7.5 7.5 0 0 1 15 0V900a7.5 7.5 0 0 1-7.5 7.5zM481.15 907.5a7.5 7.5 0 0 1-7.5-7.5v-60.92a7.5 7.5 0 0 1 15 0V900a7.5 7.5 0 0 1-7.5 7.5z" fill="#f58c29" opacity="1" data-original="#000000"></path><path d="M878.84 532.39H431.76a7.5 7.5 0 0 1 0-15h439.58V107.5H255.89v244.62a7.5 7.5 0 0 1-15 0V100a7.5 7.5 0 0 1 7.5-7.5h630.45a7.5 7.5 0 0 1 7.5 7.5v424.89a7.5 7.5 0 0 1-7.5 7.5z" fill="#f58c29" opacity="1" data-original="#000000"></path><path d="M585.9 532.39a7.5 7.5 0 0 1-7.5-7.5V399.27h-47v125.62a7.5 7.5 0 0 1-15 0V391.77a7.5 7.5 0 0 1 7.5-7.5h62a7.5 7.5 0 0 1 7.5 7.5v133.12a7.5 7.5 0 0 1-7.5 7.5zM698.61 532.39a7.5 7.5 0 0 1-7.5-7.5V344.14h-47.05v180.75a7.5 7.5 0 0 1-15 0V336.64a7.5 7.5 0 0 1 7.5-7.5h62.05a7.5 7.5 0 0 1 7.5 7.5v188.25a7.5 7.5 0 0 1-7.5 7.5zM811.31 532.39a7.5 7.5 0 0 1-7.5-7.5V271.54h-47v253.35a7.5 7.5 0 0 1-15 0V264a7.5 7.5 0 0 1 7.5-7.5h62a7.5 7.5 0 0 1 7.5 7.5v260.89a7.5 7.5 0 0 1-7.5 7.5z" fill="#f58c29" opacity="1" data-original="#000000"></path></g></svg>