<svg xmlns="http://www.w3.org/2000/svg" version="1.1" xmlns:xlink="http://www.w3.org/1999/xlink" width="512" height="512" x="0" y="0" viewBox="0 0 64 64" style="enable-background:new 0 0 512 512" xml:space="preserve" class=""><g><path fill="#ffffff" d="M53 17v24H3V17a4 4 0 0 1 4-4h42a4 4 0 0 1 4 4z" opacity="1" data-original="#5aaae7" class=""></path><path fill="#c6c5ca" d="M53 41v4a4 4 0 0 1-4 4H7a4 4 0 0 1-4-4v-4z" opacity="1" data-original="#c6c5ca"></path><path fill="#5cc640" d="M53 17v12.53c-.17.05-.35.1-.53.15L52 33h-4l-.47-3.32a9.8 9.8 0 0 1-2.62-1.09l-2.69 2.02-2.83-2.83 2.02-2.69a9.8 9.8 0 0 1-1.09-2.62L37 22v-4l3.32-.47A9.427 9.427 0 0 1 41.36 15a.405.405 0 0 1 .05-.09L39.98 13H49a4 4 0 0 1 4 4z" opacity="1" data-original="#3d9ae2" class=""></path><path fill="#f58c29" d="M57.68 20.47a9.8 9.8 0 0 1-1.09 2.62l2.02 2.69-2.83 2.83-2.69-2.02a.405.405 0 0 1-.09.05 9.427 9.427 0 0 1-2.53 1.04L50 31h-4l-.47-3.32a9.8 9.8 0 0 1-2.62-1.09l-2.69 2.02-2.83-2.83 2.02-2.69a9.8 9.8 0 0 1-1.09-2.62L35 20v-4l3.32-.47A9.427 9.427 0 0 1 39.36 13a.405.405 0 0 1 .05-.09l-2.02-2.69 2.83-2.83 2.69 2.02a9.8 9.8 0 0 1 2.62-1.09L46 5h4l.47 3.32a9.8 9.8 0 0 1 2.62 1.09l2.69-2.02 2.83 2.83-2.02 2.69a9.8 9.8 0 0 1 1.09 2.62L61 16v4z" opacity="1" data-original="#ff9811" class=""></path><circle cx="48" cy="18" r="5" fill="#ffffff" opacity="1" data-original="#ffd422" class=""></circle><path fill="#898890" d="M39.41 57.59A1.955 1.955 0 0 1 40 59a2.006 2.006 0 0 1-2 2H18a2.015 2.015 0 0 1-2-2 2.006 2.006 0 0 1 2-2h20a1.955 1.955 0 0 1 1.41.59z" opacity="1" data-original="#898890"></path><path fill="#acabb1" d="M36 57H20l1-8h14z" opacity="1" data-original="#acabb1"></path><path fill="#5cc640" d="M33 38.9V41H9v-2.1a6 6 0 0 1 3.56-5.48l2.74-1.22L18 31v-2.68A6.946 6.946 0 0 1 14.08 23H13a2 2 0 0 1 0-4h1v-2a2.015 2.015 0 0 1-2-2 2.006 2.006 0 0 1 2-2h14a2.015 2.015 0 0 1 2 2 2.006 2.006 0 0 1-2 2v2h1a2 2 0 0 1 0 4h-1.08A6.952 6.952 0 0 1 24 28.32V31l2.7 1.2 2.74 1.22A6 6 0 0 1 33 38.9z" opacity="1" data-original="#3d9ae2" class=""></path><path fill="#5cc640" d="M31 36.9V41h-9l-1.82-8.18L21 32l3 1 .7-2.8 2.74 1.22A6 6 0 0 1 31 36.9z" opacity="1" data-original="#1e81ce" class=""></path><path fill="#f58c29" d="M27.41 11.59A1.955 1.955 0 0 1 28 13a2.006 2.006 0 0 1-2 2H12a2.015 2.015 0 0 1-2-2 2.006 2.006 0 0 1 2-2h14a1.955 1.955 0 0 1 1.41.59z" opacity="1" data-original="#f7910c" class=""></path><path fill="#f58c29" d="M26 11h-5V5.09A5.984 5.984 0 0 1 25.91 10a5.47 5.47 0 0 1 .09 1z" opacity="1" data-original="#ff9811" class=""></path><path fill="#5cc640" d="M24.7 30.2 24 33l-3-1-1-2 2-1z" opacity="1" data-original="#1a6fb0" class=""></path><path fill="#ffffff" d="M20.18 32.82 22 41h-6l1.82-8.18L19 34z" opacity="1" data-original="#ed1c24" class=""></path><path fill="#f58c29" d="M21 5.09V11h-4V4a1 1 0 0 1 1-1h2a1 1 0 0 1 1 1z" opacity="1" data-original="#ffa733" class=""></path><path fill="#ffffff" d="m20 30 1 2-.82.82L19 34l-1.18-1.18L17 32l1-2z" opacity="1" data-original="#ed1c24" class=""></path><path fill="#5cc640" d="m18 30-1 2-3 1-.7-2.8L16 29z" opacity="1" data-original="#1a6fb0" class=""></path><path fill="#5cc640" d="M17.82 32.82 16 41H7v-4.1a6 6 0 0 1 3.56-5.48l2.74-1.22.7 2.8 3-1z" opacity="1" data-original="#1e81ce" class=""></path><path fill="#f58c29" d="M17 5.09V11h-5a5.47 5.47 0 0 1 .09-1A5.992 5.992 0 0 1 17 5.09z" opacity="1" data-original="#ff9811" class=""></path><path fill="#ffffff" d="M22 26v3l-2 1h-2l-2-1v-3z" opacity="1" data-original="#ffc477" class=""></path><g fill="#ffb655"><path d="M13 17v4h-2a2 2 0 0 1 0-4zM29 19a2.006 2.006 0 0 1-2 2h-2v-4h2a2.006 2.006 0 0 1 2 2zM22 26v2.32a6.958 6.958 0 0 1-6 0V26z" fill="#ffffff" opacity="1" data-original="#ffb655" class=""></path></g><path fill="#ffffff" d="M26 17v3a5.474 5.474 0 0 1-.08 1A6.952 6.952 0 0 1 22 26.32 6.982 6.982 0 0 1 12.08 21a5.474 5.474 0 0 1-.08-1v-5h14z" opacity="1" data-original="#ffc477" class=""></path><path fill="#ffffff" d="M12 15h14v2H12z" opacity="1" data-original="#ffb655" class=""></path><path fill="#898890" d="M35.25 51h-14.5l.25-2h14z" opacity="1" data-original="#898890"></path><path d="M31 12h5v2h-5z" fill="#000000" opacity="1" data-original="#000000" class=""></path><path d="M52 30v10H32v-3.1a7 7 0 0 0-4.15-6.39L23 28.35v-1.43A8.06 8.06 0 0 0 26.74 22H27a3 3 0 0 0 0-6v-.18a2.983 2.983 0 0 0-.05-5.65 6.934 6.934 0 0 0-2-4.11A6.756 6.756 0 0 0 22 4.31V4a2.006 2.006 0 0 0-2-2h-2a2.006 2.006 0 0 0-2 2v.3a6.96 6.96 0 0 0-4.95 5.87 2.983 2.983 0 0 0-.05 5.65V16a3 3 0 0 0 0 6h.26A8.06 8.06 0 0 0 15 26.92v1.43l-4.85 2.16A7 7 0 0 0 6 36.9V40H4V17a3.009 3.009 0 0 1 3-3v-2a5 5 0 0 0-5 5v28a5 5 0 0 0 5 5h12.87l-.75 6H18a3 3 0 0 0 0 6h20a3 3 0 0 0 0-6h-1.12l-.75-6H49a5 5 0 0 0 5-5V30zM11 20a1 1 0 0 1 0-2zm13 14a1 1 0 0 0 .48-.12 1.017 1.017 0 0 0 .49-.64l.41-1.64 1.65.73A5 5 0 0 1 30 36.9V40h-7.2l-1.52-6.85 2.4.8A1.185 1.185 0 0 0 24 34zm-.47-3.23-.24.94-1.58-.53-.37-.73.69-.34zM28 19a1 1 0 0 1-1 1v-2a1 1 0 0 1 1 1zM22 6.43a5.106 5.106 0 0 1 1.54 1.04A4.913 4.913 0 0 1 24.9 10H22zM18 4h2v6h-2zm-2 2.43V10h-2.9A4.961 4.961 0 0 1 16 6.43zM11 13a1 1 0 0 1 1-1h14a1 1 0 0 1 0 2H12a1 1 0 0 1-1-1zm2 7v-4h12v4a6 6 0 0 1-12 0zm5.41 14.78a.9.9 0 0 0 1.18 0L20.75 40h-3.5zm-.19-2.98.4-.8h.76l.4.8-.78.79zm1.54-2.8h-1.52L17 28.38v-.64a7.822 7.822 0 0 0 4 0v.64zm-3.79 1.11.69.34-.37.73-1.58.53-.24-.94zM8 36.9a5 5 0 0 1 2.97-4.57l1.65-.73.41 1.64a1.017 1.017 0 0 0 .49.64A1 1 0 0 0 14 34a1.185 1.185 0 0 0 .32-.05l2.4-.8L15.2 40H8zM38 58a1 1 0 0 1 0 2H18a1 1 0 0 1 0-2zm-16.87-2 .75-6h12.24l.75 6zM52 45a3.009 3.009 0 0 1-3 3H7a3.009 3.009 0 0 1-3-3v-3h48z" fill="#000000" opacity="1" data-original="#000000" class=""></path><path d="M46 44h2v2h-2zM15 18h2v2h-2zM21 18h2v2h-2zM61.142 15.01l-2.682-.383a10.86 10.86 0 0 0-.679-1.639l1.625-2.166a1 1 0 0 0-.093-1.307l-2.828-2.828a1 1 0 0 0-1.306-.093l-2.167 1.624a10.9 10.9 0 0 0-1.639-.678l-.383-2.682A1 1 0 0 0 50 4h-4a1 1 0 0 0-.99.858l-.383 2.682a10.855 10.855 0 0 0-1.639.678l-2.167-1.624a1 1 0 0 0-1.306.093l-2.828 2.828a1 1 0 0 0-.093 1.307l1.625 2.166a10.86 10.86 0 0 0-.679 1.639l-2.682.383A1 1 0 0 0 34 16v4a1 1 0 0 0 .858.99l2.682.383a10.86 10.86 0 0 0 .679 1.639l-1.625 2.166a1 1 0 0 0 .093 1.307l2.828 2.828a1 1 0 0 0 1.306.093l2.167-1.624a10.855 10.855 0 0 0 1.639.678l.383 2.682A1 1 0 0 0 46 32h4a1 1 0 0 0 .99-.858l.383-2.682a10.9 10.9 0 0 0 1.639-.678l2.167 1.624a1 1 0 0 0 1.306-.093l2.828-2.828a1 1 0 0 0 .093-1.307l-1.625-2.166a10.86 10.86 0 0 0 .679-1.639l2.682-.383A1 1 0 0 0 62 20v-4a1 1 0 0 0-.858-.99zM60 19.133l-2.463.352a1 1 0 0 0-.827.742 8.923 8.923 0 0 1-.977 2.357 1 1 0 0 0 .061 1.111l1.492 1.99-1.6 1.6-1.991-1.492a1 1 0 0 0-1.11-.06 8.859 8.859 0 0 1-2.356.975 1 1 0 0 0-.744.828L49.133 30h-2.266l-.351-2.463a1 1 0 0 0-.744-.828 8.859 8.859 0 0 1-2.356-.975 1 1 0 0 0-1.11.06l-1.991 1.492-1.6-1.6 1.492-1.99a1 1 0 0 0 .061-1.111 8.923 8.923 0 0 1-.977-2.357 1 1 0 0 0-.827-.742L36 19.133v-2.266l2.463-.352a1 1 0 0 0 .827-.742 8.923 8.923 0 0 1 .977-2.357 1 1 0 0 0-.061-1.111l-1.492-1.99 1.6-1.6 1.991 1.492a1 1 0 0 0 1.11.06 8.859 8.859 0 0 1 2.356-.975 1 1 0 0 0 .744-.828L46.867 6h2.266l.351 2.463a1 1 0 0 0 .744.828 8.859 8.859 0 0 1 2.356.975 1 1 0 0 0 1.11-.06l1.991-1.492 1.6 1.6-1.492 1.99a1 1 0 0 0-.061 1.111 8.923 8.923 0 0 1 .977 2.357 1 1 0 0 0 .827.742l2.464.353z" fill="#000000" opacity="1" data-original="#000000" class=""></path><path d="M48 12a6 6 0 1 0 6 6 6.006 6.006 0 0 0-6-6zm0 10a4 4 0 1 1 4-4 4 4 0 0 1-4 4zM36 32h8v2h-8zM36 36h8v2h-8z" fill="#000000" opacity="1" data-original="#000000" class=""></path></g></svg>