<svg xmlns="http://www.w3.org/2000/svg" version="1.1" xmlns:xlink="http://www.w3.org/1999/xlink" width="512" height="512" x="0" y="0" viewBox="0 0 512 512" style="enable-background:new 0 0 512 512" xml:space="preserve" class=""><g><path fill="#5cc640" d="M269.729 444.868 60.763 324.369 242.484 10.003 451.45 130.502z" opacity="1" data-original="#ffc144" class=""></path><path fill="#ff6600" d="m106.09 413.936 94.025-350.685 251.445 67.416-94.024 350.685z" opacity="1" data-original="#99ebfa" class=""></path><path fill="#ffffff" d="M171.898 130.502h280.341V502H171.898z" opacity="1" data-original="#ffffff" class=""></path><path d="M210.094 452c-4.03 0-8.41 5.03-8.41 10 0 5.52 4.485 10 10.012 10h30.037a10.012 10.012 0 0 0 10.012-10c0-5.52-4.485-10-10.012-10z" fill="#000000" opacity="1" data-original="#000000"></path><ellipse cx="311.317" cy="502" rx="10.012" ry="10" fill="#000000" opacity="1" data-original="#000000"></ellipse><path d="M458.817 123.432c-1.282-1.28-2.779-2.18-4.521-2.62L247.177 1.343c-2.303-1.33-5.005-1.69-7.568-1s-4.73 2.36-6.062 4.66l-28.477 49.28-2.73-.73a9.991 9.991 0 0 0-7.597 1 9.987 9.987 0 0 0-4.665 6.07l-9.811 36.57L51.842 319.371c-2.763 4.78-1.121 10.9 3.665 13.66l53.255 30.71-12.745 47.51c-1.432 5.33 1.492 10.82 6.828 12.25l58.291 15.67V502c0 2.63 1.322 5.21 3.184 7.07s4.696 2.93 7.329 2.93h94.615c5.517 0 10.012-4.49 10.012-10s-4.495-10-10.012-10h-85.103V141h260.316v351h-85.103c-5.517 0-10.012 4.49-10.012 10s4.495 10 10.012 10h95.616c2.633 0 4.966-1.07 6.828-2.93s2.683-4.44 2.683-7.07V130.502c-.001-2.63-.822-5.209-2.684-7.07zM74.189 320.711l86.055-148.869-35.383 131.899-4.636-2.67c-4.786-2.76-10.913-1.13-13.677 3.66-2.763 4.78-1.121 10.89 3.665 13.66l9.281 5.35-5.367 20zm86.946 56.33-4.055-1.15c-5.347-1.43-10.708 1.74-12.14 7.08-.14.52-.168 1.03-.218 1.54-.521 4.81 2.314 9.41 7.14 10.7l9.273 2.54v20.71l-43.683-11.69 43.683-162.839zM194.746 121l12.085-45.05L375.155 121zm30.357-61.357 20.795-35.98 134.433 77.52z" fill="#000000" opacity="1" data-original="#000000"></path><path d="M421.952 190.502c0-16.568-13.448-30-30.037-30s-30.036 13.432-30.036 30c0 16.569 13.448 30 30.036 30 16.589 0 30.037-13.432 30.037-30zm-40.049 0c0-5.523 4.483-10 10.012-10 5.53 0 10.012 4.477 10.012 10s-4.482 10-10.012 10c-5.529 0-10.012-4.477-10.012-10z" fill="#000000" opacity="1" data-original="#000000"></path></g></svg>