<svg viewBox="0 0 22.582 22.582" xmlns="http://www.w3.org/2000/svg"><g data-name="Layer 2"><g data-name="Layer 1"><path d="M1.825 2.629c0-.407.481-.345.756-.342a.342.342 0 0 1 .342.342c0 .406-.481.344-.755.342a.343.343 0 0 1-.343-.342Zm.343 2.623c.275 0 .755.064.755-.343s-.481-.344-.755-.341a.342.342 0 0 0 0 .684Zm11.69-2.965H8.869a.342.342 0 0 0 0 .684h4.989a.342.342 0 0 0 0-.684Zm-9.352.684h2.538a.342.342 0 0 0 0-.684H4.506a.342.342 0 0 0 0 .684Zm5.3 1.6h-5.3a.342.342 0 0 0 0 .684h5.3a.342.342 0 0 0 .003-.687ZM5.475 6.848H2.168a.343.343 0 1 0 0 .685h3.307a.343.343 0 0 0 0-.685Zm17.107-5.137v16.423a1.712 1.712 0 0 1-1.711 1.711h-5.132V21.9h2.395a.342.342 0 0 1 0 .684H4.448a.342.342 0 0 1 0-.684h2.395v-2.055H1.711A1.713 1.713 0 0 1 0 18.134V1.711A1.714 1.714 0 0 1 1.711 0h19.16a1.713 1.713 0 0 1 1.711 1.711Zm-7.527 18.134H7.527V21.9h7.528Zm6.845-2.737H.685v1.026a1.028 1.028 0 0 0 1.026 1.027h19.16a1.029 1.029 0 0 0 1.029-1.027Zm-17.508-.684v-2.317H3.023v2.317Zm4.562 0V11.37H7.585v5.054Zm4.562 0V9.36h-1.368v7.064ZM21.9 1.711A1.028 1.028 0 0 0 20.871.685H1.711A1.027 1.027 0 0 0 .685 1.711v9.547l1.661-.334A1.37 1.37 0 0 1 4.634 10l2.341-1.5a1.365 1.365 0 0 1 2.347-1.289l2.166-1a1.369 1.369 0 1 1 .292.619L9.613 7.831a1.372 1.372 0 0 1-2.271 1.246L5 10.576A1.364 1.364 0 0 1 2.481 11.6l-1.8.361v4.468h1.658v-2.664a.342.342 0 0 1 .342-.342h2.053a.342.342 0 0 1 .342.342v2.659H6.9v-5.4a.342.342 0 0 1 .342-.342H9.3a.342.342 0 0 1 .342.342v5.4h1.825V9.017a.343.343 0 0 1 .343-.342h2.052a.343.343 0 0 1 .343.342v7.407h7.7ZM3.707 11.683a.684.684 0 0 0 0-1.368.684.684 0 0 0 0 1.368ZM8.27 8.761a.685.685 0 0 0 0-1.369.685.685 0 0 0 0 1.369Zm4.562-2.117a.685.685 0 0 0 0-1.369.685.685 0 0 0 0 1.369Zm5.194-.252c.938 0 1.134.544 1.134 1 .009 1.113-1.8 1.361-2.2.346a.341.341 0 0 0-.448-.183c-.709.473.621 1.472 1.171 1.488 0 .277-.071.77.342.771s.342-.494.342-.77a1.677 1.677 0 0 0-.342-3.336c-.942 0-1.14-.544-1.14-1-.009-1.113 1.8-1.361 2.2-.346a.344.344 0 0 0 .448.183c.71-.472-.618-1.468-1.165-1.487 0-.276.071-.772-.342-.772s-.343.494-.342.77a1.677 1.677 0 0 0 .342 3.336Zm2.3 4.562h-4.558a.342.342 0 1 0 0 .684h4.562a.342.342 0 0 0 0-.684Zm-1.369 2.281h-3.189a.343.343 0 0 0 0 .685h3.193a.343.343 0 0 0 0-.685Z" data-name="financial report" fill="#59af17" class="fill-000000"></path></g></g></svg>