<svg viewBox="0 0 512 512" xmlns="http://www.w3.org/2000/svg"><path d="M93.737 98.564a68.411 68.411 0 0 0-68.07 62.559c-.204 3.453-.261 5.668-.261 6.278l.262 32.847c0 .588.056 3.208-.02 4.375a67.9 67.9 0 0 0 3.137 15.585 67.613 67.613 0 0 0-3.117 15.346c-.204 3.454-.262 5.668-.262 6.278l.263 32.848c0 .588.055 3.207-.02 4.375a67.89 67.89 0 0 0 3.066 15.355 67.61 67.61 0 0 0-3.048 15.14c-.204 3.454-.262 5.669-.262 6.279l.263 32.847c0 .588.055 3.208-.02 4.375a67.906 67.906 0 0 0 3.173 15.702 67.61 67.61 0 0 0-3.153 15.45c-.205 3.453-.262 5.668-.262 6.278l.263 32.848c0 .588.055 3.207-.02 4.374a68.32 68.32 0 0 0 136.179 0c.157-.536.242-10.533.242-11.12V389.36c0-.61-.111-3.566-.262-5.158a67.773 67.773 0 0 0-3.151-15.457 67.903 67.903 0 0 0 3.17-15.695c.158-.537.243-10.533.243-11.121v-27.221c0-.61-.111-3.567-.262-5.159a67.773 67.773 0 0 0-3.048-15.136 67.9 67.9 0 0 0 3.068-15.36c.157-.536.242-10.533.242-11.12v-27.222c0-.61-.111-3.566-.262-5.158a67.773 67.773 0 0 0-3.116-15.349 67.905 67.905 0 0 0 3.136-15.582c.157-.537.242-10.533.242-11.121V166.28c0-.61-.111-3.567-.262-5.158a68.411 68.411 0 0 0-68.07-62.56Zm0 12a56.332 56.332 0 1 1-56.332 56.331 56.332 56.332 0 0 1 56.332-56.332ZM138.562 218.4v14.69a56.99 56.99 0 0 1-12 11.67v-17.95a68.4 68.4 0 0 0 12-8.41Zm-40.15 16.65v20.09c-1.54.13-3.1.2-4.68.2a55.327 55.327 0 0 1-7.32-.48v-20.03a68.195 68.195 0 0 0 7.32.4c1.58 0 3.13-.08 4.68-.18Zm-40.15-9.77v17.45a56.78 56.78 0 0 1-12-13.44v-13.31a69.014 69.014 0 0 0 12 9.3Zm0 240.53a56.78 56.78 0 0 1-12-13.44v-13.31a69.014 69.014 0 0 0 12 9.3Zm40.15 12.41c-1.54.13-3.1.2-4.68.2a55.327 55.327 0 0 1-7.32-.48v-20.03a68.195 68.195 0 0 0 7.32.4c1.58 0 3.13-.08 4.68-.18Zm40.15-22.05a56.99 56.99 0 0 1-12 11.67v-17.95a68.4 68.4 0 0 0 12-8.41Zm11.507-66.195a56.332 56.332 0 0 1-112.664 0c0-1.252.056-2.49.139-3.721a68.256 68.256 0 0 0 112.386 0 56.03 56.03 0 0 1 .139 3.721ZM46.262 377.719v-13.31a69.014 69.014 0 0 0 12 9.3v17.45a56.78 56.78 0 0 1-12-13.44Zm40.15 25.57v-20.03a68.195 68.195 0 0 0 7.32.4c1.58 0 3.13-.08 4.68-.18v20.09c-1.54.13-3.1.2-4.68.2a55.327 55.327 0 0 1-7.32-.48Zm40.15-10.1v-17.95a68.4 68.4 0 0 0 12-8.41v14.69a56.99 56.99 0 0 1-12 11.67Zm23.507-77.865a56.332 56.332 0 0 1-112.663 0c0-1.049.04-2.087.099-3.12a68.259 68.259 0 0 0 112.47-.007 56.91 56.91 0 0 1 .094 3.127ZM46.262 303.722v-13.31a69.014 69.014 0 0 0 12 9.3v17.45a56.777 56.777 0 0 1-12-13.44Zm40.15 25.57v-20.03a68.195 68.195 0 0 0 7.32.4c1.58 0 3.13-.08 4.68-.18v20.09c-1.54.13-3.1.2-4.68.2a55.327 55.327 0 0 1-7.32-.48Zm40.15-10.1v-17.95a68.4 68.4 0 0 0 12-8.41v14.69a56.992 56.992 0 0 1-12 11.67Zm23.507-77.866a56.332 56.332 0 0 1-112.663 0c0-1.183.05-2.354.125-3.519a68.257 68.257 0 0 0 112.414-.001c.073 1.165.124 2.337.124 3.52Z" fill="#ff6600" class="fill-000000"></path><path d="M78.046 194.727h7.72v7.327a5.5 5.5 0 0 0 11 0v-7.608a18.422 18.422 0 0 0-3.098-36.585 6.433 6.433 0 0 1 0-12.866h14.68a6 6 0 0 0 0-12h-9.18v-5.26a5.5 5.5 0 0 0-11 0v6.1a18.433 18.433 0 0 0 5.5 36.026 6.433 6.433 0 0 1 0 12.866H78.046a6 6 0 1 0 0 12ZM419.268 180.915a12.091 12.091 0 1 0 7.29 23.057l39.922-12.624a12.091 12.091 0 0 0 8.148-14.198l-10.288-45.432a12.091 12.091 0 1 0-23.585 5.34l3.95 17.448-118.63-66.36a17.71 17.71 0 0 0-26.357 15.401l-.015 4.87-95.436-52.843a17.71 17.71 0 0 0-26.289 15.494v2.062L80.081 21.633a12.091 12.091 0 0 0-11.258 21.402l107.383 56.487a17.71 17.71 0 0 0 25.955-15.674V82.05l95.402 52.823a17.71 17.71 0 0 0 26.289-15.44l.015-4.814 110.166 61.625ZM252.047 177.216a68.411 68.411 0 0 0-68.07 62.56c-.204 3.453-.262 5.667-.262 6.277l.263 32.848c0 .588.055 3.207-.02 4.375a67.887 67.887 0 0 0 2.827 14.573 67.55 67.55 0 0 0-2.808 14.358c-.204 3.453-.261 5.668-.261 6.278l.262 32.848c0 .588.056 3.207-.02 4.374a67.896 67.896 0 0 0 2.762 14.357 67.54 67.54 0 0 0-2.742 14.14c-.204 3.452-.262 5.667-.262 6.277l.263 32.848c0 .588.055 3.207-.02 4.375a68.32 68.32 0 0 0 136.179 0c.157-.537.242-10.534.242-11.122v-27.22c0-.61-.111-3.567-.262-5.159a67.778 67.778 0 0 0-2.735-14.16 67.889 67.889 0 0 0 2.755-14.336c.157-.536.242-10.533.242-11.12v-27.222c0-.61-.111-3.566-.262-5.158a67.778 67.778 0 0 0-2.803-14.373 67.891 67.891 0 0 0 2.823-14.558c.157-.537.242-10.534.242-11.121v-27.221c0-.61-.111-3.567-.262-5.159a68.411 68.411 0 0 0-68.071-62.559Zm0 12a56.332 56.332 0 1 1-56.332 56.332 56.332 56.332 0 0 1 56.332-56.332Zm44.825 107.837v14.69a56.987 56.987 0 0 1-12 11.67v-17.95a68.392 68.392 0 0 0 12-8.41Zm-40.15 16.65v20.09c-1.54.13-3.1.2-4.68.2a55.329 55.329 0 0 1-7.32-.48v-20.03a68.197 68.197 0 0 0 7.32.4c1.58 0 3.13-.08 4.68-.18Zm-40.15-9.77v17.45a56.784 56.784 0 0 1-12-13.44v-13.31a69.017 69.017 0 0 0 12 9.3Zm0 161.878a56.784 56.784 0 0 1-12-13.44v-13.31a69.017 69.017 0 0 0 12 9.3Zm40.15 12.41c-1.54.13-3.1.2-4.68.2a55.329 55.329 0 0 1-7.32-.48v-20.03a68.197 68.197 0 0 0 7.32.4c1.58 0 3.13-.08 4.68-.18Zm40.15-22.05a56.987 56.987 0 0 1-12 11.67v-17.95a68.392 68.392 0 0 0 12-8.41Zm11.506-66.195a56.332 56.332 0 0 1-112.663 0c0-.41.018-.814.027-1.221a68.264 68.264 0 0 0 112.606.005c.01.405.03.808.03 1.216Zm-103.806-9.601v-13.31a69.008 69.008 0 0 0 12 9.3v17.45a56.782 56.782 0 0 1-12-13.44Zm40.15 25.57v-20.03a68.197 68.197 0 0 0 7.32.4c1.58 0 3.13-.08 4.68-.18v20.09c-1.54.13-3.1.2-4.68.2a55.329 55.329 0 0 1-7.32-.48Zm40.15-10.1v-17.95a68.387 68.387 0 0 0 12-8.41v14.69a56.99 56.99 0 0 1-12 11.67Zm23.506-77.866a56.332 56.332 0 0 1-112.663 0c0-.55.02-1.097.036-1.643a68.263 68.263 0 0 0 112.587.006c.016.545.04 1.088.04 1.637Z" fill="#ff6600" class="fill-000000"></path><path d="M236.356 273.38h7.72v7.327a5.5 5.5 0 0 0 11 0V273.1a18.422 18.422 0 0 0-3.098-36.585 6.433 6.433 0 0 1 0-12.866h14.68a6 6 0 0 0 0-12h-9.18v-5.26a5.5 5.5 0 1 0-11 0v6.1a18.433 18.433 0 0 0 5.5 36.026 6.433 6.433 0 1 1 0 12.866h-15.622a6 6 0 0 0 0 12ZM478.688 344.15v-27.22c0-.61-.111-3.566-.262-5.158a68.313 68.313 0 0 0-136.14 0c-.204 3.453-.261 5.668-.261 6.278l.262 32.848c0 .588.056 3.207-.02 4.374a67.9 67.9 0 0 0 2.98 15.07 67.6 67.6 0 0 0-2.96 14.862c-.204 3.453-.262 5.668-.262 6.278l.263 32.848c0 .588.055 3.207-.02 4.374a68.32 68.32 0 0 0 136.179 0c.157-.536.242-10.533.242-11.12V390.36c0-.61-.111-3.566-.262-5.158a67.76 67.76 0 0 0-2.96-14.861 67.893 67.893 0 0 0 2.98-15.07c.156-.537.24-10.533.24-11.121Zm-68.332-82.938a56.332 56.332 0 1 1-56.332 56.332 56.331 56.331 0 0 1 56.332-56.332Zm44.825 107.837v14.69a56.99 56.99 0 0 1-12 11.67v-17.95a68.395 68.395 0 0 0 12-8.41Zm-40.15 16.65v20.09c-1.54.13-3.1.2-4.68.2a55.327 55.327 0 0 1-7.32-.48v-20.03a68.193 68.193 0 0 0 7.32.4c1.58 0 3.13-.08 4.68-.18Zm-40.15-9.77v17.45a56.78 56.78 0 0 1-12-13.44v-13.31a69.011 69.011 0 0 0 12 9.3Zm0 90.882a56.784 56.784 0 0 1-12-13.44v-13.31a69.021 69.021 0 0 0 12 9.3Zm40.15 12.41c-1.54.13-3.1.2-4.68.2a55.327 55.327 0 0 1-7.32-.48v-20.03a68.193 68.193 0 0 0 7.32.4c1.58 0 3.13-.08 4.68-.18Zm40.15-22.05a56.99 56.99 0 0 1-12 11.67v-17.95a68.4 68.4 0 0 0 12-8.41Zm11.507-66.195a56.332 56.332 0 0 1-112.664 0c0-.873.025-1.74.066-2.603a68.261 68.261 0 0 0 112.533-.001c.04.863.065 1.73.065 2.603Z" fill="#ff6600" class="fill-000000"></path><path d="M394.665 345.376h7.72v7.327a5.5 5.5 0 1 0 11 0v-7.608a18.422 18.422 0 0 0-3.097-36.585 6.433 6.433 0 0 1 0-12.866h14.68a6 6 0 0 0 0-12h-9.18v-5.26a5.5 5.5 0 0 0-11 0v6.1a18.433 18.433 0 0 0 5.5 36.026 6.433 6.433 0 0 1 0 12.866h-15.623a6 6 0 0 0 0 12Z" fill="#ff6600" class="fill-000000"></path></svg>