<svg xmlns="http://www.w3.org/2000/svg" viewBox="0 0 32 32" xml:space="preserve" enable-background="new 0 0 32 32"><g id="Bell"><path d="M23.103 14.521v-2.199a7.103 7.103 0 1 0-14.206 0v2.199c0 1.287-.4 2.543-1.144 3.594l-.67.947a1.277 1.277 0 0 0 .471 1.887A19.184 19.184 0 0 0 16 22.92c3.705 0 6.63-1.079 8.445-1.971a1.277 1.277 0 0 0 .471-1.887l-.67-.947a6.22 6.22 0 0 1-1.143-3.594z" fill="#ffffff" class="fill-cdf6f9"></path><path d="M20.02 22.92c0 2.13-1.8 3.86-4.02 3.86-2.22 0-4.02-1.73-4.02-3.86 0-.14.01-.29.03-.43a18.693 18.693 0 0 0 7.98 0c.02.14.03.29.03.43z" fill="#ffffff" class="fill-ffffff"></path><path d="M29.693 5.796a.9.9 0 1 0-1.62.786c.483.996.834 2.047 1.042 3.126a.9.9 0 1 0 1.767-.341 14.324 14.324 0 0 0-1.189-3.571zM3.509 5.379a.9.9 0 0 0-1.202.417 14.408 14.408 0 0 0-1.19 3.571.9.9 0 1 0 1.767.341c.208-1.079.559-2.13 1.042-3.126a.9.9 0 0 0-.417-1.203zM24.225 5.455a.901.901 0 0 0-.213 1.255 9.633 9.633 0 0 1 1.78 5.613.9.9 0 0 0 1.8 0c0-2.409-.73-4.71-2.112-6.655a.9.9 0 0 0-1.255-.213zM7.988 6.71A.901.901 0 0 0 6.52 5.668a11.43 11.43 0 0 0-2.112 6.655.9.9 0 0 0 1.8 0c0-2.032.615-3.974 1.78-5.613zM24.98 17.594a5.287 5.287 0 0 1-.978-3.073v-2.2c0-4.413-3.59-8.002-8.002-8.002s-8.002 3.59-8.002 8.002v2.2a5.288 5.288 0 0 1-.979 3.074l-.67.946a2.182 2.182 0 0 0 .809 3.215 20.419 20.419 0 0 0 3.951 1.445c.154 2.493 2.277 4.481 4.891 4.481s4.737-1.988 4.891-4.481a20.316 20.316 0 0 0 3.95-1.445c.571-.28.988-.795 1.145-1.412a2.183 2.183 0 0 0-.335-1.802l-.671-.948zM16 25.881c-1.481 0-2.719-.987-3.037-2.303.949.148 1.96.243 3.037.243s2.087-.095 3.037-.243c-.318 1.316-1.556 2.303-3.037 2.303zm8.242-5.981a.365.365 0 0 1-.194.24c-1.743.858-4.554 1.88-8.048 1.88s-6.305-1.021-8.048-1.879a.378.378 0 0 1-.133-.559l.67-.946a7.086 7.086 0 0 0 1.309-4.114v-2.2c0-3.42 2.783-6.203 6.203-6.203s6.203 2.783 6.203 6.203v2.2a7.08 7.08 0 0 0 1.309 4.113l.671.948a.385.385 0 0 1 .058.317z" fill="#59af17" class="fill-1a83a8"></path></g></svg>