<svg xmlns="http://www.w3.org/2000/svg" viewBox="0 0 512 512" xml:space="preserve" enable-background="new 0 0 512 512"><g id="Layer_3"><path d="M173.98 300.32c-1.96 0-3.95-.57-5.68-1.76l-41.98-28.89a7.51 7.51 0 0 1-1.93-10.43 7.51 7.51 0 0 1 10.43-1.93l37.94 26.11 26.37-37.75c2.37-3.39 7.05-4.22 10.44-1.85 3.4 2.37 4.23 7.05 1.85 10.44l-29.19 41.78c-1.94 2.79-5.07 4.28-8.25 4.28z" fill="#59af17" class="fill-000000"></path><path d="M174.11 300.26a7.5 7.5 0 0 1-7.09-5.06c-10.45-30.42-7.23-64.15 8.83-92.55 16.07-28.4 43.32-48.53 74.78-55.24 4.05-.86 8.04 1.72 8.9 5.77s-1.72 8.04-5.77 8.9c-27.26 5.81-50.9 23.29-64.85 47.96-13.95 24.66-16.76 53.93-7.7 80.29 1.35 3.92-.74 8.18-4.66 9.53-.8.27-1.63.4-2.44.4zM350.95 388.91c-.21 0-.43-.01-.65-.03-4.13-.35-7.19-3.99-6.83-8.11l3.93-45.88-45.85-4.26c-4.12-.38-7.16-4.04-6.77-8.16.38-4.12 4.03-7.17 8.16-6.77l50.74 4.71c5.48.51 9.56 5.38 9.08 10.87l-4.35 50.78c-.33 3.9-3.61 6.85-7.46 6.85z" fill="#59af17" class="fill-000000"></path><path d="M274.92 372.53c-32.26 0-62.91-13.5-84.23-37.15-2.77-3.08-2.53-7.82.55-10.59 3.08-2.77 7.82-2.53 10.59.55 18.47 20.49 45.07 32.19 73.08 32.19h.88c28.34-.25 55.09-12.45 73.39-33.47a7.493 7.493 0 0 1 10.58-.73c3.12 2.72 3.45 7.46.73 10.58-21.12 24.26-51.94 38.34-84.57 38.63-.33-.01-.67-.01-1-.01zM376.33 298.49c-.77 0-1.55-.12-2.31-.37a7.501 7.501 0 0 1-4.82-9.45c8.59-26.51 5.28-55.72-9.1-80.14-14.38-24.42-38.32-41.48-65.68-46.82-4.07-.79-6.72-4.73-5.92-8.8s4.73-6.72 8.8-5.92c31.57 6.16 59.17 25.82 75.73 53.93 16.56 28.11 20.37 61.78 10.45 92.38a7.532 7.532 0 0 1-7.15 5.19z" fill="#59af17" class="fill-000000"></path><path d="M317.79 209.67c-2.81 0-5.5-1.59-6.78-4.3l-21.79-46.07c-2.35-4.98-.23-10.97 4.73-13.35l45.91-22.12c3.73-1.8 8.21-.23 10.01 3.5 1.8 3.73.23 8.21-3.5 10.01l-41.49 19.98 19.69 41.63c1.77 3.74.17 8.21-3.57 9.99-1.05.5-2.14.73-3.21.73z" fill="#59af17" class="fill-000000"></path></g><path d="M260.92 15c30.67 0 60.56 5.82 88.85 17.29 29.28 11.87 55.55 29.32 78.09 51.86 22.54 22.54 39.99 48.81 51.86 78.09 11.47 28.28 17.29 58.18 17.29 88.85 0 30.67-5.82 60.56-17.29 88.85-11.87 29.28-29.32 55.55-51.86 78.09-22.54 22.54-48.82 39.99-78.09 51.86-28.28 11.47-58.17 17.28-88.85 17.28-39.85 0-79.24-10.11-113.92-29.23-3.68-2.03-7.97-3.05-12.75-3.05-14.08 0-33.13 9.29-55.18 20.04C58.9 484.76 33.8 497 20.03 497c-2.72 0-3.96-.52-4.23-.8-.03-.03-2.7-3.59 1.95-18.7 4.1-13.33 11.84-29.21 19.34-44.57 14.83-30.42 25.55-52.39 16.99-67.93-12.21-22.15-20.73-46.04-25.32-71.02-4.53-24.63-5.13-49.7-1.79-74.53 3.37-25.09 10.69-49.29 21.74-71.94C60.14 124.08 75.38 102.77 94 84.15c22.54-22.54 48.81-39.99 78.09-51.86C200.36 20.82 230.25 15 260.92 15m0-15C196.66 0 132.4 24.51 83.38 73.54c-80.91 80.91-95.05 203.29-42.45 298.7C52.08 392.47-19.42 482.2 5.19 506.81c3.66 3.66 8.75 5.19 14.84 5.19 31.9 0 91.11-42.12 114.21-42.12 2.18 0 4.03.37 5.51 1.19 37.59 20.73 79.38 31.09 121.16 31.09 64.26 0 128.51-24.51 177.54-73.54 98.05-98.05 98.05-257.03 0-355.08C389.43 24.51 325.18 0 260.92 0z" id="sharp" fill="#59af17" class="fill-000000"></path></svg>