<svg viewBox="0 0 168.092 235.503" xml:space="preserve" xmlns="http://www.w3.org/2000/svg" enable-background="new 0 0 168.092 235.503"><path d="M89.164 106.181c0 2.905-1.252 5.516-3.234 7.345a58.557 58.557 0 0 0 10.865-1.667l-6.355 9.382 20.475 13.868a9.98 9.98 0 0 1-.522-3.976L94.606 120.44l17.945-26.494 15.66 10.606c.473-.91.916-1.817 1.33-2.723l-5.219-3.535c.109-.217.213-.438.324-.654-.041-.962-.051-1.924-.07-2.886a66.345 66.345 0 0 0 4.791-6.031 192.285 192.285 0 0 1 1.488 10.009c2.031-5.26 3.074-10.439 3.105-15.512.002-6.226-1.654-10.488-2.367-12.033a11.606 11.606 0 0 0-.367-.734c-2.818-4.586-1.375-10.734 3.256-13.635a9.969 9.969 0 0 1 5.299-1.528 9.952 9.952 0 0 1 8.486 4.695c.951 1.53 5.678 9.81 5.693 23.246.037 8.269-1.848 19.553-9.072 32.617l1.193.809-17.943 26.494-3.408-2.309a9.922 9.922 0 0 1-3.898.985l4.109 2.783a162.03 162.03 0 0 0-2.893 30.249c-.004 15.705 2.359 33.7 9.32 52.482 1.867 5.042 6.645 8.161 11.725 8.162 1.441 0 2.906-.252 4.338-.781 6.475-2.4 9.779-9.59 7.381-16.065-5.789-15.626-7.764-30.577-7.766-43.797-.004-14.127 2.279-26.243 4.543-34.71.391-1.464.779-2.81 1.156-4.047 6.313-1.6 12.033-5.879 14.146-16.753 2.586-22.215 1.123-35.346-5.682-55.52-5.035-14.643-17.41-19.279-25.947-17.15-4.342 1.082-7.443 4.699-9.068 9.299-1.973 4.259-4.088 10.485-5.955 17.075a57.44 57.44 0 0 1-3.348 5.585c-3.365 4.976-7.756 9.729-13.369 13.202-5.156 3.174-11.346 5.364-19.297 5.73 2.949 1.739 4.939 4.943 4.939 8.61z" fill="#59af17" class="fill-000000"></path><ellipse cx="119.229" cy="22.498" rx="22.495" ry="22.493" transform="rotate(-13.109 119.23 22.499)" fill="#59af17" class="fill-000000"></ellipse><path d="m103.784 119.308 11-15.75 1.639 1.144-11 15.75zM110.779 124.064l11.002-15.75 1.642 1.147-11.003 15.75z" fill="#59af17" class="fill-000000"></path><path d="M151.961 83.234c-.016-13.295-4.871-21.353-5.389-22.188a8.001 8.001 0 0 0-13.599 8.432l.004.007c.055.096.209.377.434.864.852 1.848 2.553 6.351 2.551 12.884-.061 9.748-3.555 24.441-21.363 43.073a7.997 7.997 0 0 0 .227 11.312 7.964 7.964 0 0 0 5.539 2.231 7.984 7.984 0 0 0 5.773-2.458c20.132-20.854 25.886-40.157 25.823-54.157z" fill="#59af17" class="fill-000000"></path><ellipse cx="48.863" cy="22.498" rx="22.493" ry="22.495" transform="rotate(-76.891 48.865 22.499)" fill="#59af17" class="fill-000000"></ellipse><path d="M15.34 136.101c2.545 8.387 5.723 22.193 5.701 38.758-.004 13.217-1.98 28.171-7.764 43.799-2.398 6.474.906 13.666 7.381 16.063a12.48 12.48 0 0 0 4.34.781c5.08 0 9.857-3.12 11.723-8.163 6.955-18.783 9.322-36.776 9.32-52.48-.033-25.046-5.912-44.31-9.09-52.935-.785-5.872-.725-12.08-.211-18.267-4.516-3.493-8.441-7.679-11.56-12.407-7.121-10.861-8.565-21.286-8.856-25.262l-.01-.146c-.254-5.606 4.023-10.29 9.533-10.54a9.984 9.984 0 0 1 10.441 9.535c.004.039.016.178.037.373.047.43.139 1.124.303 2.016a36.633 36.633 0 0 0 2.148 7.168 36.348 36.348 0 0 0 1.938 3.891c.541-2.68 1.068-5.241 1.533-7.615 2.869-9.953-.885-21.865-9.42-23.992-8.537-2.129-20.912 2.508-25.947 17.15-6.805 20.174-8.268 33.305-5.682 55.52 2.113 10.872 7.83 15.152 14.142 16.753z" fill="#59af17" class="fill-000000"></path><path d="M34.664 67.592a30.717 30.717 0 0 1-.326-2.157 13.175 13.175 0 0 1-.045-.485l-.002-.02a7.999 7.999 0 1 0-15.982.724h-.004c.076.793.557 12.314 8.547 24.498 3.998 6.063 9.992 12.218 18.537 16.718 8.523 4.508 19.457 7.315 33.1 7.315h.063l.615-.002a8 8 0 0 0 0-15.998c-.246-.002-.451 0-.615 0-11.529-.009-19.709-2.313-25.693-5.464-8.922-4.731-13.412-11.575-15.926-17.557a38.472 38.472 0 0 1-2.269-7.572z" fill="#59af17" class="fill-000000"></path></svg>