<svg viewBox="0 0 50 50" xml:space="preserve" xmlns="http://www.w3.org/2000/svg" enable-background="new 0 0 50 50"><path d="m44.7 16-5.2-8.9c-.4-.6-1.1-1-1.8-1h-35c-.9 0-1.7.8-1.7 1.7v18.5c0 1 .8 1.7 1.7 1.7h35c.7 0 1.4-.4 1.8-1l5.2-8.9c.4-.6.4-1.4 0-2.1zm-6.1 3.1c-1.1 0-2-.9-2-2s.9-2 2-2 2 .9 2 2-.9 2-2 2z" fill="#59af17" class="fill-ec6e62"></path><path d="M28.9 43.9c-.3 0-.7 0-1-.1-1.3-.2-2.5-.8-3.3-1.8-1.3-1.6-1.7-4.2-1-6.5.7-1.9 2.1-3.6 4-4.5 1.4-.7 3.1-1.1 5.2-1.1h2.4c.9 0 1.7.1 2.5 0 2.1-.1 4.1-.5 6.1-1.2.9-.4 2-.8 2.6-1.8.8-1.2.9-3.1.2-4.7-.6-1.4-1.7-2.5-3.2-3.2-1.4-.6-3-.8-4.5-.9-.5 0-1-.5-.9-1 0-.5.5-1 1-.9 1.7.1 3.5.3 5.2 1 1.9.9 3.4 2.4 4.2 4.2.9 2.2.8 4.8-.4 6.6-.9 1.4-2.4 2.1-3.5 2.5-2.2.8-4.4 1.3-6.7 1.3h-2.7c-.8 0-1.5-.1-2.3 0-1.8 0-3.2.3-4.4.9-1.4.7-2.5 2-3 3.4-.5 1.6-.3 3.5.6 4.6.6.8 1.5 1 2.1 1.1 1.9.3 3.9-.7 5.2-2.5.3-.4.9-.6 1.4-.3s.6.9.3 1.4c-1.5 2.2-3.8 3.5-6.1 3.5z" fill="#000000" class="fill-656766"></path><path d="M7.8 14.6v1.9H11v1.1H7.8v2.9H6.6v-7.1h4.7v1.1H7.8zM18.4 15.8c0 1.2-.5 1.9-1.5 2.2l1.9 2.6h-1.5l-1.7-2.4H14v2.4h-1.2v-7.1h2.6c1.1 0 1.9.2 2.3.5.5.4.7 1 .7 1.8zm-1.6 1c.2-.2.4-.5.4-1s-.1-.8-.4-1c-.3-.2-.7-.3-1.3-.3H14V17h1.5c.6.1 1.1 0 1.3-.2zM25.1 13.5v1.1h-3.8v1.9h3.4v1.1h-3.4v1.9h3.9v1.1h-5.1v-7.1h5zM31.8 13.5v1.1H28v1.9h3.4v1.1H28v1.9h3.9v1.1h-5.1v-7.1h5z" fill="#ffffff" class="fill-ffffff"></path></svg>