<svg id="Layer_1" version="1.1" viewBox="0 0 50 50" xml:space="preserve" xmlns="http://www.w3.org/2000/svg" enable-background="new 0 0 50 50"><g enable-background="new"><path d="m19.389 23.365-4.33 2.516c-.927.538-2.208.464-3.622-.35L9.13 24.198c-2.808-1.622-5.088-5.57-5.079-8.796.007-1.604.575-2.735 1.487-3.266L9.87 9.62c-.915.531-1.484 1.662-1.487 3.265-.009 3.226 2.268 7.174 5.079 8.797l2.304 1.33c1.413.817 2.698.89 3.623.353z" fill="#5cc640" class="fill-b7c5fd"></path><path d="M23.93 21.86c-.007 2.565-.916 4.372-2.379 5.22l-4.332 2.519c1.466-.851 2.372-2.658 2.381-5.223.016-5.162-3.628-11.47-8.12-14.062L9.173 8.98c-2.261-1.305-4.31-1.422-5.794-.562L7.71 5.902c1.48-.863 3.533-.744 5.794.562l2.304 1.334c4.495 2.593 8.136 8.9 8.12 14.062z" fill="#5cc640" class="fill-b7c5fd"></path><path d="M11.48 10.313c4.492 2.593 8.134 8.903 8.12 14.064-.015 5.162-3.681 7.251-8.173 4.658L9.12 27.703C4.628 25.109.985 18.8 1 13.639c.015-5.162 3.681-7.251 8.173-4.658l2.307 1.332zm-.043 15.217c2.809 1.622 5.101.313 5.11-2.915.01-3.228-2.268-7.173-5.077-8.795l-2.307-1.332c-2.809-1.621-5.102-.315-5.11 2.913-.01 3.228 2.268 7.175 5.077 8.797l2.307 1.332" fill="#9ccb48" class="fill-9aadfd"></path></g><g enable-background="new"><path d="m15.563 26.1.012-5.008c.003-1.057.698-2.114 2.083-2.919 2.793-1.622 7.346-1.622 10.157 0l7.4 4.27c1.413.818 2.117 1.89 2.114 2.963l-.012 5.001c0-1.072-.707-2.141-2.117-2.955l-7.397-4.27c-2.811-1.623-7.367-1.623-10.157 0-1.386.804-2.08 1.861-2.083 2.918z" fill="#5cc640" class="fill-4466fb"></path><path d="m41.63 25.418-.012 5.008c-.006 1.693-1.115 3.382-3.334 4.673-4.46 2.593-11.748 2.593-16.24 0l-7.397-4.274c-2.26-1.302-3.388-3.02-3.385-4.734l.015-5.002c0 1.714 1.128 3.426 3.386 4.728l7.396 4.27c4.492 2.594 11.777 2.594 16.24 0 2.216-1.287 3.328-2.976 3.331-4.67z" fill="#5cc640" class="fill-4466fb"></path><path d="M38.246 20.682c4.492 2.593 4.516 6.813.053 9.407-4.463 2.593-11.748 2.593-16.24 0l-7.397-4.271c-4.492-2.594-4.516-6.813-.053-9.407 4.463-2.593 11.748-2.593 16.24 0l7.397 4.27zm-13.155 7.644c2.81 1.622 7.365 1.622 10.156 0 2.79-1.621 2.776-4.26-.033-5.882l-7.397-4.27c-2.811-1.624-7.367-1.624-10.158-.002s-2.776 4.26.035 5.884l7.397 4.27" fill="#59af17" class="fill-6bb5fb"></path><path d="M19.564 25.135a9.03 9.03 0 0 0 .036-.758c.01-3.814-1.978-8.251-4.829-11.356-.026.079-.041.16-.07.238-.064.173-.59 1.238-1.116 2.329 1.75 1.938 2.97 4.67 2.963 7.027-.001.188-.011.368-.027.543.313.321.7.625 1.173.898l1.87 1.08z" fill="#9ccb48" class="fill-9aadfd"></path></g><path d="m9.173 8.98 2.307 1.334c4.1 2.367 7.493 7.83 8.041 12.69h4.338c.044-.363.07-.743.07-1.144.016-5.162-3.625-11.47-8.12-14.062l-2.304-1.334c-2.261-1.306-4.314-1.425-5.794-.562L3.379 8.418c1.483-.86 3.533-.743 5.794.562z" fill="#5cc640" class="fill-b7c5fd"></path><g enable-background="new"><path d="m44.459 37.867-4.329 2.516c-.928.538-2.209.464-3.622-.35L34.2 38.699c-2.809-1.622-5.088-5.57-5.08-8.796.007-1.603.575-2.734 1.488-3.266l4.332-2.516c-.916.532-1.484 1.662-1.487 3.266-.01 3.226 2.267 7.174 5.079 8.796l2.304 1.33c1.413.818 2.697.891 3.622.354z" fill="#5cc640" class="fill-b7c5fd"></path><path d="M49 36.361c-.006 2.566-.916 4.372-2.378 5.22l-4.332 2.52c1.465-.851 2.372-2.658 2.381-5.223.015-5.162-3.628-11.47-8.12-14.063l-2.307-1.333c-2.262-1.306-4.311-1.422-5.795-.562l4.332-2.516c1.481-.864 3.533-.744 5.795.562l2.304 1.333c4.495 2.593 8.135 8.9 8.12 14.062z" fill="#5cc640" class="fill-b7c5fd"></path><path d="M36.55 24.815c4.492 2.593 8.135 8.902 8.12 14.064-.014 5.161-3.68 7.25-8.173 4.657l-2.306-1.332c-4.493-2.593-8.135-8.902-8.12-14.064.014-5.161 3.68-7.25 8.173-4.657l2.306 1.332zm-.043 15.216c2.81 1.622 5.102.313 5.111-2.914s-2.269-7.173-5.078-8.795l-2.306-1.332c-2.81-1.622-5.102-.315-5.111 2.912-.01 3.228 2.268 7.176 5.077 8.797l2.307 1.332" fill="#9ccb48" class="fill-9aadfd"></path></g><path d="M36.317 32.24h-1.272v-.837c-4.247 1.148-9.47.715-12.986-1.315l-.237-.137-.066.208c-.452 1.356-.858 2.701-1.274 4.038l1.562.902c4.492 2.593 11.78 2.593 16.24 0 .2-.117.371-.244.554-.367a7.672 7.672 0 0 1-2.52-2.492z" fill="#5cc640" class="fill-4466fb"></path><path d="m25.091 28.326-2.45-1.415a54.201 54.201 0 0 1-.82 3.04l.238.138c3.516 2.03 8.74 2.463 12.986 1.315v-2.511c-.025-.147-.042-.296-.06-.444-2.806 1.483-7.166 1.452-9.894-.123z" fill="#59af17" class="fill-6bb5fb"></path></svg>