<svg viewBox="0 0 56 56" xml:space="preserve" xmlns="http://www.w3.org/2000/svg" enable-background="new 0 0 56 56"><path d="M25.6 45.1v-1.6c0-1.3-.5-2.5-1.4-3.5L13.9 29.8c-.7-.7-1.5-1.1-2.4-1.3-.5-.1-.9-.1-1.3-.1v-4.5c0-1.7-.9-3.3-2.3-4-.8-.4-1.7-.5-2.4-.3-.9.3-1.7 1.1-2.4 2.3-.1.1-.1.3-.1.5v11.1c0 1.2.5 2.4 1.4 3.3l8.7 8.7c-.4.4-.6.9-.6 1.5v3.8c0 1.2 1 2.2 2.2 2.2h9.6c1.2 0 2.2-1 2.2-2.2V47c0-.8-.3-1.5-.9-1.9zM5 33.5V22.6c.4-.6.7-1 1.1-1.1.1 0 .4-.1.9.2.8.4 1.3 1.3 1.3 2.3v5.7c-.3.5-.4 1-.4 1.7 0 1.4.6 2.7 1.6 3.8l3.9 3.9c.4.4 1 .4 1.4 0 .4-.4.4-1 0-1.4l-3.9-3.9c-.7-.7-1.1-1.5-1-2.4 0-.4.1-.7.2-.8.2-.1.6-.1 1 0 .5.1 1 .4 1.4.8l10.2 10.2c.6.6.9 1.3.9 2.1v1.2h-8.4l-9.3-9.4c-.6-.7-.9-1.3-.9-2zm19.5 17.3c0 .1-.1.2-.2.2h-9.6c-.1 0-.2-.1-.2-.2V47c0-.1.1-.2.2-.2h9.5c.1 0 .2.1.2.2v3.8zM52.9 21.9c-.6-1.3-1.4-2-2.4-2.3-.8-.2-1.6-.1-2.4.3-1.4.8-2.3 2.3-2.3 4v4.5c-.4 0-.8 0-1.3.1-.9.2-1.7.6-2.4 1.3L31.9 40.1c-.9.9-1.4 2.2-1.4 3.5v1.6c-.6.4-1 1.1-1 1.8v3.8c0 1.2 1 2.2 2.2 2.2h9.6c1.2 0 2.2-1 2.2-2.2V47c0-.6-.2-1.1-.6-1.5l8.7-8.7c.9-.9 1.4-2.1 1.4-3.3V22.4c0-.2 0-.4-.1-.5zM41.5 50.8c0 .1-.1.2-.2.2h-9.6c-.1 0-.2-.1-.2-.2V47c0-.1.1-.2.2-.2h9.5c.1 0 .2.1.2.2v3.8zM51 33.5c0 .7-.3 1.4-.8 1.9l-9.3 9.4h-8.4v-1.2c0-.8.3-1.5.9-2.1l10.2-10.2c.4-.4.9-.7 1.4-.8.5-.1.9-.1 1 0 .1.1.2.4.2.8 0 .8-.4 1.7-1 2.4l-3.9 3.9c-.4.4-.4 1 0 1.4.4.4 1 .4 1.4 0l3.9-3.9c1.1-1.1 1.6-2.4 1.6-3.8 0-.7-.2-1.2-.4-1.7v-5.7c0-1 .5-1.9 1.3-2.3.5-.3.8-.2.9-.2.4.1.7.5 1.1 1.1v11zM38.9 17.2c.2-4.9-3.2-9.6-10.3-14.1-.3-.2-.7-.2-1 0-.4.2-10.4 6-10.4 14 0 4.6 3.3 8.9 9.9 12.8V33c0 .6.4 1 1 1s1-.4 1-1v-3c2-1.2 9.5-5.9 9.8-12.8zm-19.8 0c0-5.9 6.9-10.7 8.9-12 6 3.9 9 8 8.9 12-.2 5-5.3 8.9-7.9 10.5v-4.6l4.4-3c.5-.3.6-.9.3-1.4-.3-.5-.9-.6-1.4-.3L29 20.7v-3.1l3.3-2.1c.5-.3.6-.9.3-1.4-.3-.5-.9-.6-1.4-.3L29 15.2V10c0-.6-.4-1-1-1s-1 .4-1 1v5.3l-2.2-1.4c-.5-.3-1.1-.2-1.4.3-.3.5-.2 1.1.3 1.4l3.3 2.1v2.9l-2.7-2.1c-.4-.3-1.1-.2-1.4.2s-.2 1.1.2 1.4l3.9 3v4.5c-5.2-3.3-7.9-6.8-7.9-10.4z" fill="#59af17" class="fill-000000"></path></svg>