<svg xmlns="http://www.w3.org/2000/svg" viewBox="0 0 512 512" xml:space="preserve" enable-background="new 0 0 512 512"><path d="M381 311.5h-70v-24.029c35.719-19.535 60-57.47 60-100.971v-12.445h10c16.542 0 30-13.458 30-30s-13.458-30-30-30h-1.301c2.315-14.507-6.053-29.015-20.157-34.047C347.981 33.566 306.162.5 257.68.5c-48.9 0-90.785 33.383-102.05 80.278-13.69 4.808-22.193 18.818-19.999 33.277H131c-16.542 0-30 13.458-30 30s13.458 30 30 30h10V186.5c0 43.501 24.281 81.437 60 100.971V311.5h-70c-44.112 0-80 35.888-80 80v110c0 5.522 4.477 10 10 10h390c5.523 0 10-4.478 10-10v-110c0-44.112-35.888-80-80-80zm-172.025 20 43.136 18.213a10.003 10.003 0 0 0 7.779 0l43.136-18.213H321v40H191v-40h17.975zM361 371.5h-20v-40h20v40zM158.212 121.565c-.1-.369.397 1.442-2.548-9.265-1.662-6.046 2.293-12.101 8.382-13.116 5.946-.527 83.377-18.089 183.051-1.476l3.738.623c7.247 1.206 11.309 9.007 8.161 15.635l-3.761 7.918c-65.513-12.027-131.78-12.132-197.023-.319zM391 144.055c0 5.514-4.486 10-10 10h-10v-18.746l.595-1.254H381c5.514 0 10 4.486 10 10zM257.68 20.5c36.09 0 67.625 22.624 79.744 55.486-72.894-10.34-131.893-3.614-159.746.689C189.577 43.412 221.222 20.5 257.68 20.5zM131 154.055c-5.514 0-10-4.486-10-10s4.486-10 10-10h10v20h-10zm30 32.445v-45.111c62.918-11.486 126.825-11.461 190 .061v45.05c0 52.383-42.617 95-95 95s-95-42.617-95-95zm130 109.548v18.819l-35 14.778-35-14.778v-18.819c22.708 7.271 47.288 7.273 70 0zM171 331.5v40h-20v-40h20zm-100 60c0-33.084 26.916-60 60-60v41.714c-11.641 4.127-20 15.249-20 28.286v90H71v-100zm119 100v-51h140v51H190zm251 0h-40v-90c0-13.037-8.359-24.159-20-28.286V331.5c33.084 0 60 26.916 60 60v100z" fill="#59af17" class="fill-000000"></path><path d="M230 180.5v-10c0-5.523-4.477-10-10-10s-10 4.477-10 10v10c0 5.523 4.477 10 10 10s10-4.477 10-10zM290 190.5c5.523 0 10-4.477 10-10v-10c0-5.523-4.477-10-10-10s-10 4.477-10 10v10c0 5.523 4.477 10 10 10zM282.071 213.429c-3.905-3.904-10.237-3.904-14.143 0-7.129 7.129-18.729 7.129-25.857 0-3.905-3.904-10.237-3.904-14.143 0-3.905 3.905-3.905 10.237 0 14.143 14.928 14.926 39.213 14.928 54.143 0 3.906-3.906 3.906-10.238 0-14.143z" fill="#59af17" class="fill-000000"></path></svg>