<svg viewBox="0 0 56 56" xml:space="preserve" xmlns="http://www.w3.org/2000/svg"><path clip-rule="evenodd" d="M46.212 12.053c-.544-1.76-.738-4.131-1.976-5.058-1.751-1.307-4.276-2.003-6.522-2.14-6.611-.404-13.251-.535-19.874-.499-2.784.016-5.565.69-8.337 1.133-.253.041-.45.558-.639.874-.395.662-.848 1.31-1.127 2.024-.204.52-.444 1.328-.198 1.672 1.407 1.966 2.939 3.848 4.459 5.735 2.475 3.068 5.019 6.083 7.432 9.195.727.939 1.262 1.021 2.064.256.252-.237.547-.428 1.173-.912.468 1.122 1.049 1.985 1.152 2.903.104.915-.222 1.896-.441 2.83-1.188 5.024-2.377 10.046-3.62 15.056-.307 1.24-.219 2.316.727 3.207a360.232 360.232 0 0 0 5.341 4.918c1.161 1.049 2.268.869 3.32-.234 1.428-1.498 2.768-3.113 4.361-4.42 1.291-1.063 1.416-2.109 1.008-3.58-1.412-5.067-2.564-10.215-4.17-15.217-.796-2.48.374-3.754 1.809-5.191 1.861 1.428 1.934 1.416 3.299-.492.383-.535.727-1.11 1.17-1.59 2.921-3.15 5.869-6.277 8.8-9.418.306-.332.865-.806.789-1.052zM12.271 6.488c2.131-.194 4.262-.572 6.386-.553a568.98 568.98 0 0 1 18.658.468c1.568.067 3.115.681 4.672 1.043.061.191.125.383.186.575-1.727 1.425-3.354 3.012-5.21 4.243-2.688 1.781-5.526 3.337-8.348 4.912-.407.229-1.304.246-1.56-.027-2.899-3.124-6.708-4.802-10.361-6.763-1.621-.87-3.034-2.122-4.542-3.201l.119-.697zm8.423 17.402c-3.9-4.87-7.672-9.574-11.477-14.323l1.076-1.723c.83.592 1.572 1.185 2.371 1.687 2.045 1.282 4.063 2.624 6.186 3.763 2.69 1.443 5.265 2.994 7.523 5.678a12651.05 12651.05 0 0 0-5.679 4.918zM32.78 44.657c.426 1.439.121 2.318-.951 3.276-1.535 1.368-2.918 2.909-4.643 4.653-1.881-1.83-3.708-3.538-5.438-5.346-.34-.356-.501-1.135-.385-1.633 1.337-5.803 2.741-11.59 4.134-17.391 3.523-.115 2.598-.611 3.48 2.547 1.29 4.627 2.444 9.289 3.803 13.894zM23.892 23.54c1.121-1.066 2.168-2.061 3.316-3.156 1.143 1.044 2.283 2.083 3.396 3.102-2.353 4.07-4.241 4.06-6.712.054zm19.375-10.463c-3.197 3.411-6.42 6.803-9.715 10.289-.517-.313-1.258-.656-1.869-1.16-1.085-.896-2.088-1.888-3.273-2.973 5.422-2.833 10.517-5.916 14.861-10.08 1.677 2.092 1.695 2.11-.004 3.924z" fill-rule="evenodd" fill="#59af17" class="fill-000000"></path></svg>