<svg xmlns="http://www.w3.org/2000/svg" version="1.1" xmlns:xlink="http://www.w3.org/1999/xlink" width="512" height="512" x="0" y="0" viewBox="0 0 32 32" style="enable-background:new 0 0 512 512" xml:space="preserve"><g><path d="M28 16a1 1 0 0 0-1 1v9a1 1 0 0 1-1 1H6a1 1 0 0 1-1-1V6a1 1 0 0 1 1-1h9a1 1 0 0 0 0-2H6a3 3 0 0 0-3 3v20a3 3 0 0 0 3 3h20a3 3 0 0 0 3-3v-9a1 1 0 0 0-1-1z" fill="#59af17" opacity="1" data-original="#000000"></path><path d="M28 3h-7a1 1 0 0 0 0 2h4.59l-15.3 15.29a1 1 0 0 0 1.42 1.42L27 6.41V11a1 1 0 0 0 2 0V4a1 1 0 0 0-1-1z" fill="#59af17" opacity="1" data-original="#000000"></path></g></svg>