<svg xmlns="http://www.w3.org/2000/svg" version="1.1" xmlns:xlink="http://www.w3.org/1999/xlink" width="512" height="512" x="0" y="0" viewBox="0 0 64 64" style="enable-background:new 0 0 512 512" xml:space="preserve" class=""><g><circle cx="32" cy="32" r="12" fill="#5cc640" opacity="1" data-original="#69d6f4" class=""></circle><path fill="#ffffff" d="M52 2c5.52 0 10 4.48 10 10 0 2.62-1.01 5.01-2.67 6.79A8.002 8.002 0 0 0 52 14c2.21 0 4-1.79 4-4s-1.79-4-4-4-4 1.79-4 4 1.79 4 4 4c-3.28 0-6.09 1.97-7.33 4.79A9.924 9.924 0 0 1 42 12c0-5.52 4.48-10 10-10z" opacity="1" data-original="#e6e9ed" class=""></path><path fill="#f58c29" d="M59.33 18.79C57.51 20.77 54.9 22 52 22s-5.51-1.23-7.33-3.21C45.91 15.97 48.72 14 52 14s6.09 1.97 7.33 4.79z" opacity="1" data-original="#fcd770" class=""></path><circle cx="52" cy="10" r="4" fill="#ffffff" opacity="1" data-original="#f0d0b4" class=""></circle><path fill="#ffffff" d="M26 2v16l-10-6zM12 12 2 18V2z" opacity="1" data-original="#dfb28b" class=""></path><path fill="#ffffff" d="M26 18H2l10-6h4z" opacity="1" data-original="#d3a06c" class=""></path><path fill="#ffffff" d="M26 2 16 12h-4L2 2z" opacity="1" data-original="#cf9e76" class=""></path><path fill="#5cc640" d="M22 58.07c0 .61-.18 1.2-.51 1.7A5.029 5.029 0 0 1 17.32 62H17c-4.02-.28-7.62-2.03-10.3-4.7C4.03 54.62 2.28 51.02 2 47v-.32c0-1.67.84-3.24 2.23-4.17a3.064 3.064 0 0 1 4.54 1.41l1.01 2.53c.15.36.22.75.22 1.14v1.27c0 .88-.38 1.72-1.05 2.3L8 52a6.32 6.32 0 0 0 4 4l.55-.55a4.95 4.95 0 0 1 5.33-1.1l2.2.88c1.16.47 1.92 1.59 1.92 2.84z" opacity="1" data-original="#b4dd7f" class=""></path><circle cx="32" cy="56" r="2" fill="#ffffff" opacity="1" data-original="#ef7385" class=""></circle><circle cx="56" cy="32" r="2" fill="#ffffff" opacity="1" data-original="#ef7385" class=""></circle><circle cx="32" cy="8" r="2" fill="#ffffff" opacity="1" data-original="#ef7385" class=""></circle><circle cx="8" cy="32" r="2" fill="#ffffff" opacity="1" data-original="#ef7385" class=""></circle><path d="M52 23c6.065 0 11-4.935 11-11S58.065 1 52 1 41 5.935 41 12s4.935 11 11 11zm-6.097-4.399C47.131 16.4 49.449 15 52 15s4.869 1.4 6.097 3.601C56.491 20.085 54.353 21 52 21s-4.491-.915-6.097-2.399zM49 10c0-1.654 1.346-3 3-3s3 1.346 3 3-1.346 3-3 3-3-1.346-3-3zm3-7c4.963 0 9 4.038 9 9a8.945 8.945 0 0 1-1.529 5.012 8.984 8.984 0 0 0-4.109-3.337A4.967 4.967 0 0 0 57 10c0-2.757-2.243-5-5-5s-5 2.243-5 5a4.97 4.97 0 0 0 1.638 3.676 8.982 8.982 0 0 0-4.109 3.337A8.95 8.95 0 0 1 43 12c0-4.962 4.037-9 9-9zM20.446 54.301l-2.191-.876c-2.18-.87-4.751-.343-6.41 1.316l-.088.087a5.364 5.364 0 0 1-2.565-2.543l.421-.368A4.062 4.062 0 0 0 11 48.861V47.59c0-.52-.098-1.027-.29-1.509l-1.012-2.527A4.04 4.04 0 0 0 5.927 41c-.805 0-1.584.236-2.253.682A5.994 5.994 0 0 0 1 46.679l.003.393C1.608 55.545 8.455 62.393 17 63h.321c2.013 0 3.88-1 4.996-2.673A4.045 4.045 0 0 0 23 58.073c0-1.67-1.002-3.15-2.554-3.772zm.207 4.916A3.997 3.997 0 0 1 17.321 61l-.25.002C9.583 60.468 3.532 54.417 3 47v-.321a4 4 0 0 1 1.783-3.333c.34-.226.736-.346 1.144-.346.848 0 1.6.509 1.914 1.296l1.012 2.528c.097.244.147.502.147.766v1.271c0 .595-.257 1.16-.704 1.552l-1.455 1.273.211.631a7.36 7.36 0 0 0 4.632 4.632l.587.195.988-.988a3.988 3.988 0 0 1 4.254-.874l2.19.876A2.054 2.054 0 0 1 21 58.073c0 .408-.12.804-.347 1.144z" fill="#000000" opacity="1" data-original="#000000" class=""></path><path d="M44.949 33h8.235A2.996 2.996 0 0 0 56 35c1.654 0 3-1.346 3-3s-1.346-3-3-3a2.996 2.996 0 0 0-2.816 2h-8.235C44.461 24.63 39.37 19.539 33 19.051v-8.235A2.996 2.996 0 0 0 35 8c0-1.654-1.346-3-3-3s-3 1.346-3 3c0 1.302.839 2.402 2 2.816v8.235C24.63 19.539 19.539 24.63 19.051 31h-8.235A2.996 2.996 0 0 0 8 29c-1.654 0-3 1.346-3 3s1.346 3 3 3a2.996 2.996 0 0 0 2.816-2h8.235C19.539 39.37 24.63 44.461 31 44.949v8.235A2.996 2.996 0 0 0 29 56c0 1.654 1.346 3 3 3s3-1.346 3-3a2.996 2.996 0 0 0-2-2.816v-8.235C39.37 44.461 44.461 39.37 44.949 33zm-15.958 6h6.019c-.789 2.473-1.935 4-3.009 4s-2.221-1.527-3.01-4zm-7.94-6h4.971c.046 1.419.184 2.763.409 4h-4.216a10.88 10.88 0 0 1-1.164-4zM32 21c1.075 0 2.22 1.527 3.009 4H28.99c.79-2.473 1.935-4 3.01-4zm3.519 6c.244 1.209.408 2.553.46 4h-7.958a24.91 24.91 0 0 1 .46-4zm7.43 4h-4.971a27.425 27.425 0 0 0-.409-4h4.216a10.88 10.88 0 0 1 1.164 4zm0 2a10.9 10.9 0 0 1-1.164 4h-4.216c.225-1.237.363-2.581.409-4zm-16.927-2h-4.971a10.9 10.9 0 0 1 1.164-4h4.216a27.288 27.288 0 0 0-.409 4zm1.999 2h7.958a24.91 24.91 0 0 1-.46 4h-7.038a24.797 24.797 0 0 1-.46-4zm7.693 9.341c.553-.919 1.023-2.046 1.391-3.341h3.373a11.037 11.037 0 0 1-4.764 3.341zM56 31a1.001 1.001 0 1 1-1 1c0-.551.448-1 1-1zm-15.521-6h-3.373c-.368-1.295-.837-2.422-1.391-3.341A11.049 11.049 0 0 1 40.479 25zM32 7a1.001 1.001 0 1 1-1 1c0-.551.448-1 1-1zm-3.714 14.659c-.553.919-1.023 2.046-1.391 3.341h-3.373a11.037 11.037 0 0 1 4.764-3.341zM8 33a1.001 1.001 0 0 1 0-2 1.001 1.001 0 0 1 0 2zm15.521 6h3.373c.368 1.295.837 2.422 1.391 3.341A11.049 11.049 0 0 1 23.521 39zM32 57a1.001 1.001 0 0 1 0-2 1.001 1.001 0 0 1 0 2zM56 43c-3.859 0-7 3.14-7 7v4c0 3.86 3.141 7 7 7v-2c-2.757 0-5-2.243-5-5v-4c0-2.757 2.243-5 5-5s5 2.243 5 5v7a1.001 1.001 0 0 1-2 0v-7c0-1.654-1.346-3-3-3s-3 1.346-3 3v4c0 1.654 1.346 3 3 3 .352 0 .686-.072 1-.184V57c0 1.654 1.346 3 3 3s3-1.346 3-3v-7c0-3.86-3.141-7-7-7zm0 12c-.552 0-1-.449-1-1v-4a1.001 1.001 0 0 1 2 0v4c0 .551-.448 1-1 1z" fill="#000000" opacity="1" data-original="#000000" class=""></path><path d="M27 1H1v18h26zM15.586 11h-3.172l-8-8h19.172zm-5.199.801L3 16.234V4.414zM12.277 13h3.446l6.667 4H5.61zm5.336-1.199L25 4.414v11.82z" fill="#000000" opacity="1" data-original="#000000" class=""></path></g></svg>