<svg xmlns="http://www.w3.org/2000/svg" version="1.1" xmlns:xlink="http://www.w3.org/1999/xlink" width="512" height="512" x="0" y="0" viewBox="0 0 48 48" style="enable-background:new 0 0 512 512" xml:space="preserve" class=""><g><g data-name="Capacity Terabyte"><g fill="#424242"><path d="M12 18H8a1 1 0 0 0 0 2h1v7a1 1 0 0 0 2 0v-7h1a1 1 0 0 0 0-2zM18 18h-2a1 1 0 0 0-1 1v8a1 1 0 0 0 1 1h2a3 3 0 0 0 2.22-5A3 3 0 0 0 18 18zm0 8h-1v-2h1a1 1 0 0 1 0 2zm0-4h-1v-2h1a1 1 0 0 1 0 2z" fill="#f58c29" opacity="1" data-original="#424242" class=""></path><path d="M36.54 3.12h-.06A22.91 22.91 0 0 0 19.05.78 23 23 0 0 0 3.09 30H5.2A21 21 0 0 1 18.61 3c5.75 21.5 5.44 20.36 5.52 20.46.37.74-.61.54 21.83.54A20.84 20.84 0 0 1 34 42v2.18c17.42-7.39 18.92-31.52 2.54-41.06zM24 15.4 20.54 2.49A20.72 20.72 0 0 1 24 2.05zm2-13.35a20.83 20.83 0 0 1 8.61 2.3L26 19.27zm.73 20 9.61-16.7A21 21 0 0 1 46 22z" fill="#f58c29" opacity="1" data-original="#424242" class=""></path></g><path fill="#5cc640" d="M31 40H1a1 1 0 0 0-1 1v6a1 1 0 0 0 1 1h30a1 1 0 0 0 1-1v-6a1 1 0 0 0-1-1zm-19 5H4a1 1 0 0 1 0-2h8a1 1 0 0 1 0 2zm13-.8a1 1 0 1 1-.27-.91 1 1 0 0 1 .27.91zm4 0a1 1 0 1 1-.6-1.12 1 1 0 0 1 .6 1.12zM31 38a2.64 2.64 0 0 1 .74.1l-1.33-4.65A2 2 0 0 0 28.49 32h-25a2 2 0 0 0-1.92 1.45L.26 38.1C.79 37.94-.88 38 31 38z" opacity="1" data-original="#42a5f5" class=""></path></g></g></svg>