<svg xmlns="http://www.w3.org/2000/svg" version="1.1" xmlns:xlink="http://www.w3.org/1999/xlink" width="512" height="512" x="0" y="0" viewBox="0 0 64 64" style="enable-background:new 0 0 512 512" xml:space="preserve" class=""><g><g data-name="17-Digital signature"><path fill="#ffffff" d="M1 4h62v44H1z" opacity="1" data-original="#cdebfc" class=""></path><path fill="#ffffff" d="M45.322 28.639a19.944 19.944 0 0 1-9.493.687c-5.249-.7-10.286-2.5-15.485-3.506S9.5 24.687 4.825 27.165A19.226 19.226 0 0 0 1 29.919V48h62V19.274a16.36 16.36 0 0 0-5.244 1.478c-4.445 2.118-7.813 6.188-12.434 7.887z" opacity="1" data-original="#a7ddfa" class=""></path><path fill="#f6f6f6" d="M1 42h62v6H1z" opacity="1" data-original="#f6f6f6" class=""></path><path fill="#59af17" d="M1 42h62v2H1zM42 56H22l2-8h16z" opacity="1" data-original="#cdcdcd" class=""></path><rect width="28" height="4" x="18" y="56" fill="#f6f6f6" rx="1" opacity="1" data-original="#f6f6f6" class=""></rect><path fill="#ffffff" d="M40 48H24l-.5 2h17z" opacity="1" data-original="#999999" class=""></path><path fill="#ffffff" d="M7 15h12v10H7z" opacity="1" data-original="#ffc247" class=""></path><path fill="#ffffff" d="M16.185 15a11.462 11.462 0 0 1-.277 3.905 4.577 4.577 0 0 1-3.123 3.307 5.635 5.635 0 0 1-1.878.029C9.6 22.09 8.312 21.792 7 21.7V25h12V15z" opacity="1" data-original="#fc9942" class=""></path><path fill="#ffffff" d="m50 15-2 2-2 2-4-4 2-2 2-2zM28 37l-6 2 2-6z" opacity="1" data-original="#8687c9" class=""></path><path fill="#ffffff" d="M46 19 36 29h-3a2.006 2.006 0 0 0-2 2 1.955 1.955 0 0 0 .59 1.41 1.752 1.752 0 0 0 .46.35L32 33l-4 4-4-4 2-2 16-16z" opacity="1" data-original="#ffc247" class=""></path><path fill="#f58c29" d="M63 22v16h-8V22z" opacity="1" data-original="#95e8c8" class=""></path><path fill="#f58c29" d="M63 22v16h-4V22z" opacity="1" data-original="#06ccab" class=""></path><path fill="#ffbeaa" d="m36 29 10-10 2-2 7 7v12H42l-3-3h-6a2.028 2.028 0 0 1-.95-.24 1.752 1.752 0 0 1-.46-.35A1.955 1.955 0 0 1 31 31a2.006 2.006 0 0 1 2-2zM44 13l-2 2-16 16v-7l11-11z" opacity="1" data-original="#ffbeaa" class=""></path><path fill="#faa68e" d="m41 13-.5.5L26 28v3l16-16 2-2zM52 21v11.5h-8.5L42 31H31a1.955 1.955 0 0 0 .59 1.41 1.752 1.752 0 0 0 .46.35A2.028 2.028 0 0 0 33 33h6l3 3h13V24z" opacity="1" data-original="#faa68e" class=""></path><path fill="#faa68e" d="M48 27h-6l-2 2h-4l5-5h5a2 2 0 0 1 2 2z" opacity="1" data-original="#faa68e" class=""></path><path fill="#ffffff" d="m44 17 2 2 2-2 2-2-2-2zM22 39l6-2-2-2z" opacity="1" data-original="#626393" class=""></path><path fill="#ffffff" d="m26 35 2 2 4-4 .05-.24a1.752 1.752 0 0 1-.46-.35A1.955 1.955 0 0 1 31 31a2.006 2.006 0 0 1 2-2h3l10-10-2-2z" opacity="1" data-original="#fc9942" class=""></path><g fill="#252439"><path d="M63 3H1a1 1 0 0 0-1 1v44a1 1 0 0 0 1 1h21.719l-1.5 6H19a2 2 0 0 0-2 2v2a2 2 0 0 0 2 2h26a2 2 0 0 0 2-2v-2a2 2 0 0 0-2-2h-2.219l-1.5-6H63a1 1 0 0 0 1-1v-6a1 1 0 0 0-1-1H2V5h60v14h2V4a1 1 0 0 0-1-1zM45 59H19v-2h26zm-4.281-4H23.281l1.5-6h14.438zM62 43v4H2v-4z" fill="#252439" opacity="1" data-original="#252439" class=""></path><path d="M63 21h-8a.992.992 0 0 0-.93.655L49.414 17l1.293-1.293a1 1 0 0 0 0-1.414l-4-4a1 1 0 0 0-1.414 0L43.586 12H37a1 1 0 0 0-.707.293l-11 11A1 1 0 0 0 25 24v6.586l-1.707 1.707a.975.975 0 0 0-.232.394h-.01l-2 6A1 1 0 0 0 22 40a.987.987 0 0 0 .316-.052l6-2v-.009a.975.975 0 0 0 .394-.232l3.761-3.761A3.008 3.008 0 0 0 33 34h5.586l2.707 2.707A1 1 0 0 0 42 37h12v1a1 1 0 0 0 1 1h8a1 1 0 0 0 1-1V22a1 1 0 0 0-1-1zm-17-8.586L48.586 15 46 17.586 43.414 15zm-19 12L37.414 14h4.172L27 28.586zm-2.563 10.437 1.712 1.712-2.568.856zm3.563.735L25.414 33 42 16.414 44.586 19l-9 9H33a3 3 0 0 0-3 3 2.972 2.972 0 0 0 .692 1.894zM42.414 35l-2.707-2.707A1 1 0 0 0 39 32h-6a1 1 0 0 1 0-2h7a1 1 0 0 0 .707-.293L42.414 28H48v-2h-6a1 1 0 0 0-.707.293L39.586 28h-1.172L48 18.414l6 6V35zM62 37h-6V23h6zM20 15a1 1 0 0 0-1-1h-1v-2a5 5 0 0 0-10 0v2H7a1 1 0 0 0-1 1v10a1 1 0 0 0 1 1h12a1 1 0 0 0 1-1zm-10-3a3 3 0 0 1 6 0v2h-6zm8 12H8v-8h10z" fill="#252439" opacity="1" data-original="#252439" class=""></path><path d="M12 18h2v4h-2zM15.293 35.293 14 36.586l-2.293-2.293a1 1 0 0 0-1.414 0L7.586 37H6v2h2a1 1 0 0 0 .707-.293L11 36.414l2.293 2.293a1 1 0 0 0 1.414 0L16 37.414l1.293 1.293A1 1 0 0 0 18 39h2v-2h-1.586l-1.707-1.707a1 1 0 0 0-1.414 0zM6 28h14v2H6zM58 7h2v2h-2zM51 7h5v2h-5zM54 11h6v2h-6z" fill="#252439" opacity="1" data-original="#252439" class=""></path></g></g></g></svg>