<svg xmlns="http://www.w3.org/2000/svg" version="1.1" xmlns:xlink="http://www.w3.org/1999/xlink" width="512" height="512" x="0" y="0" viewBox="0 0 64 64" style="enable-background:new 0 0 512 512" xml:space="preserve" class=""><g><g data-name="Layer 28"><rect width="60" height="37" x="2" y="16" fill="#e2e7f6" rx="3" opacity="1" data-original="#e2e7f6"></rect><path fill="#f2f2f2" d="M5 16a3 3 0 0 0-3 3v26h53a3 3 0 0 0 3-3V16z" opacity="1" data-original="#f2f2f2"></path><path fill="#686868" d="m38 57-1-4H27l-1 4z" opacity="1" data-original="#686868"></path><path fill="#b5b5b5" d="M62 48v2a3 3 0 0 1-3 3H5a3 3 0 0 1-3-3v-2z" opacity="1" data-original="#b5b5b5"></path><circle cx="32" cy="23" r="3" fill="#ffffff" opacity="1" data-original="#fbe1ca" class=""></circle><path fill="#f58c29" d="M27 32v-1a5 5 0 0 1 5-5 5 5 0 0 1 5 5v1" opacity="1" data-original="#5e87ca" class=""></path><circle cx="32" cy="39" r="3" fill="#ffffff" opacity="1" data-original="#fbe1ca" class=""></circle><path fill="#f58c29" d="M27 48v-1a5 5 0 0 1 5-5 5 5 0 0 1 5 5v1" opacity="1" data-original="#5e87ca" class=""></path><circle cx="52" cy="39" r="3" fill="#ffffff" opacity="1" data-original="#fbe1ca" class=""></circle><path fill="#f58c29" d="M47 48v-1a5 5 0 0 1 5-5 5 5 0 0 1 5 5v1" opacity="1" data-original="#5e87ca" class=""></path><circle cx="12" cy="39" r="3" fill="#ffffff" opacity="1" data-original="#fbe1ca" class=""></circle><path fill="#f58c29" d="M7 48v-1a5 5 0 0 1 5-5 5 5 0 0 1 5 5v1" opacity="1" data-original="#5e87ca" class=""></path><circle cx="12" cy="23" r="3" fill="#ffffff" opacity="1" data-original="#fbe1ca" class=""></circle><path fill="#f58c29" d="M7 32v-1a5 5 0 0 1 5-5 5 5 0 0 1 5 5v1" opacity="1" data-original="#5e87ca" class=""></path><path fill="#b5b5b5" d="M23 57h18a2 2 0 0 1 2 2v3H21v-3a2 2 0 0 1 2-2z" opacity="1" data-original="#b5b5b5"></path><path fill="#cccccc" d="M40.057 58.5V57H23a2 2 0 0 0-2 2v.5h18.057a1 1 0 0 0 1-1z" opacity="1" data-original="#cccccc" class=""></path><path fill="#000000" d="M26.335 55.658H34.5a1 1 0 0 0 1-1V53H27z" opacity="1" data-original="#939393" class=""></path><path fill="#cccccc" d="M59 48H2v2a2.962 2.962 0 0 0 .184 1H58a1 1 0 0 0 1-1z" opacity="1" data-original="#cccccc" class=""></path><path fill="#000000" d="M62 31H43v-9.972h-2V31H23V16h-2v15H2v2h19v15h2V33h18v15h2V33h19z" opacity="1" data-original="#c8cded" class=""></path><path fill="#ffffff" d="M59 12c0-5.523-5.82-10-13-10S33 6.477 33 12c0 4.98 4.737 9.1 10.931 9.861L46 26l2.069-4.139C54.263 21.1 59 16.98 59 12z" opacity="1" data-original="#78a0d4" class=""></path><path fill="#ffffff" d="M46 2c-7.18 0-13 4.477-13 10a8.271 8.271 0 0 0 1.789 5.056A15.127 15.127 0 0 0 44 20c7.18 0 13-4.477 13-10a8.271 8.271 0 0 0-1.789-5.056A15.127 15.127 0 0 0 46 2z" opacity="1" data-original="#8cb4e0" class=""></path><g fill="#f2f2f2"><path d="M39 11h2v2h-2zM43 11h2v2h-2zM47 11h2v2h-2zM51 11h2v2h-2z" fill="#f2f2f2" opacity="1" data-original="#f2f2f2"></path></g><path d="M59.455 15.046A8.913 8.913 0 0 0 60 12c0-6.065-6.28-11-14-11S32 5.935 32 12a8.916 8.916 0 0 0 .527 3H5a4 4 0 0 0-4 4v31a4 4 0 0 0 4 4h20.719l-.5 2H23a3 3 0 0 0-3 3v3a1 1 0 0 0 1 1h22a1 1 0 0 0 1-1v-3a3 3 0 0 0-3-3h-2.219l-.5-2H59a4 4 0 0 0 4-4V19a3.992 3.992 0 0 0-3.545-3.954zM59 17a2 2 0 0 1 2 2v12H43v-8.272c.091.015.179.037.271.051l1.834 3.668a1 1 0 0 0 1.79 0l1.834-3.668A13.961 13.961 0 0 0 58.475 17zm-9 22a2 2 0 1 1 2 2 2 2 0 0 1-2-2zm2 4a4 4 0 0 1 4 4h-8a4 4 0 0 1 4-4zm2.893-1.253a4 4 0 1 0-5.786 0A6 6 0 0 0 46 47h-3V33h18v14h-3a6 6 0 0 0-3.107-5.253zM30 39a2 2 0 1 1 2 2 2 2 0 0 1-2-2zm2 4a4 4 0 0 1 4 4h-8a4 4 0 0 1 4-4zm2.893-1.253a4 4 0 1 0-5.786 0A6 6 0 0 0 26 47h-3V33h18v14h-3a6 6 0 0 0-3.107-5.253zM10 39a2 2 0 1 1 2 2 2 2 0 0 1-2-2zm2 4a4 4 0 0 1 4 4H8a4 4 0 0 1 4-4zm2.893-1.253a4 4 0 1 0-5.786 0A6 6 0 0 0 6 47H3V33h18v14h-3a6 6 0 0 0-3.107-5.253zM10 23a2 2 0 1 1 2 2 2 2 0 0 1-2-2zm2 4a4 4 0 0 1 4 4H8a4 4 0 0 1 4-4zm18-4a2 2 0 1 1 2 2 2 2 0 0 1-2-2zm2 4a4 4 0 0 1 4 4h-8a4 4 0 0 1 4-4zM46 3c6.617 0 12 4.037 12 9 0 4.349-4.322 8.161-10.053 8.869a1 1 0 0 0-.772.545L46 23.764l-1.175-2.35a1 1 0 0 0-.772-.545C38.322 20.161 34 16.349 34 12c0-4.963 5.383-9 12-9zm-5 19.269V31h-3a6 6 0 0 0-3.107-5.253 4 4 0 1 0-5.786 0A6 6 0 0 0 26 31h-3V17h10.525A13.253 13.253 0 0 0 41 22.269zM5 17h16v14h-3a6 6 0 0 0-3.107-5.253 4 4 0 1 0-5.786 0A6 6 0 0 0 6 31H3V19a2 2 0 0 1 2-2zm37 42v2H22v-2a1 1 0 0 1 1-1h18a1 1 0 0 1 1 1zm-5.281-3h-9.438l.5-2h8.438zM59 52H5a2 2 0 0 1-2-2v-1h58v1a2 2 0 0 1-2 2z" fill="#000000" opacity="1" data-original="#000000" class=""></path><path d="M39 11h2v2h-2zM43 11h2v2h-2zM47 11h2v2h-2zM51 11h2v2h-2z" fill="#000000" opacity="1" data-original="#000000" class=""></path></g></g></svg>