<svg data-name="Layer 1" viewBox="0 0 64 64" xmlns="http://www.w3.org/2000/svg"><path d="M40 28H24a1 1 0 0 0-1 1v12a1 1 0 0 0 1 1h16a1 1 0 0 0 1-1V29a1 1 0 0 0-1-1Zm-15 2h2v2h-2Zm10 11h-9a1 1 0 0 1-1-1v-6h2v5h8Zm4 0h-2v-2h2Zm0-4h-2v-5h-8v-2h9a1 1 0 0 1 1 1Z" fill="#59af17" class="fill-000000"></path><path d="M45 44V26a2 2 0 0 0-2-2H21a2 2 0 0 0-2 2v18a2 2 0 0 0 2 2h22a2 2 0 0 0 2-2Zm-5 0H24a3 3 0 0 1-3-3V29a3 3 0 0 1 3-3h16a3 3 0 0 1 3 3v12a3 3 0 0 1-3 3ZM62 57H35.858A4 4 0 0 0 33 54.142V47h-2v7.142A4 4 0 0 0 28.142 57H2v2h26.142a3.981 3.981 0 0 0 7.716 0H62Zm-30 3a2 2 0 1 1 2-2 2 2 0 0 1-2 2Z" fill="#59af17" class="fill-000000"></path><path d="M21 47h2v4h-2zM25 47h2v4h-2zM37 47h2v4h-2zM41 47h2v4h-2zM9 31h5v1h4v-2h-1v-2h1v-2h-1a4 4 0 0 1 4-4v-3h2v3h2v-3h2v3h2v-3h2v3h2v-3h2v3h2v-3h2v3h2v-3h2v3a4 4 0 0 1 4 4h-1v2h1v2h-1v2h4v-1a10 10 0 0 0 0-20h-.61a1 1 0 0 1-.943-.667 9.486 9.486 0 0 0-17.573-.794 1 1 0 0 1-1.619.285A9.5 9.5 0 0 0 13 16.5V20a1 1 0 0 1-1 1H9a5 5 0 0 0 0 10Zm47-7h-2v-2h2Zm-6-10a6.006 6.006 0 0 1 6 6h-2a4 4 0 0 0-4-4ZM46 34h4v2h-4zM46 38h4v2h-4zM46 42h4v2h-4zM14 34h4v2h-4zM14 38h4v2h-4zM14 42h4v2h-4z" fill="#59af17" class="fill-000000"></path></svg>