<svg viewBox="0 0 64 64" xml:space="preserve" xmlns="http://www.w3.org/2000/svg" enable-background="new 0 0 64 64"><path d="m20.024 27.396 8.333 7.354 1.324-1.5-8.334-7.354A3.864 3.864 0 0 1 20.04 23h-2c0 1.682.724 3.284 1.984 4.396z" fill="#59af17" class="fill-000000"></path><path d="m17.378 30.396 14.663 12.938 14.634-12.956a9.873 9.873 0 0 0 3.324-7.338l.001-.131a9.795 9.795 0 0 0-2.873-7.004 9.915 9.915 0 0 0-1.127-.96v-3.721l-2.893-.739-.061-.146 1.523-2.567-5.34-5.342-2.567 1.523-.146-.061L35.776 1h-7.553l-.739 2.893-.146.061-2.567-1.524-5.341 5.341 1.523 2.567-.061.146-2.892.74v3.757c-2.399 1.801-3.96 4.66-3.96 7.883V23a9.868 9.868 0 0 0 3.338 7.396zM20 12.776l2.407-.614.179-.504c.114-.326.247-.644.395-.953l.23-.481-1.268-2.137 3.144-3.144 2.137 1.268.481-.23c.31-.147.627-.28.953-.395l.504-.179L29.776 3h4.447l.614 2.407.504.179c.326.114.644.247.953.395l.481.23 2.137-1.268 3.144 3.144-1.268 2.137.23.481c.147.31.28.627.395.953l.179.504 2.408.614v1.01A9.848 9.848 0 0 0 40.136 13c-.131 0-.261.011-.391.017C38.853 9.529 35.681 7 32 7c-3.678 0-6.852 2.529-7.744 6.015-.118-.004-.234-.015-.352-.015a9.812 9.812 0 0 0-3.904.809v-1.033zm10.013 2.339C30.01 15.076 30 15.039 30 15c0-1.103.897-2 2-2s2 .897 2 2c0 .052-.014.103-.018.155l-1.967 1.565-1.914-1.54c-.029-.023-.06-.043-.088-.065zm5.841-1.127C35.403 12.274 33.854 11 32 11c-1.846 0-3.388 1.263-3.847 2.966a9.89 9.89 0 0 0-1.892-.675C27.005 10.792 29.32 9 32 9c2.685 0 5.001 1.796 5.743 4.299-.652.164-1.283.398-1.889.689zM16.04 22.864c0-4.336 3.528-7.864 7.876-7.864 1.788 0 3.539.617 4.931 1.738l3.16 2.542 3.234-2.571A7.89 7.89 0 0 1 40.136 15c2.107 0 4.087.822 5.574 2.316a7.81 7.81 0 0 1 2.29 5.58l-.001.133a7.877 7.877 0 0 1-2.65 5.852l-13.31 11.784-13.338-11.769A7.866 7.866 0 0 1 16.04 23v-.136z" fill="#59af17" class="fill-000000"></path><path d="M59.879 34c-.822 0-1.626.333-2.207.914L51.586 41h-3.384l1.274-1.911A3.12 3.12 0 0 0 50 37.357v-.236C50 35.4 48.6 34 46.879 34c-.822 0-1.626.333-2.207.914l-9.621 9.621A6.955 6.955 0 0 0 33 49.485V55h-2v-5.515c0-1.87-.729-3.628-2.051-4.95l-9.621-9.621A3.142 3.142 0 0 0 17.121 34 3.124 3.124 0 0 0 14 37.121v.236c0 .618.182 1.217.524 1.731L15.798 41h-3.384l-6.086-6.086A3.142 3.142 0 0 0 4.121 34 3.124 3.124 0 0 0 1 37.121v.236c0 .618.182 1.217.524 1.731l5.862 8.794A6.987 6.987 0 0 0 13.211 51H19a1 1 0 0 1 1 1v3h-2v8h28v-8h-2v-3a1 1 0 0 1 1-1h5.789a6.987 6.987 0 0 0 5.824-3.117l5.862-8.794A3.113 3.113 0 0 0 63 37.357v-.236C63 35.4 61.6 34 59.879 34zM19 49h-5.789a4.99 4.99 0 0 1-4.16-2.227l-5.862-8.794A1.11 1.11 0 0 1 3 37.357v-.236a1.122 1.122 0 0 1 1.914-.793L11.586 43h5.546l1.036 1.555 1.664-1.109-3.644-5.466a1.123 1.123 0 0 1-.188-.623v-.236a1.122 1.122 0 0 1 1.914-.793l9.621 9.621A4.969 4.969 0 0 1 29 49.485V55h-7v-3c0-1.654-1.346-3-3-3zm12 12H20v-4h11v4zm13 0H33v-4h11v4zm17-23.643c0 .222-.065.438-.188.622l-5.862 8.794A4.991 4.991 0 0 1 50.789 49H45c-1.654 0-3 1.346-3 3v3h-7v-5.515c0-1.336.521-2.592 1.465-3.536l9.621-9.621a1.122 1.122 0 0 1 1.914.793v.236c0 .222-.065.438-.188.622l-3.644 5.466 1.664 1.109L46.868 43h5.546l6.672-6.672a1.122 1.122 0 0 1 1.914.793v.236z" fill="#59af17" class="fill-000000"></path></svg>