<svg data-name="Layer 1" viewBox="0 0 32 32" xmlns="http://www.w3.org/2000/svg"><path d="M22 14a8 8 0 1 0 8 8 8.01 8.01 0 0 0-8-8Zm5.91 7h-1.954a12.03 12.03 0 0 0-1.218-4.332A6.01 6.01 0 0 1 27.91 21Zm-7.854 0A10.014 10.014 0 0 1 22 16.015 10.012 10.012 0 0 1 23.945 21Zm3.89 2A10.01 10.01 0 0 1 22 27.985 10.012 10.012 0 0 1 20.055 23Zm-4.684-6.332A12.027 12.027 0 0 0 18.044 21H16.09a6.01 6.01 0 0 1 3.172-4.332ZM16.09 23h1.953a12.027 12.027 0 0 0 1.218 4.332A6.01 6.01 0 0 1 16.09 23Zm8.648 4.332A12.024 12.024 0 0 0 25.956 23h1.954a6.009 6.009 0 0 1-3.172 4.332ZM6 14h6v2H6zM6 6h12v2H6zM6 10h12v2H6zM6 24h6v2H6z" fill="#59af17" class="fill-000000"></path><path d="M12 30H4a2.002 2.002 0 0 1-2-2V4a2.002 2.002 0 0 1 2-2h16a2.002 2.002 0 0 1 2 2v8h-2V4H4v24h8Z" fill="#59af17" class="fill-000000"></path><path data-name="<Transparent Rectangle>" d="M0 0h32v32H0z" fill="none"></path></svg>