<svg viewBox="0 0 32 32" xmlns="http://www.w3.org/2000/svg"><path d="M25.798 10a10 10 0 0 0-19.62.124A7.496 7.496 0 0 0 7.5 25H8v-2h-.5a5.496 5.496 0 0 1-.377-10.98l.837-.057.09-.833A7.993 7.993 0 0 1 23.736 10Z" fill="#59af17" class="fill-000000"></path><path d="M28 12H18a2.002 2.002 0 0 0-2 2v4h-4a2.002 2.002 0 0 0-2 2v10h20V14a2.002 2.002 0 0 0-2-2ZM12 28v-8h4v8Zm16 0H18V14h10Z" fill="#59af17" class="fill-000000"></path><path d="M20 16h2v4h-2zM24 16h2v4h-2zM20 22h2v4h-2zM24 22h2v4h-2z" fill="#59af17" class="fill-000000"></path><path data-name="<Transparent Rectangle>" d="M0 0h32v32H0z" fill="none"></path></svg>