<svg xmlns="http://www.w3.org/2000/svg" version="1.1" xmlns:xlink="http://www.w3.org/1999/xlink" width="512" height="512" x="0" y="0" viewBox="0 0 74 74" style="enable-background:new 0 0 512 512" xml:space="preserve" class=""><g><path d="M62.337 69.086H12.413a3.778 3.778 0 0 1-3.774-3.774V58.7a1 1 0 0 1 1-1h55.472a1 1 0 0 1 1 1v6.611a3.778 3.778 0 0 1-3.774 3.775zM10.639 59.7v5.611a1.776 1.776 0 0 0 1.774 1.774h49.924a1.776 1.776 0 0 0 1.774-1.774V59.7zM31.417 28.006h-4.8a1 1 0 0 1-1-1v-2.843a2.522 2.522 0 0 1 2.52-2.521H29.9a2.523 2.523 0 0 1 2.521 2.521v2.843a1 1 0 0 1-1.004 1zm-3.8-2h2.8v-1.843a.521.521 0 0 0-.521-.521h-1.754a.52.52 0 0 0-.52.521zM48.128 28.006h-4.8a1 1 0 0 1-1-1v-2.843a2.523 2.523 0 0 1 2.521-2.521h1.754a2.522 2.522 0 0 1 2.52 2.521v2.843a1 1 0 0 1-.995 1zm-3.8-2h2.8v-1.843a.52.52 0 0 0-.52-.521h-1.754a.521.521 0 0 0-.521.521zM70.567 30.005a.981.981 0 0 1-.233-.027l-15.082-3.6a1 1 0 1 1 .465-1.945l15.082 3.6a1 1 0 0 1-.232 1.972z" fill="#5CC640" opacity="1" data-original="#000000"></path><path d="M6.844 34.671a3.351 3.351 0 0 1-3.325-2.9l-1.061-7.846a9.337 9.337 0 0 1 5.108-9.593C18.222 9.014 29.657 7.9 37.375 7.9c7.74 0 19.2 1.115 29.818 6.429a9.339 9.339 0 0 1 5.1 9.589l-1.062 7.85a3.352 3.352 0 0 1-4.1 2.812l-10.544-2.519a3.364 3.364 0 0 1-2.555-3.614l.6-5.7a2.125 2.125 0 0 0-1.667-2.289 71 71 0 0 0-31.138 0 2.126 2.126 0 0 0-1.666 2.289l.6 5.706a3.363 3.363 0 0 1-2.558 3.614L7.619 34.581a3.341 3.341 0 0 1-.775.09zM37.375 9.9c-7.5 0-18.609 1.08-28.916 6.223a7.336 7.336 0 0 0-4.018 7.536L5.5 31.5a1.352 1.352 0 0 0 1.655 1.135l10.588-2.521a1.357 1.357 0 0 0 1.032-1.458l-.6-5.706a4.127 4.127 0 0 1 3.218-4.45 73 73 0 0 1 32.008 0 4.126 4.126 0 0 1 3.222 4.452l-.6 5.7a1.356 1.356 0 0 0 1.031 1.458l10.541 2.518a1.353 1.353 0 0 0 1.653-1.128l1.061-7.85a7.334 7.334 0 0 0-4.009-7.534C56.026 10.977 44.9 9.9 37.375 9.9z" fill="#5CC640" opacity="1" data-original="#000000"></path><path d="M4.181 30.005a1 1 0 0 1-.231-1.972L19.2 24.39a1 1 0 1 1 .465 1.945l-15.25 3.643a1 1 0 0 1-.234.027zM65.111 59.7H9.639a1 1 0 0 1-1-1v-9.548a6.631 6.631 0 0 1 3.615-5.925A18.1 18.1 0 0 0 22.13 29.58a4.127 4.127 0 0 1 4.1-3.58h22.288a4.127 4.127 0 0 1 4.1 3.58A18.1 18.1 0 0 0 62.5 43.227a6.631 6.631 0 0 1 3.615 5.925V58.7a1 1 0 0 1-1.004 1zm-54.472-2h53.472v-8.548a4.616 4.616 0 0 0-2.5-4.133A20.1 20.1 0 0 1 50.64 29.864 2.14 2.14 0 0 0 48.518 28H26.232a2.14 2.14 0 0 0-2.122 1.864 20.1 20.1 0 0 1-10.967 15.155 4.616 4.616 0 0 0-2.5 4.133z" fill="#5CC640" opacity="1" data-original="#000000"></path><path d="M37.375 54.694A11.145 11.145 0 1 1 48.52 43.549a11.157 11.157 0 0 1-11.145 11.145zm0-20.29a9.145 9.145 0 1 0 9.145 9.145 9.156 9.156 0 0 0-9.145-9.149z" fill="#5CC640" opacity="1" data-original="#000000"></path><path d="M37.375 38.452a1 1 0 0 1-1-1v-.62a1 1 0 1 1 2 0v.62a1 1 0 0 1-1 1zM33.063 40.237a1 1 0 0 1-.706-.292l-.439-.438a1 1 0 1 1 1.414-1.415l.438.438a1 1 0 0 1-.707 1.707zM31.277 44.549h-.619a1 1 0 1 1 0-2h.619a1 1 0 0 1 0 2zM32.625 49.3a1 1 0 0 1-.707-1.708l.439-.438a1 1 0 0 1 1.413 1.415l-.438.438a1 1 0 0 1-.707.293zM37.375 51.267a1 1 0 0 1-1-1v-.62a1 1 0 1 1 2 0v.62a1 1 0 0 1-1 1zM42.125 49.3a1 1 0 0 1-.707-.293l-.438-.438a1 1 0 1 1 1.413-1.415l.439.438a1 1 0 0 1-.707 1.708zM44.092 44.549h-.619a1 1 0 0 1 0-2h.619a1 1 0 0 1 0 2zM41.687 40.237a1 1 0 0 1-.707-1.707l.438-.438a1 1 0 1 1 1.414 1.415l-.439.438a1 1 0 0 1-.706.292z" fill="#5CC640" opacity="1" data-original="#000000"></path></g></svg>